<svg xmlns="http://www.w3.org/2000/svg" xmlns:xlink="http://www.w3.org/1999/xlink" width="64" height="64"><path fill="#9CDAF1" d="M49.608 52.727c0 3.356-7.777 6.078-17.366 6.078-9.592 0-17.366-2.722-17.366-6.078s7.774-6.077 17.366-6.077c9.589-.001 17.366 2.72 17.366 6.077zm0 0"/><defs><path id="a" d="M49.608 52.727c0 3.356-7.777 6.078-17.366 6.078-9.592 0-17.366-2.722-17.366-6.078s7.774-6.077 17.366-6.077c9.589-.001 17.366 2.72 17.366 6.077zm0 0"/></defs><clipPath id="b"><use xlink:href="#a" overflow="visible"/></clipPath><path clip-path="url(#b)" fill="#7DBBE6" d="M36.977 69.682c1.389-.428 3.44-1.55 3.44-4.468l-1.01-10.998s.153-1.852 1.852-2.468c0 0 1.003-.695-.077-1.081 0 0-4.706-.387-4.706 3.473 0 0 .808 9.327.608 10.324-.166.833-1.084 1.75-1.535 1.056.701-2.056 0-9.297 0-9.297s.076-2.238 1.234-3.087c0 0 .772-1.39-.925-1.004 0 0-3.241.464-3.396 4.244 0 0 1.121 5.255-.074 9.492-.053.188-.714.184-.778 0-1.277-3.654-.074-9.492-.074-9.492-.154-3.78-3.395-4.244-3.395-4.244-1.698-.386-.926 1.004-.926 1.004 1.157.849 1.234 3.087 1.234 3.087s-.533 5.991 0 9.379c-.783.029-1.385-1.524-1.367-2.721.017-1.067.441-8.741.441-8.741 0-3.859-4.707-3.473-4.707-3.473-1.081.386-.078 1.081-.078 1.081 1.698.616 1.853 2.468 1.853 2.468s-.982 10.038-.758 11.498c.333 2.167 2.132 3.652 3.207 3.979 2.377.724 7.563.719 9.937-.011z"/><path d="M14.448 44.837c-1.94-3.178 1.338-5.466 4.027-6.27 1.335-.399 2.715-.014 3.909.608 1.115.581 1.539 1.752 2.641 2.308.778.392 1.507-.106 1.604-.921.238-1.984-2.07-3.558-3.704-4.217-2.16-.872-4.212-.822-6.365.031-3.582 1.421-6.453 6.033-2.813 9.002.373.305.983-.079.701-.541z"/><path d="M27.04 34.438c-1.074.327-2.874 1.813-3.207 3.979-.224 1.46.758 8.798.758 8.798s-.154 1.852-1.853 2.468c0 0-1.003.695.078 1.081 0 0 4.707.387 4.707-3.473 0 0-.424-4.974-.441-6.041-.019-1.196.583-2.75 1.367-2.721-.533 3.388 0 9.379 0 9.379s-.077 2.238-1.234 3.087c0 0-.772 1.39.926 1.004 0 0 3.24-.464 3.395-4.244 0 0-1.203-5.838.074-9.492.064-.184.726-.188.778 0 1.195 4.237.074 9.492.074 9.492.154 3.78 3.396 4.244 3.396 4.244 1.697.386.925-1.004.925-1.004-1.158-.849-1.234-3.087-1.234-3.087s.701-7.241 0-9.297c.451-.694 1.369.223 1.535 1.056.199.997-.608 7.624-.608 7.624 0 3.859 4.706 3.473 4.706 3.473 1.08-.386.077-1.081.077-1.081-1.698-.616-1.852-2.468-1.852-2.468l1.01-8.298c0-2.918-2.052-4.04-3.44-4.468-2.374-.73-7.56-.735-9.937-.011z"/><path d="M12.86 40.867c.183.061.26.322.175.586-.086.263-.305.429-.487.369-.184-.061-.26-.323-.175-.586.087-.262.305-.428.487-.369zm.716-1.355c.17.09.205.361.075.606-.128.245-.371.372-.54.284-.169-.089-.205-.36-.076-.606.129-.245.371-.372.541-.284zm1.162-1.223c.125.145.058.41-.151.592-.209.181-.481.209-.606.064s-.059-.409.15-.59.481-.21.607-.066zm1.517-1.051c.075.175-.071.406-.325.514-.256.108-.523.054-.598-.123-.075-.178.071-.408.326-.517.254-.107.522-.052.597.126zm1.824-.561c.027.189-.173.376-.448.414-.273.039-.519-.084-.545-.273-.027-.19.175-.376.449-.415.274-.039.517.083.544.274zm1.559-.003c0 .192-.226.348-.502.348-.277 0-.502-.155-.502-.348 0-.191.225-.347.502-.347s.502.155.502.347zm1.62.076c0 .191-.225.347-.501.347-.278 0-.503-.155-.503-.347 0-.192.225-.348.503-.348.277 0 .501.156.501.348zm1.488.313c0 .191-.225.347-.501.347-.278 0-.503-.155-.503-.347 0-.192.225-.348.503-.348.276 0 .501.155.501.348zm1.387.459c0 .192-.225.349-.501.349-.278 0-.502-.156-.502-.349 0-.191.224-.348.502-.348.276.001.501.157.501.348zm0 0" fill="#C3E4D8"/><path d="M36.977 34.449c7.006-.695 10.369-2.958 11.919-6.473 3.068.084 8.49-.098 13.773 1.393l.062-.222c-5.253-1.481-10.639-1.31-13.737-1.399.146-.355.274-.724.389-1.104 3.141-.134 8.292-.688 13.406.334l.046-.228c-5.095-1.019-10.221-.473-13.384-.341.52-1.872.675-4.026.675-6.428 0-3.445-1.293-6.201-3.395-8.299.367-1.185.701-3.979-.646-7.349 0 0-2.221-.593-7.598 3.006-2.107-.527-4.349-.786-6.593-.786-2.47 0-4.966.314-7.294.953C19.051 3.72 16.917 4.5 16.917 4.5c-1.599 3.998-.927 6.954-.626 7.689-1.879 2.028-3.026 4.618-3.026 7.792 0 2.396.272 4.546.938 6.414-3.189-.116-8.17-.605-13.082.377l.046.228c4.941-.989 9.954-.49 13.123-.37.147.387.311.763.494 1.125-3.135.101-8.431-.033-13.562 1.415l.063.222c5.17-1.458 10.514-1.314 13.618-1.409 1.873 3.492 5.565 5.746 12.136 6.455m35.749-7.46"/><path fill="#F4CBB2" d="M43.271 19.818c1.509 1.367 2.392 3.018 2.392 4.797 0 8.306-6.19 8.53-13.827 8.53-7.638 0-13.828-1.15-13.828-8.53 0-1.767.87-3.408 2.361-4.77 2.486-2.269 6.693-1.067 11.467-1.067 4.755 0 8.946-1.214 11.435 1.04zm0 0"/><path fill="#FFF" d="M27.237 25.039c0 2.288-1.288 4.142-2.876 4.142-1.59 0-2.879-1.854-2.879-4.142 0-2.287 1.289-4.141 2.879-4.141 1.588 0 2.876 1.853 2.876 4.141zm0 0"/><path fill="#AD5B50" d="M26.314 25.09c0 1.525-.859 2.761-1.918 2.761-1.06 0-1.918-1.236-1.918-2.761 0-1.525.858-2.762 1.918-2.762 1.059.001 1.918 1.237 1.918 2.762zm0 0"/><path fill="#FFF" d="M42.674 25.039c0 2.288-1.288 4.142-2.878 4.142-1.589 0-2.877-1.854-2.877-4.142 0-2.287 1.288-4.141 2.877-4.141 1.59 0 2.878 1.853 2.878 4.141zm0 0"/><path fill="#AD5B50" d="M41.751 25.09c0 1.525-.859 2.761-1.919 2.761s-1.919-1.236-1.919-2.761c0-1.525.859-2.762 1.919-2.762s1.919 1.237 1.919 2.762zm-9.154 3.627a.72.72 0 11-1.44 0 .72.72 0 011.44 0zM30.2 30.536a.232.232 0 01.436-.154c.186.523.682.874 1.234.874.554 0 1.05-.351 1.235-.874a.23.23 0 01.295-.141.23.23 0 01.141.295 1.776 1.776 0 01-1.671 1.182 1.777 1.777 0 01-1.67-1.182zm0 0"/></svg>