<svg xmlns="http://www.w3.org/2000/svg" width="480" height="315"><path fill="#F0F0F0" d="M442.73 313.984l37.235-19.66v-1.922l-443.111.048L.035 312.026l.012 1.958z"/><path fill="#BCBCBC" d="M36.981 292.202L.047 311.984H442.73l37.235-19.457z"/><path fill="#A0A0A0" d="M315.552 175.542l.118-174.514-117 .011-.118 174.738-161.724-.005.012 116.761 443.125-.006v-117z"/><path fill="#F0F0F0" d="M163.51 199.05l-163.463.047.008-1.961 36.799-19.573 163.181-1.073zm149.027-22.762l167.428-.767v1.975l-37.235 21.601H276.475l-.012-1.941z"/><path fill="#E2E2E2" d="M200.249 175.608l-163.395-.045L.047 197.097h162.996zm115.433-.061l164.199-.021-37.151 21.571-164.236.028z"/><path fill="#F0F0F0" d="M198.635 175.926l-35.155 21.235-2.046-.054.015-176.181 37.186-19.895 2.004-.015z"/><path fill="#CECECE" d="M200.635 177.281l-37.203 21.86.017-178.215 37.186-19.895z"/><path fill="#F0F0F0" d="M313.67 176.045l2.023-174.99-2.023-.024-37.186 19.895-.005 176.245 2.07-.046z"/><path fill="#CECECE" d="M315.682 175.531l-.012-174.5-37.186 19.895-.005 176.245z"/></svg>