<svg xmlns="http://www.w3.org/2000/svg" width="320" height="490"><path fill="#A0A0A0" d="M318.494 175.221l-162.807-.008.008-173.828-117 .011-.022 467.452 117-.032.009-176.61 162.802-.001z"/><path fill="#F0F0F0" d="M153.695 290.092v178.545l-35.184 19.857h-1.985l-.021-176.887zM38.659 177.248L40.62 1.385l-1.961.004L1.474 21.283v292.356l.01 174.8 2.064.014 35.111-18.611V292.154z"/><path fill="#CECECE" d="M40.659 177.248V1.389L3.474 21.283v290.356l.001 176.875 37.184-19.672V290.154z"/><path fill="#F0F0F0" d="M116.45 198.77h164.911l37.151-21.571-.03-1.957-164.775 1.971z"/><path fill="#F0F0F0" d="M153.695 177.246L155.667 1.4l-1.972-.011-37.185 19.894-.003 177.44z"/><path fill="#CECECE" d="M155.695 175.246V1.389L118.51 21.283l-.003 175.44z"/><path fill="#E2E2E2" d="M118.45 196.77h162.911l37.151-21.571-162.805.014z"/><path fill="#CECECE" d="M155.695 291.092v177.545l-37.192 19.978.002-176.008z"/><path fill="#F0F0F0" d="M116.462 313.658h164.899l37.151-21.57.014-2-164.845 2.014z"/><path fill="#BCBCBC" d="M116.462 311.658h164.899l37.151-21.57-164.831.014z"/></svg>