<svg xmlns="http://www.w3.org/2000/svg" width="490" height="430"><path fill="#A0A0A0" d="M484.918 121.742l.016-116.984-443.035-.014.011 117 156.634-.001-.022 165.074-156.692-.004.013 117 443.007-.002.015-116.985-169.343-.005.023-165.078z"/><path fill="#F0F0F0" d="M447.732 425.264l37.151-21.571.004-1.984-443.032 2.021-36.767 19.624-.039 1.91z"/><path fill="#BCBCBC" d="M41.855 401.73L5.049 423.264h442.683l37.151-21.571z"/><path fill="#F0F0F0" d="M447.801 28.307l37.15-21.571.025-2L41.924 6.773 5.108 26.326l.008 1.981z"/><path fill="#E2E2E2" d="M41.924 4.773L5.116 26.307h442.685l37.15-21.571z"/><path fill="#F0F0F0" d="M276.359 141.283l37.186-21.691v170.545l-37.193 20.176z"/><path fill="#CECECE" d="M315.545 288.512l-37.193 19.978.007-166.334 37.186-21.439z"/><path fill="#F0F0F0" d="M198.499 121.648l-156.575.012-36.873 19.631.065 1.904h156.383l37.01-21.933m114.865.377l171.571-2.002.006 1.988-37.15 21.57H276.624z"/><path fill="#BCBCBC" d="M276.374 141.195h171.427l37.15-21.57-171.452.014z"/><path fill="#F0F0F0" d="M200.706 288.83l-158.851.012-36.831 19.57.025 1.965h158.294zm113.002-.01l171.181-1.994-.006 1.981-37.151 21.57H276.264z"/><path fill="#E2E2E2" d="M200.206 286.83l-158.351.012-36.806 21.535h158.492zm78.168 21.547h169.358l37.151-21.57-169.176.013z"/><path fill="#F0F0F0" d="M198.509 120.262l-37.186 22.08.001 168.047 37.185-19.672z"/><path fill="#CECECE" d="M200.509 119.592l-37.186 21.564.001 169.233 37.185-19.672z"/><path fill="#BCBCBC" d="M200.624 119.648l-158.746-.033-36.762 21.58h158.258z"/><path fill="#E2E2E2" d="M484.951 119.625l-37.15 21.57v2l37.15-21.57z"/></svg>