<svg xmlns="http://www.w3.org/2000/svg" width="485" height="370"><path fill="#A0A0A0" d="M484.438 115.932H300.824L194.598 18.205l.962-16.857H38.631L37.669 351.9h146.754l101.411-97.498 93.715-23.496h104.889z"/><path fill="#F0F0F0" d="M165.906 24.636l37.13-21.558L203 1.091 37.296 3.114.519 22.683l-.01 1.953z"/><path fill="#E2E2E2" d="M37.296 1.115L.509 22.637h165.397l37.13-21.558z"/><path fill="#F0F0F0" d="M165.906 139.46l37.13-21.558-.001-1.996-165.739 2.032L.5 137.496l.009 1.964z"/><path fill="#CECECE" d="M37.296 115.939L.509 137.461h165.397l37.13-21.558z"/><path fill="#F0F0F0" d="M165.906 254.098l37.13-21.559-.036-1.986-165.704 2.021L.519 252.145l-.01 1.953z"/><path fill="#E2E2E2" d="M37.296 230.576L.509 252.098h165.397l37.13-21.559z"/><path fill="#F0F0F0" d="M165.906 368.922l37.13-21.559-.001-1.996-165.739 2.031L.5 366.957l.009 1.965z"/><path fill="#BCBCBC" d="M37.296 345.4L.509 366.922h165.397l37.13-21.559z"/><path fill="#969696" d="M203.214 347.219l115.597-116.563-36.777 21.516-115.95 116.605z"/><path fill="#F0F0F0" d="M447.381 139.38l37.119-21.55-.036-1.987-165.653 2.022-36.767 19.563-.01 1.952z"/><path fill="#E2E2E2" d="M318.811 115.867l-36.777 21.515h165.347l37.119-21.551z"/><path fill="#F0F0F0" d="M447.381 254.17l37.119-21.553-.001-1.994-165.688 2.031-36.785 19.551.008 1.965z"/><path fill="#BCBCBC" d="M318.811 230.656l-36.777 21.516h165.347l37.119-21.553z"/><path fill="#D6D6D6" d="M282.07 137.394L165.906 22.637l37.13-21.558 115.775 114.788z"/><path fill="#F0F0F0" d="M281.588 251.907l1.405 1.424L166.06 368.653l-1.405-1.424zM166.03 22.693L283.029 137.95l-1.404 1.426L164.626 24.119z"/></svg>