<svg width="318" height="313" xmlns="http://www.w3.org/2000/svg"><g fill="none"><path fill="#A0A0A0" d="M10.073 114.778V.159h270.666v115.072H117.493l.119 175.672-117 .127-.119-176.252z"/><path fill="#F0F0F0" d="M2.493 289.794L.47.114 2.493.091l37.186 21.894.006 290.936-2.071-2.047zm115.035-.119l35.17 21.181h2.031l-.015-174.181-37.109-21.461-2.003-.016z"/><path fill="#F0F0F0" d="M37.835 23.649L.685 2.079V.104l280.027 2.012 36.799 19.572.008 1.961z"/><path fill="#E2E2E2" d="M280.712.116l36.807 21.533H37.646L.685.079z"/><path fill="#F0F0F0" d="M118.274 116.267l162.438.736 36.818 19.576-.011 1.959H152.733z"/><path fill="#BCBCBC" d="M115.489 114.989l165.223.014 36.807 21.535-165.043.199z"/><path fill="#CECECE" d="M115.528 291.03l37.203 19.854-.09-174.03-37.186-21.895zm-115.041 0L.493.091l37.186 21.51.006 291.32z"/></g></svg>