<svg xmlns="http://www.w3.org/2000/svg" width="490" height="500"><path fill="#F0F0F0" d="M206.649 297.287l-165.258.014L4.61 316.87l-.027 1.965h164.801z"/><path fill="#A0A0A0" d="M484.4 180.397l-.015 116.985-443.007.002-.011-117"/><path fill="#F0F0F0" d="M204.566 297.332V475.02l-35.03 18.673-2.155-1.002-.001-173.875z"/><path fill="#A0A0A0" d="M321.58 473.994l-117 .031.022-467.453 117-.01"/><path fill="#CECECE" d="M206.566 295.332V474.02l-37.185 19.671-.001-176.875z"/><path fill="#BCBCBC" d="M206.649 295.287l-165.258.014-36.808 21.534h164.801z"/><path fill="#F0F0F0" d="M319.602 295.375v178.439l-35.12 19.95-2.074.029.004-176.902zM206.619 182.399l-165.228.014L4.57 201.99l.013 1.957h164.77z"/><path fill="#E2E2E2" d="M206.619 180.399l-165.25-.028-36.786 21.576h164.77z"/><path fill="#F0F0F0" d="M204.566 182.426l1.957-175.831-1.957-.031-37.186 19.895v177.482z"/><path fill="#CECECE" d="M206.566 182.426V6.564L169.38 26.459v177.482z"/><path fill="#F0F0F0" d="M282.355 203.947h164.913l37.15-21.57-.008-1.984-164.797 1.998z"/><path fill="#F0F0F0" d="M319.602 182.422l2.001-175.863-2.001.005-37.186 19.895-.002 177.441z"/><path fill="#CECECE" d="M321.602 180.422V6.564l-37.186 19.895-.002 175.441z"/><path fill="#E2E2E2" d="M284.355 201.947h162.913l37.15-21.57-162.805.014z"/><path fill="#CECECE" d="M321.602 296.27v177.544l-37.194 19.979.004-176.008z"/><path fill="#F0F0F0" d="M282.369 318.835h164.899l37.15-21.57.038-1.97-164.868 1.982z"/><path fill="#E2E2E2" d="M484.418 180.377l-37.15 21.57v2l37.15-21.57z"/><path fill="#CECECE" d="M484.385 295.293l-37.117 21.542v2l37.117-21.453z"/><path fill="#BCBCBC" d="M282.369 316.835h164.899l37.15-21.57-164.83.012z"/></svg>