<svg xmlns="http://www.w3.org/2000/svg" width="320" height="315"><path fill="#F0F0F0" d="M282.066 313.984l37.164-21.166v-2.379l-281.64 2.01L.771 312.025l.012 1.959z"/><path fill="#A0A0A0" d="M319.23 175.693l-164.295.211.071-174.877-117 .018-.119 291.492 117 .211v-1.344l164.343-.086z"/><path fill="#F0F0F0" d="M151.873 176.287l167.344-.736v1.974l-37.151 21.571H115.811l-.012-1.94z"/><path fill="#E2E2E2" d="M155.018 175.547l164.199-.022-37.151 21.571-164.236.029z"/><path fill="#F0F0F0" d="M37.971 289.064L2.816 312.203.77 312.15.785 20.926 37.971 1.031l2.004-.015zm115.035-113.019l2.023-174.99-2.023-.024-37.186 19.895-.006 176.244 2.071-.045z"/><path fill="#CECECE" d="M155.018 175.531l-.012-174.5-37.186 19.895-.006 176.244z"/><path fill="#BCBCBC" d="M2.693 311.984h279.373l37.164-20.666-280.055-.832z"/><path fill="#CECECE" d="M39.971 290.076l-37.203 21.86.017-291.01L39.971 1.031z"/></svg>