<svg width="793pt" height="793pt" viewBox="0 0 793 793" xmlns="http://www.w3.org/2000/svg"><path fill="red" d="M0 0h793v793H0V0m20.45 12c93.75 93.77 187.51 187.51 281.26 281.27 31.55 31.64 63.28 63.11 94.72 94.85C521.81 262.76 647.18 137.38 772.55 12H20.45M12 20.45v752.1C137.39 647.2 262.73 521.79 388.13 396.46c-5.22-4.98-10.23-10.19-15.37-15.26C252.51 260.95 132.26 140.69 12 20.45m392.86 376.04C530.3 521.78 655.6 647.21 780.99 772.55c.01-250.7.01-501.4.01-752.1-125.4 125.33-250.68 250.78-376.14 376.04M20.45 781h752.1c-73.41-73.43-146.83-146.84-220.25-220.26C500.43 508.77 448.35 457 396.62 404.9 271.15 530.19 145.84 655.64 20.45 781z"/><path d="M20.45 12h752.1C647.18 137.38 521.81 262.76 396.43 388.12c-31.44-31.74-63.17-63.21-94.72-94.85C207.96 199.51 114.2 105.77 20.45 12zM12 20.45c120.26 120.24 240.51 240.5 360.76 360.75 5.14 5.07 10.15 10.28 15.37 15.26C262.73 521.79 137.39 647.2 12 772.55V20.45zm392.86 376.04C530.32 271.23 655.6 145.78 781 20.45c0 250.7 0 501.4-.01 752.1C655.6 647.21 530.3 521.78 404.86 396.49zM20.45 781c125.39-125.36 250.7-250.81 376.17-376.1C448.35 457 500.43 508.77 552.3 560.74 625.72 634.16 699.14 707.57 772.55 781H20.45z" fill="#fff"/></svg>