<svg xmlns="http://www.w3.org/2000/svg" width="485" height="255"><path fill="#A0A0A0" d="M484.474.55L318.183.536v.338L204.026 68.823l-166.704-.008.067 117.268 163.655-.001.347 35.148 78.378 30.081 38.587-18.35 166.102-.002.016-117.301h-.016z"/><path fill="#F0F0F0" d="M203.112 185.986L37.406 186 .5 205.55v2.042h165.248z"/><path fill="#BCBCBC" d="M203.112 183.98l-165.706.014L.5 205.587h165.248z"/><path fill="#F0F0F0" d="M203.061 70.322l-165.655.479L.504 90.383.5 92.394h165.217z"/><path fill="#E2E2E2" d="M203.083 68.781l-165.677.014L.5 90.389h165.217z"/><path fill="#F0F0F0" d="M447.237 24.163l37.254-21.628-.004-1.99L315.839 2.57l-34.561 19.634.483 1.959z"/><path fill="#E2E2E2" d="M318.208.565l-36.906 21.593h165.935L484.491.529z"/><path fill="#F0F0F0" d="M447.237 139.362l37.254-21.629-.004-2.02-166.279 2.057-36.902 19.669-.004 1.923z"/><path fill="#CECECE" d="M318.208 115.764l-36.906 21.592h165.935l37.254-21.627z"/><path fill="#F0F0F0" d="M281.337 22.116l1.016 1.73L165.894 92.26l-1.017-1.73zm-78.308 163.915l114.675 46.689-37.851 21.715-114.109-46.861z"/><path fill="#CECECE" d="M203.029 184.025l114.675 46.69-38.101 21.598-113.859-46.745z"/><path fill="#F0F0F0" d="M447.237 254.471l37.254-21.629.008-1.992-167.859 2.029-36.907 21.592z"/><path fill="#BCBCBC" d="M317.204 230.873l-38.103 21.592h168.136l37.254-21.628z"/></svg>