<svg xmlns="http://www.w3.org/2000/svg" width="485" height="370"><path fill="#A0A0A0" d="M181.804 244.434l-144.379.03-.038-128.772h164.838l92.198-94.742 24.508-16.047 164.903-3.306v344.369l-36.422 20.387-151.239-8.715z"/><path fill="#F0F0F0" d="M202.769 232.691l-165.425.014-36.815 19.55v2l164.939.006z"/><path fill="#BCBCBC" d="M202.835 230.624l-165.425.014L.566 252.194h164.968z"/><path fill="#F0F0F0" d="M202.471 117.155l-165.127.546-36.84 19.548-.004 1.787h165.331z"/><path fill="#E2E2E2" d="M203.311 115.396l-165.625-.063L.873 137.036h164.688z"/><path fill="#969696" d="M165.873 139.036L281.537 23.13l36.926-21.184-115.837 115.273z"/><path fill="#F0F0F0" d="M447.412 253.656l37.088-21.534-.037-1.983-165.514 2.02-36.736 19.547-.01 1.95z"/><path fill="#CECECE" d="M318.949 230.162l-36.746 21.497h165.209l37.088-21.533z"/><path fill="#F0F0F0" d="M447.412 368.349l37.088-21.534-.002-1.994-165.549 2.032-36.755 19.535.009 1.961z"/><path fill="#BCBCBC" d="M318.949 344.854l-36.746 21.499h165.209l37.088-21.534z"/><path fill="#F0F0F0" d="M446.746 25.127l37.088-21.534.004-1.992L318.283 3.63l-36.736 19.547-.01 1.95z"/><path fill="#E2E2E2" d="M318.283 1.633L281.537 23.13h165.209l37.088-21.533z"/><path fill="#F0F0F0" d="M446.746 139.82l37.088-21.534-.002-1.993-165.549 2.029-36.755 19.536.009 1.962z"/><path fill="#CECECE" d="M318.283 116.325l-36.746 21.498h165.209l37.088-21.533z"/><path fill="#F0F0F0" d="M165.967 138.927l-1.664-1.204L281.478 23.124l1.398 1.43z"/><path fill="#CECECE" d="M165.478 252.265l116.725 114.088 36.746-21.499-116.18-114.166z"/><path fill="#F0F0F0" d="M165.442 251.992L283.282 367l-1.397 1.431-117.84-115.008z"/></svg>