<svg xmlns="http://www.w3.org/2000/svg" width="320" height="490"><path fill="#A0A0A0" d="M201.541 1.392l-.008 173.819-163.227-.008.007 117 163.214-.001-.007 176.643 117-.032.021-467.432z"/><path fill="#F0F0F0" d="M203.588 292.106l-167.932-.402-34.098 19.949-.034 2.001h164.8z"/><path fill="#F0F0F0" d="M201.506 292.151v177.688l-35.197 18.656-1.989-.984V313.636z"/><path fill="#CECECE" d="M203.506 290.151v178.688l-37.186 19.672V311.636z"/><path fill="#BCBCBC" d="M203.588 290.106l-165.257.014-36.807 21.534h164.8z"/><path fill="#F0F0F0" d="M203.559 177.219l-165.228.013-36.873 19.602.066 1.933h164.769z"/><path fill="#E2E2E2" d="M203.559 175.219l-165.228.013-36.807 21.535h164.769z"/><path fill="#F0F0F0" d="M201.506 177.245l1.937-175.882-1.937.021-37.186 19.894v177.483z"/><path fill="#CECECE" d="M203.506 177.245V1.384L166.32 21.278v177.483z"/><path fill="#F0F0F0" d="M279.355 21.278l37.186-19.894 1.986.002-1.986 467.248-35.203 20.003-1.988-.025z"/><path fill="#CECECE" d="M281.35 488.612l37.191-19.978V1.384l-37.186 19.894z"/></svg>