<svg xmlns="http://www.w3.org/2000/svg" xmlns:xlink="http://www.w3.org/1999/xlink" width="235" height="138"><path fill="#ACACAC" d="M170.607.02l-.015 116.598-133.617.002L36.963.006"/><path fill="#F0F0F0" d="M133.305 23.492l37.321-21.499V.023L36.988 2.028.021 21.538l-.009 1.954z"/><path fill="#E2E2E2" d="M36.988.035L.012 21.499h133.293L170.626 0z"/><path fill="#F0F0F0" d="M133.305 138l37.321-21.499.014-1.968-133.652 2.005L0 136.05.012 138z"/><path fill="#CECECE" d="M36.988 114.545L.012 136.007h133.293l37.321-21.499z"/><path fill="#F0F0F0" d="M169.755 115.757l-38.515 22.23-.111-114.906L169.559.952z"/><path fill="#CECECE" d="M170.812 116.351l-37.499 21.636-.112-116.416L170.626.02z"/><ellipse fill="#ACACAC" cx="153.371" cy="66.898" rx="13.282" ry="40.056"/><defs><path id="a" d="M223.796 27.012c-.106-.038-.217 0-.217 0H152.88c5.198 0 13.17 11.781 13.17 39.492 0 27.162-7.972 40.433-13.17 40.433h70.331c5.197 0 12.241-17.827 11.767-39.892-.584-27.093-6.92-38.401-11.182-40.033z"/></defs><clipPath id="b"><use xlink:href="#a" overflow="visible"/></clipPath><path clip-path="url(#b)" fill="#A8A8A8" d="M239.395 98.65h-87.496l.014 8.533h87.496z"/><path clip-path="url(#b)" fill="#B7B7B7" d="M147.751 88.653h100.022v10.149H147.751z"/><path clip-path="url(#b)" fill="#C1C1C1" d="M147.864 44.934h99.75v43.96h-99.75z"/><path clip-path="url(#b)" fill="#B7B7B7" d="M148.169 34.89h99.422v10.149h-99.422z"/><path clip-path="url(#b)" fill="#A8A8A8" d="M151.913 26.713h87.496v8.332h-87.496z"/><path fill="#D1D1D1" d="M223.685 106.931c.984-.208 2.373-.971 4.201-4.005 2.167-3.602 4.038-9.216 5.437-15.72 1.399-6.505 1.612-13.831 1.612-20.308 0-17.28-3.526-32.31-8.59-37.898-.88-.973-2.093-1.975-2.645-1.964l-.005 1.294c1.642 1.18 3.843 4.305 5.247 8.053 2.889 7.704 4.838 19.188 4.856 30.389.03 17.471-2.846 27.73-6.724 34.726-.521.938-2.418 3.756-3.426 4.139l.037 1.294z"/><path fill="#E2E2E2" d="M152.951 26.8h70.79v1.926h-70.79zm0 78.356h70.79v1.926h-70.79z"/></svg>