<svg xmlns="http://www.w3.org/2000/svg" width="320" height="315"><path fill="#A0A0A0" d="M308.927 115.778V1.159H38.261v115.072h163.246l-.119 175.672 117 .127.119-176.252z"/><path fill="#F0F0F0" d="M316.507 290.794l2.023-289.68-2.023-.023-37.186 21.894-.006 290.936 2.071-2.047zm-115.035-.119l-35.17 21.181h-2.031l.015-174.181 37.109-21.461 2.003-.016z"/><path fill="#F0F0F0" d="M281.165 24.649l37.15-21.57V1.104L38.288 3.116 1.489 22.688l-.008 1.961z"/><path fill="#E2E2E2" d="M38.288 1.116L1.481 22.649h279.873l36.961-21.57z"/><path fill="#F0F0F0" d="M200.726 117.267l-162.438.736L1.47 137.579l.011 1.959h164.786z"/><path fill="#BCBCBC" d="M203.511 115.989l-165.223.014-36.807 21.535 165.043.199z"/><path fill="#CECECE" d="M203.472 292.03l-37.203 19.854.09-174.03 37.186-21.895zm115.041 0l-.006-290.939-37.186 21.51-.006 291.32z"/></svg>