<svg xmlns="http://www.w3.org/2000/svg" width="480" height="315"><path fill="#A0A0A0" d="M479.898 1.101L36.863 1.087l.012 117 163.23-.001-.117 173.817 117 .128.117-173.945 162.778-.001z"/><path fill="#F0F0F0" d="M315.107 290.794l1.956-174.329-2.023-.025-37.118 21.235-.006 176.246 2.07-2.046z"/><path fill="#CECECE" d="M317.113 292.031l-.006-174.251-37.185 19.895-.006 176.246z"/><path fill="#F0F0F0" d="M200.072 290.675l-35.17 21.182h-2.031l.016-174.182 37.051-21.638 2.003-.016zM442.766 24.649l37.15-21.57V1.104L36.889 3.116.09 22.688l-.008 1.961z"/><path fill="#E2E2E2" d="M36.889 1.116L.082 22.649h442.684l37.15-21.57z"/><path fill="#F0F0F0" d="M199.326 117.267l-162.437.736L.07 137.579l.012 1.959h164.785zm112.85-.513l167.754-.761-.014 1.975-37.15 21.57-164.858.047v-2.078z"/><path fill="#BCBCBC" d="M202.111 115.989l-165.222.014L.082 137.538h167.291zm75.744 21.549h164.911l37.15-21.57-166.818.012z"/><path fill="#CECECE" d="M202.072 292.031l-37.203 19.853.018-174.209 37.185-21.895z"/></svg>