<svg xmlns="http://www.w3.org/2000/svg" width="320" height="315"><path fill="#F0F0F0" d="M280.55 313.984l36.426-21.57.013-1.975-278.041 2.012L2.13 312.027l.012 1.957z"/><path fill="#BCBCBC" d="M38.948 290.451L2.142 311.984h277.683l37.151-21.57z"/><path fill="#A0A0A0" d="M317.87 1.029l-117.105.01-.119 174.613H39.394v114.692h261v-113.08l17.357.017z"/><path fill="#F0F0F0" d="M165.604 199.051l-163.462.047.007-1.961 36.799-19.574 163.182-1.073z"/><path fill="#E2E2E2" d="M202.964 175.549l-164.016.014-36.806 21.535h162.996z"/><path fill="#F0F0F0" d="M200.729 175.926l-35.154 21.236-2.047-.055.016-176.181 37.185-19.895 2.004-.015z"/><path fill="#CECECE" d="M202.729 177.281l-37.203 21.86.018-178.215 37.185-19.895z"/><path fill="#F0F0F0" d="M315.765 291.045l2.023-289.99-2.023-.024-37.186 19.895-.006 291.246 2.071-.047z"/><path fill="#CECECE" d="M317.776 292.309l-.011-291.278-37.186 19.895-.006 293.023z"/></svg>