<svg xmlns="http://www.w3.org/2000/svg" width="485" height="255"><path fill="#A0A0A0" d="M484.809 58.075l-165.903.097.115 5.083-42.771-14.422-72.534-34.387-.084-13.633L37.641.766l-.032 114.676h-.004l.004 116.965 143.974 7.756 22.151-7.797 87.848-43.535 31.332-4 16.668-7.334-.137-2.471 145.348-.002z"/><path fill="#F0F0F0" d="M202.805 2.688l-165.176.014L.831 22.228l.002 2.001h164.718z"/><path fill="#E2E2E2" d="M203.687.737L37.629.702.833 22.231h164.718z"/><path fill="#F0F0F0" d="M447.688 81.618l37.138-21.562-.035-1.989-165.746 2.024-36.787 19.574-.01 1.953z"/><path fill="#E2E2E2" d="M318.875 58.109l-36.627 21.509h165.44l37.138-21.562z"/><path fill="#F0F0F0" d="M447.688 196.47l37.138-21.563v-1.996l-165.781 2.031-36.805 19.563.008 1.965z"/><path fill="#BCBCBC" d="M319.045 172.944l-36.797 21.528h165.44l37.138-21.565z"/><path fill="#F0F0F0" d="M202.835 117.542l-.037-1.955-165.169 1.969-36.802 19.57.006 1.957h164.75z"/><linearGradient id="a" gradientUnits="userSpaceOnUse" x1=".833" y1="126.313" x2="202.835" y2="126.313"><stop offset=".376" stop-color="#cecece"/><stop offset="1" stop-color="#e2e2e2"/></linearGradient><path fill="url(#a)" d="M202.835 115.542l-165.206.014L.833 137.083h164.75z"/><path fill="#D6D6D6" d="M318.963 58.142L203.635.737 165.469 22.28l116.697 57.389z"/><path fill="#F0F0F0" d="M203.734 232.397l.016-2.062-166.121 1.99L.836 251.839l-.003 2.014h164.75z"/><path fill="#BCBCBC" d="M203.766 230.345l-166.137-.02L.833 251.853h164.75z"/><path fill="#F0F0F0" d="M165.52 22.106l117.496 57.506-.879 1.796-117.496-57.505z"/><path fill="#CECECE" d="M203.743 230.308l115.394-57.389-36.889 21.553-116.559 57.367z"/><path fill="#F0F0F0" d="M282.322 194.267l.88 1.794-117.691 57.765-.881-1.795z"/></svg>