<?xml version="1.0" standalone="no"?>
<!DOCTYPE svg PUBLIC "-//W3C//DTD SVG 1.1//EN" "http://www.w3.org/Graphics/SVG/1.1/DTD/svg11.dtd" >
<svg xmlns="http://www.w3.org/2000/svg" xmlns:xlink="http://www.w3.org/1999/xlink" version="1.1">
<metadata>
Created by FontForge 20161116 at Sat Oct 31 16:33:50 2015
 By Jimmy Warting
Copyright 2015 Samsung Electronics Co., Ltd. All Rights Reserved.
</metadata>
<defs>
<font id="SamsungOneUI-600" horiz-adv-x="0" >
  <font-face 
    font-family="SamsungOneUI 600"
    font-weight="600"
    font-stretch="normal"
    units-per-em="1024"
    panose-1="2 11 7 3 3 3 3 2 2 4"
    ascent="794"
    descent="-230"
    x-height="539"
    cap-height="724"
    bbox="-686 -304 2462 1047"
    underline-thickness="35"
    underline-position="-137"
    unicode-range="U+0002-1F16B"
  />
<missing-glyph horiz-adv-x="692" 
d="M601 0h-86h-376h-49v724h86h425v-724zM515 644h-300l300 -495v495zM176 80h300l-300 495v-495z" />
    <glyph glyph-name="fi" unicode="fi" horiz-adv-x="637" 
d="M104 456h-89v83h89v57q0 87 51.5 135.5t144.5 48.5q33 0 55 -5v-85q-36 4 -55 4q-49 0 -74 -25t-25 -73v-57h135v-83h-135v-456h-97v456zM452 539h97v-539h-97v539zM454.5 641.5q-16.5 16.5 -16.5 45.5q0 30 16.5 46.5t46.5 16.5t46.5 -16.5t16.5 -45.5
q0 -30 -16.5 -46.5t-46.5 -16.5t-46.5 16.5z" />
    <glyph glyph-name="fl" unicode="fl" horiz-adv-x="678" 
d="M104 456h-89v83h89v57q0 87 51.5 135.5t144.5 48.5q33 0 55 -5v-85q-36 4 -55 4q-49 0 -74 -25t-25 -73v-57h135v-83h-135v-456h-97v456zM448 121v649h97v-636q0 -28 12.5 -41t40.5 -13q17 0 38 4l8 -82q-35 -8 -70 -8q-126 0 -126 127z" />
    <glyph glyph-name=".notdef" horiz-adv-x="692" 
d="M601 0h-86h-376h-49v724h86h425v-724zM515 644h-300l300 -495v495zM176 80h300l-300 495v-495z" />
    <glyph glyph-name="NULL" horiz-adv-x="91" 
 />
    <glyph glyph-name="nonmarkingreturn" unicode="&#xd;" 
 />
    <glyph glyph-name="space" unicode=" " horiz-adv-x="220" 
 />
    <glyph glyph-name="A" unicode="A" horiz-adv-x="668" 
d="M477 182h-288l-59 -182h-105l254 724h110l253 -724h-106zM448 269l-116 355l-115 -355h231z" />
    <glyph glyph-name="A.c2sc" horiz-adv-x="610" 
d="M435 142h-260l-49 -142h-103l229 606h107l228 -606h-103zM405 227l-101 291l-100 -291h201z" />
    <glyph glyph-name="uniA732" unicode="&#xa732;" horiz-adv-x="1176" 
d="M701 182l-59 -182h-106l-59 182h-288l-59 -182h-105l254 724h110l201 -574l201 574h110l253 -724h-106l-59 182h-288zM448 269l-116 355l-115 -355h231zM729 269h231l-116 355z" />
    <glyph glyph-name="uniA73A" unicode="&#xa73a;" horiz-adv-x="907" 
d="M762 361h91v-84h-119l-88 -277h-84h-26l-90 277h-226l-90 -277h-105l254 724h110l125 -363h153l106 363h105zM418 361l-86 263l-85 -263h171zM643 281h-101l55 -161z" />
    <glyph glyph-name="uniA73C" unicode="&#xa73c;" horiz-adv-x="903" 
d="M874 724l-232 -724q-52 -153 -249 -219l-34 83q71 25 112.5 57t65.5 79h-1l-59 182h-288l-59 -182h-105l254 724h110l207 -592l173 592h105zM448 269l-116 355l-115 -355h231z" />
    <glyph glyph-name="Aacute" unicode="&#xc1;" horiz-adv-x="668" 
d="M347 781h-84v12l150 133h116v-12zM477 182h-288l-59 -182h-105l254 724h110l253 -724h-106zM448 269l-116 355l-115 -355h231z" />
    <glyph glyph-name="Aacute.c2sc" horiz-adv-x="610" 
d="M435 142h-260l-49 -142h-103l229 606h107l228 -606h-103zM405 227l-101 291l-100 -291h201zM246 677l99 159h107v-10l-132 -159h-74v10z" />
    <glyph glyph-name="Abreve" unicode="&#x102;" horiz-adv-x="668" 
d="M227 823.5q-39 40.5 -42 114.5h62q12 -79 88 -79q77 0 89 79h59q-3 -74 -42 -114.5t-107 -40.5t-107 40.5zM477 182h-288l-59 -182h-105l254 724h110l253 -724h-106zM448 269l-116 355l-115 -355h231z" />
    <glyph glyph-name="Abreve.c2sc" horiz-adv-x="610" 
d="M435 142h-260l-49 -142h-103l229 606h107l228 -606h-103zM405 227l-101 291l-100 -291h201zM198 705.5q-39 40.5 -42 114.5h62q12 -79 88 -79q77 0 89 79h59q-3 -74 -42 -114.5t-107 -40.5t-107 40.5z" />
    <glyph glyph-name="uni1EAE" unicode="&#x1eae;" horiz-adv-x="668" 
d="M364 896h-64v10l78 127h88v-10zM229.5 804q-38.5 35 -42.5 97h55q11 -69 93 -69q41 0 65 17.5t29 51.5h52q-4 -62 -42.5 -97t-104.5 -35t-104.5 35zM477 182h-288l-59 -182h-105l254 724h110l253 -724h-106zM448 269l-116 355l-115 -355h231z" />
    <glyph glyph-name="uni1EB6" unicode="&#x1eb6;" horiz-adv-x="668" 
d="M227 823.5q-39 40.5 -42 114.5h62q12 -79 88 -79q77 0 89 79h59q-3 -74 -42 -114.5t-107 -40.5t-107 40.5zM536 0l-59 182h-288l-59 -182h-105l254 724h110l253 -724h-106zM448 269l-116 355l-115 -355h231zM381.5 -104.5q16.5 -16.5 16.5 -45.5q0 -30 -16.5 -46.5
t-46.5 -16.5t-46.5 16.5t-16.5 45.5q0 30 16.5 46.5t46.5 16.5t46.5 -16.5z" />
    <glyph glyph-name="uni1EB0" unicode="&#x1eb0;" horiz-adv-x="668" 
d="M306 896l-96 127v10h88l72 -127v-10h-64zM229.5 804q-38.5 35 -42.5 97h55q11 -69 93 -69q41 0 65 17.5t29 51.5h52q-4 -62 -42.5 -97t-104.5 -35t-104.5 35zM477 182h-288l-59 -182h-105l254 724h110l253 -724h-106zM448 269l-116 355l-115 -355h231z" />
    <glyph glyph-name="uni1EB2" unicode="&#x1eb2;" horiz-adv-x="668" 
d="M273 976l-21 45q42 25 90 25q40 0 62 -17.5t22 -49.5q0 -23 -10 -33.5t-28 -17.5q-13 -6 -18 -10t-5 -12q0 -4 2 -14h-66q-2 10 -2 17q0 19 8.5 27.5t23.5 15.5q12 6 17 10t5 13q0 8 -6.5 13t-19.5 5q-23 0 -54 -17zM229.5 804q-38.5 35 -42.5 97h55q11 -69 93 -69
q41 0 65 17.5t29 51.5h52q-4 -62 -42.5 -97t-104.5 -35t-104.5 35zM477 182h-288l-59 -182h-105l254 724h110l253 -724h-106zM448 269l-116 355l-115 -355h231z" />
    <glyph glyph-name="uni1EB4" unicode="&#x1eb4;" horiz-adv-x="668" 
d="M230 932h-51q0 54 25 84t71 30q25 0 41.5 -8t33.5 -23q13 -11 23 -16.5t23 -5.5q37 0 42 51h51q0 -54 -25 -84t-71 -30q-25 0 -41.5 8t-33.5 23q-13 11 -23 16.5t-23 5.5q-37 0 -42 -51zM400 849.5q24 17.5 29 51.5h52q-4 -62 -42.5 -97t-104.5 -35t-104.5 35t-42.5 97
h55q11 -69 93 -69q41 0 65 17.5zM477 182h-288l-59 -182h-105l254 724h110l253 -724h-106zM448 269l-116 355l-115 -355h231z" />
    <glyph glyph-name="uni01CD" unicode="&#x1cd;" horiz-adv-x="668" 
d="M284 781l-117 133v12h76l93 -87l92 87h73v-12l-117 -133h-100zM477 182h-288l-59 -182h-105l254 724h110l253 -724h-106zM448 269l-116 355l-115 -355h231z" />
    <glyph glyph-name="Acircumflex" unicode="&#xc2;" horiz-adv-x="668" 
d="M240 781h-73v12l117 133h100l117 -133v-12h-76l-93 87zM477 182h-288l-59 -182h-105l254 724h110l253 -724h-106zM448 269l-116 355l-115 -355h231z" />
    <glyph glyph-name="Acircumflex.c2sc" horiz-adv-x="610" 
d="M435 142h-260l-49 -142h-103l229 606h107l228 -606h-103zM405 227l-101 291l-100 -291h201zM454 677v-10h-70l-81 103l-80 -103h-67v10l102 159h94z" />
    <glyph glyph-name="uni1EA4" unicode="&#x1ea4;" horiz-adv-x="668" 
d="M517 889h-64v10l78 127h88v-10zM250 785h-67v10l104 139h94l104 -139v-10h-70l-83 90zM477 182h-288l-59 -182h-105l254 724h110l253 -724h-106zM448 269l-116 355l-115 -355h231z" />
    <glyph glyph-name="uni1EAC" unicode="&#x1eac;" horiz-adv-x="668" 
d="M240 781h-73v12l117 133h100l117 -133v-12h-76l-93 87zM536 0l-59 182h-288l-59 -182h-105l254 724h110l253 -724h-106zM448 269l-116 355l-115 -355h231zM381.5 -104.5q16.5 -16.5 16.5 -45.5q0 -30 -16.5 -46.5t-46.5 -16.5t-46.5 16.5t-16.5 45.5q0 30 16.5 46.5
t46.5 16.5t46.5 -16.5z" />
    <glyph glyph-name="uni1EA6" unicode="&#x1ea6;" horiz-adv-x="668" 
d="M152 889l-96 127v10h88l72 -127v-10h-64zM183 795l104 139h94l104 -139v-10h-70l-83 90l-82 -90h-67v10zM477 182h-288l-59 -182h-105l254 724h110l253 -724h-106zM448 269l-116 355l-115 -355h231z" />
    <glyph glyph-name="uni1EA8" unicode="&#x1ea8;" horiz-adv-x="668" 
d="M426 968l-21 45q42 25 90 25q40 0 62 -17.5t22 -49.5q0 -23 -10 -33.5t-28 -17.5q-13 -6 -18 -10t-5 -12q0 -4 2 -14h-66q-2 10 -2 17q0 19 8.5 27.5t23.5 15.5q12 6 17 10t5 13q0 8 -6.5 13t-19.5 5q-23 0 -54 -17zM250 785h-67v10l104 139h94l104 -139v-10h-70l-83 90z
M477 182h-288l-59 -182h-105l254 724h110l253 -724h-106zM448 269l-116 355l-115 -355h231z" />
    <glyph glyph-name="uni1EAA" unicode="&#x1eaa;" horiz-adv-x="668" 
d="M230 931h-51q0 54 25 84t71 30q25 0 41.5 -8t33.5 -23q13 -11 23 -16.5t23 -5.5q37 0 42 51h51q0 -54 -25 -84t-71 -30q-25 0 -41.5 8t-33.5 23q-13 11 -23 16.5t-23 5.5q-37 0 -42 -51zM381 907l104 -126v-10h-68l-84 81l-85 -81h-65v10l104 126h94zM477 182h-288
l-59 -182h-105l254 724h110l253 -724h-106zM448 269l-116 355l-115 -355h231z" />
    <glyph glyph-name="uni0200" unicode="&#x200;" horiz-adv-x="668" 
d="M239 781l-120 133v12h100l89 -133v-12h-69zM401 781l-120 133v12h99l89 -133v-12h-68zM477 182h-288l-59 -182h-105l254 724h110l253 -724h-106zM448 269l-116 355l-115 -355h231z" />
    <glyph glyph-name="Adieresis" unicode="&#xc4;" horiz-adv-x="668" 
d="M191.5 804q-15.5 16 -15.5 43q0 28 15.5 44t43.5 16q27 0 42.5 -16t15.5 -43q0 -29 -15 -44.5t-43 -15.5t-43.5 16zM390.5 804q-15.5 16 -15.5 43q0 28 15.5 44t43.5 16q27 0 42.5 -16t15.5 -43q0 -29 -15 -44.5t-43 -15.5t-43.5 16zM477 182h-288l-59 -182h-105l254 724
h110l253 -724h-106zM448 269l-116 355l-115 -355h231z" />
    <glyph glyph-name="Adieresis.c2sc" horiz-adv-x="610" 
d="M435 142h-260l-49 -142h-103l229 606h107l228 -606h-103zM405 227l-101 291l-100 -291h201zM167.5 691q-15.5 16 -15.5 43q0 28 15.5 44t43.5 16q27 0 42.5 -16t15.5 -43q0 -29 -15 -44.5t-43 -15.5t-43.5 16zM356.5 691q-15.5 16 -15.5 43q0 28 15.5 44t43.5 16
q27 0 42.5 -16t15.5 -43q0 -29 -15 -44.5t-43 -15.5t-43.5 16z" />
    <glyph glyph-name="uni01DE" unicode="&#x1de;" horiz-adv-x="668" 
d="M485 960h-302v71h302v-71zM191.5 804q-15.5 16 -15.5 43q0 28 15.5 44t43.5 16q27 0 42.5 -16t15.5 -43q0 -29 -15 -44.5t-43 -15.5t-43.5 16zM476.5 891q15.5 -16 15.5 -43q0 -29 -15 -44.5t-43 -15.5t-43.5 16t-15.5 43q0 28 15.5 44t43.5 16q27 0 42.5 -16zM477 182
h-288l-59 -182h-105l254 724h110l253 -724h-106zM448 269l-116 355l-115 -355h231z" />
    <glyph glyph-name="uni0226" unicode="&#x226;" horiz-adv-x="668" 
d="M287.5 807.5q-16.5 16.5 -16.5 45.5q0 30 16.5 46.5t46.5 16.5t46.5 -16.5t16.5 -45.5q0 -30 -16.5 -46.5t-46.5 -16.5t-46.5 16.5zM477 182h-288l-59 -182h-105l254 724h110l253 -724h-106zM448 269l-116 355l-115 -355h231z" />
    <glyph glyph-name="uni1EA0" unicode="&#x1ea0;" horiz-adv-x="668" 
d="M477 182h-288l-59 -182h-105l254 724h110l253 -724h-106zM448 269l-116 355l-115 -355h231zM288.5 -196.5q-16.5 16.5 -16.5 45.5q0 30 16.5 46.5t46.5 16.5t46.5 -16.5t16.5 -45.5q0 -30 -16.5 -46.5t-46.5 -16.5t-46.5 16.5z" />
    <glyph glyph-name="uni01E0" unicode="&#x1e0;" horiz-adv-x="668" 
d="M485 960h-302v71h302v-71zM287.5 899.5q16.5 16.5 46.5 16.5t46.5 -16.5t16.5 -45.5q0 -30 -16.5 -46.5t-46.5 -16.5t-46.5 16.5t-16.5 45.5q0 30 16.5 46.5zM477 182h-288l-59 -182h-105l254 724h110l253 -724h-106zM448 269l-116 355l-115 -355h231z" />
    <glyph glyph-name="Agrave" unicode="&#xc0;" horiz-adv-x="668" 
d="M320 781l-173 133v12h117l140 -133v-12h-84zM477 182h-288l-59 -182h-105l254 724h110l253 -724h-106zM448 269l-116 355l-115 -355h231z" />
    <glyph glyph-name="Agrave.c2sc" horiz-adv-x="610" 
d="M435 142h-260l-49 -142h-103l229 606h107l228 -606h-103zM405 227l-101 291l-100 -291h201zM170 826v10h106l92 -159v-10h-74z" />
    <glyph glyph-name="uni1EA2" unicode="&#x1ea2;" horiz-adv-x="668" 
d="M260 864l-25 52q48 31 111 31q45 0 70.5 -18.5t25.5 -50.5q0 -25 -12.5 -37t-33.5 -20q-15 -6 -21 -10t-6 -13l2 -17h-74q-2 12 -2 22q0 18 10 27.5t27 16.5q13 6 18.5 10.5t5.5 12.5q0 15 -27 15q-31 0 -69 -21zM477 182h-288l-59 -182h-105l254 724h110l253 -724h-106z
M448 269l-116 355l-115 -355h231z" />
    <glyph glyph-name="uni0202" unicode="&#x202;" horiz-adv-x="668" 
d="M244 791h-59q3 74 42 114.5t107 40.5t107 -40.5t42 -114.5h-62q-12 79 -88 79q-77 0 -89 -79zM477 182h-288l-59 -182h-105l254 724h110l253 -724h-106zM448 269l-116 355l-115 -355h231z" />
    <glyph glyph-name="uni2C6D" unicode="&#x2c6d;" horiz-adv-x="680" 
d="M589 724v-724h-90v92q-32 -51 -83 -78t-114 -27q-116 0 -180 98t-64 275q0 179 66 278t185 99q54 0 102.5 -21.5t78.5 -59.5v68h99zM490 157v415q-29 35 -74 55.5t-91 20.5q-82 0 -123 -71t-41 -211q0 -142 42.5 -214t126.5 -72q92 0 160 77z" />
    <glyph glyph-name="Amacron" unicode="&#x100;" horiz-adv-x="668" 
d="M485 809h-302v71h302v-71zM477 182h-288l-59 -182h-105l254 724h110l253 -724h-106zM448 269l-116 355l-115 -355h231z" />
    <glyph glyph-name="Amacron.c2sc" horiz-adv-x="610" 
d="M435 142h-260l-49 -142h-103l229 606h107l228 -606h-103zM405 227l-101 291l-100 -291h201zM154 762h302v-71h-302v71z" />
    <glyph glyph-name="uniA734" unicode="&#xa734;" horiz-adv-x="1102" 
d="M967 642q77 -95 77 -280t-77 -280t-222 -95q-101 0 -168 47t-97 138l-3 10h-288l-59 -182h-105l254 724h110l78 -231q48 244 278 244q145 0 222 -95zM891.5 148q49.5 72 49.5 214t-49.5 214t-146.5 72t-146.5 -72t-49.5 -214t49.5 -214t146.5 -72t146.5 72zM448 269
l-116 355l-115 -355h231z" />
    <glyph glyph-name="Aogonek" unicode="&#x104;" horiz-adv-x="668" 
d="M690 -192q-22 -14 -50 -22t-57 -8q-52 0 -81.5 25t-29.5 69q0 38 22.5 71.5t62.5 56.5h-21l-59 182h-288l-59 -182h-105l254 724h110l253 -724q-87 -50 -87 -110q0 -42 48 -42q30 0 62 16zM448 269l-116 355l-115 -355h231z" />
    <glyph glyph-name="Aogonek.c2sc" horiz-adv-x="610" 
d="M635 -192q-22 -14 -50 -22t-57 -8q-52 0 -81.5 25t-29.5 69q0 38 22.5 71.5t62.5 56.5h-18l-49 142h-260l-49 -142h-103l229 606h107l228 -606q-87 -50 -87 -110q0 -42 48 -42q30 0 62 16zM405 227l-101 291l-100 -291h201z" />
    <glyph glyph-name="Aring" unicode="&#xc5;" horiz-adv-x="668" 
d="M242.5 796.5q-32.5 29.5 -32.5 82.5q0 52 32.5 81.5t91.5 29.5t91.5 -29.5t32.5 -81.5q0 -53 -32.5 -82.5t-91.5 -29.5t-91.5 29.5zM276 879q0 -58 58 -58t58 58t-58 58t-58 -58zM477 182h-288l-59 -182h-105l254 724h110l253 -724h-106zM448 269l-116 355l-115 -355h231
z" />
    <glyph glyph-name="Aring.c2sc" horiz-adv-x="610" 
d="M435 142h-260l-49 -142h-103l229 606h107l228 -606h-103zM405 227l-101 291l-100 -291h201zM214.5 683.5q-32.5 29.5 -32.5 82.5q0 52 32.5 81.5t90.5 29.5t90.5 -29.5t32.5 -81.5q0 -53 -32.5 -82.5t-90.5 -29.5t-90.5 29.5zM363 766q0 59 -58 59t-58 -59t58 -59t58 59z
" />
    <glyph glyph-name="Aringacute" unicode="&#x1fa;" horiz-adv-x="668" 
d="M355 909h-85v12l140 125h117v-12zM477 182h-288l-59 -182h-105l235 669q-51 28 -51 94q0 53 32.5 82.5t91.5 29.5t91.5 -29.5t32.5 -82.5q0 -32 -12.5 -56.5t-36.5 -37.5l234 -669h-106zM275 763q0 -58 58 -58t58 58t-58 58t-58 -58zM448 269l-116 355l-115 -355h231z
" />
    <glyph glyph-name="Aringacute.c2sc" horiz-adv-x="610" 
d="M327 901h-85v12l140 125h117v-12zM213.5 673.5q-32.5 29.5 -32.5 81.5q0 53 32.5 82.5t91.5 29.5t91.5 -29.5t32.5 -82.5t-32.5 -82t-91.5 -29t-91.5 29.5zM247 755q0 -58 58 -58t58 58t-58 58t-58 -58zM435 142h-260l-49 -142h-103l229 606h107l228 -606h-103zM405 227
l-101 291l-100 -291h201z" />
    <glyph glyph-name="uni1E00" unicode="&#x1e00;" horiz-adv-x="668" 
d="M477 182h-288l-59 -182h-105l254 724h110l253 -724h-106zM448 269l-116 355l-115 -355h231zM244.5 -257.5q-32.5 29.5 -32.5 82.5q0 52 32.5 81.5t90.5 29.5t90.5 -29.5t32.5 -81.5q0 -53 -32.5 -82.5t-90.5 -29.5t-90.5 29.5zM393 -175q0 59 -58 59t-58 -59
q0 -60 58 -60t58 60z" />
    <glyph glyph-name="uni023A" unicode="&#x23a;" horiz-adv-x="668" 
d="M477 182h-144l-102 -289h-73l103 289h-72l-59 -182h-105l254 724h110l32 -92l63 178h73l-100 -281l185 -529h-106zM292 269l81 230l-41 125l-115 -355h75zM448 269l-40 123l-44 -123h84z" />
    <glyph glyph-name="Atilde" unicode="&#xc3;" horiz-adv-x="668" 
d="M221 790h-59q2 63 28.5 99t73.5 36q26 0 45.5 -10t44.5 -28q18 -13 29 -19t23 -6q34 0 41 61h59q-2 -63 -28.5 -99t-73.5 -36q-26 0 -45.5 10t-44.5 28q-18 13 -29 19t-23 6q-34 0 -41 -61zM477 182h-288l-59 -182h-105l254 724h110l253 -724h-106zM448 269l-116 355
l-115 -355h231z" />
    <glyph glyph-name="Atilde.c2sc" horiz-adv-x="610" 
d="M435 142h-260l-49 -142h-103l229 606h107l228 -606h-103zM405 227l-101 291l-100 -291h201zM329.5 680q-19.5 10 -44.5 28q-18 13 -29 19t-23 6q-34 0 -41 -61h-59q2 63 28.5 99t73.5 36q26 0 45.5 -10t44.5 -28q18 -13 29 -19t23 -6q34 0 41 61h59q-2 -63 -28.5 -99
t-73.5 -36q-26 0 -45.5 10z" />
    <glyph glyph-name="uni2C6F" unicode="&#x2c6f;" horiz-adv-x="668" 
d="M643 724l-254 -724h-110l-253 724h106l60 -182h287l59 182h105zM451 455h-231l116 -355z" />
    <glyph glyph-name="uniA736" unicode="&#xa736;" horiz-adv-x="1051" 
d="M965 724v-470q0 -127 -65.5 -197t-183.5 -70q-91 0 -148.5 46.5t-89.5 146.5l-1 2h-288l-59 -182h-105l254 724h110l181 -518q25 -71 59.5 -100.5t89.5 -29.5q73 0 110 46t37 136v466h99zM449 269l-117 355l-115 -355h232z" />
    <glyph glyph-name="uniA738" unicode="&#xa738;" horiz-adv-x="903" 
d="M874 724l-232 -724h-106l-59 182h-288l-59 -182h-105l254 724h110l207 -592l173 592h105zM448 269l-116 355l-115 -355h231z" />
    <glyph glyph-name="AE" unicode="&#xc6;" horiz-adv-x="911" 
d="M872 89v-89h-429v173h-249l-91 -173h-107l384 724h100h379v-89h-320v-220h235v-90h-235v-236h333zM443 260v392l-204 -392h204z" />
    <glyph glyph-name="AEacute" unicode="&#x1fc;" horiz-adv-x="911" 
d="M500 781h-84v12l150 133h116v-12zM872 89v-89h-429v173h-249l-91 -173h-107l384 724h100h379v-89h-320v-220h235v-90h-235v-236h333zM443 260v392l-204 -392h204z" />
    <glyph glyph-name="uni01E2" unicode="&#x1e2;" horiz-adv-x="911" 
d="M638 809h-302v71h302v-71zM872 89v-89h-429v173h-249l-91 -173h-107l384 724h100h379v-89h-320v-220h235v-90h-235v-236h333zM443 260v392l-204 -392h204z" />
    <glyph glyph-name="B" unicode="B" horiz-adv-x="646" 
d="M598 209q0 -99 -59.5 -154t-166.5 -55h-229h-53v724h99h148q104 0 162 -53t58 -148q0 -109 -94 -141q135 -36 135 -173zM189 636v-222h148q58 0 88 27.5t30 80.5q0 56 -31 85t-92 29h-143zM465 118.5q30 30.5 30 89.5q0 120 -123 120h-183v-240h188q58 0 88 30.5z" />
    <glyph glyph-name="B.c2sc" horiz-adv-x="599" 
d="M553 179q0 -85 -54 -132t-152 -47h-207h-52v606h97h130q95 0 148 -45t53 -126q0 -87 -80 -116q117 -31 117 -140zM185 519v-167h130q50 0 76 20.5t26 60.5q0 86 -107 86h-125zM453 176q0 92 -106 92h-162v-182h167q101 0 101 90z" />
    <glyph glyph-name="uni1E02" unicode="&#x1e02;" horiz-adv-x="646" 
d="M264.5 807.5q-16.5 16.5 -16.5 45.5q0 30 16.5 46.5t46.5 16.5t46.5 -16.5t16.5 -45.5q0 -30 -16.5 -46.5t-46.5 -16.5t-46.5 16.5zM598 209q0 -99 -59.5 -154t-166.5 -55h-229h-53v724h99h148q104 0 162 -53t58 -148q0 -109 -94 -141q135 -36 135 -173zM189 636v-222
h148q58 0 88 27.5t30 80.5q0 56 -31 85t-92 29h-143zM465 118.5q30 30.5 30 89.5q0 120 -123 120h-183v-240h188q58 0 88 30.5z" />
    <glyph glyph-name="uni1E04" unicode="&#x1e04;" horiz-adv-x="646" 
d="M598 209q0 -99 -59.5 -154t-166.5 -55h-229h-53v724h99h148q104 0 162 -53t58 -148q0 -109 -94 -141q135 -36 135 -173zM189 636v-222h148q58 0 88 27.5t30 80.5q0 56 -31 85t-92 29h-143zM465 118.5q30 30.5 30 89.5q0 120 -123 120h-183v-240h188q58 0 88 30.5z
M285.5 -194.5q-16.5 16.5 -16.5 45.5q0 30 16.5 46.5t46.5 16.5t46.5 -16.5t16.5 -45.5q0 -30 -16.5 -46.5t-46.5 -16.5t-46.5 16.5z" />
    <glyph glyph-name="uni0181" unicode="&#x181;" horiz-adv-x="708" 
d="M660 209q0 -99 -59.5 -154t-166.5 -55h-229h-53v635q-71 0 -71 -70q0 -15 3 -42h-90q-4 17 -4 41q0 76 42.5 118t119.5 42h99h148q104 0 162 -53t58 -148q0 -109 -94 -141q135 -36 135 -173zM251 636v-222h148q58 0 88 27.5t30 80.5q0 114 -123 114h-143zM527 118.5
q30 30.5 30 89.5q0 120 -123 120h-183v-240h188q58 0 88 30.5z" />
    <glyph glyph-name="uni1E06" unicode="&#x1e06;" horiz-adv-x="646" 
d="M598 209q0 -99 -59.5 -154t-166.5 -55h-229h-53v724h99h148q104 0 162 -53t58 -148q0 -109 -94 -141q135 -36 135 -173zM189 636v-222h148q58 0 88 27.5t30 80.5q0 56 -31 85t-92 29h-143zM465 118.5q30 30.5 30 89.5q0 120 -123 120h-183v-240h188q58 0 88 30.5z
M181 -101h302v-72h-302v72z" />
    <glyph glyph-name="uni0243" unicode="&#x243;" horiz-adv-x="646" 
d="M598 209q0 -99 -59.5 -154t-166.5 -55h-229h-53v169h-66v78h66v477h99h148q104 0 162 -53t58 -148q0 -109 -94 -141q135 -36 135 -173zM189 636v-222h148q58 0 88 27.5t30 80.5q0 56 -31 85t-92 29h-143zM465 118.5q30 30.5 30 89.5q0 120 -123 120h-183v-81h143v-78
h-143v-81h188q58 0 88 30.5z" />
    <glyph glyph-name="uni0182" unicode="&#x182;" horiz-adv-x="625" 
d="M513.5 402q63.5 -59 63.5 -172q0 -112 -63 -171t-175 -59h-249v724h99h334v-79h-334v-184h145q116 0 179.5 -59zM438 124.5q36 35.5 36 106.5q0 72 -34.5 107.5t-99.5 35.5h-151v-285h145q68 0 104 35.5z" />
    <glyph glyph-name="C" unicode="C" horiz-adv-x="601" 
d="M133.5 83q-85.5 95 -85.5 265q0 117 39.5 205t111.5 136t169 48q51 0 101 -13.5t90 -37.5l-36 -78q-80 39 -157 39q-102 0 -158.5 -76.5t-56.5 -214.5q0 -136 57.5 -206t170.5 -70q91 0 150 35l36 -77q-32 -24 -83 -37t-109 -13q-154 0 -239.5 95z" />
    <glyph glyph-name="C.c2sc" horiz-adv-x="553" 
d="M124 69q-78 79 -78 222q0 99 35.5 172.5t101.5 113.5t155 40q47 0 93.5 -12t81.5 -34l-33 -75q-73 33 -144 33q-90 0 -140 -61t-50 -170q0 -108 51.5 -163.5t150.5 -55.5q82 0 137 29l34 -73q-29 -22 -75.5 -33.5t-101.5 -11.5q-140 0 -218 79z" />
    <glyph glyph-name="C.ss06" horiz-adv-x="601" 
d="M133.5 83q-85.5 95 -85.5 265q0 117 39.5 205t111.5 136t169 48q51 0 101 -13.5t90 -37.5l-36 -78q-80 39 -157 39q-102 0 -158.5 -76.5t-56.5 -214.5q0 -136 57.5 -206t170.5 -70q91 0 150 35l36 -77q-32 -24 -83 -37t-109 -13q-154 0 -239.5 95z" />
    <glyph glyph-name="Cacute" unicode="&#x106;" horiz-adv-x="601" 
d="M280 793l150 133h116v-12l-182 -133h-84v12zM133.5 83q-85.5 95 -85.5 265q0 117 39.5 205t111.5 136t169 48q51 0 101 -13.5t90 -37.5l-36 -78q-80 39 -157 39q-102 0 -158.5 -76.5t-56.5 -214.5q0 -136 57.5 -206t170.5 -70q91 0 150 35l36 -77q-32 -24 -83 -37
t-109 -13q-154 0 -239.5 95z" />
    <glyph glyph-name="Cacute.c2sc" horiz-adv-x="553" 
d="M124 69q-78 79 -78 222q0 99 35.5 172.5t101.5 113.5t155 40q47 0 93.5 -12t81.5 -34l-33 -75q-73 33 -144 33q-90 0 -140 -61t-50 -170q0 -108 51.5 -163.5t150.5 -55.5q82 0 137 29l34 -73q-29 -22 -75.5 -33.5t-101.5 -11.5q-140 0 -218 79zM264 677l99 159h107v-10
l-132 -159h-74v10z" />
    <glyph glyph-name="uniA792" unicode="&#xa792;" horiz-adv-x="601" 
d="M565 38q-32 -24 -83 -37t-109 -13q-148 0 -233 87.5t-92 246.5h-71v81h73q9 102 50.5 177.5t110 116t157.5 40.5q51 0 101 -13.5t90 -37.5l-36 -78q-80 39 -157 39q-93 0 -148.5 -64t-64.5 -180h163v-81h-164q7 -120 64 -181t163 -61q91 0 150 35z" />
    <glyph glyph-name="Ccaron" unicode="&#x10c;" horiz-adv-x="601" 
d="M301 781l-117 133v12h76l93 -87l92 87h73v-12l-117 -133h-100zM565 38q-32 -24 -83 -37t-109 -13q-154 0 -239.5 95t-85.5 265q0 117 39.5 205t111.5 136t169 48q51 0 101 -13.5t90 -37.5l-36 -78q-80 39 -157 39q-102 0 -158.5 -76.5t-56.5 -214.5q0 -136 57.5 -206
t170.5 -70q91 0 150 35z" />
    <glyph glyph-name="Ccaron.c2sc" horiz-adv-x="553" 
d="M124 69q-78 79 -78 222q0 99 35.5 172.5t101.5 113.5t155 40q47 0 93.5 -12t81.5 -34l-33 -75q-73 33 -144 33q-90 0 -140 -61t-50 -170q0 -108 51.5 -163.5t150.5 -55.5q82 0 137 29l34 -73q-29 -22 -75.5 -33.5t-101.5 -11.5q-140 0 -218 79zM472 836v-10l-102 -159
h-94l-102 159v10h70l80 -103l81 103h67z" />
    <glyph glyph-name="Ccedilla" unicode="&#xc7;" horiz-adv-x="601" 
d="M441.5 -77.5q28.5 -21.5 28.5 -60.5q0 -45 -32.5 -69.5t-91.5 -24.5q-60 0 -108 24l18 51q51 -18 84 -18q52 0 52 36q0 35 -47 35q-21 0 -43 -8l-24 28l32 76q-125 19 -193.5 111.5t-68.5 244.5q0 117 39.5 205t111.5 136t169 48q51 0 101 -13.5t90 -37.5l-36 -78
q-80 39 -157 39q-102 0 -158.5 -76.5t-56.5 -214.5q0 -136 57.5 -206t170.5 -70q91 0 150 35l36 -77q-32 -24 -82.5 -37t-108.5 -13l-32 -46q14 2 21 2q50 0 78.5 -21.5z" />
    <glyph glyph-name="Ccedilla.c2sc" horiz-adv-x="553" 
d="M413.5 -77.5q28.5 -21.5 28.5 -60.5q0 -45 -32.5 -69.5t-91.5 -24.5q-60 0 -108 24l18 51q51 -18 84 -18q52 0 52 36q0 35 -47 35q-21 0 -43 -8l-24 28l33 78q-113 16 -175 93t-62 204q0 99 35.5 172.5t101.5 113.5t155 40q47 0 93.5 -12t81.5 -34l-33 -75
q-73 33 -144 33q-90 0 -140 -61t-50 -170q0 -108 51.5 -163.5t150.5 -55.5q82 0 137 29l34 -73q-28 -21 -73.5 -32.5t-98.5 -12.5l-33 -48q14 2 21 2q50 0 78.5 -21.5z" />
    <glyph glyph-name="uni1E08" unicode="&#x1e08;" horiz-adv-x="601" 
d="M364 781h-84v12l150 133h116v-12zM441.5 -77.5q28.5 -21.5 28.5 -60.5q0 -45 -32.5 -69.5t-91.5 -24.5q-60 0 -108 24l18 51q51 -18 84 -18q52 0 52 36q0 35 -47 35q-21 0 -43 -8l-24 28l32 76q-125 19 -193.5 111.5t-68.5 244.5q0 117 39.5 205t111.5 136t169 48
q51 0 101 -13.5t90 -37.5l-36 -78q-80 39 -157 39q-102 0 -158.5 -76.5t-56.5 -214.5q0 -136 57.5 -206t170.5 -70q91 0 150 35l36 -77q-32 -24 -82.5 -37t-108.5 -13l-32 -46q14 2 21 2q50 0 78.5 -21.5z" />
    <glyph glyph-name="Ccircumflex" unicode="&#x108;" horiz-adv-x="601" 
d="M257 781h-73v12l117 133h100l117 -133v-12h-76l-93 87zM565 38q-32 -24 -83 -37t-109 -13q-154 0 -239.5 95t-85.5 265q0 117 39.5 205t111.5 136t169 48q51 0 101 -13.5t90 -37.5l-36 -78q-80 39 -157 39q-102 0 -158.5 -76.5t-56.5 -214.5q0 -136 57.5 -206t170.5 -70
q91 0 150 35z" />
    <glyph glyph-name="Ccircumflex.c2sc" horiz-adv-x="553" 
d="M124 69q-78 79 -78 222q0 99 35.5 172.5t101.5 113.5t155 40q47 0 93.5 -12t81.5 -34l-33 -75q-73 33 -144 33q-90 0 -140 -61t-50 -170q0 -108 51.5 -163.5t150.5 -55.5q82 0 137 29l34 -73q-29 -22 -75.5 -33.5t-101.5 -11.5q-140 0 -218 79zM472 677v-10h-70l-81 103
l-80 -103h-67v10l102 159h94z" />
    <glyph glyph-name="Cdotaccent" unicode="&#x10a;" horiz-adv-x="601" 
d="M304.5 807.5q-16.5 16.5 -16.5 45.5q0 30 16.5 46.5t46.5 16.5t46.5 -16.5t16.5 -45.5q0 -30 -16.5 -46.5t-46.5 -16.5t-46.5 16.5zM133.5 83q-85.5 95 -85.5 265q0 117 39.5 205t111.5 136t169 48q51 0 101 -13.5t90 -37.5l-36 -78q-80 39 -157 39q-102 0 -158.5 -76.5
t-56.5 -214.5q0 -136 57.5 -206t170.5 -70q91 0 150 35l36 -77q-32 -24 -83 -37t-109 -13q-154 0 -239.5 95z" />
    <glyph glyph-name="uni0187" unicode="&#x187;" horiz-adv-x="693" 
d="M677 852v-82q-26 3 -42 3q-76 0 -76 -79v-15v-71h-36q-80 39 -157 39q-102 0 -158.5 -76.5t-56.5 -214.5q0 -136 57.5 -206t170.5 -70q91 0 150 35l36 -77q-32 -24 -83 -37t-109 -13q-154 0 -239.5 95t-85.5 265q0 117 39.5 205t111.5 136t169 48q54 0 110 -16
q8 64 49 99.5t109 35.5q25 0 41 -4z" />
    <glyph glyph-name="uniA76E" unicode="&#xa76e;" horiz-adv-x="570" 
d="M118 71q125 25 196 77q37 26 57 60t29 85.5t9 132.5q0 222 -139 222q-65 0 -99.5 -37t-34.5 -109q0 -73 36.5 -110t104.5 -37q20 0 55 5v-87q-32 -7 -74 -7q-104 0 -164.5 61.5t-60.5 170.5q0 112 64 175.5t174 63.5q116 0 178.5 -76.5t62.5 -231.5q0 -142 -33 -222
t-110 -132q-47 -32 -108 -55t-125 -33z" />
    <glyph glyph-name="uniA73E" unicode="&#xa73e;" horiz-adv-x="601" 
d="M119 1q-51 13 -83 37l36 77q59 -35 150 -35q113 0 170.5 70t57.5 206q0 138 -56.5 214.5t-158.5 76.5q-78 0 -157 -39l-36 78q40 24 90 37.5t101 13.5q97 0 169 -48t111.5 -136t39.5 -205q0 -170 -85.5 -265t-239.5 -95q-58 0 -109 13zM179.5 321.5
q-16.5 16.5 -16.5 45.5q0 30 16.5 46.5t46.5 16.5t46.5 -16.5t16.5 -45.5q0 -30 -16.5 -46.5t-46.5 -16.5t-46.5 16.5z" />
    <glyph glyph-name="uni023B" unicode="&#x23b;" horiz-adv-x="601" 
d="M482 1q-51 -13 -109 -13q-86 0 -154 31l-47 -126h-73l62 164q-55 46 -84 119.5t-29 171.5q0 117 39.5 205t111.5 136t169 48q24 0 48 -3l29 76h73l-34 -91q41 -12 75 -33l-36 -78q-35 16 -71 27l-198 -524q49 -31 125 -31q91 0 150 35l36 -77q-32 -24 -83 -37zM200 161
l183 485l-17 1q-102 0 -158.5 -76.5t-56.5 -214.5q0 -127 49 -195z" />
    <glyph glyph-name="uniA72C" unicode="&#xa72c;" horiz-adv-x="580" 
d="M532 179h-90v-51q0 -141 -142 -141q-37 0 -66 11l13 78q23 -5 46 -5q26 0 38 15t12 46v47h-315v85l275 460h139v-460h90v-85zM343 264v368l-211 -368h211z" />
    <glyph glyph-name="uniA72E" unicode="&#xa72e;" horiz-adv-x="691" 
d="M532 179h-90v-51q0 -141 -142 -141q-37 0 -66 11l13 78q23 -5 46 -5q26 0 38 15t12 46v47h-315v85l275 460h139v-460h90v-85zM343 264v368l-211 -368h211zM459 -135q39 42 55.5 82.5t16.5 93.5q0 34 -5 67h100q5 -33 5 -65q0 -67 -31 -121t-98 -104z" />
    <glyph glyph-name="D" unicode="D" horiz-adv-x="691" 
d="M548 632.5q85 -91.5 85 -270.5t-86 -270.5t-248 -91.5h-209v724h212q161 0 246 -91.5zM472 158q58 69 58 204q0 136 -58.5 204.5t-173.5 68.5h-109v-546h111q114 0 172 69z" />
    <glyph glyph-name="D.c2sc" horiz-adv-x="641" 
d="M508 529q77 -77 77 -226q0 -150 -77 -226.5t-224 -76.5h-196v606h198q145 0 222 -77zM484 303q0 216 -201 216h-98v-432h99q200 0 200 216z" />
    <glyph glyph-name="D.ss06" horiz-adv-x="691" 
d="M548 632.5q85 -91.5 85 -270.5t-86 -270.5t-248 -91.5h-209v724h212q161 0 246 -91.5zM472 158q58 69 58 204q0 136 -58.5 204.5t-173.5 68.5h-109v-546h111q114 0 172 69z" />
    <glyph glyph-name="uni01F1" unicode="&#x1f1;" horiz-adv-x="1205" 
d="M548 632.5q85 -91.5 85 -270.5t-86 -270.5t-248 -91.5h-209v724h212q161 0 246 -91.5zM472 158q58 69 58 204q0 136 -58.5 204.5t-173.5 68.5h-109v-546h111q114 0 172 69zM1162 87v-87h-469v88l352 549h-339v87h451v-87l-352 -550h357z" />
    <glyph glyph-name="uni01C4" unicode="&#x1c4;" horiz-adv-x="1205" 
d="M877 781l-117 133v12h76l93 -87l92 87h73v-12l-117 -133h-100zM548 632.5q85 -91.5 85 -270.5t-86 -270.5t-248 -91.5h-209v724h212q161 0 246 -91.5zM1162 87v-87h-469v88l353 549h-340v87h451v-87l-353 -550h358zM472 158q58 69 58 204q0 136 -58.5 204.5t-173.5 68.5
h-109v-546h111q114 0 172 69z" />
    <glyph glyph-name="uni0189" unicode="&#x189;" horiz-adv-x="690" 
d="M548 632.5q85 -91.5 85 -270.5t-86 -270.5t-248 -91.5h-209v326h-66v81h66v317h212q161 0 246 -91.5zM472 158q58 69 58 204q0 136 -58.5 204.5t-173.5 68.5h-109v-228h176v-81h-176v-237h111q114 0 172 69z" />
    <glyph glyph-name="Eth" unicode="&#xd0;" horiz-adv-x="690" 
d="M548 632.5q85 -91.5 85 -270.5t-86 -270.5t-248 -91.5h-209v326h-66v81h66v317h211q162 0 247 -91.5zM471.5 158q58.5 69 58.5 204q0 136 -58.5 204.5t-173.5 68.5h-109v-228h176v-81h-176v-237h111q113 0 171.5 69z" />
    <glyph glyph-name="Eth.c2sc" horiz-adv-x="641" 
d="M508 529q77 -77 77 -226q0 -150 -77 -226.5t-224 -76.5h-196v265h-67v76h67v265h198q145 0 222 -77zM484 303q0 216 -201 216h-98v-178h134v-76h-134v-178h99q200 0 200 216z" />
    <glyph glyph-name="Dcaron" unicode="&#x10e;" horiz-adv-x="691" 
d="M289 781l-117 133v12h76l93 -87l92 87h73v-12l-117 -133h-100zM548 632.5q85 -91.5 85 -270.5t-86 -270.5t-248 -91.5h-209v724h212q161 0 246 -91.5zM472 158q58 69 58 204q0 136 -58.5 204.5t-173.5 68.5h-109v-546h111q114 0 172 69z" />
    <glyph glyph-name="Dcaron.c2sc" horiz-adv-x="641" 
d="M508 529q77 -77 77 -226q0 -150 -77 -226.5t-224 -76.5h-196v606h198q145 0 222 -77zM484 303q0 216 -201 216h-98v-432h99q200 0 200 216zM465 836v-10l-102 -159h-94l-102 159v10h70l80 -103l81 103h67z" />
    <glyph glyph-name="uni1E10" unicode="&#x1e10;" horiz-adv-x="691" 
d="M548 632.5q85 -91.5 85 -270.5t-86 -270.5t-248 -91.5h-209v724h212q161 0 246 -91.5zM472 158q58 69 58 204q0 136 -58.5 204.5t-173.5 68.5h-109v-546h111q114 0 172 69zM245 -238q26 28 36 55t10 67q0 7 -3 40h92q3 -17 3 -39q0 -46 -24 -84t-78 -79z" />
    <glyph glyph-name="uni1E12" unicode="&#x1e12;" horiz-adv-x="691" 
d="M548 632.5q85 -91.5 85 -270.5t-86 -270.5t-248 -91.5h-209v724h212q161 0 246 -91.5zM472 158q58 69 58 204q0 136 -58.5 204.5t-173.5 68.5h-109v-546h111q114 0 172 69zM502 -217v-12h-76l-93 87l-92 -87h-73v12l117 133h100z" />
    <glyph glyph-name="Dcroat" unicode="&#x110;" horiz-adv-x="690" 
d="M548 632.5q85 -91.5 85 -270.5t-86 -270.5t-248 -91.5h-209v326h-66v81h66v317h212q161 0 246 -91.5zM472 158q58 69 58 204q0 136 -58.5 204.5t-173.5 68.5h-109v-228h176v-81h-176v-237h111q114 0 172 69z" />
    <glyph glyph-name="Dcroat.c2sc" horiz-adv-x="641" 
d="M508 529q77 -77 77 -226q0 -150 -77 -226.5t-224 -76.5h-196v265h-67v76h67v265h198q145 0 222 -77zM484 303q0 216 -201 216h-98v-178h134v-76h-134v-178h99q200 0 200 216z" />
    <glyph glyph-name="uni1E0A" unicode="&#x1e0a;" horiz-adv-x="691" 
d="M292.5 807.5q-16.5 16.5 -16.5 45.5q0 30 16.5 46.5t46.5 16.5t46.5 -16.5t16.5 -45.5q0 -30 -16.5 -46.5t-46.5 -16.5t-46.5 16.5zM548 632.5q85 -91.5 85 -270.5t-86 -270.5t-248 -91.5h-209v724h212q161 0 246 -91.5zM472 158q58 69 58 204q0 136 -58.5 204.5
t-173.5 68.5h-109v-546h111q114 0 172 69z" />
    <glyph glyph-name="uni1E0C" unicode="&#x1e0c;" horiz-adv-x="691" 
d="M548 632.5q85 -91.5 85 -270.5t-86 -270.5t-248 -91.5h-209v724h212q161 0 246 -91.5zM472 158q58 69 58 204q0 136 -58.5 204.5t-173.5 68.5h-109v-546h111q114 0 172 69zM288.5 -196.5q-16.5 16.5 -16.5 45.5q0 30 16.5 46.5t46.5 16.5t46.5 -16.5t16.5 -45.5
q0 -30 -16.5 -46.5t-46.5 -16.5t-46.5 16.5z" />
    <glyph glyph-name="uni018A" unicode="&#x18a;" horiz-adv-x="753" 
d="M610 632.5q85 -91.5 85 -270.5t-86 -270.5t-248 -91.5h-209v635q-71 0 -71 -70q0 -15 3 -42h-90q-4 17 -4 41q0 76 42.5 118t119.5 42h212q161 0 246 -91.5zM534 158q58 69 58 204q0 136 -58.5 204.5t-173.5 68.5h-109v-546h111q114 0 172 69z" />
    <glyph glyph-name="uniA779" unicode="&#xa779;" horiz-adv-x="706" 
d="M573 631q75 -93 75 -275q0 -183 -75.5 -276t-219.5 -93t-219.5 93t-75.5 276q0 87 26.5 161.5t76.5 125.5h-126v81h318q145 0 220 -93zM545 356q0 285 -210 285h-67q-51 -44 -79 -113t-28 -172q0 -280 192 -280t192 280z" />
    <glyph glyph-name="uni1E0E" unicode="&#x1e0e;" horiz-adv-x="691" 
d="M548 632.5q85 -91.5 85 -270.5t-86 -270.5t-248 -91.5h-209v724h212q161 0 246 -91.5zM472 158q58 69 58 204q0 136 -58.5 204.5t-173.5 68.5h-109v-546h111q114 0 172 69zM184 -103h302v-72h-302v72z" />
    <glyph glyph-name="uni018B" unicode="&#x18b;" horiz-adv-x="625" 
d="M535 0h-249q-112 0 -175 59t-63 171q0 113 63.5 172t179.5 59h145v184h-334v79h433v-724zM436 374h-151q-65 0 -99.5 -35.5t-34.5 -107.5q0 -71 36 -106.5t104 -35.5h145v285z" />
    <glyph glyph-name="uni01F2" unicode="&#x1f2;" horiz-adv-x="1129" 
d="M548 632.5q85 -91.5 85 -270.5t-86 -270.5t-248 -91.5h-209v724h212q161 0 246 -91.5zM472 158q58 69 58 204q0 136 -58.5 204.5t-173.5 68.5h-109v-546h111q114 0 172 69zM1089 82v-82h-389v82l275 375h-266v82h376v-82l-275 -375h279z" />
    <glyph glyph-name="uni01C5" unicode="&#x1c5;" horiz-adv-x="1129" 
d="M843 611l-117 133v12h76l93 -87l92 87h73v-12l-117 -133h-100zM548 632.5q85 -91.5 85 -270.5t-86 -270.5t-248 -91.5h-209v724h212q161 0 246 -91.5zM472 158q58 69 58 204q0 136 -58.5 204.5t-173.5 68.5h-109v-546h111q114 0 172 69zM1089 82v-82h-389v82l276 375
h-267v82h376v-82l-275 -375h279z" />
    <glyph glyph-name="E" unicode="E" horiz-adv-x="576" 
d="M536 89v-89h-446v724h433v-89h-334v-220h249v-90h-249v-236h347z" />
    <glyph glyph-name="E.c2sc" horiz-adv-x="534" 
d="M497 87v-87h-409v606h397v-87h-300v-166h223v-88h-223v-178h312z" />
    <glyph glyph-name="Eacute" unicode="&#xc9;" horiz-adv-x="576" 
d="M323 781h-84v12l150 133h116v-12zM536 89v-89h-446v724h433v-89h-334v-220h249v-90h-249v-236h347z" />
    <glyph glyph-name="Eacute.c2sc" horiz-adv-x="534" 
d="M497 87v-87h-409v606h397v-87h-300v-166h223v-88h-223v-178h312zM230 677l99 159h107v-10l-132 -159h-74v10z" />
    <glyph glyph-name="Ebreve" unicode="&#x114;" horiz-adv-x="576" 
d="M203 823.5q-39 40.5 -42 114.5h62q12 -79 88 -79q77 0 89 79h59q-3 -74 -42 -114.5t-107 -40.5t-107 40.5zM536 89v-89h-446v724h433v-89h-334v-220h249v-90h-249v-236h347z" />
    <glyph glyph-name="Ebreve.c2sc" horiz-adv-x="534" 
d="M497 87v-87h-409v606h397v-87h-300v-166h223v-88h-223v-178h312zM182 705.5q-39 40.5 -42 114.5h62q12 -79 88 -79q77 0 89 79h59q-3 -74 -42 -114.5t-107 -40.5t-107 40.5z" />
    <glyph glyph-name="Ecaron" unicode="&#x11a;" horiz-adv-x="576" 
d="M260 781l-117 133v12h76l93 -87l92 87h73v-12l-117 -133h-100zM536 89v-89h-446v724h433v-89h-334v-220h249v-90h-249v-236h347z" />
    <glyph glyph-name="Ecaron.c2sc" horiz-adv-x="534" 
d="M497 87v-87h-409v606h397v-87h-300v-166h223v-88h-223v-178h312zM438 836v-10l-102 -159h-94l-102 159v10h70l80 -103l81 103h67z" />
    <glyph glyph-name="uni0228" unicode="&#x228;" horiz-adv-x="576" 
d="M346 0l-40 -58q14 2 21 2q50 0 78.5 -21.5t28.5 -60.5q0 -45 -32.5 -69.5t-91.5 -24.5q-60 0 -108 24l18 51q51 -18 84 -18q52 0 52 36q0 35 -47 35q-21 0 -43 -8l-24 28l36 84h-188v724h433v-89h-334v-220h249v-90h-249v-236h347v-89h-190z" />
    <glyph glyph-name="uni1E1C" unicode="&#x1e1c;" horiz-adv-x="576" 
d="M203 823.5q-39 40.5 -42 114.5h62q12 -79 88 -79q77 0 89 79h59q-3 -74 -42 -114.5t-107 -40.5t-107 40.5zM346 0l-40 -58q14 2 21 2q50 0 78.5 -21.5t28.5 -60.5q0 -45 -32.5 -69.5t-91.5 -24.5q-60 0 -108 24l18 51q51 -18 84 -18q52 0 52 36q0 35 -47 35q-21 0 -43 -8
l-24 28l36 84h-188v724h433v-89h-334v-220h249v-90h-249v-236h347v-89h-190z" />
    <glyph glyph-name="Ecircumflex" unicode="&#xca;" horiz-adv-x="576" 
d="M216 781h-73v12l117 133h100l117 -133v-12h-76l-93 87zM536 89v-89h-446v724h433v-89h-334v-220h249v-90h-249v-236h347z" />
    <glyph glyph-name="Ecircumflex.c2sc" horiz-adv-x="534" 
d="M497 87v-87h-409v606h397v-87h-300v-166h223v-88h-223v-178h312zM438 677v-10h-70l-81 103l-80 -103h-67v10l102 159h94z" />
    <glyph glyph-name="uni1EBE" unicode="&#x1ebe;" horiz-adv-x="576" 
d="M595 1026v-10l-102 -127h-64v10l78 127h88zM226 785h-67v10l104 139h94l104 -139v-10h-70l-83 90zM189 89h347v-89h-446v724h433v-89h-334v-220h249v-90h-249v-236z" />
    <glyph glyph-name="uni1E18" unicode="&#x1e18;" horiz-adv-x="576" 
d="M536 89v-89h-446v724h433v-89h-334v-220h249v-90h-249v-236h347zM482 -217v-12h-76l-93 87l-92 -87h-73v12l117 133h100z" />
    <glyph glyph-name="uni1EC6" unicode="&#x1ec6;" horiz-adv-x="576" 
d="M216 781h-73v12l117 133h100l117 -133v-12h-76l-93 87zM536 89v-89h-446v724h433v-89h-334v-220h249v-90h-249v-236h347zM361.5 -104.5q16.5 -16.5 16.5 -45.5q0 -30 -16.5 -46.5t-46.5 -16.5t-46.5 16.5t-16.5 45.5q0 30 16.5 46.5t46.5 16.5t46.5 -16.5z" />
    <glyph glyph-name="uni1EC0" unicode="&#x1ec0;" horiz-adv-x="576" 
d="M129 889l-96 127v10h88l72 -127v-10h-64zM159 795l104 139h94l104 -139v-10h-70l-83 90l-82 -90h-67v10zM536 89v-89h-446v724h433v-89h-334v-220h249v-90h-249v-236h347z" />
    <glyph glyph-name="uni1EC2" unicode="&#x1ec2;" horiz-adv-x="576" 
d="M533 1020.5q22 -17.5 22 -49.5q0 -23 -10 -33.5t-28 -17.5q-13 -6 -18 -10t-5 -12q0 -4 2 -14h-66q-2 10 -2 17q0 19 8.5 27.5t23.5 15.5q12 6 17 10t5 13q0 8 -6.5 13t-19.5 5q-23 0 -54 -17l-21 45q42 25 90 25q40 0 62 -17.5zM226 785h-67v10l104 139h94l104 -139v-10
h-70l-83 90zM189 89h347v-89h-446v724h433v-89h-334v-220h249v-90h-249v-236z" />
    <glyph glyph-name="uni1EC4" unicode="&#x1ec4;" horiz-adv-x="576" 
d="M206 931h-51q0 54 25 84t71 30q25 0 41.5 -8t33.5 -23q13 -11 23 -16.5t23 -5.5q37 0 42 51h51q0 -54 -25 -84t-71 -30q-25 0 -41.5 8t-33.5 23q-13 11 -23 16.5t-23 5.5q-37 0 -42 -51zM357 907l104 -126v-10h-68l-84 81l-85 -81h-65v10l104 126h94zM536 89v-89h-446
v724h433v-89h-334v-220h249v-90h-249v-236h347z" />
    <glyph glyph-name="uni0204" unicode="&#x204;" horiz-adv-x="576" 
d="M215 781l-120 133v12h100l89 -133v-12h-69zM377 781l-120 133v12h99l89 -133v-12h-68zM536 89v-89h-446v724h433v-89h-334v-220h249v-90h-249v-236h347z" />
    <glyph glyph-name="Edieresis" unicode="&#xcb;" horiz-adv-x="576" 
d="M167.5 804q-15.5 16 -15.5 43q0 28 15.5 44t43.5 16q27 0 42.5 -16t15.5 -43q0 -29 -15 -44.5t-43 -15.5t-43.5 16zM366.5 804q-15.5 16 -15.5 43q0 28 15.5 44t43.5 16q27 0 42.5 -16t15.5 -43q0 -29 -15 -44.5t-43 -15.5t-43.5 16zM536 89v-89h-446v724h433v-89h-334
v-220h249v-90h-249v-236h347z" />
    <glyph glyph-name="Edieresis.c2sc" horiz-adv-x="534" 
d="M151.5 691q-15.5 16 -15.5 43q0 28 15.5 44t43.5 16q27 0 42.5 -16t15.5 -43q0 -29 -15 -44.5t-43 -15.5t-43.5 16zM340.5 691q-15.5 16 -15.5 43q0 28 15.5 44t43.5 16q27 0 42.5 -16t15.5 -43q0 -29 -15 -44.5t-43 -15.5t-43.5 16zM497 87v-87h-409v606h397v-87h-300
v-166h223v-88h-223v-178h312z" />
    <glyph glyph-name="Edotaccent" unicode="&#x116;" horiz-adv-x="576" 
d="M263.5 807.5q-16.5 16.5 -16.5 45.5q0 30 16.5 46.5t46.5 16.5t46.5 -16.5t16.5 -45.5q0 -30 -16.5 -46.5t-46.5 -16.5t-46.5 16.5zM536 89v-89h-446v724h433v-89h-334v-220h249v-90h-249v-236h347z" />
    <glyph glyph-name="Edotaccent.c2sc" horiz-adv-x="534" 
d="M497 87v-87h-409v606h397v-87h-300v-166h223v-88h-223v-178h312zM242.5 693.5q-16.5 16.5 -16.5 45.5q0 30 16.5 46.5t46.5 16.5t46.5 -16.5t16.5 -45.5q0 -30 -16.5 -46.5t-46.5 -16.5t-46.5 16.5z" />
    <glyph glyph-name="uni1EB8" unicode="&#x1eb8;" horiz-adv-x="576" 
d="M536 89v-89h-446v724h433v-89h-334v-220h249v-90h-249v-236h347zM268.5 -196.5q-16.5 16.5 -16.5 45.5q0 30 16.5 46.5t46.5 16.5t46.5 -16.5t16.5 -45.5q0 -30 -16.5 -46.5t-46.5 -16.5t-46.5 16.5z" />
    <glyph glyph-name="Egrave" unicode="&#xc8;" horiz-adv-x="576" 
d="M296 781l-173 133v12h117l140 -133v-12h-84zM536 89v-89h-446v724h433v-89h-334v-220h249v-90h-249v-236h347z" />
    <glyph glyph-name="Egrave.c2sc" horiz-adv-x="534" 
d="M497 87v-87h-409v606h397v-87h-300v-166h223v-88h-223v-178h312zM154 826v10h106l92 -159v-10h-74z" />
    <glyph glyph-name="uni1EBA" unicode="&#x1eba;" horiz-adv-x="576" 
d="M236 864l-25 52q48 31 111 31q45 0 70.5 -18.5t25.5 -50.5q0 -25 -12.5 -37t-33.5 -20q-15 -6 -21 -10t-6 -13l2 -17h-74q-2 12 -2 22q0 18 10 27.5t27 16.5q13 6 18.5 10.5t5.5 12.5q0 15 -27 15q-31 0 -69 -21zM536 89v-89h-446v724h433v-89h-334v-220h249v-90h-249
v-236h347z" />
    <glyph glyph-name="uni0206" unicode="&#x206;" horiz-adv-x="576" 
d="M220 791h-59q3 74 42 114.5t107 40.5t107 -40.5t42 -114.5h-62q-12 79 -88 79q-77 0 -89 -79zM536 89v-89h-446v724h433v-89h-334v-220h249v-90h-249v-236h347z" />
    <glyph glyph-name="Emacron" unicode="&#x112;" horiz-adv-x="576" 
d="M461 809h-302v71h302v-71zM536 89v-89h-446v724h433v-89h-334v-220h249v-90h-249v-236h347z" />
    <glyph glyph-name="Emacron.c2sc" horiz-adv-x="534" 
d="M497 87v-87h-409v606h397v-87h-300v-166h223v-88h-223v-178h312zM138 762h302v-71h-302v71z" />
    <glyph glyph-name="uni1E16" unicode="&#x1e16;" horiz-adv-x="576" 
d="M337 909h-64v10l78 127h88v-10zM461 809h-302v71h302v-71zM536 89v-89h-446v724h433v-89h-334v-220h249v-90h-249v-236h347z" />
    <glyph glyph-name="uni1E14" unicode="&#x1e14;" horiz-adv-x="576" 
d="M279 909l-96 127v10h88l72 -127v-10h-64zM461 809h-302v71h302v-71zM536 89v-89h-446v724h433v-89h-334v-220h249v-90h-249v-236h347z" />
    <glyph glyph-name="Eogonek" unicode="&#x118;" horiz-adv-x="576" 
d="M584 -192q-22 -14 -50 -22t-57 -8q-52 0 -81.5 25t-29.5 69q0 38 22.5 71.5t62.5 56.5h-361v724h433v-89h-334v-220h249v-90h-249v-236h347v-89q-87 -50 -87 -110q0 -42 48 -42q30 0 62 16z" />
    <glyph glyph-name="Eogonek.c2sc" horiz-adv-x="534" 
d="M545 -192q-22 -14 -50 -22t-57 -8q-52 0 -81.5 25t-29.5 69q0 38 22.5 71.5t62.5 56.5h-324v606h397v-87h-300v-166h223v-88h-223v-178h312v-87q-87 -50 -87 -110q0 -42 48 -42q30 0 62 16z" />
    <glyph glyph-name="uni0190" unicode="&#x190;" horiz-adv-x="557" 
d="M544 42q-45 -27 -106.5 -40.5t-124.5 -13.5q-124 0 -198 56t-74 166q0 131 134 172q-106 47 -106 162q0 95 68 144t179 49q112 0 199 -49l-33 -78q-81 39 -158 39q-69 0 -111 -29t-42 -88q0 -55 36 -86t102 -31h111v-85h-119q-157 0 -157 -118q0 -66 46 -99.5t134 -33.5
q45 0 93 11.5t88 30.5z" />
    <glyph glyph-name="uni018E" unicode="&#x18e;" horiz-adv-x="576" 
d="M486 724v-724h-446v89h347v236h-249v90h249v220h-334v89h433z" />
    <glyph glyph-name="uniA7AB" unicode="&#xa7ab;" horiz-adv-x="557" 
d="M488 180q0 -95 -68 -144t-179 -49q-112 0 -199 49l33 78q81 -39 158 -39q69 0 111 29t42 88q0 55 -36 86t-102 31h-111v85h119q157 0 157 118q0 66 -46 99.5t-134 33.5q-45 0 -93 -11.5t-88 -30.5l-39 79q45 27 106.5 40.5t124.5 13.5q124 0 198 -56t74 -166
q0 -68 -35 -110.5t-99 -61.5q106 -45 106 -162z" />
    <glyph glyph-name="uni01A9" unicode="&#x1a9;" horiz-adv-x="581" 
d="M51 88l230 279l-230 270v87h489v-87h-371l234 -270l-234 -280h371v-87h-489v88z" />
    <glyph glyph-name="uni0246" unicode="&#x246;" horiz-adv-x="576" 
d="M536 0h-301l-32 -107h-73l32 107h-72v724h289l26 86h73l-26 -86h71v-89h-98l-66 -220h79v-90h-105l-71 -236h274v-89zM353 635h-164v-220h98zM260 325h-71v-236z" />
    <glyph glyph-name="uniA76A" unicode="&#xa76a;" horiz-adv-x="506" 
d="M428.5 323q35.5 -44 35.5 -112q0 -101 -69 -156t-194 -55h-183v89h173q85 0 127.5 32.5t42.5 94.5q0 60 -42.5 88.5t-115.5 28.5h-109v85h91q71 0 103 28.5t32 87.5q0 58 -33 86.5t-91 28.5q-42 0 -76 -10t-74 -29l-34 78q89 49 191 49q101 0 160 -49t59 -142
q0 -112 -96 -159q67 -20 102.5 -64z" />
    <glyph glyph-name="uni1EBC" unicode="&#x1ebc;" horiz-adv-x="576" 
d="M197 790h-59q2 63 28.5 99t73.5 36q26 0 45.5 -10t44.5 -28q18 -13 29 -19t23 -6q34 0 41 61h59q-2 -63 -28.5 -99t-73.5 -36q-26 0 -45.5 10t-44.5 28q-18 13 -29 19t-23 6q-34 0 -41 -61zM536 89v-89h-446v724h433v-89h-334v-220h249v-90h-249v-236h347z" />
    <glyph glyph-name="uni1E1A" unicode="&#x1e1a;" horiz-adv-x="576" 
d="M536 89v-89h-446v724h433v-89h-334v-220h249v-90h-249v-236h347zM339.5 -218q-19.5 10 -44.5 28q-18 13 -29 19t-23 6q-34 0 -41 -61h-59q2 63 28.5 99t73.5 36q26 0 45.5 -10t44.5 -28q18 -13 29 -19t23 -6q34 0 41 61h59q-2 -63 -28.5 -99t-73.5 -36q-26 0 -45.5 10z
" />
    <glyph glyph-name="uni01B7" unicode="&#x1b7;" horiz-adv-x="577" 
d="M529 223q0 -115 -79 -175t-205 -60q-63 0 -123 13.5t-108 40.5l38 80q93 -43 191 -43q88 0 135.5 36.5t47.5 107.5q0 73 -56 103t-163 30h-42v78l199 202h-314v88h435v-90l-198 -201q242 -20 242 -210z" />
    <glyph glyph-name="uni01EE" unicode="&#x1ee;" horiz-adv-x="577" 
d="M210 781l-117 133v12h76l93 -87l92 87h73v-12l-117 -133h-100zM529 223q0 -115 -79 -175t-205 -60q-63 0 -123 13.5t-108 40.5l38 80q93 -43 191 -43q88 0 135.5 36.5t47.5 107.5q0 73 -56 103t-163 30h-42v78l199 202h-314v88h435v-90l-198 -201q242 -20 242 -210z" />
    <glyph glyph-name="uni01B8" unicode="&#x1b8;" horiz-adv-x="577" 
d="M563 42q-48 -27 -108 -40.5t-123 -13.5q-126 0 -205 60t-79 175q0 188 242 210l-198 201v90h435v-88h-314l199 -202v-78h-42q-107 0 -163 -30t-56 -103q0 -71 47.5 -107.5t135.5 -36.5q98 0 191 43z" />
    <glyph glyph-name="F" unicode="F" horiz-adv-x="538" 
d="M189 635v-235h267v-90h-267v-310h-99v724h426v-89h-327z" />
    <glyph glyph-name="F.c2sc" horiz-adv-x="498" 
d="M185 519v-180h239v-88h-239v-251h-97v606h391v-87h-294z" />
    <glyph glyph-name="uni1E1E" unicode="&#x1e1e;" horiz-adv-x="538" 
d="M259.5 807.5q-16.5 16.5 -16.5 45.5q0 30 16.5 46.5t46.5 16.5t46.5 -16.5t16.5 -45.5q0 -30 -16.5 -46.5t-46.5 -16.5t-46.5 16.5zM189 635v-235h267v-90h-267v-310h-99v724h426v-89h-327z" />
    <glyph glyph-name="uni0191" unicode="&#x191;" horiz-adv-x="538" 
d="M189 635v-235h267v-90h-267v-144h1v-228q0 -77 -38.5 -116.5t-113.5 -39.5q-38 0 -67 11l15 84q22 -6 48 -6q29 0 43 17t14 54v58h-1v724h426v-89h-327z" />
    <glyph glyph-name="uniA77B" unicode="&#xa77b;" horiz-adv-x="487" 
d="M261.5 610.5q-33.5 -27.5 -72.5 -95.5v-317h212v-89h-212v-316h-99v931h96v-124q39 71 82.5 104t98.5 33q50 0 98 -24l-36 -92q-49 17 -88 17q-46 0 -79.5 -27.5z" />
    <glyph glyph-name="G" unicode="G" horiz-adv-x="668" 
d="M598 392v-352q-39 -25 -94 -39t-116 -14q-157 0 -243.5 98.5t-86.5 276.5t86.5 276.5t243.5 98.5q56 0 108 -13.5t89 -36.5l-30 -81q-90 42 -169 42q-112 0 -168.5 -72t-56.5 -214t57 -214t170 -72q60 0 111 16v212h-128v88h227z" />
    <glyph glyph-name="G.c2sc" horiz-adv-x="618" 
d="M549 336v-300q-35 -22 -86 -34.5t-106 -12.5q-143 0 -222 82t-79 231t79 232t222 83q52 0 100 -12t82 -33l-29 -79q-80 36 -155 36q-99 0 -149 -57t-50 -170q0 -112 51 -169t150 -57q52 0 95 12v162h-114v86h211z" />
    <glyph glyph-name="G.ss06" horiz-adv-x="668" 
d="M598 392v-352q-39 -25 -94 -39t-116 -14q-157 0 -243.5 98.5t-86.5 276.5t86.5 276.5t243.5 98.5q56 0 108 -13.5t89 -36.5l-30 -81q-90 42 -169 42q-112 0 -168.5 -72t-56.5 -214t57 -214t170 -72q60 0 111 16v212h-128v88h227z" />
    <glyph glyph-name="uni01F4" unicode="&#x1f4;" horiz-adv-x="668" 
d="M373 781h-84v12l150 133h116v-12zM598 392v-352q-39 -25 -94 -39t-116 -14q-157 0 -243.5 98.5t-86.5 276.5t86.5 276.5t243.5 98.5q56 0 108 -13.5t89 -36.5l-30 -81q-90 42 -169 42q-112 0 -168.5 -72t-56.5 -214t57 -214t170 -72q60 0 111 16v212h-128v88h227z" />
    <glyph glyph-name="uni0194" unicode="&#x194;" horiz-adv-x="632" 
d="M414 47q25 -60 25 -102q0 -56 -32 -87.5t-90 -31.5t-89.5 31t-31.5 87q0 43 25 103l50 123l-242 554h106l182 -441l180 441h105l-240 -551zM352 -51q0 35 -21 84l-15 34l-15 -34q-22 -50 -22 -83q0 -48 38 -48q35 0 35 47z" />
    <glyph glyph-name="Gbreve" unicode="&#x11e;" horiz-adv-x="668" 
d="M253 823.5q-39 40.5 -42 114.5h62q12 -79 88 -79q77 0 89 79h59q-3 -74 -42 -114.5t-107 -40.5t-107 40.5zM598 392v-352q-39 -25 -94 -39t-116 -14q-157 0 -243.5 98.5t-86.5 276.5t86.5 276.5t243.5 98.5q56 0 108 -13.5t89 -36.5l-30 -81q-90 42 -169 42
q-112 0 -168.5 -72t-56.5 -214t57 -214t170 -72q60 0 111 16v212h-128v88h227z" />
    <glyph glyph-name="Gbreve.c2sc" horiz-adv-x="618" 
d="M549 336v-300q-35 -22 -86 -34.5t-106 -12.5q-143 0 -222 82t-79 231t79 232t222 83q52 0 100 -12t82 -33l-29 -79q-80 36 -155 36q-99 0 -149 -57t-50 -170q0 -112 51 -169t150 -57q52 0 95 12v162h-114v86h211zM225 705.5q-39 40.5 -42 114.5h62q12 -79 88 -79
q77 0 89 79h59q-3 -74 -42 -114.5t-107 -40.5t-107 40.5z" />
    <glyph glyph-name="Gcaron" unicode="&#x1e6;" horiz-adv-x="668" 
d="M310 781l-117 133v12h76l93 -87l92 87h73v-12l-117 -133h-100zM598 392v-352q-39 -25 -94 -39t-116 -14q-157 0 -243.5 98.5t-86.5 276.5t86.5 276.5t243.5 98.5q56 0 108 -13.5t89 -36.5l-30 -81q-90 42 -169 42q-112 0 -168.5 -72t-56.5 -214t57 -214t170 -72
q60 0 111 16v212h-128v88h227z" />
    <glyph glyph-name="Gcircumflex" unicode="&#x11c;" horiz-adv-x="668" 
d="M266 781h-73v12l117 133h100l117 -133v-12h-76l-93 87zM598 392v-352q-39 -25 -94 -39t-116 -14q-157 0 -243.5 98.5t-86.5 276.5t86.5 276.5t243.5 98.5q56 0 108 -13.5t89 -36.5l-30 -81q-90 42 -169 42q-112 0 -168.5 -72t-56.5 -214t57 -214t170 -72q60 0 111 16v212
h-128v88h227z" />
    <glyph glyph-name="Gcircumflex.c2sc" horiz-adv-x="618" 
d="M549 336v-300q-35 -22 -86 -34.5t-106 -12.5q-143 0 -222 82t-79 231t79 232t222 83q52 0 100 -12t82 -33l-29 -79q-80 36 -155 36q-99 0 -149 -57t-50 -170q0 -112 51 -169t150 -57q52 0 95 12v162h-114v86h211zM481 677v-10h-70l-81 103l-80 -103h-67v10l102 159h94z
" />
    <glyph glyph-name="Gcommaaccent" unicode="&#x122;" horiz-adv-x="668" 
d="M598 392v-352q-39 -25 -94 -39t-116 -14q-157 0 -243.5 98.5t-86.5 276.5t86.5 276.5t243.5 98.5q56 0 108 -13.5t89 -36.5l-30 -81q-90 42 -169 42q-112 0 -168.5 -72t-56.5 -214t57 -214t170 -72q60 0 111 16v212h-128v88h227zM270 -238q26 28 36 55t10 67q0 7 -3 40
h92q3 -17 3 -39q0 -46 -24 -84t-78 -79z" />
    <glyph glyph-name="Gcommaaccent.c2sc" horiz-adv-x="618" 
d="M549 336v-300q-35 -22 -86 -34.5t-106 -12.5q-143 0 -222 82t-79 231t79 232t222 83q52 0 100 -12t82 -33l-29 -79q-80 36 -155 36q-99 0 -149 -57t-50 -170q0 -112 51 -169t150 -57q52 0 95 12v162h-114v86h211zM242 -238q26 28 36 55t10 67q0 7 -3 40h92q3 -17 3 -39
q0 -46 -24 -84t-78 -79z" />
    <glyph glyph-name="Gdotaccent" unicode="&#x120;" horiz-adv-x="668" 
d="M313.5 807.5q-16.5 16.5 -16.5 45.5q0 30 16.5 46.5t46.5 16.5t46.5 -16.5t16.5 -45.5q0 -30 -16.5 -46.5t-46.5 -16.5t-46.5 16.5zM598 392v-352q-39 -25 -94 -39t-116 -14q-157 0 -243.5 98.5t-86.5 276.5t86.5 276.5t243.5 98.5q56 0 108 -13.5t89 -36.5l-30 -81
q-90 42 -169 42q-112 0 -168.5 -72t-56.5 -214t57 -214t170 -72q60 0 111 16v212h-128v88h227z" />
    <glyph glyph-name="uni0193" unicode="&#x193;" horiz-adv-x="754" 
d="M703 852v-82q-27 3 -42 3q-76 0 -76 -79v-15v-73h-30q-90 42 -169 42q-112 0 -168.5 -72t-56.5 -214t57 -214t170 -72q60 0 111 16v212h-128v88h227v-352q-39 -25 -94 -39t-116 -14q-157 0 -243.5 98.5t-86.5 276.5t86.5 276.5t243.5 98.5q64 0 116 -15q8 64 49 99
t109 35q25 0 41 -4z" />
    <glyph glyph-name="uniA77D" unicode="&#xa77d;" horiz-adv-x="528" 
d="M356.5 406q17.5 -29 52.5 -69q40 -46 60.5 -81.5t20.5 -83.5q0 -55 -28 -97t-79.5 -65t-119.5 -23q-103 0 -164 50t-61 134q0 72 49.5 131.5t157.5 127.5q-3 14 -3 28q0 56 30.5 102.5t85.5 76.5h-295v87h409v-87q-68 -36 -100.5 -77t-32.5 -90q0 -35 17.5 -64z
M356.5 101q33.5 25 33.5 71q0 31 -16.5 58.5t-50.5 67.5q-29 33 -46 58q-73 -48 -105.5 -91t-32.5 -91q0 -47 32.5 -72.5t92.5 -25.5q59 0 92.5 25z" />
    <glyph glyph-name="uni0241" unicode="&#x241;" horiz-adv-x="558" 
d="M448 355.5q-51 -72.5 -144 -110.5v-245h-99v306q186 51 186 209q0 127 -119 127q-41 0 -82.5 -16t-88.5 -51l-52 75q44 41 105 64t126 23q104 0 161.5 -56.5t57.5 -158.5q0 -94 -51 -166.5z" />
    <glyph glyph-name="uni1E20" unicode="&#x1e20;" horiz-adv-x="668" 
d="M511 809h-302v71h302v-71zM598 392v-352q-39 -25 -94 -39t-116 -14q-157 0 -243.5 98.5t-86.5 276.5t86.5 276.5t243.5 98.5q56 0 108 -13.5t89 -36.5l-30 -81q-90 42 -169 42q-112 0 -168.5 -72t-56.5 -214t57 -214t170 -72q60 0 111 16v212h-128v88h227z" />
    <glyph glyph-name="uniA7A0" unicode="&#xa7a0;" horiz-adv-x="702" 
d="M682 478l-497 -151q8 -125 64.5 -188t161.5 -63q62 0 111 16v141h-128v83h227v-276q-38 -25 -93.5 -39t-116.5 -14q-141 0 -225.5 81t-100.5 228l-85 -26h-12v65l93 28q1 177 87.5 275.5t242.5 98.5q57 0 109 -13.5t88 -36.5l-29 -81q-90 42 -170 42q-105 0 -161 -63.5
t-63 -189.5l485 148h12v-65z" />
    <glyph glyph-name="uniA7AC" unicode="&#xa7ac;" horiz-adv-x="680" 
d="M589 724v-703v-14q0 -108 -69 -167.5t-197 -59.5q-56 0 -110.5 11.5t-92.5 30.5l28 82q75 -37 170 -37q172 0 172 140v35v68q-32 -45 -80.5 -69t-107.5 -24q-76 0 -131 43t-84 123.5t-29 191.5q0 112 29.5 193.5t86 125t135.5 43.5q54 0 102.5 -21.5t78.5 -59.5v68h99z
M490 187v385q-29 35 -74 55.5t-91 20.5q-81 0 -122.5 -68t-41.5 -199q0 -133 42.5 -202t126.5 -69q92 0 160 77z" />
    <glyph glyph-name="uni01E4" unicode="&#x1e4;" horiz-adv-x="670" 
d="M669 159h-71v-119q-39 -25 -94 -39t-116 -14q-157 0 -243.5 98.5t-86.5 276.5t86.5 276.5t243.5 98.5q56 0 108 -13.5t89 -36.5l-30 -81q-90 42 -169 42q-112 0 -168.5 -72t-56.5 -214t57 -214t170 -72q60 0 111 16v67h-128v77h128v68h-128v88h227v-156h71v-77z" />
    <glyph glyph-name="uniA77E" unicode="&#xa77e;" horiz-adv-x="528" 
d="M256 164.5q-30 -46.5 -85 -77.5h294v-87h-409v87q68 37 100.5 77.5t32.5 89.5q0 35 -17.5 64t-52.5 69q-40 46 -60.5 81.5t-20.5 83.5q0 55 28 97t79.5 65t119.5 23q103 0 164 -50t61 -134q0 -72 -49.5 -131.5t-157.5 -127.5q3 -13 3 -28q0 -55 -30 -101.5zM154.5 493.5
q16.5 -27.5 50.5 -67.5q29 -33 46 -58q72 48 105 91.5t33 90.5t-32.5 72.5t-92.5 25.5q-59 0 -92.5 -25t-33.5 -71q0 -31 16.5 -58.5z" />
    <glyph glyph-name="H" unicode="H" horiz-adv-x="702" 
d="M611 724v-724h-99v323h-323v-323h-99v724h99v-312h323v312h99z" />
    <glyph glyph-name="H.c2sc" horiz-adv-x="654" 
d="M566 606v-606h-97v264h-284v-264h-97v606h97v-256h284v256h97z" />
    <glyph glyph-name="uni2C75" unicode="&#x2c75;" horiz-adv-x="570" 
d="M537 323h-348v-323h-99v724h99v-312h348v-89z" />
    <glyph glyph-name="Hbar" unicode="&#x126;" horiz-adv-x="702" 
d="M678 526h-67v-526h-99v323h-323v-323h-99v526h-66v78h66v120h99v-120h323v120h99v-120h67v-78zM512 526h-323v-114h323v114z" />
    <glyph glyph-name="uni1E2A" unicode="&#x1e2a;" horiz-adv-x="702" 
d="M611 724v-724h-99v323h-323v-323h-99v724h99v-312h323v312h99zM244 -183.5q-39 40.5 -42 114.5h62q12 -79 88 -79q77 0 89 79h59q-3 -74 -42 -114.5t-107 -40.5t-107 40.5z" />
    <glyph glyph-name="uni021E" unicode="&#x21e;" horiz-adv-x="702" 
d="M301 781l-117 133v12h76l93 -87l92 87h73v-12l-117 -133h-100zM611 724v-724h-99v323h-323v-323h-99v724h99v-312h323v312h99z" />
    <glyph glyph-name="uni1E28" unicode="&#x1e28;" horiz-adv-x="702" 
d="M611 724v-724h-99v323h-323v-323h-99v724h99v-312h323v312h99zM233.5 -77.5q28.5 -21.5 28.5 -60.5q0 -45 -32.5 -69.5t-91.5 -24.5q-60 0 -108 24l18 51q51 -18 84 -18q52 0 52 36q0 35 -47 35q-21 0 -43 -8l-24 28l44 104l70 -6l-50 -72q14 2 21 2q50 0 78.5 -21.5z
" />
    <glyph glyph-name="Hcircumflex" unicode="&#x124;" horiz-adv-x="702" 
d="M257 781h-73v12l117 133h100l117 -133v-12h-76l-93 87zM611 724v-724h-99v323h-323v-323h-99v724h99v-312h323v312h99z" />
    <glyph glyph-name="Hcircumflex.c2sc" horiz-adv-x="654" 
d="M566 606v-606h-97v264h-284v-264h-97v606h97v-256h284v256h97zM476 677v-10h-70l-81 103l-80 -103h-67v10l102 159h94z" />
    <glyph glyph-name="uni2C67" unicode="&#x2c67;" horiz-adv-x="712" 
d="M692 89v-240h-76l-17 151h-87v323h-323v-323h-99v724h99v-312h323v312h99v-635h81z" />
    <glyph glyph-name="uni1E26" unicode="&#x1e26;" horiz-adv-x="702" 
d="M208.5 804q-15.5 16 -15.5 43q0 28 15.5 44t43.5 16q27 0 42.5 -16t15.5 -43q0 -29 -15 -44.5t-43 -15.5t-43.5 16zM407.5 804q-15.5 16 -15.5 43q0 28 15.5 44t43.5 16q27 0 42.5 -16t15.5 -43q0 -29 -15 -44.5t-43 -15.5t-43.5 16zM611 724v-724h-99v323h-323v-323h-99
v724h99v-312h323v312h99z" />
    <glyph glyph-name="uni1E22" unicode="&#x1e22;" horiz-adv-x="702" 
d="M304.5 807.5q-16.5 16.5 -16.5 45.5q0 30 16.5 46.5t46.5 16.5t46.5 -16.5t16.5 -45.5q0 -30 -16.5 -46.5t-46.5 -16.5t-46.5 16.5zM611 724v-724h-99v323h-323v-323h-99v724h99v-312h323v312h99z" />
    <glyph glyph-name="uni1E24" unicode="&#x1e24;" horiz-adv-x="702" 
d="M611 724v-724h-99v323h-323v-323h-99v724h99v-312h323v312h99zM304.5 -196.5q-16.5 16.5 -16.5 45.5q0 30 16.5 46.5t46.5 16.5t46.5 -16.5t16.5 -45.5q0 -30 -16.5 -46.5t-46.5 -16.5t-46.5 16.5z" />
    <glyph glyph-name="uniA726" unicode="&#xa726;" horiz-adv-x="702" 
d="M611 724v-724v-34q0 -89 -48.5 -137.5t-136.5 -48.5q-42 0 -79 11.5t-64 33.5l36 75q54 -33 105 -33q88 0 88 103v174v179h-323v-323h-99v724h99v-312h323v312h99z" />
    <glyph glyph-name="uniA7AA" unicode="&#xa7aa;" horiz-adv-x="764" 
d="M673 724v-724h-99v323h-323v-323h-99v635q-71 0 -71 -70q0 -15 3 -42h-90q-4 17 -4 41q0 76 42.5 118t119.5 42h99v-312h323v312h99z" />
    <glyph glyph-name="uniA78D" unicode="&#xa78d;" horiz-adv-x="672" 
d="M581 724v-724h-99v313h-352h-50v411h99v-322h303v322h99z" />
    <glyph glyph-name="uni01F6" unicode="&#x1f6;" horiz-adv-x="1015" 
d="M930 276q0 -140 -56.5 -214.5t-162.5 -74.5q-93 0 -146 52.5t-53 145.5v138h-323v-323h-99v724h99v-312h323v312h99v-522q0 -128 102 -128q61 0 89.5 49t28.5 152q0 79 -7.5 137t-25.5 127h99q33 -124 33 -263z" />
    <glyph glyph-name="I" unicode="I" horiz-adv-x="283" 
d="M92 724h99v-724h-99v724z" />
    <glyph glyph-name="I.c2sc" horiz-adv-x="277" 
d="M90 606h97v-606h-97v606z" />
    <glyph glyph-name="IJ" unicode="&#x132;" horiz-adv-x="661" 
d="M90 724h99v-724h-99v724zM327 -4.5q-36 8.5 -65 23.5l32 83q57 -25 103 -25q92 0 92 110v537h99v-541q0 -93 -49.5 -144.5t-139.5 -51.5q-36 0 -72 8.5z" />
    <glyph glyph-name="Iacute" unicode="&#xcd;" horiz-adv-x="283" 
d="M71 793l150 133h116v-12l-182 -133h-84v12zM92 724h99v-724h-99v724z" />
    <glyph glyph-name="Iacute.c2sc" horiz-adv-x="277" 
d="M90 606h97v-606h-97v606zM80 677l99 159h107v-10l-132 -159h-74v10z" />
    <glyph glyph-name="Ibreve" unicode="&#x12c;" horiz-adv-x="283" 
d="M35 823.5q-39 40.5 -42 114.5h62q12 -79 88 -79q77 0 89 79h59q-3 -74 -42 -114.5t-107 -40.5t-107 40.5zM92 724h99v-724h-99v724z" />
    <glyph glyph-name="Ibreve.c2sc" horiz-adv-x="277" 
d="M90 606h97v-606h-97v606zM32 705.5q-39 40.5 -42 114.5h62q12 -79 88 -79q77 0 89 79h59q-3 -74 -42 -114.5t-107 -40.5t-107 40.5z" />
    <glyph glyph-name="uni01CF" unicode="&#x1cf;" horiz-adv-x="283" 
d="M309 926v-12l-117 -133h-100l-117 133v12h76l93 -87l92 87h73zM92 724h99v-724h-99v724z" />
    <glyph glyph-name="Icircumflex" unicode="&#xce;" horiz-adv-x="283" 
d="M309 793v-12h-76l-93 87l-92 -87h-73v12l117 133h100zM92 724h99v-724h-99v724z" />
    <glyph glyph-name="Icircumflex.c2sc" horiz-adv-x="277" 
d="M90 606h97v-606h-97v606zM288 677v-10h-70l-81 103l-80 -103h-67v10l102 159h94z" />
    <glyph glyph-name="uni0208" unicode="&#x208;" horiz-adv-x="283" 
d="M47 781l-120 133v12h100l89 -133v-12h-69zM209 781l-120 133v12h99l89 -133v-12h-68zM92 724h99v-724h-99v724z" />
    <glyph glyph-name="Idieresis" unicode="&#xcf;" horiz-adv-x="283" 
d="M-0.5 804q-15.5 16 -15.5 43q0 28 15.5 44t43.5 16q27 0 42.5 -16t15.5 -43q0 -29 -15 -44.5t-43 -15.5t-43.5 16zM198.5 804q-15.5 16 -15.5 43q0 28 15.5 44t43.5 16q27 0 42.5 -16t15.5 -43q0 -29 -15 -44.5t-43 -15.5t-43.5 16zM92 724h99v-724h-99v724z" />
    <glyph glyph-name="Idieresis.c2sc" horiz-adv-x="277" 
d="M9.5 691q-15.5 16 -15.5 43q0 28 15.5 44t42.5 16t42.5 -16t15.5 -43q0 -29 -15 -44.5t-43 -15.5q-27 0 -42.5 16zM182.5 691q-15.5 16 -15.5 43q0 28 15.5 44t42.5 16t42.5 -16t15.5 -43q0 -29 -15 -44.5t-43 -15.5q-27 0 -42.5 16zM90 606h97v-606h-97v606z" />
    <glyph glyph-name="uni1E2E" unicode="&#x1e2e;" horiz-adv-x="283" 
d="M107 920l78 127h89v-10l-102 -127h-65v10zM15 806.5q-15 15.5 -15 42.5q0 28 15 43t42 15t41.5 -15t14.5 -42q0 -28 -14.5 -43.5t-41.5 -15.5t-42 15.5zM186 806.5q-15 15.5 -15 42.5q0 28 15 43t42 15t41.5 -15t14.5 -42q0 -28 -14.5 -43.5t-41.5 -15.5t-42 15.5z
M92 724h99v-724h-99v724z" />
    <glyph glyph-name="Idotaccent" unicode="&#x130;" horiz-adv-x="283" 
d="M95.5 807.5q-16.5 16.5 -16.5 45.5q0 30 16.5 46.5t46.5 16.5t46.5 -16.5t16.5 -45.5q0 -30 -16.5 -46.5t-46.5 -16.5t-46.5 16.5zM92 724h99v-724h-99v724z" />
    <glyph glyph-name="Idotaccent.c2sc" horiz-adv-x="277" 
d="M90 606h97v-606h-97v606zM92.5 693.5q-16.5 16.5 -16.5 45.5q0 30 16.5 46.5t46.5 16.5t46.5 -16.5t16.5 -45.5q0 -30 -16.5 -46.5t-46.5 -16.5t-46.5 16.5z" />
    <glyph glyph-name="uni1ECA" unicode="&#x1eca;" horiz-adv-x="283" 
d="M92 724h99v-724h-99v724zM95.5 -196.5q-16.5 16.5 -16.5 45.5q0 30 16.5 46.5t46.5 16.5t46.5 -16.5t16.5 -45.5q0 -30 -16.5 -46.5t-46.5 -16.5t-46.5 16.5z" />
    <glyph glyph-name="Igrave" unicode="&#xcc;" horiz-adv-x="283" 
d="M-45 914v12h117l140 -133v-12h-84zM92 724h99v-724h-99v724z" />
    <glyph glyph-name="Igrave.c2sc" horiz-adv-x="277" 
d="M90 606h97v-606h-97v606zM4 826v10h106l92 -159v-10h-74z" />
    <glyph glyph-name="uni1EC8" unicode="&#x1ec8;" horiz-adv-x="283" 
d="M103 803q0 18 10 27.5t27 16.5q13 6 18.5 10.5t5.5 12.5q0 15 -27 15q-31 0 -69 -21l-25 52q48 31 111 31q45 0 70.5 -18.5t25.5 -50.5q0 -25 -12.5 -37t-33.5 -20q-15 -6 -21 -10t-6 -13l2 -17h-74q-2 12 -2 22zM92 724h99v-724h-99v724z" />
    <glyph glyph-name="uni020A" unicode="&#x20a;" horiz-adv-x="283" 
d="M249 905.5q39 -40.5 42 -114.5h-62q-12 79 -88 79q-77 0 -89 -79h-59q3 74 42 114.5t107 40.5t107 -40.5zM92 724h99v-724h-99v724z" />
    <glyph glyph-name="Imacron" unicode="&#x12a;" horiz-adv-x="283" 
d="M-9 880h302v-71h-302v71zM92 724h99v-724h-99v724z" />
    <glyph glyph-name="Imacron.c2sc" horiz-adv-x="277" 
d="M20 762h238v-71h-238v71zM90 606h97v-606h-97v606z" />
    <glyph glyph-name="Iogonek" unicode="&#x12e;" horiz-adv-x="283" 
d="M257 -192q-21 -14 -49.5 -22t-57.5 -8q-52 0 -81 25t-29 69q0 37 18.5 70t52.5 58h-19v724h99v-724q-68 -54 -68 -110q0 -42 47 -42q31 0 63 16z" />
    <glyph glyph-name="Iogonek.c2sc" horiz-adv-x="277" 
d="M247 -192q-21 -14 -49.5 -22t-57.5 -8q-52 0 -81 25t-29 69q0 37 18.5 70t52.5 58h-11v606h97v-606h-6q-69 -55 -69 -110q0 -42 48 -42q31 0 62 16z" />
    <glyph glyph-name="uni0196" unicode="&#x196;" horiz-adv-x="301" 
d="M90 117v607h99v-594q0 -25 10 -36.5t32 -11.5q18 0 39 4l7 -85q-34 -8 -69 -8q-118 0 -118 124z" />
    <glyph glyph-name="uniA76C" unicode="&#xa76c;" horiz-adv-x="517" 
d="M459 698.5q41 -38.5 41 -107.5q0 -72 -46.5 -112.5t-128.5 -40.5h-36v-246v-19q0 -87 -49 -135.5t-137 -48.5q-33 0 -55 5v85q34 -4 55 -4q88 0 88 98v77v188h-139v82h139v67q0 71 40.5 110.5t113.5 39.5t114 -38.5zM402 589q0 61 -57 61q-56 0 -56 -63v-68h36
q77 0 77 70z" />
    <glyph glyph-name="uni0197" unicode="&#x197;" horiz-adv-x="320" 
d="M298 332h-88v-332h-99v332h-89v81h89v311h99v-311h88v-81z" />
    <glyph glyph-name="Itilde" unicode="&#x128;" horiz-adv-x="283" 
d="M158 798q-16 10 -34 28q-11 13 -20 19.5t-21 6.5q-34 0 -40 -62h-57q0 64 26 99.5t72 35.5q26 0 42 -10t34 -28q11 -13 20 -19.5t21 -6.5q34 0 40 62h57q0 -64 -26 -99.5t-72 -35.5q-26 0 -42 10zM92 724h99v-724h-99v724z" />
    <glyph glyph-name="Itilde.c2sc" horiz-adv-x="277" 
d="M155 680q-16 10 -34 28q-11 13 -20 19.5t-21 6.5q-34 0 -40 -62h-57q0 64 26 99.5t72 35.5q26 0 42 -10t34 -28q11 -13 20 -19.5t21 -6.5q34 0 40 62h57q0 -64 -26 -99.5t-72 -35.5q-26 0 -42 10zM90 606h97v-606h-97v606z" />
    <glyph glyph-name="uni1E2C" unicode="&#x1e2c;" horiz-adv-x="283" 
d="M92 724h99v-724h-99v724zM166.5 -218q-19.5 10 -44.5 28q-18 13 -29 19t-23 6q-34 0 -41 -61h-59q2 63 28.5 99t73.5 36q26 0 45.5 -10t44.5 -28q18 -13 29 -19t23 -6q34 0 41 61h59q-2 -63 -28.5 -99t-73.5 -36q-26 0 -45.5 10z" />
    <glyph glyph-name="J" unicode="J" horiz-adv-x="460" 
d="M78 0q-43 13 -72 36l37 78q61 -37 124 -37q109 0 109 110v537h99v-541q0 -93 -54 -144.5t-151 -51.5q-49 0 -92 13z" />
    <glyph glyph-name="J.c2sc" horiz-adv-x="427" 
d="M70.5 0.5q-39.5 11.5 -66.5 32.5l36 75q56 -31 112 -31q95 0 95 83v446h97v-452q0 -79 -49.5 -122t-139.5 -43q-45 0 -84.5 11.5z" />
    <glyph glyph-name="Jcircumflex" unicode="&#x134;" horiz-adv-x="460" 
d="M492 793v-12h-76l-93 87l-92 -87h-73v12l117 133h100zM276 724h99v-541q0 -93 -54 -144.5t-151 -51.5q-49 0 -92 13t-72 36l37 78q61 -37 124 -37q109 0 109 110v537z" />
    <glyph glyph-name="Jcircumflex.c2sc" horiz-adv-x="427" 
d="M70.5 0.5q-39.5 11.5 -66.5 32.5l36 75q56 -31 112 -31q95 0 95 83v446h97v-452q0 -79 -49.5 -122t-139.5 -43q-45 0 -84.5 11.5zM444 677v-10h-70l-81 103l-80 -103h-67v10l102 159h94z" />
    <glyph glyph-name="uni0248" unicode="&#x248;" horiz-adv-x="478" 
d="M463 332h-88v-149q0 -93 -54 -144.5t-151 -51.5q-49 0 -92 13t-72 36l37 78q61 -37 124 -37q109 0 109 110v145h-119v81h119v311h99v-311h88v-81z" />
    <glyph glyph-name="K" unicode="K" horiz-adv-x="624" 
d="M278 322l-89 -107v-215h-99v724h99v-382l302 382h119l-268 -325l284 -399h-119z" />
    <glyph glyph-name="K.c2sc" horiz-adv-x="577" 
d="M267 267l-82 -93v-174h-97v606h97v-311l266 311h116l-238 -269l252 -337h-116z" />
    <glyph glyph-name="K.salt" horiz-adv-x="624" 
d="M278 322l-89 -107v-215h-99v724h99v-382l302 382h119l-268 -325l284 -399h-119z" />
    <glyph glyph-name="K.ss05" horiz-adv-x="624" 
d="M278 322l-89 -107v-215h-99v724h99v-382l302 382h119l-268 -325l284 -399h-119z" />
    <glyph glyph-name="uni1E30" unicode="&#x1e30;" horiz-adv-x="624" 
d="M338 781h-84v12l150 133h116v-12zM278 322l-89 -107v-215h-99v724h99v-382l302 382h119l-268 -325l284 -399h-119z" />
    <glyph glyph-name="uni01E8" unicode="&#x1e8;" horiz-adv-x="624" 
d="M275 781l-117 133v12h76l93 -87l92 87h73v-12l-117 -133h-100zM278 322l-89 -107v-215h-99v724h99v-382l302 382h119l-268 -325l284 -399h-119z" />
    <glyph glyph-name="Kcommaaccent" unicode="&#x136;" horiz-adv-x="624" 
d="M278 322l-89 -107v-215h-99v724h99v-382l302 382h119l-268 -325l284 -399h-119zM250 -238q26 28 36 55t10 67q0 7 -3 40h92q3 -17 3 -39q0 -46 -24 -84t-78 -79z" />
    <glyph glyph-name="Kcommaaccent.c2sc" horiz-adv-x="577" 
d="M267 267l-82 -93v-174h-97v606h97v-311l266 311h116l-238 -269l252 -337h-116zM228 -238q26 28 36 55t10 67q0 7 -3 40h92q3 -17 3 -39q0 -46 -24 -84t-78 -79z" />
    <glyph glyph-name="uni2C69" unicode="&#x2c69;" horiz-adv-x="632" 
d="M634 89v-240h-76l-17 151h-34l-229 322l-89 -107v-215h-99v724h99v-382l302 382h119l-268 -325l221 -310h71z" />
    <glyph glyph-name="uniA742" unicode="&#xa742;" horiz-adv-x="624" 
d="M507 0l-109 152l-89 -72h-12v76l63 51l-82 115l-89 -107v-215h-99v724h99v-382l302 382h119l-268 -325l93 -132l126 102h12v-75l-99 -81l152 -213h-119z" />
    <glyph glyph-name="uni1E32" unicode="&#x1e32;" horiz-adv-x="624" 
d="M278 322l-89 -107v-215h-99v724h99v-382l302 382h119l-268 -325l284 -399h-119zM293.5 -196.5q-16.5 16.5 -16.5 45.5q0 30 16.5 46.5t46.5 16.5t46.5 -16.5t16.5 -45.5q0 -30 -16.5 -46.5t-46.5 -16.5t-46.5 16.5z" />
    <glyph glyph-name="uni0198" unicode="&#x198;" horiz-adv-x="628" 
d="M339 403l287 -403h-119l-231 325l-87 -110v-215h-99v724h99v-381l229 305q37 49 70 70t74 21q66 0 108 -52l-55 -68q-29 29 -55 29q-15 0 -31 -12.5t-40 -42.5z" />
    <glyph glyph-name="uni1E34" unicode="&#x1e34;" horiz-adv-x="624" 
d="M278 322l-89 -107v-215h-99v724h99v-382l302 382h119l-268 -325l284 -399h-119zM189 -103h302v-72h-302v72z" />
    <glyph glyph-name="uniA7A2" unicode="&#xa7a2;" horiz-adv-x="642" 
d="M398 180l-190 -52v-128h-99v101l-77 -21h-12v65l89 24v555h99v-383l302 383h119l-268 -325l96 -135l143 39h12v-65l-115 -31l147 -207h-119zM357 237l-60 85l-89 -108v-18z" />
    <glyph glyph-name="uniA740" unicode="&#xa740;" horiz-adv-x="624" 
d="M278 322l-89 -107v-215h-99v557h-66v78h66v89h99v-89h96v-78h-96v-215l302 382h119l-268 -325l284 -399h-119z" />
    <glyph glyph-name="uniA744" unicode="&#xa744;" horiz-adv-x="624" 
d="M507 0l-109 152l-89 -72h-12v76l63 51l-82 115l-89 -107v-215h-99v557h-66v78h66v89h99v-89h96v-78h-96v-215l302 382h119l-268 -325l93 -132l126 102h12v-75l-99 -81l152 -213h-119z" />
    <glyph glyph-name="uniA7B0" unicode="&#xa7b0;" horiz-adv-x="624" 
d="M534 724v-724h-99v383l-302 -383h-119l268 325l-284 399h120l228 -322l89 108v214h99z" />
    <glyph glyph-name="L" unicode="L" horiz-adv-x="529" 
d="M501 90v-90h-411v724h99v-634h312z" />
    <glyph glyph-name="L.c2sc" horiz-adv-x="489" 
d="M464 88v-88h-376v606h97v-518h279z" />
    <glyph glyph-name="uni01C7" unicode="&#x1c7;" horiz-adv-x="978" 
d="M189 90h312v-90h-411v724h99v-634zM893 724v-541q0 -93 -50 -144.5t-139 -51.5q-38 0 -76 9t-67 25l35 82q58 -26 105 -26q93 0 93 110v537h99z" />
    <glyph glyph-name="uni1EFA" unicode="&#x1efa;" horiz-adv-x="744" 
d="M717 90v-90h-411h-216v724h99v-634h117v634h99v-634h312z" />
    <glyph glyph-name="Lacute" unicode="&#x139;" horiz-adv-x="529" 
d="M176 781h-84v12l149 133h117v-12zM501 90v-90h-411v724h99v-634h312z" />
    <glyph glyph-name="Lacute.c2sc" horiz-adv-x="489" 
d="M464 88v-88h-376v606h97v-518h279zM97 677l99 159h107v-10l-132 -159h-74v10z" />
    <glyph glyph-name="uni023D" unicode="&#x23d;" horiz-adv-x="528" 
d="M501 90v-90h-411v326h-66v81h66v317h99v-317h178v-81h-178v-236h312z" />
    <glyph glyph-name="uniA7AD" unicode="&#xa7ad;" horiz-adv-x="620" 
d="M593 90v-90h-411v250q-22 -2 -31 -2q-63 0 -98 34t-35 95t34 94.5t96 33.5q16 0 34 -5v224h99v-372l3 1l112 40l24 -66l-115 -42q-16 -6 -24 -8v-187h312zM182 326v98q-13 4 -32 4q-52 0 -52 -52t53 -52q9 0 31 2z" />
    <glyph glyph-name="uniA746" unicode="&#xa746;" horiz-adv-x="585" 
d="M558 90v-90h-399v328h-99v396h99v-310h99v-324h300z" />
    <glyph glyph-name="Lcaron" unicode="&#x13d;" horiz-adv-x="529" 
d="M364 552h-58v218h88v-10zM501 90v-90h-411v724h99v-634h312z" />
    <glyph glyph-name="Lcaron.c2sc" horiz-adv-x="489" 
d="M350 462h-58v218h88v-10zM464 88v-88h-376v606h97v-518h279z" />
    <glyph glyph-name="uni1E3C" unicode="&#x1e3c;" horiz-adv-x="529" 
d="M501 90v-90h-411v724h99v-634h312zM467 -217v-12h-76l-93 87l-92 -87h-73v12l117 133h100z" />
    <glyph glyph-name="Lcommaaccent" unicode="&#x13b;" horiz-adv-x="529" 
d="M501 90v-90h-411v724h99v-634h312zM210 -238q26 28 36 55t10 67q0 7 -3 40h92q3 -17 3 -39q0 -46 -24 -84t-78 -79z" />
    <glyph glyph-name="Lcommaaccent.c2sc" horiz-adv-x="489" 
d="M464 88v-88h-376v606h97v-518h279zM192 -238q26 28 36 55t10 67q0 7 -3 40h92q3 -17 3 -39q0 -46 -24 -84t-78 -79z" />
    <glyph glyph-name="Ldot" unicode="&#x13f;" horiz-adv-x="529" 
d="M501 90v-90h-411v724h99v-634h312zM350.5 353.5q-16.5 16.5 -16.5 45.5q0 30 16.5 46.5t46.5 16.5t46.5 -16.5t16.5 -45.5q0 -30 -16.5 -46.5t-46.5 -16.5t-46.5 16.5z" />
    <glyph glyph-name="Ldot.c2sc" horiz-adv-x="489" 
d="M464 88v-88h-376v606h97v-518h279zM328.5 300.5q-16.5 16.5 -16.5 45.5q0 30 16.5 46.5t46.5 16.5t46.5 -16.5t16.5 -45.5q0 -30 -16.5 -46.5t-46.5 -16.5t-46.5 16.5z" />
    <glyph glyph-name="uni1E36" unicode="&#x1e36;" horiz-adv-x="529" 
d="M501 90v-90h-411v724h99v-634h312zM253.5 -196.5q-16.5 16.5 -16.5 45.5q0 30 16.5 46.5t46.5 16.5t46.5 -16.5t16.5 -45.5q0 -30 -16.5 -46.5t-46.5 -16.5t-46.5 16.5z" />
    <glyph glyph-name="uni1E38" unicode="&#x1e38;" horiz-adv-x="529" 
d="M315 809h-302v71h302v-71zM501 90v-90h-411v724h99v-634h312zM346.5 -104.5q16.5 -16.5 16.5 -45.5q0 -30 -16.5 -46.5t-46.5 -16.5t-46.5 16.5t-16.5 45.5q0 30 16.5 46.5t46.5 16.5t46.5 -16.5z" />
    <glyph glyph-name="uni2C60" unicode="&#x2c60;" horiz-adv-x="528" 
d="M500 90v-90h-410v251h-66v80h66v83h-66v80h66v230h99v-230h178v-80h-178v-83h178v-80h-178v-161h311z" />
    <glyph glyph-name="uniA748" unicode="&#xa748;" horiz-adv-x="529" 
d="M501 90v-90h-411v525h-66v81h66v118h99v-118h178v-81h-178v-435h312z" />
    <glyph glyph-name="uni01C8" unicode="&#x1c8;" horiz-adv-x="800" 
d="M501 90v-90h-411v724h99v-634h312zM477 -141q56 20 85.5 41.5t41.5 53t12 83.5v502h97v-504q0 -74 -18 -120t-61.5 -77.5t-123.5 -58.5zM618.5 641.5q-16.5 16.5 -16.5 45.5q0 30 16.5 46.5t46.5 16.5t46.5 -16.5t16.5 -45.5q0 -30 -16.5 -46.5t-46.5 -16.5t-46.5 16.5z
" />
    <glyph glyph-name="uni1E3A" unicode="&#x1e3a;" horiz-adv-x="529" 
d="M501 90v-90h-411v724h99v-634h312zM149 -103h302v-72h-302v72z" />
    <glyph glyph-name="uni2C62" unicode="&#x2c62;" horiz-adv-x="529" 
d="M501 90v-90h-411v386q-7 3 -15 3q-34 0 -41 -61h-59q2 63 28.5 99t73.5 36q9 0 13 -1v262h99v-314q17 -10 30 -10q34 0 41 61h59q-2 -63 -28.5 -99t-73.5 -36q-16 0 -28 4v-240h312z" />
    <glyph glyph-name="Lslash" unicode="&#x141;" horiz-adv-x="533" 
d="M505 90v-90h-411v253l-51 -32h-10v83l61 35v385h99v-329l207 124h10v-83l-217 -125v-221h312z" />
    <glyph glyph-name="uniA780" unicode="&#xa780;" horiz-adv-x="529" 
d="M439 724v-724h-99v634h-312v90h411z" />
    <glyph glyph-name="M" unicode="M" horiz-adv-x="848" 
d="M758 724v-724h-97v568l-186 -421h-104l-186 421v-568h-95v724h119l216 -484l212 484h121z" />
    <glyph glyph-name="M.c2sc" horiz-adv-x="788" 
d="M699 606v-606h-94v456l-161 -335h-102l-161 335v-456h-93v606h117l189 -400l187 400h118z" />
    <glyph glyph-name="uni1E3E" unicode="&#x1e3e;" horiz-adv-x="848" 
d="M436 781h-84v12l150 133h116v-12zM758 724v-724h-97v568l-186 -421h-104l-186 421v-568h-95v724h119l216 -484l212 484h121z" />
    <glyph glyph-name="uni1E40" unicode="&#x1e40;" horiz-adv-x="848" 
d="M376.5 807.5q-16.5 16.5 -16.5 45.5q0 30 16.5 46.5t46.5 16.5t46.5 -16.5t16.5 -45.5q0 -30 -16.5 -46.5t-46.5 -16.5t-46.5 16.5zM758 724v-724h-97v568l-186 -421h-104l-186 421v-568h-95v724h119l216 -484l212 484h121z" />
    <glyph glyph-name="uni1E42" unicode="&#x1e42;" horiz-adv-x="848" 
d="M758 724v-724h-97v568l-186 -421h-104l-186 421v-568h-95v724h119l216 -484l212 484h121zM376.5 -196.5q-16.5 16.5 -16.5 45.5q0 30 16.5 46.5t46.5 16.5t46.5 -16.5t16.5 -45.5q0 -30 -16.5 -46.5t-46.5 -16.5t-46.5 16.5z" />
    <glyph glyph-name="uni2C6E" unicode="&#x2c6e;" horiz-adv-x="848" 
d="M758 724v-724v-62q0 -77 -38 -116.5t-113 -39.5q-39 0 -68 11l15 84q23 -6 49 -6q30 0 44 17t14 54v224v402l-186 -421h-104l-186 421v-568h-95v724h119l216 -484l212 484h121z" />
    <glyph glyph-name="uni019C" unicode="&#x19c;" horiz-adv-x="891" 
d="M801 724v-724h-91v61q-32 -36 -72 -55t-85 -19q-51 0 -87 21.5t-55 61.5q-34 -41 -76 -62t-88 -21q-73 0 -115 46t-42 127v564h99v-553q0 -92 90 -92q60 0 117 50q-2 20 -2 31v564h99v-553q0 -92 92 -92q59 0 117 49v596h99z" />
    <glyph glyph-name="N" unicode="N" horiz-adv-x="724" 
d="M633 724v-724h-94l-352 556v-556h-97v724h94l352 -555v555h97z" />
    <glyph glyph-name="N.c2sc" horiz-adv-x="674" 
d="M586 606v-606h-92l-311 442v-442h-95v606h93l310 -442v442h95z" />
    <glyph glyph-name="uni01CA" unicode="&#x1ca;" horiz-adv-x="1123" 
d="M536 724h97v-724h-94l-352 556v-556h-97v724h94l352 -555v555zM1038 724v-541q0 -93 -50 -144.5t-139 -51.5q-38 0 -76 9t-67 25l35 82q58 -26 105 -26q93 0 93 110v537h99z" />
    <glyph glyph-name="Nacute" unicode="&#x143;" horiz-adv-x="724" 
d="M375 781h-84v12l150 133h116v-12zM633 724v-724h-94l-352 556v-556h-97v724h94l352 -555v555h97z" />
    <glyph glyph-name="Nacute.c2sc" horiz-adv-x="674" 
d="M586 606v-606h-92l-311 442v-442h-95v606h93l310 -442v442h95zM278 677l99 159h107v-10l-132 -159h-74v10z" />
    <glyph glyph-name="Ncaron" unicode="&#x147;" horiz-adv-x="724" 
d="M312 781l-117 133v12h76l93 -87l92 87h73v-12l-117 -133h-100zM633 724v-724h-94l-352 556v-556h-97v724h94l352 -555v555h97z" />
    <glyph glyph-name="Ncaron.c2sc" horiz-adv-x="674" 
d="M586 606v-606h-92l-311 442v-442h-95v606h93l310 -442v442h95zM486 836v-10l-102 -159h-94l-102 159v10h70l80 -103l81 103h67z" />
    <glyph glyph-name="uni1E4A" unicode="&#x1e4a;" horiz-adv-x="724" 
d="M633 724v-724h-94l-352 556v-556h-97v724h94l352 -555v555h97zM529 -217v-12h-76l-93 87l-92 -87h-73v12l117 133h100z" />
    <glyph glyph-name="Ncommaaccent" unicode="&#x145;" horiz-adv-x="724" 
d="M633 724v-724h-94l-352 556v-556h-97v724h94l352 -555v555h97zM272 -238q26 28 36 55t10 67q0 7 -3 40h92q3 -17 3 -39q0 -46 -24 -84t-78 -79z" />
    <glyph glyph-name="Ncommaaccent.c2sc" horiz-adv-x="674" 
d="M586 606v-606h-92l-311 442v-442h-95v606h93l310 -442v442h95zM247 -238q26 28 36 55t10 67q0 7 -3 40h92q3 -17 3 -39q0 -46 -24 -84t-78 -79z" />
    <glyph glyph-name="uniA790" unicode="&#xa790;" horiz-adv-x="734" 
d="M714 89v-240h-76l-17 151h-82l-352 556v-556h-97v724h94l352 -555v555h97v-635h81z" />
    <glyph glyph-name="uni1E44" unicode="&#x1e44;" horiz-adv-x="724" 
d="M315.5 807.5q-16.5 16.5 -16.5 45.5q0 30 16.5 46.5t46.5 16.5t46.5 -16.5t16.5 -45.5q0 -30 -16.5 -46.5t-46.5 -16.5t-46.5 16.5zM633 724v-724h-94l-352 556v-556h-97v724h94l352 -555v555h97z" />
    <glyph glyph-name="uni1E46" unicode="&#x1e46;" horiz-adv-x="724" 
d="M633 724v-724h-94l-352 556v-556h-97v724h94l352 -555v555h97zM315.5 -196.5q-16.5 16.5 -16.5 45.5q0 30 16.5 46.5t46.5 16.5t46.5 -16.5t16.5 -45.5q0 -30 -16.5 -46.5t-46.5 -16.5t-46.5 16.5z" />
    <glyph glyph-name="uni01F8" unicode="&#x1f8;" horiz-adv-x="724" 
d="M348 781l-173 133v12h117l140 -133v-12h-84zM633 724v-724h-94l-352 556v-556h-97v724h94l352 -555v555h97z" />
    <glyph glyph-name="Eng" unicode="&#x14a;" horiz-adv-x="724" 
d="M633 724v-724v-34q0 -89 -48.5 -137.5t-136.5 -48.5q-42 0 -79 11.5t-64 33.5l36 75q54 -33 105 -33q44 0 67 26t23 77v35l-349 551v-556h-97v724h94l352 -555v555h97z" />
    <glyph glyph-name="uni019D" unicode="&#x19d;" horiz-adv-x="724" 
d="M633 724v-724h-94l-352 556v-556v-62q0 -77 -38 -116.5t-113 -39.5q-38 0 -67 11l15 84q23 -6 49 -6q29 0 43 17t14 54v224v558h94l352 -555v555h97z" />
    <glyph glyph-name="uni01CB" unicode="&#x1cb;" horiz-adv-x="983" 
d="M633 724v-724h-94l-352 556v-556h-97v724h94l352 -555v555h97zM659 -141q56 20 85.5 41.5t41.5 53t12 83.5v502h97v-504q0 -74 -18 -120t-61.5 -77.5t-123.5 -58.5zM800.5 641.5q-16.5 16.5 -16.5 45.5q0 30 16.5 46.5t46.5 16.5t46.5 -16.5t16.5 -45.5
q0 -30 -16.5 -46.5t-46.5 -16.5t-46.5 16.5z" />
    <glyph glyph-name="uni1E48" unicode="&#x1e48;" horiz-adv-x="724" 
d="M633 724v-724h-94l-352 556v-556h-97v724h94l352 -555v555h97zM211 -103h302v-72h-302v72z" />
    <glyph glyph-name="uni0220" unicode="&#x220;" horiz-adv-x="683" 
d="M542 677q55 -60 55 -165v-642h-99v646q0 62 -35.5 95t-101.5 33q-49 0 -90.5 -15.5t-81.5 -49.5v-579h-99v724h96v-74q80 87 202 87q99 0 154 -60z" />
    <glyph glyph-name="uniA7A4" unicode="&#xa7a4;" horiz-adv-x="761" 
d="M741 430l-89 -22v-408h-94l-209 331l-143 -37v-294h-97v270l-77 -20h-12v63l89 22v389h94l199 -314l153 39v275h97v-251l77 20h12v-63zM313 387l-107 170v-197zM555 383l-117 -30l117 -184v214z" />
    <glyph glyph-name="Ntilde" unicode="&#xd1;" horiz-adv-x="724" 
d="M249 790h-59q2 63 28.5 99t73.5 36q26 0 45.5 -10t44.5 -28q18 -13 29 -19t23 -6q34 0 41 61h59q-2 -63 -28.5 -99t-73.5 -36q-26 0 -45.5 10t-44.5 28q-18 13 -29 19t-23 6q-34 0 -41 -61zM633 724v-724h-94l-352 556v-556h-97v724h94l352 -555v555h97z" />
    <glyph glyph-name="Ntilde.c2sc" horiz-adv-x="674" 
d="M586 606v-606h-92l-311 442v-442h-95v606h93l310 -442v442h95zM361.5 680q-19.5 10 -44.5 28q-18 13 -29 19t-23 6q-34 0 -41 -61h-59q2 63 28.5 99t73.5 36q26 0 45.5 -10t44.5 -28q18 -13 29 -19t23 -6q34 0 41 61h59q-2 -63 -28.5 -99t-73.5 -36q-26 0 -45.5 10z" />
    <glyph glyph-name="O" unicode="O" horiz-adv-x="714" 
d="M134.5 82q-76.5 95 -76.5 280t76.5 280t222.5 95q145 0 222 -95t77 -280t-77 -280t-222 -95q-146 0 -222.5 95zM503.5 148q49.5 72 49.5 214t-49.5 214t-146.5 72t-146.5 -72t-49.5 -214t49.5 -214t146.5 -72t146.5 72z" />
    <glyph glyph-name="O.c2sc" horiz-adv-x="658" 
d="M126 68q-70 79 -70 234q0 156 70 235.5t203 79.5q132 0 202.5 -80t70.5 -235t-70.5 -234t-202.5 -79q-133 0 -203 79zM502 302q0 228 -173 228q-86 0 -129.5 -57.5t-43.5 -170.5q0 -112 43.5 -169t129.5 -57q173 0 173 226z" />
    <glyph glyph-name="O.ss06" horiz-adv-x="714" 
d="M134.5 82q-76.5 95 -76.5 280t76.5 280t222.5 95q145 0 222 -95t77 -280t-77 -280t-222 -95q-146 0 -222.5 95zM503.5 148q49.5 72 49.5 214t-49.5 214t-146.5 72t-146.5 -72t-49.5 -214t49.5 -214t146.5 -72t146.5 72z" />
    <glyph glyph-name="uniA74E" unicode="&#xa74e;" horiz-adv-x="1160" 
d="M1028 642q74 -95 74 -280t-74 -280t-213 -95q-82 0 -141 36t-94 106q-35 -70 -94 -106t-141 -36q-140 0 -213.5 95t-73.5 280t73.5 280t213.5 95q82 0 141 -36t94 -106q35 70 94 106t141 36q139 0 213 -95zM482 148q46 72 46 214t-46 214t-137 72t-137.5 -72t-46.5 -214
t46.5 -214t137.5 -72t137 72zM952.5 148q46.5 72 46.5 214t-46.5 214t-137.5 72t-137.5 -72t-46.5 -214t46.5 -214t137.5 -72t137.5 72z" />
    <glyph glyph-name="uni0222" unicode="&#x222;" horiz-adv-x="647" 
d="M564.5 304q33.5 -47 33.5 -111q0 -98 -72 -152t-202 -54t-202 54t-72 152q0 64 33 111t95 71q-54 22 -83 65.5t-29 101.5q0 73 44.5 124t124.5 71l32 -79q-52 -19 -75.5 -48.5t-23.5 -71.5q0 -55 38 -87.5t117 -32.5t118 33t39 87q0 42 -24 71t-77 49l33 79
q81 -20 125.5 -71t44.5 -124q0 -58 -29.5 -101t-83.5 -66q62 -24 95.5 -71zM452.5 109.5q42.5 33.5 42.5 92.5t-43 93t-128 34q-86 0 -128.5 -34t-42.5 -93t42.5 -92.5t128.5 -33.5t128.5 33.5z" />
    <glyph glyph-name="Oacute" unicode="&#xd3;" horiz-adv-x="714" 
d="M286 793l150 133h116v-12l-182 -133h-84v12zM134.5 82q-76.5 95 -76.5 280t76.5 280t222.5 95q145 0 222 -95t77 -280t-77 -280t-222 -95q-146 0 -222.5 95zM503.5 148q49.5 72 49.5 214t-49.5 214t-146.5 72t-146.5 -72t-49.5 -214t49.5 -214t146.5 -72t146.5 72z" />
    <glyph glyph-name="Oacute.c2sc" horiz-adv-x="658" 
d="M126 68q-70 79 -70 234q0 156 70 235.5t203 79.5q132 0 202.5 -80t70.5 -235t-70.5 -234t-202.5 -79q-133 0 -203 79zM502 302q0 228 -173 228q-86 0 -129.5 -57.5t-43.5 -170.5q0 -112 43.5 -169t129.5 -57q173 0 173 226zM270 677l99 159h107v-10l-132 -159h-74v10z
" />
    <glyph glyph-name="Obreve" unicode="&#x14e;" horiz-adv-x="714" 
d="M250 823.5q-39 40.5 -42 114.5h62q12 -79 88 -79q77 0 89 79h59q-3 -74 -42 -114.5t-107 -40.5t-107 40.5zM134.5 82q-76.5 95 -76.5 280t76.5 280t222.5 95q145 0 222 -95t77 -280t-77 -280t-222 -95q-146 0 -222.5 95zM503.5 148q49.5 72 49.5 214t-49.5 214t-146.5 72
t-146.5 -72t-49.5 -214t49.5 -214t146.5 -72t146.5 72z" />
    <glyph glyph-name="Obreve.c2sc" horiz-adv-x="658" 
d="M126 68q-70 79 -70 234q0 156 70 235.5t203 79.5q132 0 202.5 -80t70.5 -235t-70.5 -234t-202.5 -79q-133 0 -203 79zM502 302q0 228 -173 228q-86 0 -129.5 -57.5t-43.5 -170.5q0 -112 43.5 -169t129.5 -57q173 0 173 226zM222 705.5q-39 40.5 -42 114.5h62
q12 -79 88 -79q77 0 89 79h59q-3 -74 -42 -114.5t-107 -40.5t-107 40.5z" />
    <glyph glyph-name="uni01D1" unicode="&#x1d1;" horiz-adv-x="714" 
d="M307 781l-117 133v12h76l93 -87l92 87h73v-12l-117 -133h-100zM579 642q77 -95 77 -280t-77 -280t-222 -95q-146 0 -222.5 95t-76.5 280t76.5 280t222.5 95q145 0 222 -95zM503.5 148q49.5 72 49.5 214t-49.5 214t-146.5 72t-146.5 -72t-49.5 -214t49.5 -214t146.5 -72
t146.5 72z" />
    <glyph glyph-name="uni019F" unicode="&#x19f;" horiz-adv-x="714" 
d="M579 642q77 -95 77 -280t-77 -280t-222 -95q-146 0 -222.5 95t-76.5 280t76.5 280t222.5 95q145 0 222 -95zM218 587.5q-49 -60.5 -57 -179.5h392q-8 119 -57.5 179.5t-138.5 60.5q-90 0 -139 -60.5zM497 138q49 62 56 184h-393q7 -122 56.5 -184t140.5 -62t140 62z" />
    <glyph glyph-name="Ocircumflex" unicode="&#xd4;" horiz-adv-x="714" 
d="M263 781h-73v12l117 133h100l117 -133v-12h-76l-93 87zM579 642q77 -95 77 -280t-77 -280t-222 -95q-146 0 -222.5 95t-76.5 280t76.5 280t222.5 95q145 0 222 -95zM503.5 148q49.5 72 49.5 214t-49.5 214t-146.5 72t-146.5 -72t-49.5 -214t49.5 -214t146.5 -72t146.5 72
z" />
    <glyph glyph-name="Ocircumflex.c2sc" horiz-adv-x="658" 
d="M126 68q-70 79 -70 234q0 156 70 235.5t203 79.5q132 0 202.5 -80t70.5 -235t-70.5 -234t-202.5 -79q-133 0 -203 79zM502 302q0 228 -173 228q-86 0 -129.5 -57.5t-43.5 -170.5q0 -112 43.5 -169t129.5 -57q173 0 173 226zM478 677v-10h-70l-81 103l-80 -103h-67v10
l102 159h94z" />
    <glyph glyph-name="uni1ED0" unicode="&#x1ed0;" horiz-adv-x="714" 
d="M540 889h-64v10l78 127h88v-10zM273 785h-67v10l104 139h94l104 -139v-10h-70l-83 90zM579 642q77 -95 77 -280t-77 -280t-222 -95q-146 0 -222.5 95t-76.5 280t76.5 280t222.5 95q145 0 222 -95zM503.5 148q49.5 72 49.5 214t-49.5 214t-146.5 72t-146.5 -72t-49.5 -214
t49.5 -214t146.5 -72t146.5 72z" />
    <glyph glyph-name="uni1ED8" unicode="&#x1ed8;" horiz-adv-x="714" 
d="M263 781h-73v12l117 133h100l117 -133v-12h-76l-93 87zM579 642q77 -95 77 -280t-77 -280t-222 -95q-146 0 -222.5 95t-76.5 280t76.5 280t222.5 95q145 0 222 -95zM503.5 148q49.5 72 49.5 214t-49.5 214t-146.5 72t-146.5 -72t-49.5 -214t49.5 -214t146.5 -72t146.5 72
zM403.5 -104.5q16.5 -16.5 16.5 -45.5q0 -30 -16.5 -46.5t-46.5 -16.5t-46.5 16.5t-16.5 45.5q0 30 16.5 46.5t46.5 16.5t46.5 -16.5z" />
    <glyph glyph-name="uni1ED2" unicode="&#x1ed2;" horiz-adv-x="714" 
d="M175 889l-96 127v10h88l72 -127v-10h-64zM206 795l104 139h94l104 -139v-10h-70l-83 90l-82 -90h-67v10zM579 642q77 -95 77 -280t-77 -280t-222 -95q-146 0 -222.5 95t-76.5 280t76.5 280t222.5 95q145 0 222 -95zM503.5 148q49.5 72 49.5 214t-49.5 214t-146.5 72
t-146.5 -72t-49.5 -214t49.5 -214t146.5 -72t146.5 72z" />
    <glyph glyph-name="uni1ED4" unicode="&#x1ed4;" horiz-adv-x="714" 
d="M449 968l-21 45q42 25 90 25q40 0 62 -17.5t22 -49.5q0 -23 -10 -33.5t-28 -17.5q-13 -6 -18 -10t-5 -12q0 -4 2 -14h-66q-2 10 -2 17q0 19 8.5 27.5t23.5 15.5q12 6 17 10t5 13q0 8 -6.5 13t-19.5 5q-23 0 -54 -17zM273 785h-67v10l104 139h94l104 -139v-10h-70l-83 90z
M579 642q77 -95 77 -280t-77 -280t-222 -95q-146 0 -222.5 95t-76.5 280t76.5 280t222.5 95q145 0 222 -95zM503.5 148q49.5 72 49.5 214t-49.5 214t-146.5 72t-146.5 -72t-49.5 -214t49.5 -214t146.5 -72t146.5 72z" />
    <glyph glyph-name="uni1ED6" unicode="&#x1ed6;" horiz-adv-x="714" 
d="M253 931h-51q0 54 25 84t71 30q25 0 41.5 -8t33.5 -23q13 -11 23 -16.5t23 -5.5q37 0 42 51h51q0 -54 -25 -84t-71 -30q-25 0 -41.5 8t-33.5 23q-13 11 -23 16.5t-23 5.5q-37 0 -42 -51zM404 907l104 -126v-10h-68l-84 81l-85 -81h-65v10l104 126h94zM579 642
q77 -95 77 -280t-77 -280t-222 -95q-146 0 -222.5 95t-76.5 280t76.5 280t222.5 95q145 0 222 -95zM503.5 148q49.5 72 49.5 214t-49.5 214t-146.5 72t-146.5 -72t-49.5 -214t49.5 -214t146.5 -72t146.5 72z" />
    <glyph glyph-name="uni020C" unicode="&#x20c;" horiz-adv-x="714" 
d="M262 781l-120 133v12h100l89 -133v-12h-69zM424 781l-120 133v12h99l89 -133v-12h-68zM134.5 82q-76.5 95 -76.5 280t76.5 280t222.5 95q145 0 222 -95t77 -280t-77 -280t-222 -95q-146 0 -222.5 95zM503.5 148q49.5 72 49.5 214t-49.5 214t-146.5 72t-146.5 -72
t-49.5 -214t49.5 -214t146.5 -72t146.5 72z" />
    <glyph glyph-name="Odieresis" unicode="&#xd6;" horiz-adv-x="714" 
d="M214.5 804q-15.5 16 -15.5 43q0 28 15.5 44t43.5 16q27 0 42.5 -16t15.5 -43q0 -29 -15 -44.5t-43 -15.5t-43.5 16zM413.5 804q-15.5 16 -15.5 43q0 28 15.5 44t43.5 16q27 0 42.5 -16t15.5 -43q0 -29 -15 -44.5t-43 -15.5t-43.5 16zM134.5 82q-76.5 95 -76.5 280
t76.5 280t222.5 95q145 0 222 -95t77 -280t-77 -280t-222 -95q-146 0 -222.5 95zM503.5 148q49.5 72 49.5 214t-49.5 214t-146.5 72t-146.5 -72t-49.5 -214t49.5 -214t146.5 -72t146.5 72z" />
    <glyph glyph-name="Odieresis.c2sc" horiz-adv-x="658" 
d="M191.5 691q-15.5 16 -15.5 43q0 28 15.5 44t43.5 16q27 0 42.5 -16t15.5 -43q0 -29 -15 -44.5t-43 -15.5t-43.5 16zM380.5 691q-15.5 16 -15.5 43q0 28 15.5 44t43.5 16q27 0 42.5 -16t15.5 -43q0 -29 -15 -44.5t-43 -15.5t-43.5 16zM126 68q-70 79 -70 234
q0 156 70 235.5t203 79.5q132 0 202.5 -80t70.5 -235t-70.5 -234t-202.5 -79q-133 0 -203 79zM502 302q0 228 -173 228q-86 0 -129.5 -57.5t-43.5 -170.5q0 -112 43.5 -169t129.5 -57q173 0 173 226z" />
    <glyph glyph-name="uni022A" unicode="&#x22a;" horiz-adv-x="714" 
d="M206 1031h302v-71h-302v71zM214.5 804q-15.5 16 -15.5 43q0 28 15.5 44t43.5 16q27 0 42.5 -16t15.5 -43q0 -29 -15 -44.5t-43 -15.5t-43.5 16zM413.5 804q-15.5 16 -15.5 43q0 28 15.5 44t43.5 16q27 0 42.5 -16t15.5 -43q0 -29 -15 -44.5t-43 -15.5t-43.5 16zM134.5 82
q-76.5 95 -76.5 280t76.5 280t222.5 95q145 0 222 -95t77 -280t-77 -280t-222 -95q-146 0 -222.5 95zM503.5 148q49.5 72 49.5 214t-49.5 214t-146.5 72t-146.5 -72t-49.5 -214t49.5 -214t146.5 -72t146.5 72z" />
    <glyph glyph-name="uni022E" unicode="&#x22e;" horiz-adv-x="714" 
d="M310.5 807.5q-16.5 16.5 -16.5 45.5q0 30 16.5 46.5t46.5 16.5t46.5 -16.5t16.5 -45.5q0 -30 -16.5 -46.5t-46.5 -16.5t-46.5 16.5zM134.5 82q-76.5 95 -76.5 280t76.5 280t222.5 95q145 0 222 -95t77 -280t-77 -280t-222 -95q-146 0 -222.5 95zM503.5 148
q49.5 72 49.5 214t-49.5 214t-146.5 72t-146.5 -72t-49.5 -214t49.5 -214t146.5 -72t146.5 72z" />
    <glyph glyph-name="uni0230" unicode="&#x230;" horiz-adv-x="714" 
d="M206 1031h302v-71h-302v71zM310.5 807.5q-16.5 16.5 -16.5 45.5q0 30 16.5 46.5t46.5 16.5t46.5 -16.5t16.5 -45.5q0 -30 -16.5 -46.5t-46.5 -16.5t-46.5 16.5zM134.5 82q-76.5 95 -76.5 280t76.5 280t222.5 95q145 0 222 -95t77 -280t-77 -280t-222 -95
q-146 0 -222.5 95zM503.5 148q49.5 72 49.5 214t-49.5 214t-146.5 72t-146.5 -72t-49.5 -214t49.5 -214t146.5 -72t146.5 72z" />
    <glyph glyph-name="uni1ECC" unicode="&#x1ecc;" horiz-adv-x="714" 
d="M134.5 82q-76.5 95 -76.5 280t76.5 280t222.5 95q145 0 222 -95t77 -280t-77 -280t-222 -95q-146 0 -222.5 95zM503.5 148q49.5 72 49.5 214t-49.5 214t-146.5 72t-146.5 -72t-49.5 -214t49.5 -214t146.5 -72t146.5 72zM310.5 -196.5q-16.5 16.5 -16.5 45.5
q0 30 16.5 46.5t46.5 16.5t46.5 -16.5t16.5 -45.5q0 -30 -16.5 -46.5t-46.5 -16.5t-46.5 16.5z" />
    <glyph glyph-name="Ograve" unicode="&#xd2;" horiz-adv-x="714" 
d="M170 914v12h117l140 -133v-12h-84zM134.5 82q-76.5 95 -76.5 280t76.5 280t222.5 95q145 0 222 -95t77 -280t-77 -280t-222 -95q-146 0 -222.5 95zM503.5 148q49.5 72 49.5 214t-49.5 214t-146.5 72t-146.5 -72t-49.5 -214t49.5 -214t146.5 -72t146.5 72z" />
    <glyph glyph-name="Ograve.c2sc" horiz-adv-x="658" 
d="M126 68q-70 79 -70 234q0 156 70 235.5t203 79.5q132 0 202.5 -80t70.5 -235t-70.5 -234t-202.5 -79q-133 0 -203 79zM502 302q0 228 -173 228q-86 0 -129.5 -57.5t-43.5 -170.5q0 -112 43.5 -169t129.5 -57q173 0 173 226zM194 826v10h106l92 -159v-10h-74z" />
    <glyph glyph-name="uni1ECE" unicode="&#x1ece;" horiz-adv-x="714" 
d="M318 803q0 18 10 27.5t27 16.5q13 6 18.5 10.5t5.5 12.5q0 15 -27 15q-31 0 -69 -21l-25 52q48 31 111 31q45 0 70.5 -18.5t25.5 -50.5q0 -25 -12.5 -37t-33.5 -20q-15 -6 -21 -10t-6 -13l2 -17h-74q-2 12 -2 22zM134.5 82q-76.5 95 -76.5 280t76.5 280t222.5 95
q145 0 222 -95t77 -280t-77 -280t-222 -95q-146 0 -222.5 95zM503.5 148q49.5 72 49.5 214t-49.5 214t-146.5 72t-146.5 -72t-49.5 -214t49.5 -214t146.5 -72t146.5 72z" />
    <glyph glyph-name="Ohorn" unicode="&#x1a0;" horiz-adv-x="714" 
d="M669 700q-32 -35 -105 -42q92 -95 92 -296q0 -184 -77 -279.5t-222 -95.5q-146 0 -222.5 95t-76.5 280t76.5 280t222.5 95q30 0 49 -3.5t44 -9.5q16 -4 33.5 -7t37.5 -3q51 0 71.5 20.5t20.5 67.5q0 25 -5 61h88q5 -30 5 -59q0 -69 -32 -104zM503.5 148q49.5 72 49.5 214
t-49.5 214t-146.5 72t-146.5 -72t-49.5 -214t49.5 -214t146.5 -72t146.5 72z" />
    <glyph glyph-name="uni1EDA" unicode="&#x1eda;" horiz-adv-x="714" 
d="M372 781h-84v12l150 133h116v-12zM669 700q-32 -35 -105 -42q92 -95 92 -296q0 -184 -77 -279.5t-222 -95.5q-146 0 -222.5 95t-76.5 280t76.5 280t222.5 95q30 0 49 -3.5t44 -9.5q16 -4 33.5 -7t37.5 -3q51 0 71.5 20.5t20.5 67.5q0 25 -5 61h88q5 -30 5 -59
q0 -69 -32 -104zM503.5 148q49.5 72 49.5 214t-49.5 214t-146.5 72t-146.5 -72t-49.5 -214t49.5 -214t146.5 -72t146.5 72z" />
    <glyph glyph-name="uni1EE2" unicode="&#x1ee2;" horiz-adv-x="714" 
d="M669 700q-32 -35 -105 -42q92 -95 92 -296q0 -184 -77 -279.5t-222 -95.5q-146 0 -222.5 95t-76.5 280t76.5 280t222.5 95q30 0 49 -3.5t44 -9.5q16 -4 33.5 -7t37.5 -3q51 0 71.5 20.5t20.5 67.5q0 25 -5 61h88q5 -30 5 -59q0 -69 -32 -104zM503.5 148q49.5 72 49.5 214
t-49.5 214t-146.5 72t-146.5 -72t-49.5 -214t49.5 -214t146.5 -72t146.5 72zM312.5 -196.5q-16.5 16.5 -16.5 45.5q0 30 16.5 46.5t46.5 16.5t46.5 -16.5t16.5 -45.5q0 -30 -16.5 -46.5t-46.5 -16.5t-46.5 16.5z" />
    <glyph glyph-name="uni1EDC" unicode="&#x1edc;" horiz-adv-x="714" 
d="M345 781l-173 133v12h117l140 -133v-12h-84zM669 700q-32 -35 -105 -42q92 -95 92 -296q0 -184 -77 -279.5t-222 -95.5q-146 0 -222.5 95t-76.5 280t76.5 280t222.5 95q30 0 49 -3.5t44 -9.5q16 -4 33.5 -7t37.5 -3q51 0 71.5 20.5t20.5 67.5q0 25 -5 61h88q5 -30 5 -59
q0 -69 -32 -104zM503.5 148q49.5 72 49.5 214t-49.5 214t-146.5 72t-146.5 -72t-49.5 -214t49.5 -214t146.5 -72t146.5 72z" />
    <glyph glyph-name="uni1EDE" unicode="&#x1ede;" horiz-adv-x="714" 
d="M285 864l-25 52q48 31 111 31q45 0 70.5 -18.5t25.5 -50.5q0 -25 -12.5 -37t-33.5 -20q-15 -6 -21 -10t-6 -13l2 -17h-74q-2 12 -2 22q0 18 10 27.5t27 16.5q13 6 18.5 10.5t5.5 12.5q0 15 -27 15q-31 0 -69 -21zM669 700q-32 -35 -105 -42q92 -95 92 -296
q0 -184 -77 -279.5t-222 -95.5q-146 0 -222.5 95t-76.5 280t76.5 280t222.5 95q30 0 49 -3.5t44 -9.5q16 -4 33.5 -7t37.5 -3q51 0 71.5 20.5t20.5 67.5q0 25 -5 61h88q5 -30 5 -59q0 -69 -32 -104zM503.5 148q49.5 72 49.5 214t-49.5 214t-146.5 72t-146.5 -72t-49.5 -214
t49.5 -214t146.5 -72t146.5 72z" />
    <glyph glyph-name="uni1EE0" unicode="&#x1ee0;" horiz-adv-x="714" 
d="M246 790h-59q2 63 28.5 99t73.5 36q26 0 45.5 -10t44.5 -28q18 -13 29 -19t23 -6q34 0 41 61h59q-2 -63 -28.5 -99t-73.5 -36q-26 0 -45.5 10t-44.5 28q-18 13 -29 19t-23 6q-34 0 -41 -61zM669 700q-32 -35 -105 -42q92 -95 92 -296q0 -184 -77 -279.5t-222 -95.5
q-146 0 -222.5 95t-76.5 280t76.5 280t222.5 95q30 0 49 -3.5t44 -9.5q16 -4 33.5 -7t37.5 -3q51 0 71.5 20.5t20.5 67.5q0 25 -5 61h88q5 -30 5 -59q0 -69 -32 -104zM503.5 148q49.5 72 49.5 214t-49.5 214t-146.5 72t-146.5 -72t-49.5 -214t49.5 -214t146.5 -72t146.5 72z
" />
    <glyph glyph-name="Ohungarumlaut" unicode="&#x150;" horiz-adv-x="714" 
d="M221 793l98 133h99v-12l-129 -133h-68v12zM382 793l98 133h100v-12l-129 -133h-69v12zM134.5 82q-76.5 95 -76.5 280t76.5 280t222.5 95q145 0 222 -95t77 -280t-77 -280t-222 -95q-146 0 -222.5 95zM503.5 148q49.5 72 49.5 214t-49.5 214t-146.5 72t-146.5 -72
t-49.5 -214t49.5 -214t146.5 -72t146.5 72z" />
    <glyph glyph-name="Ohungarumlaut.c2sc" horiz-adv-x="658" 
d="M126 68q-70 79 -70 234q0 156 70 235.5t203 79.5q132 0 202.5 -80t70.5 -235t-70.5 -234t-202.5 -79q-133 0 -203 79zM502 302q0 228 -173 228q-86 0 -129.5 -57.5t-43.5 -170.5q0 -112 43.5 -169t129.5 -57q173 0 173 226zM212 677l59 159h94v-10l-90 -159h-63v10z
M358 677l60 159h94v-10l-91 -159h-63v10z" />
    <glyph glyph-name="uni01A2" unicode="&#x1a2;" horiz-adv-x="891" 
d="M801 724v-932h-99v843h-96v-595q-47 -25 -111 -38t-138 -13q-146 0 -222.5 94.5t-76.5 278.5q0 186 74 279.5t225 93.5q21 0 54 -3q107 -8 195 -8h195zM507 96v542l-39 3q-11 1 -44 3t-67 2q-97 0 -146.5 -71.5t-49.5 -212.5t49.5 -212.5t146.5 -71.5q89 0 150 18z" />
    <glyph glyph-name="uni020E" unicode="&#x20e;" horiz-adv-x="714" 
d="M464 905.5q39 -40.5 42 -114.5h-62q-12 79 -88 79q-77 0 -89 -79h-59q3 74 42 114.5t107 40.5t107 -40.5zM134.5 82q-76.5 95 -76.5 280t76.5 280t222.5 95q145 0 222 -95t77 -280t-77 -280t-222 -95q-146 0 -222.5 95zM503.5 148q49.5 72 49.5 214t-49.5 214t-146.5 72
t-146.5 -72t-49.5 -214t49.5 -214t146.5 -72t146.5 72z" />
    <glyph glyph-name="uniA74A" unicode="&#xa74a;" horiz-adv-x="782" 
d="M765 325h-76q-7 -167 -83.5 -252.5t-214.5 -85.5q-136 0 -213 87t-85 251h-75v78h75q9 165 85 249.5t213 84.5q136 0 213 -86t85 -248h76v-78zM194 403h395q-7 123 -57 185.5t-141 62.5q-183 0 -197 -248zM533 136.5q50 63.5 56 188.5h-396q14 -252 198 -252
q92 0 142 63.5z" />
    <glyph glyph-name="uniA74C" unicode="&#xa74c;" horiz-adv-x="937" 
d="M843 673.5q56 -63.5 56 -188.5q0 -124 -56 -187.5t-163 -63.5q-24 0 -35 2q-24 -123 -97 -186t-191 -63q-146 0 -222.5 95t-76.5 280t76.5 280t222.5 95q107 0 177 -52q51 52 146 52q107 0 163 -63.5zM808 485q0 173 -128 173q-55 0 -88 -34q64 -94 64 -262q0 -17 -2 -47
q9 -2 26 -2q128 0 128 172zM503.5 148q49.5 72 49.5 214t-49.5 214t-146.5 72t-146.5 -72t-49.5 -214t49.5 -214t146.5 -72t146.5 72z" />
    <glyph glyph-name="Omacron" unicode="&#x14c;" horiz-adv-x="714" 
d="M206 880h302v-71h-302v71zM134.5 82q-76.5 95 -76.5 280t76.5 280t222.5 95q145 0 222 -95t77 -280t-77 -280t-222 -95q-146 0 -222.5 95zM503.5 148q49.5 72 49.5 214t-49.5 214t-146.5 72t-146.5 -72t-49.5 -214t49.5 -214t146.5 -72t146.5 72z" />
    <glyph glyph-name="Omacron.c2sc" horiz-adv-x="658" 
d="M126 68q-70 79 -70 234q0 156 70 235.5t203 79.5q132 0 202.5 -80t70.5 -235t-70.5 -234t-202.5 -79q-133 0 -203 79zM502 302q0 228 -173 228q-86 0 -129.5 -57.5t-43.5 -170.5q0 -112 43.5 -169t129.5 -57q173 0 173 226zM178 762h302v-71h-302v71z" />
    <glyph glyph-name="uni1E52" unicode="&#x1e52;" horiz-adv-x="714" 
d="M320 919l78 127h88v-10l-102 -127h-64v10zM206 880h302v-71h-302v71zM134.5 82q-76.5 95 -76.5 280t76.5 280t222.5 95q145 0 222 -95t77 -280t-77 -280t-222 -95q-146 0 -222.5 95zM503.5 148q49.5 72 49.5 214t-49.5 214t-146.5 72t-146.5 -72t-49.5 -214t49.5 -214
t146.5 -72t146.5 72z" />
    <glyph glyph-name="uni1E50" unicode="&#x1e50;" horiz-adv-x="714" 
d="M230 1036v10h88l72 -127v-10h-64zM206 880h302v-71h-302v71zM134.5 82q-76.5 95 -76.5 280t76.5 280t222.5 95q145 0 222 -95t77 -280t-77 -280t-222 -95q-146 0 -222.5 95zM503.5 148q49.5 72 49.5 214t-49.5 214t-146.5 72t-146.5 -72t-49.5 -214t49.5 -214t146.5 -72
t146.5 72z" />
    <glyph glyph-name="uni01EA" unicode="&#x1ea;" horiz-adv-x="714" 
d="M380 -110q0 -42 47 -42q31 0 63 16l25 -56q-46 -30 -108 -30q-52 0 -81 25t-29 69q0 65 62 115h-2q-146 0 -222.5 95t-76.5 280t76.5 280t222.5 95q145 0 222 -95t77 -280q0 -137 -43.5 -224t-132.5 -131q-100 -49 -100 -117zM210.5 148q49.5 -72 146.5 -72t146.5 72
t49.5 214t-49.5 214t-146.5 72t-146.5 -72t-49.5 -214t49.5 -214z" />
    <glyph glyph-name="uni01EC" unicode="&#x1ec;" horiz-adv-x="714" 
d="M508 809h-302v71h302v-71zM380 -110q0 -42 47 -42q31 0 63 16l25 -56q-46 -30 -108 -30q-52 0 -81 25t-29 69q0 65 62 115h-2q-146 0 -222.5 95t-76.5 280t76.5 280t222.5 95q145 0 222 -95t77 -280q0 -137 -43.5 -224t-132.5 -131q-100 -49 -100 -117zM210.5 148
q49.5 -72 146.5 -72t146.5 72t49.5 214t-49.5 214t-146.5 72t-146.5 -72t-49.5 -214t49.5 -214z" />
    <glyph glyph-name="uni0186" unicode="&#x186;" horiz-adv-x="601" 
d="M467.5 641q85.5 -95 85.5 -265q0 -117 -39.5 -205t-111.5 -136t-169 -48q-51 0 -101 13.5t-90 37.5l36 78q80 -39 157 -39q102 0 158.5 77t56.5 214q0 136 -57.5 206t-170.5 70q-91 0 -150 -35l-36 77q32 24 83 37t109 13q154 0 239.5 -95z" />
    <glyph glyph-name="Oslash" unicode="&#xd8;" horiz-adv-x="714" 
d="M686 723l-88 -110q58 -95 58 -251q0 -185 -77 -280t-222 -95q-123 0 -196 69l-50 -66h-83v11l88 110q-58 95 -58 251q0 185 76.5 280t222.5 95q121 0 195 -69l50 66h84v-11zM208 578q-50 -73 -50 -216q0 -106 23 -169l315 403q-48 55 -139 55q-99 0 -149 -73zM505.5 146
q50.5 73 50.5 216q0 102 -23 169l-316 -403q48 -55 140 -55q98 0 148.5 73z" />
    <glyph glyph-name="Oslashacute" unicode="&#x1fe;" horiz-adv-x="714" 
d="M370 781h-84v12l150 133h116v-12zM686 723l-88 -110q58 -95 58 -251q0 -185 -77 -280t-222 -95q-123 0 -196 69l-50 -66h-83v11l88 110q-58 95 -58 251q0 185 76.5 280t222.5 95q121 0 195 -69l50 66h84v-11zM208 578q-50 -73 -50 -216q0 -106 23 -169l315 403
q-48 55 -139 55q-99 0 -149 -73zM505.5 146q50.5 73 50.5 216q0 102 -23 169l-316 -403q48 -55 140 -55q98 0 148.5 73z" />
    <glyph glyph-name="Otilde" unicode="&#xd5;" horiz-adv-x="714" 
d="M381.5 798q-19.5 10 -44.5 28q-18 13 -29 19t-23 6q-34 0 -41 -61h-59q2 63 28.5 99t73.5 36q26 0 45.5 -10t44.5 -28q18 -13 29 -19t23 -6q34 0 41 61h59q-2 -63 -28.5 -99t-73.5 -36q-26 0 -45.5 10zM134.5 82q-76.5 95 -76.5 280t76.5 280t222.5 95q145 0 222 -95
t77 -280t-77 -280t-222 -95q-146 0 -222.5 95zM503.5 148q49.5 72 49.5 214t-49.5 214t-146.5 72t-146.5 -72t-49.5 -214t49.5 -214t146.5 -72t146.5 72z" />
    <glyph glyph-name="Otilde.c2sc" horiz-adv-x="658" 
d="M126 68q-70 79 -70 234q0 156 70 235.5t203 79.5q132 0 202.5 -80t70.5 -235t-70.5 -234t-202.5 -79q-133 0 -203 79zM502 302q0 228 -173 228q-86 0 -129.5 -57.5t-43.5 -170.5q0 -112 43.5 -169t129.5 -57q173 0 173 226zM353.5 680q-19.5 10 -44.5 28q-18 13 -29 19
t-23 6q-34 0 -41 -61h-59q2 63 28.5 99t73.5 36q26 0 45.5 -10t44.5 -28q18 -13 29 -19t23 -6q34 0 41 61h59q-2 -63 -28.5 -99t-73.5 -36q-26 0 -45.5 10z" />
    <glyph glyph-name="uni1E4C" unicode="&#x1e4c;" horiz-adv-x="714" 
d="M322 920l78 127h89v-10l-102 -127h-65v10zM375 778q-16 8 -35 24q-13 11 -23 16.5t-22 5.5q-37 0 -42 -52h-51q0 54 25 84t71 30q25 0 41.5 -8t33.5 -23q13 -11 23 -16.5t23 -5.5q36 0 41 51h52q0 -54 -25.5 -84t-70.5 -30q-25 0 -41 8zM134.5 82q-76.5 95 -76.5 280
t76.5 280t222.5 95q145 0 222 -95t77 -280t-77 -280t-222 -95q-146 0 -222.5 95zM503.5 148q49.5 72 49.5 214t-49.5 214t-146.5 72t-146.5 -72t-49.5 -214t49.5 -214t146.5 -72t146.5 72z" />
    <glyph glyph-name="uni1E4E" unicode="&#x1e4e;" horiz-adv-x="714" 
d="M218 949q-15 15 -15 41q0 27 15 42t42 15t42.5 -15t15.5 -41q0 -27 -15.5 -42t-42.5 -15t-42 15zM411 949q-15 15 -15 41q0 27 15 42t42 15t42.5 -15t15.5 -41q0 -27 -15.5 -42t-42.5 -15t-42 15zM375.5 792q-15.5 8 -35.5 23q-13 11 -23 16.5t-22 5.5q-37 0 -42 -51h-51
q0 54 25 84t71 30q25 0 41.5 -8t33.5 -23q13 -11 23 -16.5t23 -5.5q37 0 41 51h52q0 -54 -25.5 -84t-70.5 -30q-25 0 -40.5 8zM134.5 82q-76.5 95 -76.5 280t76.5 280t222.5 95q145 0 222 -95t77 -280t-77 -280t-222 -95q-146 0 -222.5 95zM503.5 148q49.5 72 49.5 214
t-49.5 214t-146.5 72t-146.5 -72t-49.5 -214t49.5 -214t146.5 -72t146.5 72z" />
    <glyph glyph-name="uni022C" unicode="&#x22c;" horiz-adv-x="714" 
d="M206 1035h302v-71h-302v71zM374.5 816q-16.5 8 -33.5 23q-13 11 -23 16.5t-23 5.5q-37 0 -42 -51h-51q0 54 25 84t71 30q25 0 41.5 -8t33.5 -23q13 -11 23 -16.5t23 -5.5q37 0 42 51h51q0 -54 -25 -84t-71 -30q-25 0 -41.5 8zM134.5 82q-76.5 95 -76.5 280t76.5 280
t222.5 95q145 0 222 -95t77 -280t-77 -280t-222 -95q-146 0 -222.5 95zM503.5 148q49.5 72 49.5 214t-49.5 214t-146.5 72t-146.5 -72t-49.5 -214t49.5 -214t146.5 -72t146.5 72z" />
    <glyph glyph-name="OE" unicode="&#x152;" horiz-adv-x="962" 
d="M922 89v-89h-429h-136q-145 0 -222 91.5t-77 270.5t77 270.5t222 91.5h174h378v-89h-320v-220h235v-90h-235v-236h333zM493 89v546h-136q-97 0 -146.5 -68.5t-49.5 -204.5q0 -135 49.5 -204t146.5 -69h136z" />
    <glyph glyph-name="P" unicode="P" horiz-adv-x="597" 
d="M516.5 661.5q60.5 -62.5 60.5 -174.5q0 -113 -62.5 -176t-173.5 -63h-152v-248h-99v724h99h157q110 0 170.5 -62.5zM441.5 375q32.5 38 32.5 111q0 74 -33.5 111.5t-99.5 37.5h-152v-298h157q63 0 95.5 38z" />
    <glyph glyph-name="P.c2sc" horiz-adv-x="552" 
d="M478.5 553q55.5 -53 55.5 -150t-57 -150.5t-160 -53.5h-132v-199h-97v606h97h137q101 0 156.5 -53zM434 401q0 58 -29.5 88t-87.5 30h-132v-233h137q112 0 112 115z" />
    <glyph glyph-name="uni1E54" unicode="&#x1e54;" horiz-adv-x="597" 
d="M322 781h-84v12l150 133h116v-12zM516.5 661.5q60.5 -62.5 60.5 -174.5q0 -113 -62.5 -176t-173.5 -63h-152v-248h-99v724h99h157q110 0 170.5 -62.5zM441.5 375q32.5 38 32.5 111q0 74 -33.5 111.5t-99.5 37.5h-152v-298h157q63 0 95.5 38z" />
    <glyph glyph-name="uni1E56" unicode="&#x1e56;" horiz-adv-x="597" 
d="M262.5 807.5q-16.5 16.5 -16.5 45.5q0 30 16.5 46.5t46.5 16.5t46.5 -16.5t16.5 -45.5q0 -30 -16.5 -46.5t-46.5 -16.5t-46.5 16.5zM516.5 661.5q60.5 -62.5 60.5 -174.5q0 -113 -62.5 -176t-173.5 -63h-152v-248h-99v724h99h157q110 0 170.5 -62.5zM441.5 375
q32.5 38 32.5 111q0 74 -33.5 111.5t-99.5 37.5h-152v-298h157q63 0 95.5 38z" />
    <glyph glyph-name="uniA752" unicode="&#xa752;" horiz-adv-x="696" 
d="M615.5 661.5q60.5 -62.5 60.5 -174.5q0 -113 -62 -176t-174 -63h-151v-248h-99v250q-99 -3 -99 -93q0 -13 3 -48h-91q-3 27 -3 47q0 84 50 131t140 49v388h99h156q110 0 170.5 -62.5zM541 374.5q32 37.5 32 111.5q0 149 -133 149h-151v-298h156q64 0 96 37.5z" />
    <glyph glyph-name="uni01A4" unicode="&#x1a4;" horiz-adv-x="659" 
d="M578.5 661.5q60.5 -62.5 60.5 -174.5q0 -113 -62 -176t-174 -63h-152v-248h-99v635q-71 0 -71 -70q0 -15 3 -42h-90q-4 17 -4 41q0 76 42.5 118t119.5 42h99h157q110 0 170.5 -62.5zM504 374.5q32 37.5 32 111.5t-33.5 111.5t-99.5 37.5h-152v-298h157q64 0 96 37.5z" />
    <glyph glyph-name="Thorn" unicode="&#xde;" horiz-adv-x="615" 
d="M511.5 543q60.5 -61 60.5 -172q0 -112 -62 -173.5t-173 -61.5h-148v-136h-99v724h99v-120h152q110 0 170.5 -61zM436.5 261.5q32.5 36.5 32.5 108.5t-33.5 108.5t-98.5 36.5h-148v-290h152q63 0 95.5 36.5z" />
    <glyph glyph-name="uniA754" unicode="&#xa754;" horiz-adv-x="742" 
d="M661.5 662q60.5 -62 60.5 -175t-62 -176t-174 -63h-151v-248h-99v257q-82 4 -130 50.5t-48 121.5q0 29 6.5 51t18.5 51q9 21 14 36t5 31q0 24 -16.5 39t-69.5 38l30 62q55 -21 84 -40.5t40.5 -42.5t11.5 -57q0 -21 -5 -38t-16 -43q-10 -22 -15.5 -40.5t-5.5 -39.5
q0 -44 25 -70.5t71 -28.5v387h99h156q110 0 170.5 -62zM587 374.5q32 37.5 32 111.5q0 149 -133 149h-151v-298h156q64 0 96 37.5z" />
    <glyph glyph-name="uni2C63" unicode="&#x2c63;" horiz-adv-x="597" 
d="M516.5 661.5q60.5 -62.5 60.5 -174.5q0 -113 -62.5 -176t-173.5 -63h-152v-248h-99v447h-66v79h66v198h99h157q110 0 170.5 -62.5zM441.5 375q32.5 38 32.5 111q0 74 -33.5 111.5t-99.5 37.5h-152v-109h152v-79h-152v-110h157q63 0 95.5 38z" />
    <glyph glyph-name="uniA750" unicode="&#xa750;" horiz-adv-x="597" 
d="M189 248v-78h179v-80h-179v-90h-99v90h-66v80h66v554h99h157q110 0 170.5 -62.5t60.5 -174.5q0 -113 -62.5 -176t-173.5 -63h-152zM189 635v-298h157q63 0 95.5 38t32.5 111q0 74 -33.5 111.5t-99.5 37.5h-152z" />
    <glyph glyph-name="Q" unicode="Q" horiz-adv-x="714" 
d="M601 -157l-137 160q-47 -16 -107 -16q-146 0 -222.5 95t-76.5 280t76.5 280t222.5 95q145 0 222 -95t77 -280q0 -225 -114 -317l125 -135zM210.5 148q49.5 -72 146.5 -72t146.5 72t49.5 214t-49.5 214t-146.5 72t-146.5 -72t-49.5 -214t49.5 -214z" />
    <glyph glyph-name="Q.c2sc" horiz-adv-x="658" 
d="M546 -135l-126 135q-42 -11 -91 -11q-133 0 -203 79t-70 234q0 156 70 235.5t203 79.5q132 0 202.5 -80t70.5 -235q0 -187 -103 -264l110 -109zM199.5 133q43.5 -57 129.5 -57q173 0 173 226q0 228 -173 228q-86 0 -129.5 -57.5t-43.5 -170.5q0 -112 43.5 -169z" />
    <glyph glyph-name="Q.ss06" horiz-adv-x="714" 
d="M601 -157l-137 160q-47 -16 -107 -16q-146 0 -222.5 95t-76.5 280t76.5 280t222.5 95q145 0 222 -95t77 -280q0 -225 -114 -317l125 -135zM210.5 148q49.5 -72 146.5 -72t146.5 72t49.5 214t-49.5 214t-146.5 72t-146.5 -72t-49.5 -214t49.5 -214z" />
    <glyph glyph-name="uniA758" unicode="&#xa758;" horiz-adv-x="813" 
d="M807 193q0 -47 -26 -89.5t-82 -90.5l-71 -60l39 -43l-66 -67l-43 51l-96 -81l-45 51l96 81l-49 58q-47 -16 -107 -16q-146 0 -222.5 95t-76.5 280t76.5 280t222.5 95q145 0 222 -95t77 -280q0 -225 -114 -317l40 -42l73 62q39 33 57 63t18 63q0 24 -11 59l74 22
q14 -45 14 -79zM210.5 148q49.5 -72 146.5 -72t146.5 72t49.5 214t-49.5 214t-146.5 72t-146.5 -72t-49.5 -214t49.5 -214z" />
    <glyph glyph-name="uni024A" unicode="&#x24a;" horiz-adv-x="680" 
d="M709 -207q-29 -11 -67 -11q-75 0 -113.5 39.5t-38.5 116.5v142q-32 -45 -80.5 -69t-107.5 -24q-116 0 -180 98t-64 275q0 179 66 278t185 99q54 0 102.5 -21.5t78.5 -59.5v68h99v-724v-58q0 -37 14 -54t43 -17q26 0 48 6zM490 157v415q-29 35 -74 55.5t-91 20.5
q-82 0 -123 -71t-41 -211q0 -142 42.5 -214t126.5 -72q92 0 160 77z" />
    <glyph glyph-name="uniA756" unicode="&#xa756;" horiz-adv-x="714" 
d="M623 -41l44 -49l-66 -67l-46 54l-92 -83l-46 50l94 85l-47 54q-47 -16 -107 -16q-146 0 -222.5 95t-76.5 280t76.5 280t222.5 95q145 0 222 -95t77 -280q0 -225 -114 -317l35 -37l98 89l45 -50zM210.5 148q49.5 -72 146.5 -72t146.5 72t49.5 214t-49.5 214t-146.5 72
t-146.5 -72t-49.5 -214t49.5 -214z" />
    <glyph glyph-name="R" unicode="R" horiz-adv-x="633" 
d="M313 269h-124v-269h-99v724h99h148q108 0 168.5 -60t60.5 -167q0 -84 -38.5 -140.5t-110.5 -76.5l187 -280h-120zM189 356h148q126 0 126 140q0 69 -33 104.5t-97 35.5h-144v-280z" />
    <glyph glyph-name="R.c2sc" horiz-adv-x="587" 
d="M292 218h-107v-218h-97v606h97h129q100 0 155 -51t55 -143q0 -71 -34 -118.5t-97 -65.5l167 -228h-117zM185 302h129q110 0 110 108q0 55 -28.5 82.5t-84.5 27.5h-126v-218z" />
    <glyph glyph-name="R.ss03" horiz-adv-x="633" 
d="M313 269h-124v-269h-99v724h99h148q108 0 168.5 -60t60.5 -167q0 -84 -38.5 -140.5t-110.5 -76.5l187 -280h-120zM189 356h148q126 0 126 140q0 69 -33 104.5t-97 35.5h-144v-280z" />
    <glyph glyph-name="Racute" unicode="&#x154;" horiz-adv-x="633" 
d="M330 781h-84v12l150 133h116v-12zM313 269h-124v-269h-99v724h99h148q108 0 168.5 -60t60.5 -167q0 -84 -38.5 -140.5t-110.5 -76.5l187 -280h-120zM189 356h148q126 0 126 140q0 69 -33 104.5t-97 35.5h-144v-280z" />
    <glyph glyph-name="Racute.c2sc" horiz-adv-x="587" 
d="M292 218h-107v-218h-97v606h97h129q100 0 155 -51t55 -143q0 -71 -34 -118.5t-97 -65.5l167 -228h-117zM185 302h129q110 0 110 108q0 55 -28.5 82.5t-84.5 27.5h-126v-218zM237 677l99 159h107v-10l-132 -159h-74v10z" />
    <glyph glyph-name="Rcaron" unicode="&#x158;" horiz-adv-x="633" 
d="M267 781l-117 133v12h76l93 -87l92 87h73v-12l-117 -133h-100zM313 269h-124v-269h-99v724h99h148q108 0 168.5 -60t60.5 -167q0 -84 -38.5 -140.5t-110.5 -76.5l187 -280h-120zM189 356h148q126 0 126 140q0 69 -33 104.5t-97 35.5h-144v-280z" />
    <glyph glyph-name="Rcaron.c2sc" horiz-adv-x="587" 
d="M292 218h-107v-218h-97v606h97h129q100 0 155 -51t55 -143q0 -71 -34 -118.5t-97 -65.5l167 -228h-117zM185 302h129q110 0 110 108q0 55 -28.5 82.5t-84.5 27.5h-126v-218zM445 836v-10l-102 -159h-94l-102 159v10h70l80 -103l81 103h67z" />
    <glyph glyph-name="Rcommaaccent" unicode="&#x156;" horiz-adv-x="633" 
d="M313 269h-124v-269h-99v724h99h148q108 0 168.5 -60t60.5 -167q0 -84 -38.5 -140.5t-110.5 -76.5l187 -280h-120zM189 356h148q126 0 126 140q0 69 -33 104.5t-97 35.5h-144v-280zM246 -238q26 28 36 55t10 67q0 7 -3 40h92q3 -17 3 -39q0 -46 -24 -84t-78 -79z" />
    <glyph glyph-name="Rcommaaccent.c2sc" horiz-adv-x="587" 
d="M292 218h-107v-218h-97v606h97h129q100 0 155 -51t55 -143q0 -71 -34 -118.5t-97 -65.5l167 -228h-117zM185 302h129q110 0 110 108q0 55 -28.5 82.5t-84.5 27.5h-126v-218zM223 -238q26 28 36 55t10 67q0 7 -3 40h92q3 -17 3 -39q0 -46 -24 -84t-78 -79z" />
    <glyph glyph-name="uni0210" unicode="&#x210;" horiz-adv-x="633" 
d="M222 781l-120 133v12h100l89 -133v-12h-69zM384 781l-120 133v12h99l89 -133v-12h-68zM313 269h-124v-269h-99v724h99h148q108 0 168.5 -60t60.5 -167q0 -84 -38.5 -140.5t-110.5 -76.5l187 -280h-120zM189 356h148q126 0 126 140q0 69 -33 104.5t-97 35.5h-144v-280z
" />
    <glyph glyph-name="uni1E58" unicode="&#x1e58;" horiz-adv-x="633" 
d="M270.5 807.5q-16.5 16.5 -16.5 45.5q0 30 16.5 46.5t46.5 16.5t46.5 -16.5t16.5 -45.5q0 -30 -16.5 -46.5t-46.5 -16.5t-46.5 16.5zM313 269h-124v-269h-99v724h99h148q108 0 168.5 -60t60.5 -167q0 -84 -38.5 -140.5t-110.5 -76.5l187 -280h-120zM189 356h148
q126 0 126 140q0 69 -33 104.5t-97 35.5h-144v-280z" />
    <glyph glyph-name="uni1E5A" unicode="&#x1e5a;" horiz-adv-x="633" 
d="M313 269h-124v-269h-99v724h99h148q108 0 168.5 -60t60.5 -167q0 -84 -38.5 -140.5t-110.5 -76.5l187 -280h-120zM189 356h148q126 0 126 140q0 69 -33 104.5t-97 35.5h-144v-280zM289.5 -196.5q-16.5 16.5 -16.5 45.5q0 30 16.5 46.5t46.5 16.5t46.5 -16.5t16.5 -45.5
q0 -30 -16.5 -46.5t-46.5 -16.5t-46.5 16.5z" />
    <glyph glyph-name="uni1E5C" unicode="&#x1e5c;" horiz-adv-x="633" 
d="M468 809h-302v71h302v-71zM604 0h-120l-171 269h-124v-269h-99v724h99h148q108 0 168.5 -60t60.5 -167q0 -84 -38.5 -140.5t-110.5 -76.5zM189 356h148q126 0 126 140q0 69 -33 104.5t-97 35.5h-144v-280zM382.5 -104.5q16.5 -16.5 16.5 -45.5q0 -30 -16.5 -46.5
t-46.5 -16.5t-46.5 16.5t-16.5 45.5q0 30 16.5 46.5t46.5 16.5t46.5 -16.5z" />
    <glyph glyph-name="uniA782" unicode="&#xa782;" horiz-adv-x="728" 
d="M707 5q-29 -11 -67 -11q-70 0 -106 37t-36 109v238v138q0 62 -35.5 95t-101.5 33q-49 0 -90.5 -16t-81.5 -50v-785h-99v931h96v-74q80 87 202 87q99 0 154 -60t55 -165v-275v-94q0 -31 12 -46t38 -15q24 0 45 6z" />
    <glyph glyph-name="uni0212" unicode="&#x212;" horiz-adv-x="633" 
d="M227 791h-59q3 74 42 114.5t107 40.5t107 -40.5t42 -114.5h-62q-12 79 -88 79q-77 0 -89 -79zM313 269h-124v-269h-99v724h99h148q108 0 168.5 -60t60.5 -167q0 -84 -38.5 -140.5t-110.5 -76.5l187 -280h-120zM189 356h148q126 0 126 140q0 69 -33 104.5t-97 35.5h-144
v-280z" />
    <glyph glyph-name="uni1E5E" unicode="&#x1e5e;" horiz-adv-x="633" 
d="M313 269h-124v-269h-99v724h99h148q108 0 168.5 -60t60.5 -167q0 -84 -38.5 -140.5t-110.5 -76.5l187 -280h-120zM189 356h148q126 0 126 140q0 69 -33 104.5t-97 35.5h-144v-280zM185 -103h302v-72h-302v72z" />
    <glyph glyph-name="uniA7A6" unicode="&#xa7a6;" horiz-adv-x="653" 
d="M664 536l-81 -19q1 -7 1 -20q0 -85 -38 -141t-110 -76l186 -280h-120l-171 269h-123v-269h-99v401l-77 -19h-12v65l89 22v255h99h147q85 0 141 -37t76 -105l80 19h12v-65zM208 493l265 64q-26 79 -122 79h-143v-143zM481 492l-273 -67v-69h147q124 0 126 136z" />
    <glyph glyph-name="uniA75A" unicode="&#xa75a;" horiz-adv-x="540" 
d="M238 285l238 -274v-11h-114l-269 325v69q73 -22 150 -22q74 0 112.5 35t38.5 105q0 134 -141 134q-88 0 -172 -51l-40 76q43 31 101.5 48.5t118.5 17.5q112 0 174 -59t62 -164q0 -109 -65.5 -169t-183.5 -60h-10z" />
    <glyph glyph-name="uni024C" unicode="&#x24c;" horiz-adv-x="649" 
d="M329 269h-124v-269h-99v272h-86v82h86v370h99h148q108 0 168.5 -60t60.5 -167q0 -85 -38.5 -141t-110.5 -76l187 -280h-120zM205 356h148q126 0 126 140q0 69 -33 104.5t-97 35.5h-144v-280z" />
    <glyph glyph-name="uni2C64" unicode="&#x2c64;" horiz-adv-x="633" 
d="M203 -112q14 -17 43 -17q26 0 48 6l15 -84q-29 -11 -67 -11q-75 0 -113.5 39.5t-38.5 116.5v228v558h99h148q108 0 168.5 -60t60.5 -167q0 -84 -38.5 -140.5t-110.5 -76.5l187 -280h-120l-171 269h-124v-327q0 -37 14 -54zM189 636v-280h148q126 0 126 140
q0 69 -33 104.5t-97 35.5h-144z" />
    <glyph glyph-name="uniA75C" unicode="&#xa75c;" horiz-adv-x="585" 
d="M569 0h-112l-39 -149h-95l39 149h-286v86q291 257 291 430q0 63 -37.5 96.5t-101.5 33.5q-73 0 -150 -49l-44 75q91 65 201 65q68 0 120.5 -25t82 -72t29.5 -110q0 -98 -71 -212.5t-200 -232.5h188l48 184h95l-47 -184h89v-85z" />
    <glyph glyph-name="S" unicode="S" horiz-adv-x="562" 
d="M145 4q-60 16 -106 45l34 81q96 -54 194 -54q72 0 110.5 29.5t38.5 82.5q0 45 -26.5 73.5t-82.5 43.5l-82 23q-93 25 -135.5 73t-42.5 127q0 97 62.5 152.5t170.5 55.5q53 0 109.5 -12t104.5 -34l-33 -82q-103 40 -183 40q-64 0 -98.5 -27.5t-34.5 -77.5q0 -45 26.5 -73
t82.5 -43l82 -23q92 -26 134.5 -74t42.5 -127q0 -100 -65.5 -157.5t-180.5 -57.5q-62 0 -122 16z" />
    <glyph glyph-name="S.c2sc" horiz-adv-x="518" 
d="M134.5 4q-55.5 14 -97.5 39l33 78q83 -46 177 -46q63 0 96 21.5t33 62.5q0 34 -23 55.5t-73 34.5l-75 20q-84 22 -122 61.5t-38 106.5q0 84 56.5 131.5t156.5 47.5q49 0 100.5 -10.5t96.5 -30.5l-33 -77q-96 33 -166 33q-57 0 -87 -20t-30 -58q0 -35 23.5 -56t74.5 -34
l74 -19q84 -22 122.5 -62.5t38.5 -107.5q0 -86 -60 -135t-165 -49q-57 0 -112.5 14z" />
    <glyph glyph-name="Sacute" unicode="&#x15a;" horiz-adv-x="562" 
d="M198 793l150 133h116v-12l-182 -133h-84v12zM145 4q-60 16 -106 45l34 81q96 -54 194 -54q72 0 110.5 29.5t38.5 82.5q0 45 -26.5 73.5t-82.5 43.5l-82 23q-93 25 -135.5 73t-42.5 127q0 97 62.5 152.5t170.5 55.5q53 0 109.5 -12t104.5 -34l-33 -82q-103 40 -183 40
q-64 0 -98.5 -27.5t-34.5 -77.5q0 -45 26.5 -73t82.5 -43l82 -23q92 -26 134.5 -74t42.5 -127q0 -100 -65.5 -157.5t-180.5 -57.5q-62 0 -122 16z" />
    <glyph glyph-name="Sacute.c2sc" horiz-adv-x="518" 
d="M134.5 4q-55.5 14 -97.5 39l33 78q83 -46 177 -46q63 0 96 21.5t33 62.5q0 34 -23 55.5t-73 34.5l-75 20q-84 22 -122 61.5t-38 106.5q0 84 56.5 131.5t156.5 47.5q49 0 100.5 -10.5t96.5 -30.5l-33 -77q-96 33 -166 33q-57 0 -87 -20t-30 -58q0 -35 23.5 -56t74.5 -34
l74 -19q84 -22 122.5 -62.5t38.5 -107.5q0 -86 -60 -135t-165 -49q-57 0 -112.5 14zM189 677l99 159h107v-10l-132 -159h-74v10z" />
    <glyph glyph-name="uni1E64" unicode="&#x1e64;" horiz-adv-x="562" 
d="M152.5 912q-15.5 16 -15.5 43q0 28 15.5 43.5t43.5 15.5t44 -15.5t16 -42.5q0 -28 -15.5 -44t-44.5 -16q-28 0 -43.5 16zM198 793l150 133h116v-12l-182 -133h-84v12zM145 4q-60 16 -106 45l34 81q96 -54 194 -54q72 0 110.5 29.5t38.5 82.5q0 45 -26.5 73.5t-82.5 43.5
l-82 23q-93 25 -135.5 73t-42.5 127q0 97 62.5 152.5t170.5 55.5q53 0 109.5 -12t104.5 -34l-33 -82q-103 40 -183 40q-64 0 -98.5 -27.5t-34.5 -77.5q0 -45 26.5 -73t82.5 -43l82 -23q92 -26 134.5 -74t42.5 -127q0 -100 -65.5 -157.5t-180.5 -57.5q-62 0 -122 16z" />
    <glyph glyph-name="uniA78B" unicode="&#xa78b;" horiz-adv-x="333" 
d="M110 770h113l-15 -377h-83z" />
    <glyph glyph-name="Scaron" unicode="&#x160;" horiz-adv-x="562" 
d="M219 781l-117 133v12h76l93 -87l92 87h73v-12l-117 -133h-100zM470.5 330q42.5 -48 42.5 -127q0 -100 -65.5 -157.5t-180.5 -57.5q-62 0 -122 16t-106 45l34 81q96 -54 194 -54q72 0 110.5 29.5t38.5 82.5q0 45 -26.5 73.5t-82.5 43.5l-82 23q-93 25 -135.5 73t-42.5 127
q0 97 62.5 152.5t170.5 55.5q53 0 109.5 -12t104.5 -34l-33 -82q-103 40 -183 40q-64 0 -98.5 -27.5t-34.5 -77.5q0 -45 26.5 -73t82.5 -43l82 -23q92 -26 134.5 -74z" />
    <glyph glyph-name="Scaron.c2sc" horiz-adv-x="518" 
d="M134.5 4q-55.5 14 -97.5 39l33 78q83 -46 177 -46q63 0 96 21.5t33 62.5q0 34 -23 55.5t-73 34.5l-75 20q-84 22 -122 61.5t-38 106.5q0 84 56.5 131.5t156.5 47.5q49 0 100.5 -10.5t96.5 -30.5l-33 -77q-96 33 -166 33q-57 0 -87 -20t-30 -58q0 -35 23.5 -56t74.5 -34
l74 -19q84 -22 122.5 -62.5t38.5 -107.5q0 -86 -60 -135t-165 -49q-57 0 -112.5 14zM397 836v-10l-102 -159h-94l-102 159v10h70l80 -103l81 103h67z" />
    <glyph glyph-name="uni1E66" unicode="&#x1e66;" horiz-adv-x="562" 
d="M224 945q-16 16 -16 43q0 28 16 43.5t44 15.5t44 -15.5t16 -42.5q0 -28 -15.5 -44t-44.5 -16q-28 0 -44 16zM219 781l-117 133v12h76l93 -87l92 87h73v-12l-117 -133h-100zM470.5 330q42.5 -48 42.5 -127q0 -100 -65.5 -157.5t-180.5 -57.5q-62 0 -122 16t-106 45l34 81
q96 -54 194 -54q72 0 110.5 29.5t38.5 82.5q0 45 -26.5 73.5t-82.5 43.5l-82 23q-93 25 -135.5 73t-42.5 127q0 97 62.5 152.5t170.5 55.5q53 0 109.5 -12t104.5 -34l-33 -82q-103 40 -183 40q-64 0 -98.5 -27.5t-34.5 -77.5q0 -45 26.5 -73t82.5 -43l82 -23
q92 -26 134.5 -74z" />
    <glyph glyph-name="Scedilla" unicode="&#x15e;" horiz-adv-x="562" 
d="M457 54.5q-56 -56.5 -156 -65.5l-33 -47q14 2 21 2q50 0 78.5 -21.5t28.5 -60.5q0 -45 -32.5 -69.5t-91.5 -24.5q-60 0 -108 24l18 51q51 -18 84 -18q52 0 52 36q0 35 -47 35q-21 0 -43 -8l-24 28l31 73q-54 4 -105 19.5t-91 40.5l34 81q96 -54 194 -54q72 0 110.5 29.5
t38.5 82.5q0 45 -26.5 73.5t-82.5 43.5l-82 23q-93 25 -135.5 73t-42.5 127q0 97 62.5 152.5t170.5 55.5q53 0 109.5 -12t104.5 -34l-33 -82q-103 40 -183 40q-64 0 -98.5 -27.5t-34.5 -77.5q0 -45 26.5 -73t82.5 -43l82 -23q92 -26 134.5 -74t42.5 -127q0 -92 -56 -148.5z
" />
    <glyph glyph-name="Scedilla.c2sc" horiz-adv-x="518" 
d="M421.5 47q-50.5 -48 -141.5 -56l-34 -49q14 2 21 2q50 0 78.5 -21.5t28.5 -60.5q0 -45 -32.5 -69.5t-91.5 -24.5q-60 0 -108 24l18 51q51 -18 84 -18q52 0 52 36q0 35 -47 35q-21 0 -43 -8l-24 28l32 75q-49 4 -95 17.5t-82 34.5l33 78q83 -46 177 -46q63 0 96 21.5
t33 62.5q0 34 -23 55.5t-73 34.5l-75 20q-84 22 -122 61.5t-38 106.5q0 84 56.5 131.5t156.5 47.5q49 0 100.5 -10.5t96.5 -30.5l-33 -77q-96 33 -166 33q-57 0 -87 -20t-30 -58q0 -35 23.5 -56t74.5 -34l74 -19q84 -22 122.5 -62.5t38.5 -107.5q0 -79 -50.5 -127z" />
    <glyph glyph-name="Scircumflex" unicode="&#x15c;" horiz-adv-x="562" 
d="M175 781h-73v12l117 133h100l117 -133v-12h-76l-93 87zM470.5 330q42.5 -48 42.5 -127q0 -100 -65.5 -157.5t-180.5 -57.5q-62 0 -122 16t-106 45l34 81q96 -54 194 -54q72 0 110.5 29.5t38.5 82.5q0 45 -26.5 73.5t-82.5 43.5l-82 23q-93 25 -135.5 73t-42.5 127
q0 97 62.5 152.5t170.5 55.5q53 0 109.5 -12t104.5 -34l-33 -82q-103 40 -183 40q-64 0 -98.5 -27.5t-34.5 -77.5q0 -45 26.5 -73t82.5 -43l82 -23q92 -26 134.5 -74z" />
    <glyph glyph-name="Scircumflex.c2sc" horiz-adv-x="518" 
d="M134.5 4q-55.5 14 -97.5 39l33 78q83 -46 177 -46q63 0 96 21.5t33 62.5q0 34 -23 55.5t-73 34.5l-75 20q-84 22 -122 61.5t-38 106.5q0 84 56.5 131.5t156.5 47.5q49 0 100.5 -10.5t96.5 -30.5l-33 -77q-96 33 -166 33q-57 0 -87 -20t-30 -58q0 -35 23.5 -56t74.5 -34
l74 -19q84 -22 122.5 -62.5t38.5 -107.5q0 -86 -60 -135t-165 -49q-57 0 -112.5 14zM397 677v-10h-70l-81 103l-80 -103h-67v10l102 159h94z" />
    <glyph glyph-name="Scommaaccent" unicode="&#x218;" horiz-adv-x="562" 
d="M145 4q-60 16 -106 45l34 81q96 -54 194 -54q72 0 110.5 29.5t38.5 82.5q0 45 -26.5 73.5t-82.5 43.5l-82 23q-93 25 -135.5 73t-42.5 127q0 97 62.5 152.5t170.5 55.5q53 0 109.5 -12t104.5 -34l-33 -82q-103 40 -183 40q-64 0 -98.5 -27.5t-34.5 -77.5q0 -45 26.5 -73
t82.5 -43l82 -23q92 -26 134.5 -74t42.5 -127q0 -100 -65.5 -157.5t-180.5 -57.5q-62 0 -122 16zM187 -238q26 28 36 55t10 67q0 7 -3 40h92q3 -17 3 -39q0 -46 -24 -84t-78 -79z" />
    <glyph glyph-name="uni1E60" unicode="&#x1e60;" horiz-adv-x="562" 
d="M222.5 807.5q-16.5 16.5 -16.5 45.5q0 30 16.5 46.5t46.5 16.5t46.5 -16.5t16.5 -45.5q0 -30 -16.5 -46.5t-46.5 -16.5t-46.5 16.5zM145 4q-60 16 -106 45l34 81q96 -54 194 -54q72 0 110.5 29.5t38.5 82.5q0 45 -26.5 73.5t-82.5 43.5l-82 23q-93 25 -135.5 73
t-42.5 127q0 97 62.5 152.5t170.5 55.5q53 0 109.5 -12t104.5 -34l-33 -82q-103 40 -183 40q-64 0 -98.5 -27.5t-34.5 -77.5q0 -45 26.5 -73t82.5 -43l82 -23q92 -26 134.5 -74t42.5 -127q0 -100 -65.5 -157.5t-180.5 -57.5q-62 0 -122 16z" />
    <glyph glyph-name="uni1E62" unicode="&#x1e62;" horiz-adv-x="562" 
d="M145 4q-60 16 -106 45l34 81q96 -54 194 -54q72 0 110.5 29.5t38.5 82.5q0 45 -26.5 73.5t-82.5 43.5l-82 23q-93 25 -135.5 73t-42.5 127q0 97 62.5 152.5t170.5 55.5q53 0 109.5 -12t104.5 -34l-33 -82q-103 40 -183 40q-64 0 -98.5 -27.5t-34.5 -77.5q0 -45 26.5 -73
t82.5 -43l82 -23q92 -26 134.5 -74t42.5 -127q0 -100 -65.5 -157.5t-180.5 -57.5q-62 0 -122 16zM230.5 -196.5q-16.5 16.5 -16.5 45.5q0 30 16.5 46.5t46.5 16.5t46.5 -16.5t16.5 -45.5q0 -30 -16.5 -46.5t-46.5 -16.5t-46.5 16.5z" />
    <glyph glyph-name="uni1E68" unicode="&#x1e68;" horiz-adv-x="562" 
d="M222.5 807.5q-16.5 16.5 -16.5 45.5q0 30 16.5 46.5t46.5 16.5t46.5 -16.5t16.5 -45.5q0 -30 -16.5 -46.5t-46.5 -16.5t-46.5 16.5zM145 4q-60 16 -106 45l34 81q96 -54 194 -54q72 0 110.5 29.5t38.5 82.5q0 45 -26.5 73.5t-82.5 43.5l-82 23q-93 25 -135.5 73
t-42.5 127q0 97 62.5 152.5t170.5 55.5q53 0 109.5 -12t104.5 -34l-33 -82q-103 40 -183 40q-64 0 -98.5 -27.5t-34.5 -77.5q0 -45 26.5 -73t82.5 -43l82 -23q92 -26 134.5 -74t42.5 -127q0 -100 -65.5 -157.5t-180.5 -57.5q-62 0 -122 16zM230.5 -196.5
q-16.5 16.5 -16.5 45.5q0 30 16.5 46.5t46.5 16.5t46.5 -16.5t16.5 -45.5q0 -30 -16.5 -46.5t-46.5 -16.5t-46.5 16.5z" />
    <glyph glyph-name="uni1E9E" unicode="&#x1e9e;" horiz-adv-x="673" 
d="M578.5 331q56.5 -53 56.5 -140q0 -94 -64.5 -146t-180.5 -52q-77 0 -139 20l19 84q74 -18 125 -18q71 0 107 27t36 79q0 67 -60 104.5t-179 43.5v79q73 34 107 71.5t34 85.5q0 44 -29 67t-85 23q-71 0 -108 -35t-37 -105v-519h-99v519q0 108 64.5 168t180.5 60
q98 0 152.5 -44t54.5 -124q0 -117 -118 -181q106 -14 162.5 -67z" />
    <glyph glyph-name="uniA784" unicode="&#xa784;" horiz-adv-x="487" 
d="M465 713l-36 -92q-49 17 -88 17q-46 0 -79.5 -27.5t-72.5 -95.5v-722h-99v931h96v-124q39 71 82.5 104t98.5 33q50 0 98 -24z" />
    <glyph glyph-name="uniA7A8" unicode="&#xa7a8;" horiz-adv-x="598" 
d="M550 400l-110 -32q46 -27 67.5 -67.5t21.5 -97.5q0 -100 -65.5 -157.5t-180.5 -57.5q-62 0 -122 16t-106 45l34 81q94 -54 194 -54q72 0 110 29t38 83q0 45 -26 73.5t-82 43.5l-52 15l-220 -64h-12v66l124 36q-52 27 -76 68.5t-24 101.5q0 97 62 152.5t171 55.5
q53 0 109.5 -12t104.5 -34l-33 -82q-103 40 -183 40q-64 0 -98.5 -27.5t-34.5 -77.5q0 -45 26 -73t82 -43l68 -19l201 58h12v-66z" />
    <glyph glyph-name="uni018F" unicode="&#x18f;" horiz-adv-x="687" 
d="M547 641q82 -95 82 -280q0 -184 -75.5 -278.5t-216.5 -94.5q-90 0 -156 40.5t-102 119.5t-36 191q0 38 5 61h480q-8 114 -65.5 177t-154.5 63q-91 0 -189 -49l-38 82q44 30 104.5 46.5t124.5 16.5q155 0 237 -95zM472 138.5q48 58.5 56 173.5h-384q4 -111 54.5 -171.5
t140.5 -60.5q85 0 133 58.5z" />
    <glyph glyph-name="T" unicode="T" horiz-adv-x="528" 
d="M502 634h-189v-634h-99v634h-188v90h287h189v-90z" />
    <glyph glyph-name="T.c2sc" horiz-adv-x="483" 
d="M460 518h-170v-518h-97v518h-169v88h266h170v-88z" />
    <glyph glyph-name="Tbar" unicode="&#x166;" horiz-adv-x="528" 
d="M313 634v-247h123v-81h-123v-306h-99v306h-122v81h122v247h-188v90h287h189v-90h-189z" />
    <glyph glyph-name="Tbar.c2sc" horiz-adv-x="483" 
d="M290 518v-210h115v-73h-115v-235h-97v235h-116v73h116v210h-169v88h266h170v-88h-170z" />
    <glyph glyph-name="Tcaron" unicode="&#x164;" horiz-adv-x="528" 
d="M214 781l-117 133v12h76l93 -87l92 87h73v-12l-117 -133h-100zM502 634h-189v-634h-99v634h-188v90h287h189v-90z" />
    <glyph glyph-name="Tcaron.c2sc" horiz-adv-x="483" 
d="M460 518h-170v-518h-97v518h-169v88h266h170v-88zM390 836v-10l-102 -159h-94l-102 159v10h70l80 -103l81 103h67z" />
    <glyph glyph-name="uni0162" unicode="&#x162;" horiz-adv-x="528" 
d="M295 0l-40 -58q14 2 21 2q50 0 78.5 -21.5t28.5 -60.5q0 -45 -32.5 -69.5t-91.5 -24.5q-60 0 -108 24l18 51q51 -18 84 -18q52 0 52 36q0 35 -47 35q-21 0 -43 -8l-24 28l36 84h-13v634h-188v90h287h189v-90h-189v-634h-18z" />
    <glyph glyph-name="uni1E70" unicode="&#x1e70;" horiz-adv-x="528" 
d="M502 634h-189v-634h-99v634h-188v90h287h189v-90zM431 -217v-12h-76l-93 87l-92 -87h-73v12l117 133h100z" />
    <glyph glyph-name="uni021A" unicode="&#x21a;" horiz-adv-x="528" 
d="M502 634h-189v-634h-99v634h-188v90h287h189v-90zM174 -238q26 28 36 55t10 67q0 7 -3 40h92q3 -17 3 -39q0 -46 -24 -84t-78 -79z" />
    <glyph glyph-name="uni021A.c2sc" horiz-adv-x="483" 
d="M460 518h-170v-518h-97v518h-169v88h266h170v-88zM151 -238q26 28 36 55t10 67q0 7 -3 40h92q3 -17 3 -39q0 -46 -24 -84t-78 -79z" />
    <glyph glyph-name="uni023E" unicode="&#x23e;" horiz-adv-x="528" 
d="M423 634l-110 -251v-383h-99v156l-114 -263h-73l187 426v315h-188v90h287h77l37 86h72l-37 -86h40v-90h-79zM365 634h-52v-118z" />
    <glyph glyph-name="uni1E6A" unicode="&#x1e6a;" horiz-adv-x="528" 
d="M217.5 807.5q-16.5 16.5 -16.5 45.5q0 30 16.5 46.5t46.5 16.5t46.5 -16.5t16.5 -45.5q0 -30 -16.5 -46.5t-46.5 -16.5t-46.5 16.5zM502 634h-189v-634h-99v634h-188v90h287h189v-90z" />
    <glyph glyph-name="uni1E6C" unicode="&#x1e6c;" horiz-adv-x="528" 
d="M502 634h-189v-634h-99v634h-188v90h287h189v-90zM217.5 -196.5q-16.5 16.5 -16.5 45.5q0 30 16.5 46.5t46.5 16.5t46.5 -16.5t16.5 -45.5q0 -30 -16.5 -46.5t-46.5 -16.5t-46.5 16.5z" />
    <glyph glyph-name="uni01AC" unicode="&#x1ac;" horiz-adv-x="528" 
d="M502 634h-189v-634h-99v634h-57q-71 0 -71 -69q0 -15 3 -42h-90q-4 17 -4 41q0 76 42 117.5t118 42.5h158h189v-90z" />
    <glyph glyph-name="uniA764" unicode="&#xa764;" horiz-adv-x="615" 
d="M512.5 461.5q59.5 -51.5 59.5 -147.5q0 -97 -62 -151t-173 -54h-148v-109h-99v577h-66v78h66v69h99v-69h158v-78h-158v-64h152q112 0 171.5 -51.5zM436.5 227q32.5 29 32.5 85q0 116 -132 116h-148v-230h152q63 0 95.5 29z" />
    <glyph glyph-name="uniA766" unicode="&#xa766;" horiz-adv-x="615" 
d="M189 211v-64h158v-78h-158v-69h-99v69h-66v78h66v577h99v-109h152q109 0 170 -53.5t61 -149.5q0 -97 -61 -149t-174 -52h-148zM189 526v-230h152q63 0 95.5 29t32.5 85q0 116 -132 116h-148z" />
    <glyph glyph-name="uniA786" unicode="&#xa786;" horiz-adv-x="610" 
d="M193.5 513.5q-33.5 -73.5 -33.5 -167.5q0 -132 57.5 -199t170.5 -67q91 0 150 35l36 -77q-32 -24 -83 -37t-109 -13q-154 0 -239.5 92t-85.5 258q0 92 33.5 170t94.5 129h-152v87h551v-87h-292q-65 -50 -98.5 -123.5z" />
    <glyph glyph-name="uni1E6E" unicode="&#x1e6e;" horiz-adv-x="528" 
d="M502 634h-189v-634h-99v634h-188v90h287h189v-90zM113 -103h302v-72h-302v72z" />
    <glyph glyph-name="uni01BC" unicode="&#x1bc;" horiz-adv-x="546" 
d="M436.5 388.5q61.5 -57.5 61.5 -158.5q0 -73 -30.5 -128t-86.5 -85t-132 -30q-53 0 -107.5 15.5t-91.5 40.5l38 82q39 -22 81 -34.5t80 -12.5q71 0 109.5 40t38.5 111q0 67 -40.5 103t-125.5 42l-130 8v257h-82v85h141h306v-85h-268v-178l59 -5q118 -10 179.5 -67.5z" />
    <glyph glyph-name="uni0184" unicode="&#x184;" horiz-adv-x="606" 
d="M522.5 401.5q63.5 -60.5 63.5 -172.5q0 -109 -63.5 -169t-174.5 -60h-249v508l-69 63v41l98 112h70v-199v-63h145q116 0 179.5 -60.5zM447 124.5q36 35.5 36 106.5t-34.5 106.5t-99.5 35.5h-151v-284h145q68 0 104 35.5z" />
    <glyph glyph-name="uni01A7" unicode="&#x1a7;" horiz-adv-x="562" 
d="M114.5 45.5q-65.5 57.5 -65.5 157.5q0 79 42.5 127t134.5 74l82 23q56 15 82.5 43t26.5 73q0 50 -34.5 77.5t-98.5 27.5q-80 0 -183 -40l-33 82q48 22 104.5 34t109.5 12q108 0 170.5 -55.5t62.5 -152.5q0 -79 -42.5 -127t-135.5 -73l-82 -23q-56 -15 -82.5 -43.5
t-26.5 -73.5q0 -53 38.5 -82.5t110.5 -29.5q98 0 194 54l34 -81q-46 -29 -106 -45t-122 -16q-115 0 -180.5 57.5z" />
    <glyph glyph-name="uniA72A" unicode="&#xa72a;" horiz-adv-x="562" 
d="M528 47q-41 -27 -99 -43.5t-114 -16.5q-74 0 -130 29.5t-86.5 83t-30.5 123.5q0 94 54.5 153t146.5 66l-178 197v85h423v-85h-315l214 -239l-38 -48q-30 9 -66 9q-65 0 -102 -36.5t-37 -101.5q0 -68 38.5 -106.5t106.5 -38.5q41 0 86.5 13.5t87.5 38.5z" />
    <glyph glyph-name="uni01AE" unicode="&#x1ae;" horiz-adv-x="528" 
d="M327 -112q14 -17 43 -17q26 0 48 6l15 -84q-29 -11 -67 -11q-75 0 -113.5 39.5t-38.5 116.5v228v468h-188v90h287h189v-90h-189v-692q0 -37 14 -54z" />
    <glyph glyph-name="uniA7B1" unicode="&#xa7b1;" horiz-adv-x="528" 
d="M502 90v-90h-288h-188v90h188v634h99v-634h189z" />
    <glyph glyph-name="uniA728" unicode="&#xa728;" horiz-adv-x="803" 
d="M703 160q61 -50 61 -150q0 -75 -33.5 -127t-91.5 -77.5t-130 -25.5q-115 0 -189 41l34 76q38 -17 72.5 -25t74.5 -8q77 0 120 37.5t43 108.5q0 73 -51.5 105t-136.5 32h-46v75l185 234h-226h-76v-456h-99v634h-188v90h287h189v-90h-189v-95h27h386v-84l-189 -235
q105 -10 166 -60z" />
    <glyph glyph-name="U" unicode="U" horiz-adv-x="686" 
d="M152.5 57q-67.5 70 -67.5 197v470h99v-466q0 -90 40 -136t118 -46q159 0 159 182v466h99v-470q0 -127 -68 -197t-190 -70t-189.5 70z" />
    <glyph glyph-name="U.c2sc" horiz-adv-x="639" 
d="M144.5 47q-61.5 58 -61.5 163v396h97v-390q0 -140 139 -140q69 0 104.5 35t35.5 105v390h97v-396q0 -105 -62.5 -163t-175.5 -58q-112 0 -173.5 58z" />
    <glyph glyph-name="Uacute" unicode="&#xda;" horiz-adv-x="686" 
d="M272 793l150 133h116v-12l-182 -133h-84v12zM152.5 57q-67.5 70 -67.5 197v470h99v-466q0 -90 40 -136t118 -46q159 0 159 182v466h99v-470q0 -127 -68 -197t-190 -70t-189.5 70z" />
    <glyph glyph-name="Uacute.c2sc" horiz-adv-x="639" 
d="M144.5 47q-61.5 58 -61.5 163v396h97v-390q0 -140 139 -140q69 0 104.5 35t35.5 105v390h97v-396q0 -105 -62.5 -163t-175.5 -58q-112 0 -173.5 58zM260 677l99 159h107v-10l-132 -159h-74v10z" />
    <glyph glyph-name="uni0244" unicode="&#x244;" horiz-adv-x="695" 
d="M679 332h-74v-78q0 -127 -68 -197t-191 -70q-122 0 -189 70t-67 197v78h-74v81h74v311h99v-311h317v311h99v-311h74v-81zM506 332h-317v-74q0 -90 40 -136t118 -46q79 0 119 46t40 136v74z" />
    <glyph glyph-name="Ubreve" unicode="&#x16c;" horiz-adv-x="686" 
d="M236 823.5q-39 40.5 -42 114.5h62q12 -79 88 -79q77 0 89 79h59q-3 -74 -42 -114.5t-107 -40.5t-107 40.5zM152.5 57q-67.5 70 -67.5 197v470h99v-466q0 -90 40 -136t118 -46q159 0 159 182v466h99v-470q0 -127 -68 -197t-190 -70t-189.5 70z" />
    <glyph glyph-name="Ubreve.c2sc" horiz-adv-x="639" 
d="M144.5 47q-61.5 58 -61.5 163v396h97v-390q0 -140 139 -140q69 0 104.5 35t35.5 105v390h97v-396q0 -105 -62.5 -163t-175.5 -58q-112 0 -173.5 58zM212 705.5q-39 40.5 -42 114.5h62q12 -79 88 -79q77 0 89 79h59q-3 -74 -42 -114.5t-107 -40.5t-107 40.5z" />
    <glyph glyph-name="uni01D3" unicode="&#x1d3;" horiz-adv-x="686" 
d="M293 781l-117 133v12h76l93 -87l92 87h73v-12l-117 -133h-100zM600 724v-470q0 -127 -68 -197t-190 -70t-189.5 70t-67.5 197v470h99v-466q0 -90 40 -136t118 -46q159 0 159 182v466h99z" />
    <glyph glyph-name="Ucircumflex" unicode="&#xdb;" horiz-adv-x="686" 
d="M249 781h-73v12l117 133h100l117 -133v-12h-76l-93 87zM600 724v-470q0 -127 -68 -197t-190 -70t-189.5 70t-67.5 197v470h99v-466q0 -90 40 -136t118 -46q159 0 159 182v466h99z" />
    <glyph glyph-name="Ucircumflex.c2sc" horiz-adv-x="639" 
d="M144.5 47q-61.5 58 -61.5 163v396h97v-390q0 -140 139 -140q69 0 104.5 35t35.5 105v390h97v-396q0 -105 -62.5 -163t-175.5 -58q-112 0 -173.5 58zM468 677v-10h-70l-81 103l-80 -103h-67v10l102 159h94z" />
    <glyph glyph-name="uni1E76" unicode="&#x1e76;" horiz-adv-x="686" 
d="M152.5 57q-67.5 70 -67.5 197v470h99v-466q0 -90 40 -136t118 -46q159 0 159 182v466h99v-470q0 -127 -68 -197t-190 -70t-189.5 70zM510 -217v-12h-76l-93 87l-92 -87h-73v12l117 133h100z" />
    <glyph glyph-name="uni0214" unicode="&#x214;" horiz-adv-x="686" 
d="M248 781l-120 133v12h100l89 -133v-12h-69zM410 781l-120 133v12h99l89 -133v-12h-68zM152.5 57q-67.5 70 -67.5 197v470h99v-466q0 -90 40 -136t118 -46q159 0 159 182v466h99v-470q0 -127 -68 -197t-190 -70t-189.5 70z" />
    <glyph glyph-name="Udieresis" unicode="&#xdc;" horiz-adv-x="686" 
d="M200.5 804q-15.5 16 -15.5 43q0 28 15.5 44t43.5 16q27 0 42.5 -16t15.5 -43q0 -29 -15 -44.5t-43 -15.5t-43.5 16zM399.5 804q-15.5 16 -15.5 43q0 28 15.5 44t43.5 16q27 0 42.5 -16t15.5 -43q0 -29 -15 -44.5t-43 -15.5t-43.5 16zM152.5 57q-67.5 70 -67.5 197v470h99
v-466q0 -90 40 -136t118 -46q159 0 159 182v466h99v-470q0 -127 -68 -197t-190 -70t-189.5 70z" />
    <glyph glyph-name="Udieresis.c2sc" horiz-adv-x="639" 
d="M181.5 691q-15.5 16 -15.5 43q0 28 15.5 44t43.5 16q27 0 42.5 -16t15.5 -43q0 -29 -15 -44.5t-43 -15.5t-43.5 16zM370.5 691q-15.5 16 -15.5 43q0 28 15.5 44t43.5 16q27 0 42.5 -16t15.5 -43q0 -29 -15 -44.5t-43 -15.5t-43.5 16zM144.5 47q-61.5 58 -61.5 163v396h97
v-390q0 -140 139 -140q69 0 104.5 35t35.5 105v390h97v-396q0 -105 -62.5 -163t-175.5 -58q-112 0 -173.5 58z" />
    <glyph glyph-name="uni01D7" unicode="&#x1d7;" horiz-adv-x="686" 
d="M309 915l78 127h88v-10l-102 -127h-64v10zM208 784.5q-15 15.5 -15 42.5t15 42t42 15t42 -15t15 -42t-15 -42.5t-42 -15.5t-42 15.5zM393 784.5q-15 15.5 -15 42.5t15 42t42 15t42 -15t15 -42t-15 -42.5t-42 -15.5t-42 15.5zM152.5 57q-67.5 70 -67.5 197v470h99v-466
q0 -90 40 -136t118 -46q159 0 159 182v466h99v-470q0 -127 -68 -197t-190 -70t-189.5 70z" />
    <glyph glyph-name="uni1E72" unicode="&#x1e72;" horiz-adv-x="686" 
d="M152.5 57q-67.5 70 -67.5 197v470h99v-466q0 -90 40 -136t118 -46q159 0 159 182v466h99v-470q0 -127 -68 -197t-190 -70t-189.5 70zM205.5 -195q-15.5 16 -15.5 43q0 28 15.5 44t43.5 16q27 0 42.5 -16t15.5 -43q0 -29 -15 -44.5t-43 -15.5t-43.5 16zM394.5 -195
q-15.5 16 -15.5 43q0 28 15.5 44t43.5 16q27 0 42.5 -16t15.5 -43q0 -29 -15 -44.5t-43 -15.5t-43.5 16z" />
    <glyph glyph-name="uni01D9" unicode="&#x1d9;" horiz-adv-x="686" 
d="M296 908l-104 126v10h68l85 -81l84 81h65v-10l-104 -126h-94zM292 869q15 -15 15 -42t-15 -42.5t-42 -15.5t-42 15.5t-15 42.5t15 42t42 15t42 -15zM393 869q15 15 42 15t42 -15t15 -42t-15 -42.5t-42 -15.5t-42 15.5t-15 42.5t15 42zM600 724v-470q0 -127 -68 -197
t-190 -70t-189.5 70t-67.5 197v470h99v-466q0 -90 40 -136t118 -46q159 0 159 182v466h99z" />
    <glyph glyph-name="uni01DB" unicode="&#x1db;" horiz-adv-x="686" 
d="M219 1032v10h88l72 -127v-10h-64zM208 784.5q-15 15.5 -15 42.5t15 42t42 15t42 -15t15 -42t-15 -42.5t-42 -15.5t-42 15.5zM393 784.5q-15 15.5 -15 42.5t15 42t42 15t42 -15t15 -42t-15 -42.5t-42 -15.5t-42 15.5zM152.5 57q-67.5 70 -67.5 197v470h99v-466
q0 -90 40 -136t118 -46q159 0 159 182v466h99v-470q0 -127 -68 -197t-190 -70t-189.5 70z" />
    <glyph glyph-name="uni01D5" unicode="&#x1d5;" horiz-adv-x="686" 
d="M192 994h302v-69h-302v69zM208 784.5q-15 15.5 -15 42.5t15 42t42 15t42 -15t15 -42t-15 -42.5t-42 -15.5t-42 15.5zM393 784.5q-15 15.5 -15 42.5t15 42t42 15t42 -15t15 -42t-15 -42.5t-42 -15.5t-42 15.5zM152.5 57q-67.5 70 -67.5 197v470h99v-466q0 -90 40 -136
t118 -46q159 0 159 182v466h99v-470q0 -127 -68 -197t-190 -70t-189.5 70z" />
    <glyph glyph-name="uni1EE4" unicode="&#x1ee4;" horiz-adv-x="686" 
d="M152.5 57q-67.5 70 -67.5 197v470h99v-466q0 -90 40 -136t118 -46q159 0 159 182v466h99v-470q0 -127 -68 -197t-190 -70t-189.5 70zM296.5 -196.5q-16.5 16.5 -16.5 45.5q0 30 16.5 46.5t46.5 16.5t46.5 -16.5t16.5 -45.5q0 -30 -16.5 -46.5t-46.5 -16.5t-46.5 16.5z
" />
    <glyph glyph-name="Ugrave" unicode="&#xd9;" horiz-adv-x="686" 
d="M156 914v12h117l140 -133v-12h-84zM152.5 57q-67.5 70 -67.5 197v470h99v-466q0 -90 40 -136t118 -46q159 0 159 182v466h99v-470q0 -127 -68 -197t-190 -70t-189.5 70z" />
    <glyph glyph-name="Ugrave.c2sc" horiz-adv-x="639" 
d="M144.5 47q-61.5 58 -61.5 163v396h97v-390q0 -140 139 -140q69 0 104.5 35t35.5 105v390h97v-396q0 -105 -62.5 -163t-175.5 -58q-112 0 -173.5 58zM184 826v10h106l92 -159v-10h-74z" />
    <glyph glyph-name="uni1EE6" unicode="&#x1ee6;" horiz-adv-x="686" 
d="M304 803q0 18 10 27.5t27 16.5q13 6 18.5 10.5t5.5 12.5q0 15 -27 15q-32 0 -69 -21l-25 52q48 31 111 31q45 0 70.5 -18.5t25.5 -50.5q0 -25 -12.5 -37t-33.5 -20q-15 -6 -21 -10t-6 -13l2 -17h-74q-2 12 -2 22zM152.5 57q-67.5 70 -67.5 197v470h99v-466q0 -90 40 -136
t118 -46q159 0 159 182v466h99v-470q0 -127 -68 -197t-190 -70t-189.5 70z" />
    <glyph glyph-name="Uhorn" unicode="&#x1af;" horiz-adv-x="686" 
d="M693 708.5q-28 -32.5 -93 -41.5v-413q0 -127 -68 -197t-190 -70t-189.5 70t-67.5 197v470h99v-466q0 -90 40 -136t118 -46q159 0 159 182v466h41q52 0 72 17t20 61q0 25 -5 61h87q5 -30 5 -59q0 -63 -28 -95.5z" />
    <glyph glyph-name="uni1EE8" unicode="&#x1ee8;" horiz-adv-x="686" 
d="M356 781h-84v12l150 133h116v-12zM693 708.5q-28 -32.5 -93 -41.5v-413q0 -127 -68 -197t-190 -70t-189.5 70t-67.5 197v470h99v-466q0 -90 40 -136t118 -46q159 0 159 182v466h41q52 0 72 17t20 61q0 25 -5 61h87q5 -30 5 -59q0 -63 -28 -95.5z" />
    <glyph glyph-name="uni1EF0" unicode="&#x1ef0;" horiz-adv-x="686" 
d="M693 708.5q-28 -32.5 -93 -41.5v-413q0 -127 -68 -197t-190 -70t-189.5 70t-67.5 197v470h99v-466q0 -90 40 -136t118 -46q159 0 159 182v466h41q52 0 72 17t20 61q0 25 -5 61h87q5 -30 5 -59q0 -63 -28 -95.5zM296.5 -196.5q-16.5 16.5 -16.5 45.5q0 30 16.5 46.5
t46.5 16.5t46.5 -16.5t16.5 -45.5q0 -30 -16.5 -46.5t-46.5 -16.5t-46.5 16.5z" />
    <glyph glyph-name="uni1EEA" unicode="&#x1eea;" horiz-adv-x="686" 
d="M329 781l-173 133v12h117l140 -133v-12h-84zM693 708.5q-28 -32.5 -93 -41.5v-413q0 -127 -68 -197t-190 -70t-189.5 70t-67.5 197v470h99v-466q0 -90 40 -136t118 -46q159 0 159 182v466h41q52 0 72 17t20 61q0 25 -5 61h87q5 -30 5 -59q0 -63 -28 -95.5z" />
    <glyph glyph-name="uni1EEC" unicode="&#x1eec;" horiz-adv-x="686" 
d="M269 864l-25 52q48 31 111 31q45 0 70.5 -18.5t25.5 -50.5q0 -25 -12.5 -37t-33.5 -20q-15 -6 -21 -10t-6 -13l2 -17h-74q-2 12 -2 22q0 18 10 27.5t27 16.5q13 6 18.5 10.5t5.5 12.5q0 15 -27 15q-32 0 -69 -21zM693 708.5q-28 -32.5 -93 -41.5v-413q0 -127 -68 -197
t-190 -70t-189.5 70t-67.5 197v470h99v-466q0 -90 40 -136t118 -46q159 0 159 182v466h41q52 0 72 17t20 61q0 25 -5 61h87q5 -30 5 -59q0 -63 -28 -95.5z" />
    <glyph glyph-name="uni1EEE" unicode="&#x1eee;" horiz-adv-x="686" 
d="M230 790h-59q2 63 28.5 99t73.5 36q26 0 45.5 -10t44.5 -28q18 -13 29 -19t23 -6q34 0 41 61h59q-2 -63 -28.5 -99t-73.5 -36q-26 0 -45.5 10t-44.5 28q-18 13 -29 19t-23 6q-34 0 -41 -61zM693 708.5q-28 -32.5 -93 -41.5v-413q0 -127 -68 -197t-190 -70t-189.5 70
t-67.5 197v470h99v-466q0 -90 40 -136t118 -46q159 0 159 182v466h41q52 0 72 17t20 61q0 25 -5 61h87q5 -30 5 -59q0 -63 -28 -95.5z" />
    <glyph glyph-name="Uhungarumlaut" unicode="&#x170;" horiz-adv-x="686" 
d="M207 793l98 133h99v-12l-129 -133h-68v12zM368 793l98 133h100v-12l-129 -133h-69v12zM152.5 57q-67.5 70 -67.5 197v470h99v-466q0 -90 40 -136t118 -46q159 0 159 182v466h99v-470q0 -127 -68 -197t-190 -70t-189.5 70z" />
    <glyph glyph-name="Uhungarumlaut.c2sc" horiz-adv-x="639" 
d="M144.5 47q-61.5 58 -61.5 163v396h97v-390q0 -140 139 -140q69 0 104.5 35t35.5 105v390h97v-396q0 -105 -62.5 -163t-175.5 -58q-112 0 -173.5 58zM202 677l59 159h94v-10l-90 -159h-63v10zM348 677l60 159h94v-10l-91 -159h-63v10z" />
    <glyph glyph-name="uni0216" unicode="&#x216;" horiz-adv-x="686" 
d="M450 905.5q39 -40.5 42 -114.5h-62q-12 79 -88 79q-77 0 -89 -79h-59q3 74 42 114.5t107 40.5t107 -40.5zM152.5 57q-67.5 70 -67.5 197v470h99v-466q0 -90 40 -136t118 -46q159 0 159 182v466h99v-470q0 -127 -68 -197t-190 -70t-189.5 70z" />
    <glyph glyph-name="Umacron" unicode="&#x16a;" horiz-adv-x="686" 
d="M192 880h302v-71h-302v71zM152.5 57q-67.5 70 -67.5 197v470h99v-466q0 -90 40 -136t118 -46q159 0 159 182v466h99v-470q0 -127 -68 -197t-190 -70t-189.5 70z" />
    <glyph glyph-name="Umacron.c2sc" horiz-adv-x="639" 
d="M144.5 47q-61.5 58 -61.5 163v396h97v-390q0 -140 139 -140q69 0 104.5 35t35.5 105v390h97v-396q0 -105 -62.5 -163t-175.5 -58q-112 0 -173.5 58zM168 762h302v-71h-302v71z" />
    <glyph glyph-name="uni1E7A" unicode="&#x1e7a;" horiz-adv-x="686" 
d="M201 944q-15 15 -15 41q0 27 15 42t42 15t42.5 -15t15.5 -41q0 -27 -15.5 -42t-42.5 -15t-42 15zM395 944q-15 15 -15 41q0 27 15 42t42 15t42.5 -15t15.5 -41q0 -27 -15.5 -42t-42.5 -15t-42 15zM192 880h302v-71h-302v71zM152.5 57q-67.5 70 -67.5 197v470h99v-466
q0 -90 40 -136t118 -46q159 0 159 182v466h99v-470q0 -127 -68 -197t-190 -70t-189.5 70z" />
    <glyph glyph-name="Uogonek" unicode="&#x172;" horiz-adv-x="686" 
d="M418 -50.5q-20 -31.5 -20 -59.5q0 -42 48 -42q30 0 62 16l25 -56q-22 -14 -50 -22t-57 -8q-52 0 -81.5 25t-29.5 69q0 63 56 117q-20 -2 -29 -2q-122 0 -189.5 70t-67.5 197v470h99v-466q0 -90 39.5 -136t118.5 -46t119 46t40 136v466h99v-470q0 -76 -23.5 -127
t-76.5 -94l-27 -23q-35 -29 -55 -60.5z" />
    <glyph glyph-name="Uogonek.c2sc" horiz-adv-x="639" 
d="M556 606v-396q0 -82 -39 -136t-111 -74q-87 -50 -87 -110q0 -42 48 -42q30 0 62 16l25 -56q-22 -14 -50 -22t-57 -8q-52 0 -81.5 25t-29.5 69q0 34 18 64.5t50 52.5q-105 4 -163 61.5t-58 159.5v396h97v-390q0 -140 139 -140q69 0 104.5 35t35.5 105v390h97z" />
    <glyph glyph-name="uni01B1" unicode="&#x1b1;" horiz-adv-x="734" 
d="M147.5 75.5q-78.5 87.5 -78.5 242.5q0 195 132 322h-143v84h259v-86q-75 -60 -110 -135.5t-35 -178.5q0 -249 195 -249t195 249q0 102 -35 178t-110 136v86h259v-84h-144q133 -127 133 -322q0 -155 -78.5 -242.5t-219.5 -87.5t-219.5 87.5z" />
    <glyph glyph-name="Uring" unicode="&#x16e;" horiz-adv-x="686" 
d="M251.5 796.5q-32.5 29.5 -32.5 82.5q0 52 32.5 81.5t91.5 29.5t91.5 -29.5t32.5 -81.5q0 -53 -32.5 -82.5t-91.5 -29.5t-91.5 29.5zM401 879q0 58 -58 58t-58 -58t58 -58t58 58zM152.5 57q-67.5 70 -67.5 197v470h99v-466q0 -90 40 -136t118 -46q159 0 159 182v466h99
v-470q0 -127 -68 -197t-190 -70t-189.5 70z" />
    <glyph glyph-name="Uring.c2sc" horiz-adv-x="639" 
d="M144.5 47q-61.5 58 -61.5 163v396h97v-390q0 -140 139 -140q69 0 104.5 35t35.5 105v390h97v-396q0 -105 -62.5 -163t-175.5 -58q-112 0 -173.5 58zM228.5 683.5q-32.5 29.5 -32.5 82.5q0 52 32.5 81.5t90.5 29.5t90.5 -29.5t32.5 -81.5q0 -53 -32.5 -82.5t-90.5 -29.5
t-90.5 29.5zM377 766q0 59 -58 59t-58 -59t58 -59t58 59z" />
    <glyph glyph-name="Utilde" unicode="&#x168;" horiz-adv-x="686" 
d="M367.5 798q-19.5 10 -44.5 28q-18 13 -29 19t-23 6q-34 0 -41 -61h-59q2 63 28.5 99t73.5 36q26 0 45.5 -10t44.5 -28q18 -13 29 -19t23 -6q34 0 41 61h59q-2 -63 -28.5 -99t-73.5 -36q-26 0 -45.5 10zM152.5 57q-67.5 70 -67.5 197v470h99v-466q0 -90 40 -136t118 -46
q159 0 159 182v466h99v-470q0 -127 -68 -197t-190 -70t-189.5 70z" />
    <glyph glyph-name="Utilde.c2sc" horiz-adv-x="639" 
d="M144.5 47q-61.5 58 -61.5 163v396h97v-390q0 -140 139 -140q69 0 104.5 35t35.5 105v390h97v-396q0 -105 -62.5 -163t-175.5 -58q-112 0 -173.5 58zM343.5 680q-19.5 10 -44.5 28q-18 13 -29 19t-23 6q-34 0 -41 -61h-59q2 63 28.5 99t73.5 36q26 0 45.5 -10t44.5 -28
q18 -13 29 -19t23 -6q34 0 41 61h59q-2 -63 -28.5 -99t-73.5 -36q-26 0 -45.5 10z" />
    <glyph glyph-name="uni1E78" unicode="&#x1e78;" horiz-adv-x="686" 
d="M308 920l78 127h89v-10l-102 -127h-65v10zM361.5 772q-15.5 8 -35.5 23q-13 11 -23 16.5t-22 5.5q-37 0 -42 -51h-51q0 54 25 84t71 30q25 0 41.5 -8t33.5 -23q13 -11 23 -16.5t23 -5.5q36 0 41 51h52q0 -54 -25.5 -84t-70.5 -30q-25 0 -40.5 8zM152.5 57
q-67.5 70 -67.5 197v470h99v-466q0 -90 40 -136t118 -46q159 0 159 182v466h99v-470q0 -127 -68 -197t-190 -70t-189.5 70z" />
    <glyph glyph-name="uni1E74" unicode="&#x1e74;" horiz-adv-x="686" 
d="M152.5 57q-67.5 70 -67.5 197v470h99v-466q0 -90 40 -136t118 -46q159 0 159 182v466h99v-470q0 -127 -68 -197t-190 -70t-189.5 70zM367.5 -218q-19.5 10 -44.5 28q-18 13 -29 19t-23 6q-34 0 -41 -61h-59q2 63 28.5 99t73.5 36q26 0 45.5 -10t44.5 -28q18 -13 29 -19
t23 -6q34 0 41 61h59q-2 -63 -28.5 -99t-73.5 -36q-26 0 -45.5 10z" />
    <glyph glyph-name="V" unicode="V" horiz-adv-x="632" 
d="M602 724l-231 -724h-110l-232 724h106l182 -617l180 617h105z" />
    <glyph glyph-name="uni1EFC" unicode="&#x1efc;" horiz-adv-x="570" 
d="M120.5 63.5q-62.5 76.5 -62.5 231.5q0 142 32.5 222t110.5 132q46 32 107 55t126 33l17 -84q-129 -28 -195 -77q-37 -26 -57 -60t-29 -85.5t-9 -132.5q0 -114 35.5 -168t103.5 -54q64 0 99 37t35 108t-36.5 105t-118.5 51l25 89q120 -23 176.5 -79.5t56.5 -160.5
q0 -111 -64 -175t-174 -64q-116 0 -178.5 76.5z" />
    <glyph glyph-name="V.c2sc" horiz-adv-x="578" 
d="M551 606l-208 -606h-107l-209 606h103l160 -511l159 511h102z" />
    <glyph glyph-name="uniA760" unicode="&#xa760;" horiz-adv-x="953" 
d="M923 724l-231 -724q-52 -152 -249 -219l-34 83q75 27 115.5 60t57.5 76l-109 341l-102 -341h-110l-232 724h106l182 -617l110 378l-76 239h106l181 -618l180 618h105z" />
    <glyph glyph-name="uniA75E" unicode="&#xa75e;" horiz-adv-x="632" 
d="M602 724l-231 -724h-110l-41 128l-76 -235h-73l113 348l-155 483h106l98 -331l135 417h72l-172 -535l49 -168l180 617h105z" />
    <glyph glyph-name="uni1E7E" unicode="&#x1e7e;" horiz-adv-x="632" 
d="M602 724l-231 -724h-110l-232 724h106l182 -617l180 617h105zM270.5 -196.5q-16.5 16.5 -16.5 45.5q0 30 16.5 46.5t46.5 16.5t46.5 -16.5t16.5 -45.5q0 -30 -16.5 -46.5t-46.5 -16.5t-46.5 16.5z" />
    <glyph glyph-name="uniA768" unicode="&#xa768;" horiz-adv-x="566" 
d="M189 -41v-166h-99v931h99v-578l242 578h105z" />
    <glyph glyph-name="uni01B2" unicode="&#x1b2;" horiz-adv-x="686" 
d="M532 57q-68 -70 -190 -70t-189.5 70t-67.5 197v470h99v-466q0 -90 40 -136t118 -46q159 0 159 182v95v224q0 37 -13.5 54t-42.5 17q-25 0 -48 -6l-15 84q29 11 66 11q152 0 152 -156v-327q0 -127 -68 -197z" />
    <glyph glyph-name="uni1E7C" unicode="&#x1e7c;" horiz-adv-x="632" 
d="M202 790h-59q2 63 28.5 99t73.5 36q26 0 45.5 -10t44.5 -28q18 -13 29 -19t23 -6q34 0 41 61h59q-2 -63 -28.5 -99t-73.5 -36q-26 0 -45.5 10t-44.5 28q-18 13 -29 19t-23 6q-34 0 -41 -61zM602 724l-231 -724h-110l-232 724h106l182 -617l180 617h105z" />
    <glyph glyph-name="uni0245" unicode="&#x245;" horiz-adv-x="632" 
d="M497 0l-182 617l-180 -617h-105l231 724h110l232 -724h-106z" />
    <glyph glyph-name="W" unicode="W" horiz-adv-x="896" 
d="M864 724l-180 -724h-110l-128 582l-125 -582h-110l-180 724h104l132 -608l127 607h108l129 -606l131 607h102z" />
    <glyph glyph-name="W.c2sc" horiz-adv-x="818" 
d="M789 606l-162 -606h-107l-112 480l-111 -480h-107l-161 606h101l115 -503l112 502h104l114 -501l114 502h100z" />
    <glyph glyph-name="Wacute" unicode="&#x1e82;" horiz-adv-x="896" 
d="M460 781h-84v12l150 133h116v-12zM864 724l-180 -724h-110l-128 582l-125 -582h-110l-180 724h104l132 -608l127 607h108l129 -606l131 607h102z" />
    <glyph glyph-name="Wcircumflex" unicode="&#x174;" horiz-adv-x="896" 
d="M353 781h-73v12l117 133h100l117 -133v-12h-76l-93 87zM864 724l-180 -724h-110l-128 582l-125 -582h-110l-180 724h104l132 -608l127 607h108l129 -606l131 607h102z" />
    <glyph glyph-name="Wcircumflex.c2sc" horiz-adv-x="818" 
d="M789 606l-162 -606h-107l-112 480l-111 -480h-107l-161 606h101l115 -503l112 502h104l114 -501l114 502h100zM557 677v-10h-70l-81 103l-80 -103h-67v10l102 159h94z" />
    <glyph glyph-name="Wdieresis" unicode="&#x1e84;" horiz-adv-x="896" 
d="M304.5 804q-15.5 16 -15.5 43q0 28 15.5 44t43.5 16q27 0 42.5 -16t15.5 -43q0 -29 -15 -44.5t-43 -15.5t-43.5 16zM503.5 804q-15.5 16 -15.5 43q0 28 15.5 44t43.5 16q27 0 42.5 -16t15.5 -43q0 -29 -15 -44.5t-43 -15.5t-43.5 16zM864 724l-180 -724h-110l-128 582
l-125 -582h-110l-180 724h104l132 -608l127 607h108l129 -606l131 607h102z" />
    <glyph glyph-name="uni1E86" unicode="&#x1e86;" horiz-adv-x="896" 
d="M400.5 807.5q-16.5 16.5 -16.5 45.5q0 30 16.5 46.5t46.5 16.5t46.5 -16.5t16.5 -45.5q0 -30 -16.5 -46.5t-46.5 -16.5t-46.5 16.5zM864 724l-180 -724h-110l-128 582l-125 -582h-110l-180 724h104l132 -608l127 607h108l129 -606l131 607h102z" />
    <glyph glyph-name="uni1E88" unicode="&#x1e88;" horiz-adv-x="896" 
d="M864 724l-180 -724h-110l-128 582l-125 -582h-110l-180 724h104l132 -608l127 607h108l129 -606l131 607h102zM402.5 -196.5q-16.5 16.5 -16.5 45.5q0 30 16.5 46.5t46.5 16.5t46.5 -16.5t16.5 -45.5q0 -30 -16.5 -46.5t-46.5 -16.5t-46.5 16.5z" />
    <glyph glyph-name="Wgrave" unicode="&#x1e80;" horiz-adv-x="896" 
d="M433 781l-173 133v12h117l140 -133v-12h-84zM864 724l-180 -724h-110l-128 582l-125 -582h-110l-180 724h104l132 -608l127 607h108l129 -606l131 607h102z" />
    <glyph glyph-name="uni2C72" unicode="&#x2c72;" horiz-adv-x="979" 
d="M998 598l-82 -15q-4 34 -14 49.5t-27 15.5q-16 0 -26.5 -15.5t-20.5 -52.5l-144 -580h-110l-128 582l-125 -582h-110l-180 724h104l132 -608l127 607h108l129 -606l106 490q14 66 49 100t89 34q111 0 123 -143z" />
    <glyph glyph-name="uni01F7" unicode="&#x1f7;" horiz-adv-x="577" 
d="M505 678q52 -59 52 -164q0 -72 -24 -128t-76 -107.5t-142 -112.5l-126 -85v-288h-99v931h96v-69q33 39 79 60.5t97 21.5q91 0 143 -59zM392.5 341.5q34.5 37.5 48 75t13.5 84.5q0 73 -29 108.5t-88 35.5q-38 0 -76.5 -18t-71.5 -51v-387l105 71q64 44 98.5 81.5z" />
    <glyph glyph-name="X" unicode="X" horiz-adv-x="608" 
d="M467 0l-165 286l-163 -286h-113l222 366l-214 358h114l158 -275l161 275h112l-219 -356l221 -368h-114z" />
    <glyph glyph-name="X.c2sc" horiz-adv-x="556" 
d="M421 0l-144 232l-144 -232h-109l200 306l-193 300h111l138 -223l141 223h109l-197 -298l199 -308h-111z" />
    <glyph glyph-name="uni1E8C" unicode="&#x1e8c;" horiz-adv-x="608" 
d="M161.5 804q-15.5 16 -15.5 43q0 28 15.5 44t43.5 16q27 0 42.5 -16t15.5 -43q0 -29 -15 -44.5t-43 -15.5t-43.5 16zM360.5 804q-15.5 16 -15.5 43q0 28 15.5 44t43.5 16q27 0 42.5 -16t15.5 -43q0 -29 -15 -44.5t-43 -15.5t-43.5 16zM467 0l-165 286l-163 -286h-113
l222 366l-214 358h114l158 -275l161 275h112l-219 -356l221 -368h-114z" />
    <glyph glyph-name="uni1E8A" unicode="&#x1e8a;" horiz-adv-x="608" 
d="M257.5 807.5q-16.5 16.5 -16.5 45.5q0 30 16.5 46.5t46.5 16.5t46.5 -16.5t16.5 -45.5q0 -30 -16.5 -46.5t-46.5 -16.5t-46.5 16.5zM467 0l-165 286l-163 -286h-113l222 366l-214 358h114l158 -275l161 275h112l-219 -356l221 -368h-114z" />
    <glyph glyph-name="Y" unicode="Y" horiz-adv-x="588" 
d="M566 724l-224 -472v-252h-99v252l-222 472h108l166 -362l164 362h107z" />
    <glyph glyph-name="Y.c2sc" horiz-adv-x="537" 
d="M518 606l-202 -400v-206h-97v206l-200 400h105l145 -299l145 299h104z" />
    <glyph glyph-name="Yacute" unicode="&#xdd;" horiz-adv-x="588" 
d="M306 781h-84v12l150 133h116v-12zM566 724l-224 -472v-252h-99v252l-222 472h108l166 -362l164 362h107z" />
    <glyph glyph-name="Yacute.c2sc" horiz-adv-x="537" 
d="M518 606l-202 -400v-206h-97v206l-200 400h105l145 -299l145 299h104zM209 677l99 159h107v-10l-132 -159h-74v10z" />
    <glyph glyph-name="Ycircumflex" unicode="&#x176;" horiz-adv-x="588" 
d="M199 781h-73v12l117 133h100l117 -133v-12h-76l-93 87zM566 724l-224 -472v-252h-99v252l-222 472h108l166 -362l164 362h107z" />
    <glyph glyph-name="Ycircumflex.c2sc" horiz-adv-x="537" 
d="M518 606l-202 -400v-206h-97v206l-200 400h105l145 -299l145 299h104zM417 677v-10h-70l-81 103l-80 -103h-67v10l102 159h94z" />
    <glyph glyph-name="Ydieresis" unicode="&#x178;" horiz-adv-x="588" 
d="M150.5 804q-15.5 16 -15.5 43q0 28 15.5 44t43.5 16q27 0 42.5 -16t15.5 -43q0 -29 -15 -44.5t-43 -15.5t-43.5 16zM349.5 804q-15.5 16 -15.5 43q0 28 15.5 44t43.5 16q27 0 42.5 -16t15.5 -43q0 -29 -15 -44.5t-43 -15.5t-43.5 16zM566 724l-224 -472v-252h-99v252
l-222 472h108l166 -362l164 362h107z" />
    <glyph glyph-name="Ydieresis.c2sc" horiz-adv-x="537" 
d="M130.5 691q-15.5 16 -15.5 43q0 28 15.5 44t43.5 16q27 0 42.5 -16t15.5 -43q0 -29 -15 -44.5t-43 -15.5t-43.5 16zM319.5 691q-15.5 16 -15.5 43q0 28 15.5 44t43.5 16q27 0 42.5 -16t15.5 -43q0 -29 -15 -44.5t-43 -15.5t-43.5 16zM518 606l-202 -400v-206h-97v206
l-200 400h105l145 -299l145 299h104z" />
    <glyph glyph-name="uni1E8E" unicode="&#x1e8e;" horiz-adv-x="588" 
d="M246.5 807.5q-16.5 16.5 -16.5 45.5q0 30 16.5 46.5t46.5 16.5t46.5 -16.5t16.5 -45.5q0 -30 -16.5 -46.5t-46.5 -16.5t-46.5 16.5zM566 724l-224 -472v-252h-99v252l-222 472h108l166 -362l164 362h107z" />
    <glyph glyph-name="uni1EF4" unicode="&#x1ef4;" horiz-adv-x="588" 
d="M566 724l-224 -472v-252h-99v252l-222 472h108l166 -362l164 362h107zM246.5 -196.5q-16.5 16.5 -16.5 45.5q0 30 16.5 46.5t46.5 16.5t46.5 -16.5t16.5 -45.5q0 -30 -16.5 -46.5t-46.5 -16.5t-46.5 16.5z" />
    <glyph glyph-name="Ygrave" unicode="&#x1ef2;" horiz-adv-x="588" 
d="M279 781l-173 133v12h117l140 -133v-12h-84zM566 724l-224 -472v-252h-99v252l-222 472h108l166 -362l164 362h107z" />
    <glyph glyph-name="uni01B3" unicode="&#x1b3;" horiz-adv-x="651" 
d="M643 705q31 -36 36 -107l-81 -15q-5 34 -15 49.5t-27 15.5q-13 0 -24.5 -11t-23.5 -37l-166 -348v-252h-99v252l-222 472h108l166 -362l122 267q26 58 59.5 85t79.5 27q56 0 87 -36z" />
    <glyph glyph-name="uni1EF6" unicode="&#x1ef6;" horiz-adv-x="588" 
d="M219 864l-25 52q48 31 111 31q45 0 70.5 -18.5t25.5 -50.5q0 -25 -12.5 -37t-33.5 -20q-15 -6 -21 -10t-6 -13l2 -17h-74q-2 12 -2 22q0 18 10 27.5t27 16.5q13 6 18.5 10.5t5.5 12.5q0 15 -27 15q-32 0 -69 -21zM566 724l-224 -472v-252h-99v252l-222 472h108l166 -362
l164 362h107z" />
    <glyph glyph-name="uni1EFE" unicode="&#x1efe;" horiz-adv-x="617" 
d="M638 724l-295 -598q-38 -76 -80.5 -109.5t-103.5 -33.5q-62 0 -96 31.5t-34 88.5q0 75 62 121.5t181 60.5l-227 439h107l196 -395l184 395h106zM285 209q-84 -10 -123.5 -33.5t-39.5 -62.5q0 -22 11 -33.5t32 -11.5q25 0 45.5 17.5t39.5 56.5z" />
    <glyph glyph-name="uni0232" unicode="&#x232;" horiz-adv-x="588" 
d="M444 809h-302v71h302v-71zM566 724l-224 -472v-252h-99v252l-222 472h108l166 -362l164 362h107z" />
    <glyph glyph-name="uni021C" unicode="&#x21c;" horiz-adv-x="509" 
d="M432.5 309q35.5 -52 35.5 -120q0 -131 -111.5 -200t-328.5 -103l-16 88q118 19 194.5 44.5t117.5 67.5t41 106q0 104 -108 151q-62 -32 -146 -62l-28 77q96 37 148 68t72.5 61t20.5 67q0 47 -31.5 71t-83.5 24q-44 0 -79.5 -10t-79.5 -31l-34 80q91 49 204 49
q94 0 150 -44.5t56 -127.5q0 -52 -21.5 -94.5t-70.5 -79.5q63 -30 98.5 -82z" />
    <glyph glyph-name="uni01A6" unicode="&#x1a6;" horiz-adv-x="616" 
d="M548 -110l-213 336h-3h-143v-226h-99v724h99v-81h147q106 0 165.5 -56t59.5 -152q0 -70 -32 -120t-93 -72l233 -353h-121zM189 313h147q61 0 91.5 31.5t30.5 89.5t-31.5 89.5t-94.5 31.5h-143v-242z" />
    <glyph glyph-name="uni024E" unicode="&#x24e;" horiz-adv-x="588" 
d="M508 602h56v-78h-93l-129 -272v-252h-99v252l-128 272h-92v78h56l-58 122h108l56 -122h219l55 122h107zM368 524h-147l74 -162z" />
    <glyph glyph-name="uni1EF8" unicode="&#x1ef8;" horiz-adv-x="588" 
d="M180 790h-59q2 63 28.5 99t73.5 36q26 0 45.5 -10t44.5 -28q18 -13 29 -19t23 -6q34 0 41 61h59q-2 -63 -28.5 -99t-73.5 -36q-26 0 -45.5 10t-44.5 28q-18 13 -29 19t-23 6q-34 0 -41 -61zM566 724l-224 -472v-252h-99v252l-222 472h108l166 -362l164 362h107z" />
    <glyph glyph-name="Z" unicode="Z" horiz-adv-x="553" 
d="M510 87v-87h-469v88l352 549h-339v87h451v-87l-352 -550h357z" />
    <glyph glyph-name="Z.c2sc" horiz-adv-x="508" 
d="M467 85v-85h-428v86l312 434h-300v86h412v-86l-313 -435h317z" />
    <glyph glyph-name="Zacute" unicode="&#x179;" horiz-adv-x="553" 
d="M288 781h-84v12l150 133h116v-12zM510 87v-87h-469v88l352 549h-339v87h451v-87l-352 -550h357z" />
    <glyph glyph-name="Zacute.c2sc" horiz-adv-x="508" 
d="M467 85v-85h-428v86l312 434h-300v86h412v-86l-313 -435h317zM193 677l99 159h107v-10l-132 -159h-74v10z" />
    <glyph glyph-name="Zcaron" unicode="&#x17d;" horiz-adv-x="553" 
d="M225 781l-117 133v12h76l93 -87l92 87h73v-12l-117 -133h-100zM510 87v-87h-469v88l352 549h-339v87h451v-87l-352 -550h357z" />
    <glyph glyph-name="Zcaron.c2sc" horiz-adv-x="508" 
d="M467 85v-85h-428v86l312 434h-300v86h412v-86l-313 -435h317zM401 836v-10l-102 -159h-94l-102 159v10h70l80 -103l81 103h67z" />
    <glyph glyph-name="uni1E90" unicode="&#x1e90;" horiz-adv-x="553" 
d="M181 781h-73v12l117 133h100l117 -133v-12h-76l-93 87zM510 87v-87h-469v88l352 549h-339v87h451v-87l-352 -550h357z" />
    <glyph glyph-name="uni2C6B" unicode="&#x2c6b;" horiz-adv-x="553" 
d="M510 87v-87v-151h-76l-17 151h-376v88l352 549h-339v87h451v-87l-352 -550h357z" />
    <glyph glyph-name="Zdotaccent" unicode="&#x17b;" horiz-adv-x="553" 
d="M228.5 807.5q-16.5 16.5 -16.5 45.5q0 30 16.5 46.5t46.5 16.5t46.5 -16.5t16.5 -45.5q0 -30 -16.5 -46.5t-46.5 -16.5t-46.5 16.5zM510 87v-87h-469v88l352 549h-339v87h451v-87l-352 -550h357z" />
    <glyph glyph-name="Zdotaccent.c2sc" horiz-adv-x="508" 
d="M467 85v-85h-428v86l312 434h-300v86h412v-86l-313 -435h317zM205.5 693.5q-16.5 16.5 -16.5 45.5q0 30 16.5 46.5t46.5 16.5t46.5 -16.5t16.5 -45.5q0 -30 -16.5 -46.5t-46.5 -16.5t-46.5 16.5z" />
    <glyph glyph-name="uni1E92" unicode="&#x1e92;" horiz-adv-x="553" 
d="M510 87v-87h-469v88l352 549h-339v87h451v-87l-352 -550h357zM232.5 -196.5q-16.5 16.5 -16.5 45.5q0 30 16.5 46.5t46.5 16.5t46.5 -16.5t16.5 -45.5q0 -30 -16.5 -46.5t-46.5 -16.5t-46.5 16.5z" />
    <glyph glyph-name="uni0224" unicode="&#x224;" horiz-adv-x="553" 
d="M485.5 45.5q42.5 -41.5 42.5 -117.5q0 -25 -4 -41h-90q3 27 3 42q0 71 -71 71h-15h-310v88l352 549h-339v87h451v-87l-352 -550h213q77 0 119.5 -41.5z" />
    <glyph glyph-name="uni1E94" unicode="&#x1e94;" horiz-adv-x="553" 
d="M510 87v-87h-469v88l352 549h-339v87h451v-87l-352 -550h357zM128 -103h302v-72h-302v72z" />
    <glyph glyph-name="uni01B5" unicode="&#x1b5;" horiz-adv-x="553" 
d="M510 87v-87h-469v88l161 251h-120v79h171l140 219h-339v87h451v-87l-140 -219h104v-79h-155l-161 -252h357z" />
    <glyph glyph-name="uniA722" unicode="&#xa722;" horiz-adv-x="317" 
d="M64 724h63q74 0 115.5 -37t41.5 -102q0 -68 -47 -117t-150 -87l-31 58q76 34 108.5 65t32.5 69q0 33 -22 50t-65 17h-58zM64 347h63q74 0 115.5 -37t41.5 -102q0 -68 -47 -117t-150 -87l-31 58q76 34 108.5 65t32.5 69q0 33 -22 50t-65 17h-58z" />
    <glyph glyph-name="uniA724" unicode="&#xa724;" horiz-adv-x="317" 
d="M207 640q-87 0 -87 -67q0 -38 32.5 -69t107.5 -65l-31 -58q-102 38 -149.5 87.5t-47.5 116.5q0 65 42 102t116 37h63l11 -84h-57z" />
    <glyph glyph-name="uni1D01" unicode="&#x1d01;" horiz-adv-x="765" 
d="M729 87v-87h-363v113h-206l-64 -113h-104l313 539h97h316v-87h-258v-133h189v-88h-189v-144h269zM366 197v278l-158 -278h158z" />
    <glyph glyph-name="uni1D00" unicode="&#x1d00;" horiz-adv-x="562" 
d="M396 120h-231l-42 -120h-102l207 539h106l207 -539h-103zM367 204l-87 250l-86 -250h173z" />
    <glyph glyph-name="uni1D03" unicode="&#x1d03;" horiz-adv-x="543" 
d="M536 244h-67q31 -31 31 -83q0 -77 -50.5 -119t-141.5 -42h-186h-52v240h-54v71h54v228h97h113q88 0 137 -40t49 -113q0 -48 -28 -76h98v-66zM167 452v-135h113q87 0 87 66q0 69 -92 69h-108zM378 104q22 19 22 55q0 75 -92 75h-141v-149h147q42 0 64 19z" />
    <glyph glyph-name="uni0299" unicode="&#x299;" horiz-adv-x="560" 
d="M516 161q0 -76 -50 -118.5t-141 -42.5h-187h-52v539h97h113q88 0 137 -40t49 -113q0 -76 -71 -102q105 -29 105 -123zM183 452v-135h113q87 0 87 66q0 69 -92 69h-108zM394.5 104q21.5 19 21.5 55q0 37 -23 56t-68 19h-142v-149h147q43 0 64.5 19z" />
    <glyph glyph-name="uni1D04" unicode="&#x1d04;" horiz-adv-x="512" 
d="M115.5 61q-71.5 70 -71.5 197q0 89 32.5 154.5t93 100.5t142.5 35q45 0 88 -11t75 -32l-33 -73q-69 29 -132 29q-79 0 -122.5 -51.5t-43.5 -144.5q0 -92 45 -138.5t132 -46.5q76 0 126 26l33 -73q-27 -20 -70 -31t-94 -11q-129 0 -200.5 70z" />
    <glyph glyph-name="uni1D05" unicode="&#x1d05;" horiz-adv-x="598" 
d="M474.5 471q69.5 -68 69.5 -201q0 -134 -69.5 -202t-202.5 -68h-186v539h186q133 0 202.5 -68zM444 270q0 182 -174 182h-87v-365h88q173 0 173 183z" />
    <glyph glyph-name="uni1D07" unicode="&#x1d07;" horiz-adv-x="500" 
d="M465 87v-87h-379v539h367v-87h-270v-133h200v-88h-200v-144h282z" />
    <glyph glyph-name="uni1D06" unicode="&#x1d06;" horiz-adv-x="582" 
d="M458 471q70 -68 70 -201q0 -134 -70 -202t-203 -68h-186v236h-53v74h53v229h187q132 0 202 -68zM428 270q0 182 -175 182h-87v-142h138v-74h-138v-149h88q174 0 174 183z" />
    <glyph glyph-name="uni1D23" unicode="&#x1d23;" horiz-adv-x="494" 
d="M450 169q0 -87 -68.5 -132.5t-174.5 -45.5q-116 0 -197 41l35 77q80 -31 160 -31q68 0 106.5 24.5t38.5 67.5q0 49 -45 67t-134 18h-35v71l158 128h-255v85h373v-88l-157 -125q195 -17 195 -157z" />
    <glyph glyph-name="uniA730" unicode="&#xa730;" horiz-adv-x="464" 
d="M183 452v-147h215v-88h-215v-217h-97v539h361v-87h-264z" />
    <glyph glyph-name="uni0262" unicode="&#x262;" horiz-adv-x="576" 
d="M509 305v-272q-33 -20 -80 -31.5t-98 -11.5q-132 0 -204.5 73t-72.5 206t72.5 206t204.5 73q50 0 94.5 -11t75.5 -31l-29 -77q-73 33 -143 33q-175 0 -175 -193q0 -192 177 -192q44 0 81 9v133h-103v86h200z" />
    <glyph glyph-name="uni029B" unicode="&#x29b;" horiz-adv-x="667" 
d="M620 671v-81q-27 3 -42 3q-77 0 -77 -81v-15v-68h-29q-73 33 -143 33q-175 0 -175 -193q0 -192 177 -192q44 0 81 9v133h-103v86h200v-272q-33 -20 -80 -31.5t-98 -11.5q-132 0 -204.5 73t-72.5 206t72.5 206t204.5 73q50 0 89 -10q8 65 48.5 100.5t110.5 35.5
q21 0 41 -3z" />
    <glyph glyph-name="uni029C" unicode="&#x29c;" horiz-adv-x="614" 
d="M528 539v-539h-97v230h-248v-230h-97v539h97v-223h248v223h97z" />
    <glyph glyph-name="uni026A" unicode="&#x26a;" horiz-adv-x="273" 
d="M88 539h97v-539h-97v539z" />
    <glyph glyph-name="uni1D0A" unicode="&#x1d0a;" horiz-adv-x="400" 
d="M64.5 1q-37.5 11 -62.5 30l35 74q51 -27 103 -27q82 0 82 67v394h97v-401q0 -70 -46 -109t-129 -39q-42 0 -79.5 11z" />
    <glyph glyph-name="uni1D0B" unicode="&#x1d0b;" horiz-adv-x="538" 
d="M256 233l-73 -81v-152h-97v539h97v-268l232 268h116l-212 -236l225 -303h-116z" />
    <glyph glyph-name="uni029F" unicode="&#x29f;" horiz-adv-x="457" 
d="M434 87v-87h-349v539h97v-452h252z" />
    <glyph glyph-name="uni1D0C" unicode="&#x1d0c;" horiz-adv-x="458" 
d="M434 87v-87h-349v184l-41 -23h-8v76l49 26v276h97v-227l162 86h8v-77l-170 -86v-148h252z" />
    <glyph glyph-name="uni1D0D" unicode="&#x1d0d;" horiz-adv-x="737" 
d="M651 539v-539h-94v390l-138 -285h-102l-138 285v-390h-93v539h117l166 -350l163 350h119z" />
    <glyph glyph-name="uniA7FA" unicode="&#xa7fa;" horiz-adv-x="760" 
d="M674 534v-534h-588v534h97v-447h149v447h97v-447h148v447h97z" />
    <glyph glyph-name="uni1D0E" unicode="&#x1d0e;" horiz-adv-x="632" 
d="M546 539v-539h-95v376l-272 -376h-93v539h95v-376l272 376h93z" />
    <glyph glyph-name="uni0274" unicode="&#x274;" horiz-adv-x="632" 
d="M546 539v-539h-93l-272 376v-376h-95v539h93l272 -375v375h95z" />
    <glyph glyph-name="uni0276" unicode="&#x276;" horiz-adv-x="813" 
d="M777 87v-87h-364h-107q-123 0 -187.5 67.5t-64.5 201.5q0 133 65 201.5t187 68.5h139h321v-87h-258v-133h188v-88h-188v-144h269zM413 87v365h-107q-152 0 -152 -183q0 -182 152 -182h107z" />
    <glyph glyph-name="uni1D15" unicode="&#x1d15;" horiz-adv-x="553" 
d="M480.5 226q27.5 -35 27.5 -83q0 -73 -60.5 -113t-170.5 -40t-170.5 40t-60.5 113q0 48 27 83t78 53q-44 17 -68 49t-24 75q0 54 37.5 92t105.5 53l30 -74q-75 -25 -75 -79q0 -35 29.5 -55.5t90.5 -20.5q60 0 90 20t30 55q0 27 -18.5 47t-57.5 33l30 74q68 -15 105.5 -53
t37.5 -92q0 -43 -24 -75t-68 -49q51 -18 78.5 -53zM376 96q33 21 33 59q0 39 -33 60.5t-99 21.5q-67 0 -100 -21.5t-33 -60.5q0 -38 33 -59t100 -21q66 0 99 21z" />
    <glyph glyph-name="uni1D10" unicode="&#x1d10;" horiz-adv-x="512" 
d="M396.5 478q71.5 -70 71.5 -197q0 -89 -32.5 -154.5t-93 -100.5t-142.5 -35q-45 0 -88 11t-75 32l33 73q69 -29 132 -29q79 0 122.5 51.5t43.5 144.5q0 185 -177 185q-76 0 -126 -26l-33 73q27 20 70 31t94 11q129 0 200.5 -70z" />
    <glyph glyph-name="uni1D0F" unicode="&#x1d0f;" horiz-adv-x="611" 
d="M118.5 60.5q-64.5 70.5 -64.5 208.5q0 139 64.5 209t187.5 70q122 0 186.5 -70t64.5 -209q0 -138 -64.5 -208.5t-186.5 -70.5q-123 0 -187.5 70.5zM457 269q0 193 -151 193q-152 0 -152 -193q0 -192 152 -192q151 0 151 192z" />
    <glyph glyph-name="uni1D18" unicode="&#x1d18;" horiz-adv-x="514" 
d="M447 491q51 -48 51 -136q0 -87 -52.5 -135.5t-147.5 -48.5h-115v-171h-97v539h97h120q93 0 144 -48zM398 353q0 99 -100 99h-115v-194h120q95 0 95 95z" />
    <glyph glyph-name="uni1D19" unicode="&#x1d19;" horiz-adv-x="549" 
d="M463 0h-97v189h-90l-134 -189h-117l151 200q-56 17 -86 59t-30 105q0 83 50.5 129t143.5 46h209v-539zM366 272v182h-109q-97 0 -97 -92q0 -90 94 -90h112z" />
    <glyph glyph-name="uni0280" unicode="&#x280;" horiz-adv-x="549" 
d="M273 189h-90v-189h-97v539h97h112q93 0 143.5 -46t50.5 -129q0 -63 -30.5 -105t-86.5 -59l152 -200h-117zM183 272h112q94 0 94 90q0 92 -97 92h-109v-182z" />
    <glyph glyph-name="uni0281" unicode="&#x281;" horiz-adv-x="549" 
d="M459 280q30 -42 30 -105q0 -83 -50.5 -129t-143.5 -46h-134h-75v539h97v-189h90l134 189h117l-151 -200q56 -17 86 -59zM389 177q0 90 -94 90h-112v-182h109q97 0 97 92z" />
    <glyph glyph-name="uniA731" unicode="&#xa731;" horiz-adv-x="481" 
d="M125 4q-51 13 -90 36l32 76q79 -41 162 -41q113 0 113 68q0 28 -20.5 46t-65.5 29l-67 16q-77 19 -112 55t-35 96q0 77 52 119.5t145 42.5q45 0 92.5 -9.5t89.5 -27.5l-32 -76q-85 30 -152 30q-101 0 -101 -63q0 -28 20.5 -45.5t65.5 -28.5l69 -17q77 -19 111.5 -54.5
t34.5 -96.5q0 -79 -55 -123.5t-153 -44.5q-53 0 -104 13z" />
    <glyph glyph-name="uni1D1B" unicode="&#x1d1b;" horiz-adv-x="446" 
d="M424 451h-152v-451h-97v451h-153v88h250h152v-88z" />
    <glyph glyph-name="uni1D1A" unicode="&#x1d1a;" horiz-adv-x="549" 
d="M463 539v-539h-97h-112q-93 0 -143.5 46t-50.5 129q0 63 30 105t86 59l-151 200h117l134 -189h90v189h97zM366 85v182h-112q-94 0 -94 -90q0 -92 97 -92h109z" />
    <glyph glyph-name="uni2C7B" unicode="&#x2c7b;" horiz-adv-x="501" 
d="M414 539v-539h-367v87h270v133h-200v88h200v144h-282v87h379z" />
    <glyph glyph-name="uni1D1C" unicode="&#x1d1c;" horiz-adv-x="599" 
d="M137.5 41q-56.5 51 -56.5 145v353h97v-347q0 -115 121 -115q122 0 122 115v347h97v-353q0 -94 -57.5 -145t-162.5 -51q-104 0 -160.5 51z" />
    <glyph glyph-name="uni1D20" unicode="&#x1d20;" horiz-adv-x="533" 
d="M508 539l-188 -539h-106l-189 539h103l140 -447l138 447h102z" />
    <glyph glyph-name="uni1D21" unicode="&#x1d21;" horiz-adv-x="752" 
d="M725 539l-145 -539h-107l-98 419l-96 -419h-107l-145 539h101l98 -439l98 438h105l99 -437l97 438h100z" />
    <glyph glyph-name="uni028F" unicode="&#x28f;" horiz-adv-x="494" 
d="M477 539l-182 -359v-180h-97v180l-181 359h105l126 -260l126 260h103z" />
    <glyph glyph-name="uni1D22" unicode="&#x1d22;" horiz-adv-x="471" 
d="M432 85v-85h-395v85l278 368h-267v86h379v-86l-278 -368h283z" />
    <glyph glyph-name="a" unicode="a" horiz-adv-x="531" 
d="M399.5 507.5q53.5 -44.5 53.5 -128.5v-379h-88v71q-52 -82 -161 -82q-79 0 -122.5 42t-43.5 119q0 96 77 141.5t242 46.5v31q0 46 -30 70t-88 24q-66 0 -126 -28l-25 78q79 39 166 39q92 0 145.5 -44.5zM357 134v133q-117 -2 -171 -28t-54 -82q0 -41 24 -62t71 -21
q75 0 130 60z" />
    <glyph glyph-name="uniA733" unicode="&#xa733;" horiz-adv-x="823" 
d="M693.5 506.5q51.5 -45.5 51.5 -127.5v-379h-88v60q-62 -71 -157 -71q-100 0 -134 71q-37 -37 -77.5 -54t-89.5 -17q-76 0 -118.5 42t-42.5 118q0 93 75 137t235 45v38q0 94 -113 94q-63 0 -122 -28l-25 78q79 39 162 39q85 0 132.5 -45.5t47.5 -127.5v-86q73 38 219 38
v38q0 94 -115 94q-54 0 -92 -15l-36 71q61 33 142 33q94 0 145.5 -45.5zM348 134v126q-112 -2 -164 -27t-52 -77q0 -82 91 -82q71 0 125 60zM590.5 88.5q30.5 14.5 58.5 45.5v126q-112 -2 -164 -27t-52 -77q0 -82 90 -82q37 0 67.5 14.5z" />
    <glyph glyph-name="aacute" unicode="&#xe1;" horiz-adv-x="531" 
d="M399.5 507.5q53.5 -44.5 53.5 -128.5v-379h-88v71q-52 -82 -161 -82q-79 0 -122.5 42t-43.5 119q0 96 77 141.5t242 46.5v31q0 46 -30 70t-88 24q-66 0 -126 -28l-25 78q79 39 166 39q92 0 145.5 -44.5zM357 134v133q-117 -2 -171 -28t-54 -82q0 -41 24 -62t71 -21
q75 0 130 60zM195 625l99 159h107v-10l-132 -159h-74v10z" />
    <glyph glyph-name="abreve" unicode="&#x103;" horiz-adv-x="531" 
d="M399.5 507.5q53.5 -44.5 53.5 -128.5v-379h-88v71q-52 -82 -161 -82q-79 0 -122.5 42t-43.5 119q0 96 77 141.5t242 46.5v31q0 46 -30 70t-88 24q-66 0 -126 -28l-25 78q79 39 166 39q92 0 145.5 -44.5zM357 134v133q-117 -2 -171 -28t-54 -82q0 -41 24 -62t71 -21
q75 0 130 60zM147 653.5q-39 40.5 -42 114.5h62q12 -79 88 -79q77 0 89 79h59q-3 -74 -42 -114.5t-107 -40.5t-107 40.5z" />
    <glyph glyph-name="uni1EAF" unicode="&#x1eaf;" horiz-adv-x="531" 
d="M284 751h-64v10l78 127h88v-10zM148.5 651.5q-38.5 38.5 -41.5 108.5h58q11 -78 90 -78q81 0 91 78h55q-3 -70 -41.5 -108.5t-105.5 -38.5t-105.5 38.5zM399.5 507.5q53.5 -44.5 53.5 -128.5v-379h-88v71q-52 -82 -161 -82q-79 0 -122.5 42t-43.5 119q0 96 77 141.5
t242 46.5v31q0 46 -30 70t-88 24q-66 0 -126 -28l-25 78q79 39 166 39q92 0 145.5 -44.5zM357 134v133q-117 -2 -171 -28t-54 -82q0 -41 24 -62t71 -21q75 0 130 60z" />
    <glyph glyph-name="uni1EB7" unicode="&#x1eb7;" horiz-adv-x="531" 
d="M399.5 507.5q53.5 -44.5 53.5 -128.5v-379h-88v71q-52 -82 -161 -82q-79 0 -122.5 42t-43.5 119q0 96 77 141.5t242 46.5v31q0 46 -30 70t-88 24q-66 0 -126 -28l-25 78q79 39 166 39q92 0 145.5 -44.5zM357 134v133q-117 -2 -171 -28t-54 -82q0 -41 24 -62t71 -21
q75 0 130 60zM197.5 -196.5q-16.5 16.5 -16.5 45.5q0 30 16.5 46.5t46.5 16.5t46.5 -16.5t16.5 -45.5q0 -30 -16.5 -46.5t-46.5 -16.5t-46.5 16.5zM147 653.5q-39 40.5 -42 114.5h62q12 -79 88 -79q77 0 89 79h59q-3 -74 -42 -114.5t-107 -40.5t-107 40.5z" />
    <glyph glyph-name="uni1EB1" unicode="&#x1eb1;" horiz-adv-x="531" 
d="M226 751l-96 127v10h88l72 -127v-10h-64zM148.5 651.5q-38.5 38.5 -41.5 108.5h58q11 -78 90 -78q81 0 91 78h55q-3 -70 -41.5 -108.5t-105.5 -38.5t-105.5 38.5zM399.5 507.5q53.5 -44.5 53.5 -128.5v-379h-88v71q-52 -82 -161 -82q-79 0 -122.5 42t-43.5 119
q0 96 77 141.5t242 46.5v31q0 46 -30 70t-88 24q-66 0 -126 -28l-25 78q79 39 166 39q92 0 145.5 -44.5zM357 134v133q-117 -2 -171 -28t-54 -82q0 -41 24 -62t71 -21q75 0 130 60z" />
    <glyph glyph-name="uni1EB3" unicode="&#x1eb3;" horiz-adv-x="531" 
d="M187 846l-22 48q44 26 97 26q43 0 66.5 -18.5t23.5 -52.5q0 -24 -11 -35t-30 -20q-13 -6 -18.5 -10.5t-5.5 -12.5q0 -7 2 -19h-71q-2 12 -2 22q0 19 8.5 28.5t25.5 17.5q12 6 17.5 11t5.5 14q0 18 -27 18q-28 0 -59 -17zM148.5 651.5q-38.5 38.5 -41.5 108.5h58
q11 -78 90 -78q81 0 91 78h55q-3 -70 -41.5 -108.5t-105.5 -38.5t-105.5 38.5zM399.5 507.5q53.5 -44.5 53.5 -128.5v-379h-88v71q-52 -82 -161 -82q-79 0 -122.5 42t-43.5 119q0 96 77 141.5t242 46.5v31q0 46 -30 70t-88 24q-66 0 -126 -28l-25 78q79 39 166 39
q92 0 145.5 -44.5zM357 134v133q-117 -2 -171 -28t-54 -82q0 -41 24 -62t71 -21q75 0 130 60z" />
    <glyph glyph-name="uni1EB5" unicode="&#x1eb5;" horiz-adv-x="531" 
d="M152 809h-53q0 58 25.5 90t71.5 32q26 0 41.5 -8.5t33.5 -25.5q12 -12 21.5 -18t21.5 -6q36 0 42 56h53q0 -58 -25.5 -90t-71.5 -32q-26 0 -41.5 8.5t-33.5 25.5q-12 12 -21.5 18t-21.5 6q-36 0 -42 -56zM346 760h55q-3 -70 -41.5 -108.5t-105.5 -38.5t-105.5 38.5
t-41.5 108.5h58q11 -78 90 -78q81 0 91 78zM399.5 507.5q53.5 -44.5 53.5 -128.5v-379h-88v71q-52 -82 -161 -82q-79 0 -122.5 42t-43.5 119q0 96 77 141.5t242 46.5v31q0 46 -30 70t-88 24q-66 0 -126 -28l-25 78q79 39 166 39q92 0 145.5 -44.5zM357 134v133
q-117 -2 -171 -28t-54 -82q0 -41 24 -62t71 -21q75 0 130 60z" />
    <glyph glyph-name="uni01CE" unicode="&#x1ce;" horiz-adv-x="531" 
d="M399.5 507.5q53.5 -44.5 53.5 -128.5v-379h-88v71q-52 -82 -161 -82q-79 0 -122.5 42t-43.5 119q0 96 77 141.5t242 46.5v31q0 46 -30 70t-88 24q-66 0 -126 -28l-25 78q79 39 166 39q92 0 145.5 -44.5zM357 134v133q-117 -2 -171 -28t-54 -82q0 -41 24 -62t71 -21
q75 0 130 60zM403 784v-10l-102 -159h-94l-102 159v10h70l80 -103l81 103h67z" />
    <glyph glyph-name="acircumflex" unicode="&#xe2;" horiz-adv-x="531" 
d="M399.5 507.5q53.5 -44.5 53.5 -128.5v-379h-88v71q-52 -82 -161 -82q-79 0 -122.5 42t-43.5 119q0 96 77 141.5t242 46.5v31q0 46 -30 70t-88 24q-66 0 -126 -28l-25 78q79 39 166 39q92 0 145.5 -44.5zM357 134v133q-117 -2 -171 -28t-54 -82q0 -41 24 -62t71 -21
q75 0 130 60zM403 625v-10h-70l-81 103l-80 -103h-67v10l102 159h94z" />
    <glyph glyph-name="uni1EA5" unicode="&#x1ea5;" horiz-adv-x="531" 
d="M539 856v-10l-102 -127h-64v10l78 127h88zM170 615h-67v10l104 139h94l104 -139v-10h-70l-83 90zM399.5 507.5q53.5 -44.5 53.5 -128.5v-379h-88v71q-52 -82 -161 -82q-79 0 -122.5 42t-43.5 119q0 96 77 141.5t242 46.5v31q0 46 -30 70t-88 24q-66 0 -126 -28l-25 78
q79 39 166 39q92 0 145.5 -44.5zM357 134v133q-117 -2 -171 -28t-54 -82q0 -41 24 -62t71 -21q75 0 130 60z" />
    <glyph glyph-name="uni1EAD" unicode="&#x1ead;" horiz-adv-x="531" 
d="M399.5 507.5q53.5 -44.5 53.5 -128.5v-379h-88v71q-52 -82 -161 -82q-79 0 -122.5 42t-43.5 119q0 96 77 141.5t242 46.5v31q0 46 -30 70t-88 24q-66 0 -126 -28l-25 78q79 39 166 39q92 0 145.5 -44.5zM357 134v133q-117 -2 -171 -28t-54 -82q0 -41 24 -62t71 -21
q75 0 130 60zM197.5 -196.5q-16.5 16.5 -16.5 45.5q0 30 16.5 46.5t46.5 16.5t46.5 -16.5t16.5 -45.5q0 -30 -16.5 -46.5t-46.5 -16.5t-46.5 16.5zM403 625v-10h-70l-81 103l-80 -103h-67v10l102 159h94z" />
    <glyph glyph-name="uni1EA7" unicode="&#x1ea7;" horiz-adv-x="531" 
d="M73 719l-96 127v10h88l72 -127v-10h-64zM103 625l104 139h94l104 -139v-10h-70l-83 90l-82 -90h-67v10zM399.5 507.5q53.5 -44.5 53.5 -128.5v-379h-88v71q-52 -82 -161 -82q-79 0 -122.5 42t-43.5 119q0 96 77 141.5t242 46.5v31q0 46 -30 70t-88 24q-66 0 -126 -28
l-25 78q79 39 166 39q92 0 145.5 -44.5zM357 134v133q-117 -2 -171 -28t-54 -82q0 -41 24 -62t71 -21q75 0 130 60z" />
    <glyph glyph-name="uni1EA9" unicode="&#x1ea9;" horiz-adv-x="531" 
d="M482.5 869.5q23.5 -18.5 23.5 -52.5q0 -24 -11 -35t-30 -20q-13 -6 -18.5 -10.5t-5.5 -12.5q0 -7 2 -19h-71q-2 12 -2 22q0 19 9 28.5t25 17.5q12 6 17.5 11t5.5 14q0 18 -27 18q-28 0 -59 -17l-22 48q44 26 97 26q43 0 66.5 -18.5zM170 615h-67v10l104 139h94l104 -139
v-10h-70l-83 90zM399.5 507.5q53.5 -44.5 53.5 -128.5v-379h-88v71q-52 -82 -161 -82q-79 0 -122.5 42t-43.5 119q0 96 77 141.5t242 46.5v31q0 46 -30 70t-88 24q-66 0 -126 -28l-25 78q79 39 166 39q92 0 145.5 -44.5zM357 134v133q-117 -2 -171 -28t-54 -82q0 -41 24 -62
t71 -21q75 0 130 60z" />
    <glyph glyph-name="uni1EAB" unicode="&#x1eab;" horiz-adv-x="531" 
d="M152 803h-53q0 58 25.5 90t71.5 32q26 0 41.5 -8.5t33.5 -25.5q12 -12 21.5 -18t21.5 -6q36 0 42 56h53q0 -58 -25.5 -90t-71.5 -32q-26 0 -41.5 8.5t-33.5 25.5q-12 12 -21.5 18t-21.5 6q-36 0 -42 -56zM301 764l104 -139v-10h-70l-83 90l-82 -90h-67v10l104 139h94z
M399.5 507.5q53.5 -44.5 53.5 -128.5v-379h-88v71q-52 -82 -161 -82q-79 0 -122.5 42t-43.5 119q0 96 77 141.5t242 46.5v31q0 46 -30 70t-88 24q-66 0 -126 -28l-25 78q79 39 166 39q92 0 145.5 -44.5zM357 134v133q-117 -2 -171 -28t-54 -82q0 -41 24 -62t71 -21
q75 0 130 60z" />
    <glyph glyph-name="uni0201" unicode="&#x201;" horiz-adv-x="531" 
d="M399.5 507.5q53.5 -44.5 53.5 -128.5v-379h-88v71q-52 -82 -161 -82q-79 0 -122.5 42t-43.5 119q0 96 77 141.5t242 46.5v31q0 46 -30 70t-88 24q-66 0 -126 -28l-25 78q79 39 166 39q92 0 145.5 -44.5zM357 134v133q-117 -2 -171 -28t-54 -82q0 -41 24 -62t71 -21
q75 0 130 60zM166 615l-83 159v10h94l52 -159v-10h-63zM312 615l-82 159v10h94l51 -159v-10h-63z" />
    <glyph glyph-name="adieresis" unicode="&#xe4;" horiz-adv-x="531" 
d="M116.5 639q-15.5 16 -15.5 43q0 28 15.5 44t43.5 16q27 0 42.5 -16t15.5 -43q0 -29 -15 -44.5t-43 -15.5t-43.5 16zM305.5 639q-15.5 16 -15.5 43q0 28 15.5 44t43.5 16q27 0 42.5 -16t15.5 -43q0 -29 -15 -44.5t-43 -15.5t-43.5 16zM399.5 507.5q53.5 -44.5 53.5 -128.5
v-379h-88v71q-52 -82 -161 -82q-79 0 -122.5 42t-43.5 119q0 96 77 141.5t242 46.5v31q0 46 -30 70t-88 24q-66 0 -126 -28l-25 78q79 39 166 39q92 0 145.5 -44.5zM357 134v133q-117 -2 -171 -28t-54 -82q0 -41 24 -62t71 -21q75 0 130 60z" />
    <glyph glyph-name="uni01DF" unicode="&#x1df;" horiz-adv-x="531" 
d="M405 791h-302v71h302v-71zM116.5 639q-15.5 16 -15.5 43q0 28 15.5 44t43.5 16q27 0 42.5 -16t15.5 -43q0 -29 -15 -44.5t-43 -15.5t-43.5 16zM391.5 726q15.5 -16 15.5 -43q0 -29 -15 -44.5t-43 -15.5t-43.5 16t-15.5 43q0 28 15.5 44t43.5 16q27 0 42.5 -16z
M399.5 507.5q53.5 -44.5 53.5 -128.5v-379h-88v71q-52 -82 -161 -82q-79 0 -122.5 42t-43.5 119q0 96 77 141.5t242 46.5v31q0 46 -30 70t-88 24q-66 0 -126 -28l-25 78q79 39 166 39q92 0 145.5 -44.5zM357 134v133q-117 -2 -171 -28t-54 -82q0 -41 24 -62t71 -21
q75 0 130 60z" />
    <glyph glyph-name="uni0227" unicode="&#x227;" horiz-adv-x="531" 
d="M399.5 507.5q53.5 -44.5 53.5 -128.5v-379h-88v71q-52 -82 -161 -82q-79 0 -122.5 42t-43.5 119q0 96 77 141.5t242 46.5v31q0 46 -30 70t-88 24q-66 0 -126 -28l-25 78q79 39 166 39q92 0 145.5 -44.5zM357 134v133q-117 -2 -171 -28t-54 -82q0 -41 24 -62t71 -21
q75 0 130 60zM207.5 641.5q-16.5 16.5 -16.5 45.5q0 30 16.5 46.5t46.5 16.5t46.5 -16.5t16.5 -45.5q0 -30 -16.5 -46.5t-46.5 -16.5t-46.5 16.5z" />
    <glyph glyph-name="uni1EA1" unicode="&#x1ea1;" horiz-adv-x="531" 
d="M399.5 507.5q53.5 -44.5 53.5 -128.5v-379h-88v71q-52 -82 -161 -82q-79 0 -122.5 42t-43.5 119q0 96 77 141.5t242 46.5v31q0 46 -30 70t-88 24q-66 0 -126 -28l-25 78q79 39 166 39q92 0 145.5 -44.5zM357 134v133q-117 -2 -171 -28t-54 -82q0 -41 24 -62t71 -21
q75 0 130 60zM197.5 -196.5q-16.5 16.5 -16.5 45.5q0 30 16.5 46.5t46.5 16.5t46.5 -16.5t16.5 -45.5q0 -30 -16.5 -46.5t-46.5 -16.5t-46.5 16.5z" />
    <glyph glyph-name="uni01E1" unicode="&#x1e1;" horiz-adv-x="531" 
d="M399.5 507.5q53.5 -44.5 53.5 -128.5v-379h-88v71q-52 -82 -161 -82q-79 0 -122.5 42t-43.5 119q0 96 77 141.5t242 46.5v31q0 46 -30 70t-88 24q-66 0 -126 -28l-25 78q79 39 166 39q92 0 145.5 -44.5zM357 134v133q-117 -2 -171 -28t-54 -82q0 -41 24 -62t71 -21
q75 0 130 60zM207.5 641.5q-16.5 16.5 -16.5 45.5q0 30 16.5 46.5t46.5 16.5t46.5 -16.5t16.5 -45.5q0 -30 -16.5 -46.5t-46.5 -16.5t-46.5 16.5zM103 866h302v-71h-302v71z" />
    <glyph glyph-name="uni1D02" unicode="&#x1d02;" horiz-adv-x="828" 
d="M715 252.5q-75 -44.5 -235 -45.5v-37q0 -94 113 -94q63 0 122 28l25 -78q-79 -39 -162 -39q-55 0 -95.5 20t-61.5 58q-26 -38 -67 -58t-93 -20q-103 0 -160 68.5t-57 191.5q0 32 4 51h339q-5 81 -43.5 122.5t-108.5 41.5q-67 0 -131 -38l-36 75q34 25 80 38.5t95 13.5
q66 0 115.5 -25.5t79.5 -73.5q42 50 88.5 74t102.5 24q76 0 118.5 -42t42.5 -118q0 -93 -75 -137.5zM466 388q14 -46 16 -109q111 2 162.5 27t51.5 77q0 82 -91 82q-79 0 -139 -77zM348 111.5q31 38.5 38 113.5h-245q2 -72 33.5 -112t88.5 -40q54 0 85 38.5z" />
    <glyph glyph-name="agrave" unicode="&#xe0;" horiz-adv-x="531" 
d="M399.5 507.5q53.5 -44.5 53.5 -128.5v-379h-88v71q-52 -82 -161 -82q-79 0 -122.5 42t-43.5 119q0 96 77 141.5t242 46.5v31q0 46 -30 70t-88 24q-66 0 -126 -28l-25 78q79 39 166 39q92 0 145.5 -44.5zM357 134v133q-117 -2 -171 -28t-54 -82q0 -41 24 -62t71 -21
q75 0 130 60zM119 774v10h106l92 -159v-10h-74z" />
    <glyph glyph-name="uni1EA3" unicode="&#x1ea3;" horiz-adv-x="531" 
d="M399.5 507.5q53.5 -44.5 53.5 -128.5v-379h-88v71q-52 -82 -161 -82q-79 0 -122.5 42t-43.5 119q0 96 77 141.5t242 46.5v31q0 46 -30 70t-88 24q-66 0 -126 -28l-25 78q79 39 166 39q92 0 145.5 -44.5zM357 134v133q-117 -2 -171 -28t-54 -82q0 -41 24 -62t71 -21
q75 0 130 60zM216 638q0 23 9 35t25 23q11 8 16.5 14t5.5 15q0 20 -27 20q-30 0 -60 -19l-24 51q21 13 47.5 20.5t53.5 7.5q43 0 67.5 -19t24.5 -54q0 -23 -10 -35.5t-28 -23.5q-14 -9 -21 -17t-7 -21q0 -8 2 -20h-72q-2 12 -2 23z" />
    <glyph glyph-name="uni1D25" unicode="&#x1d25;" horiz-adv-x="613" 
d="M25 24l28 74q56 -30 99 -30q28 0 50 14t43 41q-64 77 -91.5 134t-27.5 116q0 81 48.5 130t132.5 49t132 -49t48 -130q0 -59 -27.5 -116t-91.5 -134q21 -27 43 -41t50 -14q43 0 99 30l28 -74q-65 -37 -125 -37q-47 0 -85 20t-71 62q-34 -42 -72 -62t-85 -20q-60 0 -125 37
z" />
    <glyph glyph-name="uni0203" unicode="&#x203;" horiz-adv-x="531" 
d="M399.5 507.5q53.5 -44.5 53.5 -128.5v-379h-88v71q-52 -82 -161 -82q-79 0 -122.5 42t-43.5 119q0 96 77 141.5t242 46.5v31q0 46 -30 70t-88 24q-66 0 -126 -28l-25 78q79 39 166 39q92 0 145.5 -44.5zM357 134v133q-117 -2 -171 -28t-54 -82q0 -41 24 -62t71 -21
q75 0 130 60zM361 735.5q39 -40.5 42 -114.5h-62q-12 79 -88 79q-77 0 -89 -79h-59q3 74 42 114.5t107 40.5t107 -40.5z" />
    <glyph glyph-name="uni0251" unicode="&#x251;" horiz-adv-x="575" 
d="M489 539v-539h-89v72q-52 -85 -153 -85q-93 0 -145 75t-52 209q0 133 54 207t151 74q43 0 78 -16t59 -46v49h97zM337.5 92.5q28.5 13.5 54.5 43.5v272q-23 26 -55 41t-67 15q-59 0 -89.5 -48.5t-30.5 -142.5q0 -97 32 -145.5t94 -48.5q33 0 61.5 13.5z" />
    <glyph glyph-name="uni0252" unicode="&#x252;" horiz-adv-x="575" 
d="M473 477q52 -75 52 -209q0 -133 -54 -207t-151 -74q-42 0 -77.5 16t-59.5 45v-48h-97v539h89v-72q52 85 153 85q93 0 145 -75zM394.5 123.5q30.5 48.5 30.5 142.5q0 97 -32 145.5t-94 48.5q-33 0 -61.5 -13.5t-54.5 -43.5v-272q23 -27 55 -41.5t67 -14.5q59 0 89.5 48.5z
" />
    <glyph glyph-name="amacron" unicode="&#x101;" horiz-adv-x="531" 
d="M399.5 507.5q53.5 -44.5 53.5 -128.5v-379h-88v71q-52 -82 -161 -82q-79 0 -122.5 42t-43.5 119q0 96 77 141.5t242 46.5v31q0 46 -30 70t-88 24q-66 0 -126 -28l-25 78q79 39 166 39q92 0 145.5 -44.5zM357 134v133q-117 -2 -171 -28t-54 -82q0 -41 24 -62t71 -21
q75 0 130 60zM103 710h302v-71h-302v71z" />
    <glyph glyph-name="uniA735" unicode="&#xa735;" horiz-adv-x="839" 
d="M730.5 480q58.5 -72 58.5 -210q0 -139 -58.5 -211t-165.5 -72q-59 0 -104 25t-73 73q-41 -50 -87 -73t-102 -23q-76 0 -118.5 42t-42.5 118q0 93 75 137t235 45v38q0 94 -113 94q-63 0 -122 -28l-25 78q79 39 162 39q54 0 93.5 -19t61.5 -55q28 36 68.5 55t91.5 19
q107 0 165.5 -72zM689 270q0 96 -31.5 145.5t-92.5 49.5q-62 0 -93.5 -49.5t-31.5 -146.5q0 -195 125 -195q124 0 124 196zM362 151q-14 48 -15 109q-111 -2 -163 -27t-52 -77q0 -82 91 -82q79 0 139 77z" />
    <glyph glyph-name="aogonek" unicode="&#x105;" horiz-adv-x="531" 
d="M501 -192q-22 -14 -50 -22t-57 -8q-52 0 -81.5 25t-29.5 69q0 38 22.5 71.5t62.5 56.5h-2v74q-31 -44 -70.5 -64.5t-91.5 -20.5q-79 0 -122.5 42t-43.5 119q0 96 77 141.5t242 46.5v31q0 46 -30 70t-88 24q-66 0 -126 -28l-25 78q79 39 166 39q92 0 145.5 -44.5
t53.5 -128.5v-379q-87 -50 -87 -110q0 -42 48 -42q30 0 62 16zM357 134v133q-116 -1 -170.5 -27.5t-54.5 -82.5q0 -41 24 -62t71 -21q75 0 130 60z" />
    <glyph glyph-name="uni1E9A" unicode="&#x1e9a;" horiz-adv-x="531" 
d="M399.5 507.5q53.5 -44.5 53.5 -128.5v-379h-88v71q-52 -82 -161 -82q-79 0 -122.5 42t-43.5 119q0 96 77 141.5t242 46.5v31q0 46 -30 70t-88 24q-66 0 -126 -28l-25 78q79 39 166 39q92 0 145.5 -44.5zM357 134v133q-117 -2 -171 -28t-54 -82q0 -41 24 -62t71 -21
q75 0 130 60zM200 655q58 0 58 59t-58 59v52q58 0 90.5 -29t32.5 -82t-32.5 -82.5t-90.5 -29.5v53z" />
    <glyph glyph-name="aring" unicode="&#xe5;" horiz-adv-x="531" 
d="M399.5 507.5q53.5 -44.5 53.5 -128.5v-379h-88v71q-52 -82 -161 -82q-79 0 -122.5 42t-43.5 119q0 96 77 141.5t242 46.5v31q0 46 -30 70t-88 24q-66 0 -126 -28l-25 78q79 39 166 39q92 0 145.5 -44.5zM357 134v133q-117 -2 -171 -28t-54 -82q0 -41 24 -62t71 -21
q75 0 130 60zM163.5 631.5q-32.5 29.5 -32.5 82.5q0 52 32.5 81.5t90.5 29.5t90.5 -29.5t32.5 -81.5q0 -53 -32.5 -82.5t-90.5 -29.5t-90.5 29.5zM312 714q0 59 -58 59t-58 -59t58 -59t58 59z" />
    <glyph glyph-name="aringacute" unicode="&#x1fb;" horiz-adv-x="531" 
d="M284 862h-64v10l78 127h88v-10zM163.5 631.5q-32.5 29.5 -32.5 82.5q0 52 32.5 81.5t90.5 29.5t90.5 -29.5t32.5 -81.5q0 -53 -32.5 -82.5t-90.5 -29.5t-90.5 29.5zM196 714q0 -59 58 -59t58 59t-58 59t-58 -59zM399.5 507.5q53.5 -44.5 53.5 -128.5v-379h-88v71
q-52 -82 -161 -82q-79 0 -122.5 42t-43.5 119q0 96 77 141.5t242 46.5v31q0 46 -30 70t-88 24q-66 0 -126 -28l-25 78q79 39 166 39q92 0 145.5 -44.5zM357 134v133q-117 -2 -171 -28t-54 -82q0 -41 24 -62t71 -21q75 0 130 60z" />
    <glyph glyph-name="uni1E01" unicode="&#x1e01;" horiz-adv-x="531" 
d="M399.5 507.5q53.5 -44.5 53.5 -128.5v-379h-88v71q-52 -82 -161 -82q-79 0 -122.5 42t-43.5 119q0 96 77 141.5t242 46.5v31q0 46 -30 70t-88 24q-66 0 -126 -28l-25 78q79 39 166 39q92 0 145.5 -44.5zM357 134v133q-117 -2 -171 -28t-54 -82q0 -41 24 -62t71 -21
q75 0 130 60zM153.5 -257.5q-32.5 29.5 -32.5 82.5q0 52 32.5 81.5t90.5 29.5t90.5 -29.5t32.5 -81.5q0 -53 -32.5 -82.5t-90.5 -29.5t-90.5 29.5zM302 -175q0 59 -58 59t-58 -59q0 -60 58 -60t58 60z" />
    <glyph glyph-name="uni2C65" unicode="&#x2c65;" horiz-adv-x="531" 
d="M432.5 466q20.5 -37 20.5 -87v-379h-88v71q-52 -82 -161 -82q-17 0 -25 1l-37 -100h-69l43 117q-38 19 -58 55t-20 88q0 77 48 121t149 59l48 129q-17 4 -44 4q-66 0 -126 -28l-25 78q79 39 166 39q32 0 61 -6l36 100h69l-45 -122q37 -21 57.5 -58zM307 337q15 1 50 1v31
q0 36 -18 57zM357 134v133q-53 -2 -78 -4l-69 -188q5 -1 17 -1q75 0 130 60zM151 101l54 146q-37 -13 -55 -35.5t-18 -54.5q0 -35 19 -56z" />
    <glyph glyph-name="atilde" unicode="&#xe3;" horiz-adv-x="531" 
d="M399.5 507.5q53.5 -44.5 53.5 -128.5v-379h-88v71q-52 -82 -161 -82q-79 0 -122.5 42t-43.5 119q0 96 77 141.5t242 46.5v31q0 46 -30 70t-88 24q-66 0 -126 -28l-25 78q79 39 166 39q92 0 145.5 -44.5zM357 134v133q-117 -2 -171 -28t-54 -82q0 -41 24 -62t71 -21
q75 0 130 60zM278.5 628q-19.5 10 -44.5 28q-18 13 -29 19t-23 6q-34 0 -41 -61h-59q2 63 28.5 99t73.5 36q26 0 45.5 -10t44.5 -28q18 -13 29 -19t23 -6q34 0 41 61h59q-2 -63 -28.5 -99t-73.5 -36q-26 0 -45.5 10z" />
    <glyph glyph-name="uni0250" unicode="&#x250;" horiz-adv-x="531" 
d="M416.5 247q-76.5 -46 -241.5 -47v-30q0 -46 29.5 -70t87.5 -24q66 0 126 28l25 -78q-79 -39 -166 -39q-92 0 -145.5 44.5t-53.5 128.5v379h88v-72q51 83 161 83q79 0 122.5 -42t43.5 -119q0 -96 -76.5 -142zM175 406v-134q115 1 169.5 27.5t54.5 82.5q0 41 -24 62t-71 21
q-75 0 -129 -59z" />
    <glyph glyph-name="uniA737" unicode="&#xa737;" horiz-adv-x="836" 
d="M750 539v-539h-89v69q-28 -40 -68 -61t-88 -21t-82.5 19.5t-53.5 56.5q-37 -38 -78.5 -56t-91.5 -18q-76 0 -118.5 42t-42.5 118q0 93 75 137t235 45v38q0 94 -113 94q-63 0 -122 -28l-25 78q79 39 162 39q89 0 141.5 -46t52.5 -127v-92v-116q0 -45 24 -68.5t69 -23.5
q65 0 116 55v405h97zM349 136q-1 7 -1 24v100q-112 -2 -164 -27t-52 -77q0 -82 91 -82q71 0 126 62z" />
    <glyph glyph-name="uniA739" unicode="&#xa739;" horiz-adv-x="744" 
d="M749 539l-250 -539h-51h-83v71q-52 -82 -161 -82q-79 0 -122.5 42t-43.5 119q0 96 77 141.5t242 46.5v31q0 46 -30 70t-88 24q-66 0 -126 -28l-25 78q79 39 166 39q92 0 145.5 -44.5t53.5 -128.5v-311q9 51 31 105l160 366h105zM357 134v133q-117 -2 -171 -28t-54 -82
q0 -41 24 -62t71 -21q75 0 130 60z" />
    <glyph glyph-name="uniA73B" unicode="&#xa73b;" horiz-adv-x="744" 
d="M749 539l-250 -539h-51h-83v71q-52 -82 -161 -82q-79 0 -122.5 42t-43.5 119q0 96 77 141.5t242 46.5v31q0 46 -30 70t-88 24q-66 0 -126 -28l-25 78q79 39 166 39q92 0 145.5 -44.5t53.5 -128.5v-40h103l88 200h105zM526 270h-73v-202q9 51 31 105zM357 134v133
q-117 -2 -171 -28t-54 -82q0 -41 24 -62t71 -21q75 0 130 60z" />
    <glyph glyph-name="uniA73D" unicode="&#xa73d;" horiz-adv-x="774" 
d="M749 539l-250 -539q-41 -88 -97 -137.5t-152 -81.5l-34 83q73 26 116 57t73 79h-40v71q-52 -82 -161 -82q-79 0 -122.5 42t-43.5 119q0 96 77 141.5t242 46.5v31q0 46 -30 70t-88 24q-66 0 -126 -28l-25 78q79 39 166 39q92 0 145.5 -44.5t53.5 -128.5v-311q9 51 31 105
l160 366h105zM357 134v133q-117 -2 -171 -28t-54 -82q0 -41 24 -62t71 -21q75 0 130 60z" />
    <glyph glyph-name="ae" unicode="&#xe6;" horiz-adv-x="828" 
d="M780 241h-339q6 -81 44 -122.5t108 -41.5q67 0 131 38l36 -75q-34 -25 -80 -38.5t-95 -13.5q-66 0 -115.5 25.5t-79.5 74.5q-41 -51 -87.5 -75t-103.5 -24q-76 0 -118.5 42t-42.5 118q0 93 75 137t235 45v38q0 94 -113 94q-63 0 -122 -28l-25 78q79 39 162 39
q56 0 96 -20t62 -58q25 38 66 58t93 20q103 0 160 -68.5t57 -191.5q0 -32 -4 -51zM480 427.5q-31 -38.5 -38 -113.5h245q-2 72 -33.5 112t-88.5 40q-54 0 -85 -38.5zM362 151q-14 46 -16 109q-110 -2 -162 -27t-52 -77q0 -82 91 -82q79 0 139 77z" />
    <glyph glyph-name="aeacute" unicode="&#x1fd;" horiz-adv-x="828" 
d="M780 241h-339q6 -81 44 -122.5t108 -41.5q67 0 131 38l36 -75q-34 -25 -80 -38.5t-95 -13.5q-66 0 -115.5 25.5t-79.5 74.5q-41 -51 -87.5 -75t-103.5 -24q-76 0 -118.5 42t-42.5 118q0 93 75 137t235 45v38q0 94 -113 94q-63 0 -122 -28l-25 78q79 39 162 39
q56 0 96 -20t62 -58q25 38 66 58t93 20q103 0 160 -68.5t57 -191.5q0 -32 -4 -51zM480 427.5q-31 -38.5 -38 -113.5h245q-2 72 -33.5 112t-88.5 40q-54 0 -85 -38.5zM362 151q-14 46 -16 109q-110 -2 -162 -27t-52 -77q0 -82 91 -82q79 0 139 77zM366 625l99 159h107v-10
l-132 -159h-74v10z" />
    <glyph glyph-name="uni01E3" unicode="&#x1e3;" horiz-adv-x="828" 
d="M780 241h-339q6 -81 44 -122.5t108 -41.5q67 0 131 38l36 -75q-34 -25 -80 -38.5t-95 -13.5q-66 0 -115.5 25.5t-79.5 74.5q-41 -51 -87.5 -75t-103.5 -24q-76 0 -118.5 42t-42.5 118q0 93 75 137t235 45v38q0 94 -113 94q-63 0 -122 -28l-25 78q79 39 162 39
q56 0 96 -20t62 -58q25 38 66 58t93 20q103 0 160 -68.5t57 -191.5q0 -32 -4 -51zM480 427.5q-31 -38.5 -38 -113.5h245q-2 72 -33.5 112t-88.5 40q-54 0 -85 -38.5zM362 151q-14 46 -16 109q-110 -2 -162 -27t-52 -77q0 -82 91 -82q79 0 139 77zM274 710h302v-71h-302v71z
" />
    <glyph glyph-name="b" unicode="b" horiz-adv-x="577" 
d="M474.5 477q52.5 -75 52.5 -210q0 -132 -54.5 -206t-152.5 -74q-45 0 -83 18.5t-63 52.5v-58h-89v63v438v269h97v-291q55 73 145 73q95 0 147.5 -75zM427 265q0 195 -128 195q-64 0 -117 -57v-273q23 -26 55 -40.5t67 -14.5q123 0 123 190z" />
    <glyph glyph-name="b.ss06" horiz-adv-x="577" 
d="M474.5 477q52.5 -75 52.5 -210q0 -132 -54.5 -206t-152.5 -74q-45 0 -83 18.5t-63 52.5v-58h-89v63v438v269h97v-291q55 73 145 73q95 0 147.5 -75zM427 265q0 195 -128 195q-64 0 -117 -57v-273q23 -26 55 -40.5t67 -14.5q123 0 123 190z" />
    <glyph glyph-name="uni1E03" unicode="&#x1e03;" horiz-adv-x="577" 
d="M474.5 477q52.5 -75 52.5 -210q0 -132 -54.5 -206t-152.5 -74q-45 0 -83 18.5t-63 52.5v-58h-89v63v438v269h97v-291q55 73 145 73q95 0 147.5 -75zM427 265q0 195 -128 195q-64 0 -117 -57v-273q23 -26 55 -40.5t67 -14.5q123 0 123 190zM242.5 857.5
q-16.5 16.5 -16.5 45.5q0 30 16.5 46.5t46.5 16.5t46.5 -16.5t16.5 -45.5q0 -30 -16.5 -46.5t-46.5 -16.5t-46.5 16.5z" />
    <glyph glyph-name="uni1E05" unicode="&#x1e05;" horiz-adv-x="577" 
d="M474.5 477q52.5 -75 52.5 -210q0 -132 -54.5 -206t-152.5 -74q-45 0 -83 18.5t-63 52.5v-58h-89v63v438v269h97v-291q55 73 145 73q95 0 147.5 -75zM427 265q0 195 -128 195q-64 0 -117 -57v-273q23 -26 55 -40.5t67 -14.5q123 0 123 190zM252.5 -196.5
q-16.5 16.5 -16.5 45.5q0 30 16.5 46.5t46.5 16.5t46.5 -16.5t16.5 -45.5q0 -30 -16.5 -46.5t-46.5 -16.5t-46.5 16.5z" />
    <glyph glyph-name="uni0253" unicode="&#x253;" horiz-adv-x="577" 
d="M474.5 477q52.5 -75 52.5 -210q0 -132 -54.5 -206t-152.5 -74q-46 0 -83.5 18.5t-62.5 52.5v-58h-89v396v143v100q0 70 36 105.5t105 35.5q37 0 68 -12l-14 -77q-28 6 -47 6q-26 0 -38.5 -15t-12.5 -46v-157q53 73 145 73q95 0 147.5 -75zM427 265q0 195 -128 195
q-34 0 -62 -14t-55 -44v-272q23 -26 55 -40.5t67 -14.5q123 0 123 190z" />
    <glyph glyph-name="uni02AD" unicode="&#x2ad;" horiz-adv-x="538" 
d="M70 724v-312h79v224h239v-224h79v312h-397zM70 312v-312h79v224h239v-224h79v312h-397z" />
    <glyph glyph-name="uni0298" unicode="&#x298;" horiz-adv-x="854" 
d="M230 33.5q-83 46.5 -127.5 135.5t-44.5 212t44.5 212t127.5 135.5t197 46.5t197 -46.5t127.5 -135.5t44.5 -212t-44.5 -212t-127.5 -135.5t-197 -46.5t-197 46.5zM623 156q70 80 70 225t-70 225t-196 80t-196 -80t-70 -225t70 -225t196 -80t196 80zM378 335.5
q-18 17.5 -18 47.5q0 31 17.5 48t49.5 17q31 0 48.5 -17t17.5 -47q0 -31 -17 -48.5t-49 -17.5q-31 0 -49 17.5z" />
    <glyph glyph-name="uni02AC" unicode="&#x2ac;" horiz-adv-x="557" 
d="M129 411l-100 313h84l63 -238l62 238h82l64 -238l61 238h81l-99 -313h-88l-61 226l-59 -226h-90zM445 313h81l-99 -313h-88l-61 226l-59 -226h-90l-100 313h84l63 -238l62 238h82l64 -238z" />
    <glyph glyph-name="uni1E07" unicode="&#x1e07;" horiz-adv-x="577" 
d="M474.5 477q52.5 -75 52.5 -210q0 -132 -54.5 -206t-152.5 -74q-45 0 -83 18.5t-63 52.5v-58h-89v63v438v269h97v-291q55 73 145 73q95 0 147.5 -75zM427 265q0 195 -128 195q-64 0 -117 -57v-273q23 -26 55 -40.5t67 -14.5q123 0 123 190zM148 -103h302v-72h-302v72z" />
    <glyph glyph-name="uni0180" unicode="&#x180;" horiz-adv-x="579" 
d="M476 462q53 -72 53 -203q0 -129 -55 -200.5t-154 -71.5q-46 0 -83.5 18.5t-62.5 52.5v-58h-89v615h-65v68h65v87h97v-87h218v-68h-218v-153q53 72 145 72q96 0 149 -72zM429 257q0 92 -33 139t-97 47q-34 0 -62 -14t-55 -44v-255q23 -26 55 -40.5t67 -14.5q125 0 125 182
z" />
    <glyph glyph-name="uni0183" unicode="&#x183;" horiz-adv-x="577" 
d="M474.5 477q52.5 -75 52.5 -210q0 -132 -54.5 -206t-152.5 -74q-45 0 -83 18.5t-63 52.5v-58h-89v63v438v269h97h266v-78h-266v-213q55 73 145 73q95 0 147.5 -75zM427 265q0 195 -128 195q-64 0 -117 -57v-273q23 -26 55 -40.5t67 -14.5q123 0 123 190z" />
    <glyph glyph-name="c" unicode="c" horiz-adv-x="481" 
d="M111 61.5q-65 73.5 -65 205.5q0 85 30 149.5t85 100t127 35.5q41 0 82.5 -12.5t74.5 -33.5l-36 -77q-67 34 -123 34q-66 0 -103 -50t-37 -139q0 -97 38.5 -146.5t114.5 -49.5q61 0 117 32l35 -76q-30 -22 -70.5 -34t-87.5 -12q-117 0 -182 73.5z" />
    <glyph glyph-name="c.ss06" horiz-adv-x="481" 
d="M111 61.5q-65 73.5 -65 205.5q0 85 30 149.5t85 100t127 35.5q41 0 82.5 -12.5t74.5 -33.5l-36 -77q-67 34 -123 34q-66 0 -103 -50t-37 -139q0 -97 38.5 -146.5t114.5 -49.5q61 0 117 32l35 -76q-30 -22 -70.5 -34t-87.5 -12q-117 0 -182 73.5z" />
    <glyph glyph-name="cacute" unicode="&#x107;" horiz-adv-x="481" 
d="M111 61.5q-65 73.5 -65 205.5q0 85 30 149.5t85 100t127 35.5q41 0 82.5 -12.5t74.5 -33.5l-36 -77q-67 34 -123 34q-66 0 -103 -50t-37 -139q0 -97 38.5 -146.5t114.5 -49.5q61 0 117 32l35 -76q-30 -22 -70.5 -34t-87.5 -12q-117 0 -182 73.5zM206 625l99 159h107v-10
l-132 -159h-74v10z" />
    <glyph glyph-name="uniA793" unicode="&#xa793;" horiz-adv-x="481" 
d="M451 34q-30 -22 -70.5 -34t-87.5 -12q-111 0 -175 66t-71 186h-59v72h60q12 110 76.5 175t163.5 65q41 0 82.5 -12.5t74.5 -33.5l-36 -77q-67 34 -123 34q-58 0 -94 -39.5t-44 -111.5h129v-72h-130q14 -162 152 -162q61 0 117 32z" />
    <glyph glyph-name="ccaron" unicode="&#x10d;" horiz-adv-x="481" 
d="M111 61.5q-65 73.5 -65 205.5q0 85 30 149.5t85 100t127 35.5q41 0 82.5 -12.5t74.5 -33.5l-36 -77q-67 34 -123 34q-66 0 -103 -50t-37 -139q0 -97 38.5 -146.5t114.5 -49.5q61 0 117 32l35 -76q-30 -22 -70.5 -34t-87.5 -12q-117 0 -182 73.5zM414 784v-10l-102 -159
h-94l-102 159v10h70l80 -103l81 103h67z" />
    <glyph glyph-name="ccedilla" unicode="&#xe7;" horiz-adv-x="481" 
d="M356.5 -77.5q28.5 -21.5 28.5 -60.5q0 -45 -32.5 -69.5t-91.5 -24.5q-60 0 -108 24l18 51q51 -18 84 -18q52 0 52 36q0 35 -47 35q-21 0 -43 -8l-24 28l33 79q-86 20 -133 90t-47 182q0 85 30 149.5t85 100t127 35.5q41 0 82.5 -12.5t74.5 -33.5l-36 -77q-67 34 -123 34
q-66 0 -103 -50t-37 -139q0 -97 38.5 -146.5t114.5 -49.5q61 0 117 32l35 -76q-30 -22 -70.5 -34t-87.5 -12h-4l-32 -46q14 2 21 2q50 0 78.5 -21.5z" />
    <glyph glyph-name="uni1E09" unicode="&#x1e09;" horiz-adv-x="481" 
d="M280 615h-74v10l99 159h107v-10zM356.5 -77.5q28.5 -21.5 28.5 -60.5q0 -45 -32.5 -69.5t-91.5 -24.5q-60 0 -108 24l18 51q51 -18 84 -18q52 0 52 36q0 35 -47 35q-21 0 -43 -8l-24 28l33 79q-86 20 -133 90t-47 182q0 85 30 149.5t85 100t127 35.5q41 0 82.5 -12.5
t74.5 -33.5l-36 -77q-67 34 -123 34q-66 0 -103 -50t-37 -139q0 -97 38.5 -146.5t114.5 -49.5q61 0 117 32l35 -76q-30 -22 -70.5 -34t-87.5 -12h-4l-32 -46q14 2 21 2q50 0 78.5 -21.5z" />
    <glyph glyph-name="ccircumflex" unicode="&#x109;" horiz-adv-x="481" 
d="M111 61.5q-65 73.5 -65 205.5q0 85 30 149.5t85 100t127 35.5q41 0 82.5 -12.5t74.5 -33.5l-36 -77q-67 34 -123 34q-66 0 -103 -50t-37 -139q0 -97 38.5 -146.5t114.5 -49.5q61 0 117 32l35 -76q-30 -22 -70.5 -34t-87.5 -12q-117 0 -182 73.5zM414 625v-10h-70l-81 103
l-80 -103h-67v10l102 159h94z" />
    <glyph glyph-name="uni0255" unicode="&#x255;" horiz-adv-x="498" 
d="M446 249q32 -35 32 -98q0 -77 -49 -120t-137 -43q-69 0 -122 30l-60 -91l-58 38l63 97q-33 36 -51 88.5t-18 116.5q0 85 30 149.5t85 100t127 35.5q41 0 82.5 -12.5t74.5 -33.5l-36 -77q-67 34 -123 34q-66 0 -103 -50t-37 -139q0 -80 25 -127l9 14q42 64 84.5 93.5
t91.5 29.5q58 0 90 -35zM366.5 95q23.5 19 23.5 55q0 54 -47 54q-26 0 -51.5 -19.5t-52.5 -61.5l-19 -29q31 -18 78 -18q45 0 68.5 19z" />
    <glyph glyph-name="cdotaccent" unicode="&#x10b;" horiz-adv-x="481" 
d="M111 61.5q-65 73.5 -65 205.5q0 85 30 149.5t85 100t127 35.5q41 0 82.5 -12.5t74.5 -33.5l-36 -77q-67 34 -123 34q-66 0 -103 -50t-37 -139q0 -97 38.5 -146.5t114.5 -49.5q61 0 117 32l35 -76q-30 -22 -70.5 -34t-87.5 -12q-117 0 -182 73.5zM218.5 641.5
q-16.5 16.5 -16.5 45.5q0 30 16.5 46.5t46.5 16.5t46.5 -16.5t16.5 -45.5q0 -30 -16.5 -46.5t-46.5 -16.5t-46.5 16.5z" />
    <glyph glyph-name="uni0188" unicode="&#x188;" horiz-adv-x="573" 
d="M563 671v-81q-25 3 -41 3q-77 0 -77 -81v-15v-68h-36q-67 34 -123 34q-66 0 -103 -50t-37 -139q0 -97 38.5 -146.5t114.5 -49.5q61 0 117 32l35 -76q-30 -22 -70.5 -34t-87.5 -12q-117 0 -182 73.5t-65 205.5q0 85 30 149.5t85 100t127 35.5q38 0 77 -11q8 64 48.5 98.5
t109.5 34.5q22 0 40 -3z" />
    <glyph glyph-name="uniA76F" unicode="&#xa76f;" horiz-adv-x="565" 
d="M128 -137q131 30 191 73q55 41 75.5 108.5t20.5 190.5q0 119 -34 174.5t-101 55.5q-64 0 -97 -39.5t-33 -116.5q0 -157 137 -157q20 0 55 5v-86q-34 -7 -74 -7q-103 0 -160.5 63t-57.5 177q0 117 61 182.5t170 65.5q114 0 174 -77.5t60 -236.5q0 -133 -28.5 -225.5
t-109.5 -146.5q-99 -65 -231 -86z" />
    <glyph glyph-name="uni2184" unicode="&#x2184;" horiz-adv-x="481" 
d="M100.5 0q-40.5 12 -70.5 34l35 76q56 -32 117 -32q76 0 114.5 49.5t38.5 146.5q0 89 -37 139t-103 50q-56 0 -123 -34l-36 77q33 21 74.5 33.5t82.5 12.5q72 0 127 -35.5t85 -100t30 -149.5q0 -132 -65 -205.5t-182 -73.5q-47 0 -87.5 12z" />
    <glyph glyph-name="uniA73F" unicode="&#xa73f;" horiz-adv-x="481" 
d="M100.5 0q-40.5 12 -70.5 34l35 76q56 -32 117 -32q76 0 114.5 49.5t38.5 146.5q0 89 -37 139t-103 50q-56 0 -123 -34l-36 77q33 21 74.5 33.5t82.5 12.5q72 0 127 -35.5t85 -100t30 -149.5q0 -132 -65 -205.5t-182 -73.5q-47 0 -87.5 12zM122.5 226.5
q-16.5 16.5 -16.5 45.5q0 30 16.5 46.5t46.5 16.5t46.5 -16.5t16.5 -45.5q0 -30 -16.5 -46.5t-46.5 -16.5t-46.5 16.5z" />
    <glyph glyph-name="uni0297" unicode="&#x297;" horiz-adv-x="498" 
d="M111 -123.5q-65 96.5 -65 286.5q0 184 66.5 286.5t185.5 102.5q43 0 86 -13.5t78 -37.5l-39 -77q-70 38 -127 38q-74 0 -112 -73.5t-38 -218.5q0 -155 39.5 -227t123.5 -72q68 0 121 37l38 -76q-31 -25 -74.5 -38.5t-90.5 -13.5q-127 0 -192 96.5z" />
    <glyph glyph-name="uni023C" unicode="&#x23c;" horiz-adv-x="481" 
d="M380.5 0q-40.5 -12 -87.5 -12q-57 0 -102 18l-43 -116h-69l55 149q-43 35 -65.5 93t-22.5 135q0 85 30 149.5t85 100t127 35.5q12 0 34 -2l36 96h69l-41 -111q36 -14 59 -29l-36 -77q-26 14 -54 22l-131 -356q30 -17 75 -17q61 0 117 32l35 -76q-30 -22 -70.5 -34z
M173 144l117 319h-4q-66 0 -103 -50t-37 -139q0 -82 27 -130z" />
    <glyph glyph-name="uniA72D" unicode="&#xa72d;" horiz-adv-x="517" 
d="M432 539v-539v-67q0 -151 -151 -151q-38 0 -67 11l13 79q24 -6 50 -6q30 0 44 17t14 54v63h-307v85l265 454h139zM335 449l-203 -364h203v364z" />
    <glyph glyph-name="uniA72F" unicode="&#xa72f;" horiz-adv-x="699" 
d="M432 539v-539v-67q0 -151 -151 -151q-38 0 -67 11l13 79q24 -6 50 -6q30 0 44 17t14 54v63h-307v85l265 454h139zM335 449l-203 -364h203v364zM467 -135q39 42 55.5 82.5t16.5 93.5q0 34 -5 67h100q5 -33 5 -65q0 -67 -31 -121t-98 -104z" />
    <glyph glyph-name="d" unicode="d" horiz-adv-x="577" 
d="M491 770v-770h-89v38v34q-53 -85 -153 -85q-94 0 -146.5 75t-52.5 209q0 133 54.5 207t152.5 74q42 0 77.5 -16t59.5 -45v279h97zM339.5 92.5q28.5 13.5 54.5 43.5v272q-23 27 -55 41.5t-67 14.5q-61 0 -91.5 -48t-30.5 -143q0 -194 128 -194q33 0 61.5 13.5z" />
    <glyph glyph-name="d.ss06" horiz-adv-x="577" 
d="M491 770v-770h-89v38v34q-53 -85 -153 -85q-94 0 -146.5 75t-52.5 209q0 133 54.5 207t152.5 74q42 0 77.5 -16t59.5 -45v279h97zM339.5 92.5q28.5 13.5 54.5 43.5v272q-23 27 -55 41.5t-67 14.5q-61 0 -91.5 -48t-30.5 -143q0 -194 128 -194q33 0 61.5 13.5z" />
    <glyph glyph-name="eth" unicode="&#xf0;" horiz-adv-x="558" 
d="M468.5 516.5q39.5 -95.5 39.5 -226.5q0 -150 -58.5 -226.5t-172.5 -76.5q-112 0 -172 69.5t-60 203.5q0 131 57 200.5t162 69.5q87 0 132 -65q-35 105 -121 172l-120 -74l-32 54l100 55q-42 24 -81 37l-28 10l24 66l28 -10q79 -30 127 -60l102 63l32 -54l-81 -46
q83 -66 122.5 -161.5zM375.5 122q33.5 48 33.5 142q0 86 -35 134.5t-97 48.5q-65 0 -98.5 -47.5t-33.5 -139.5t33.5 -139t98.5 -47t98.5 48z" />
    <glyph glyph-name="uni0238" unicode="&#x238;" horiz-adv-x="886" 
d="M783.5 477q52.5 -75 52.5 -210q0 -132 -54.5 -206t-152.5 -74q-46 0 -83.5 18.5t-62.5 52.5v-58h-81v72q-53 -85 -153 -85q-94 0 -146.5 75t-52.5 209q0 133 54.5 207t152.5 74q42 0 77 -16t60 -45v279h97v-291q53 73 145 73q95 0 147.5 -75zM339.5 92.5
q28.5 13.5 54.5 43.5v272q-23 26 -55 41t-67 15q-61 0 -91.5 -48t-30.5 -143q0 -194 128 -194q33 0 61.5 13.5zM736 265q0 195 -128 195q-34 0 -62 -14t-55 -44v-272q23 -26 55 -40.5t67 -14.5q123 0 123 190z" />
    <glyph glyph-name="dcaron" unicode="&#x10f;" horiz-adv-x="577" 
d="M394 770h97v-770h-89v38v34q-53 -85 -153 -85q-94 0 -146.5 75t-52.5 209q0 133 54.5 207t152.5 74q42 0 77.5 -16t59.5 -45v279zM646 770v-10l-30 -208h-58v218h88zM339.5 92.5q28.5 13.5 54.5 43.5v272q-23 27 -55 41.5t-67 14.5q-61 0 -91.5 -48t-30.5 -143
q0 -194 128 -194q33 0 61.5 13.5z" />
    <glyph glyph-name="uni1E11" unicode="&#x1e11;" horiz-adv-x="577" 
d="M491 770v-770h-89v38v34q-53 -85 -153 -85q-94 0 -146.5 75t-52.5 209q0 133 54.5 207t152.5 74q42 0 77.5 -16t59.5 -45v279h97zM339.5 92.5q28.5 13.5 54.5 43.5v272q-23 27 -55 41.5t-67 14.5q-61 0 -91.5 -48t-30.5 -143q0 -194 128 -194q33 0 61.5 13.5zM200 -238
q26 28 36 55t10 67q0 7 -3 40h92q3 -17 3 -39q0 -46 -24 -84t-78 -79z" />
    <glyph glyph-name="uni1E13" unicode="&#x1e13;" horiz-adv-x="577" 
d="M491 770v-770h-89v38v34q-53 -85 -153 -85q-94 0 -146.5 75t-52.5 209q0 133 54.5 207t152.5 74q42 0 77.5 -16t59.5 -45v279h97zM339.5 92.5q28.5 13.5 54.5 43.5v272q-23 27 -55 41.5t-67 14.5q-61 0 -91.5 -48t-30.5 -143q0 -194 128 -194q33 0 61.5 13.5zM456 -217
v-12h-76l-93 87l-92 -87h-73v12l117 133h100z" />
    <glyph glyph-name="dcroat" unicode="&#x111;" horiz-adv-x="579" 
d="M559 616h-66v-616h-89v72q-53 -85 -153 -85q-95 0 -148 72.5t-53 203.5q0 128 55 199.5t154 71.5q42 0 77 -15.5t60 -44.5v142h-215v66h215v88h97v-88h66v-66zM341.5 92.5q28.5 13.5 54.5 43.5v255q-22 26 -54.5 41t-67.5 15q-61 0 -92.5 -46t-31.5 -136q0 -92 33 -139
t97 -47q33 0 61.5 13.5z" />
    <glyph glyph-name="uni0221" unicode="&#x221;" horiz-adv-x="577" 
d="M626.5 -20q32.5 -30 32.5 -85q0 -56 -34 -86.5t-95 -30.5q-55 0 -88.5 26t-40.5 73l-18 -17l-67 -64l-45 50l70 66q29 26 55 46v105q-53 -76 -147 -76t-146.5 75t-52.5 209q0 133 54.5 207t152.5 74q42 0 77.5 -16t59.5 -45v279h97v-765q19 5 45 5q58 0 90.5 -30z
M339.5 92.5q28.5 13.5 54.5 43.5v272q-23 27 -55 41.5t-67 14.5q-61 0 -91.5 -48t-30.5 -143q0 -194 128 -194q33 0 61.5 13.5zM577 -104q0 47 -47 47q-21 0 -42 -9v-31q0 -53 46 -53q43 0 43 46z" />
    <glyph glyph-name="uni1E0B" unicode="&#x1e0b;" horiz-adv-x="577" 
d="M491 770v-770h-89v38v34q-53 -85 -153 -85q-94 0 -146.5 75t-52.5 209q0 133 54.5 207t152.5 74q42 0 77.5 -16t59.5 -45v279h97zM339.5 92.5q28.5 13.5 54.5 43.5v272q-23 27 -55 41.5t-67 14.5q-61 0 -91.5 -48t-30.5 -143q0 -194 128 -194q33 0 61.5 13.5z
M233.5 857.5q-16.5 16.5 -16.5 45.5q0 30 16.5 46.5t46.5 16.5t46.5 -16.5t16.5 -45.5q0 -30 -16.5 -46.5t-46.5 -16.5t-46.5 16.5z" />
    <glyph glyph-name="uni1E0D" unicode="&#x1e0d;" horiz-adv-x="577" 
d="M491 770v-770h-89v38v34q-53 -85 -153 -85q-94 0 -146.5 75t-52.5 209q0 133 54.5 207t152.5 74q42 0 77.5 -16t59.5 -45v279h97zM339.5 92.5q28.5 13.5 54.5 43.5v272q-23 27 -55 41.5t-67 14.5q-61 0 -91.5 -48t-30.5 -143q0 -194 128 -194q33 0 61.5 13.5z
M243.5 -196.5q-16.5 16.5 -16.5 45.5q0 30 16.5 46.5t46.5 16.5t46.5 -16.5t16.5 -45.5q0 -30 -16.5 -46.5t-46.5 -16.5t-46.5 16.5z" />
    <glyph glyph-name="uni1E9F" unicode="&#x1e9f;" horiz-adv-x="552" 
d="M149.5 19.5q-51.5 32.5 -78.5 88.5t-27 125q0 87 39.5 156.5t124.5 104.5q-41 28 -62.5 58t-21.5 72q0 71 51 113t140 42q94 0 165 -42l-34 -78q-32 16 -64 25t-71 9q-45 0 -67 -17t-22 -45q0 -21 12.5 -38t29.5 -29.5t64 -44.5q56 -38 91.5 -71.5t59 -85.5t23.5 -127
q0 -60 -23.5 -116.5t-75.5 -94t-132 -37.5q-70 0 -121.5 32.5zM369 118.5q33 48.5 33 119.5q0 82 -31 127.5t-92 79.5q-57 -19 -95.5 -70.5t-38.5 -135.5q0 -78 35 -123.5t93 -45.5q63 0 96 48.5z" />
    <glyph glyph-name="uni018D" unicode="&#x18d;" horiz-adv-x="558" 
d="M160.5 -209q-36.5 11 -69.5 31l35 78q35 -17 62.5 -25.5t62.5 -8.5q44 0 66.5 17t22.5 45q0 25 -19 43.5t-64 46.5l-33 22q-56 38 -91.5 71t-59 82.5t-23.5 119.5q0 55 24 109.5t76 91.5t131 37q70 0 121.5 -31.5t78.5 -85.5t27 -118q0 -80 -39.5 -148.5t-124.5 -102.5
q50 -34 72 -62.5t22 -69.5q0 -68 -50 -110.5t-141 -42.5q-50 0 -86.5 11zM368 181.5q39 50.5 39 128.5q0 69 -34 114t-95 45q-59 0 -94 -44t-35 -114q0 -75 31 -119t92 -79q57 18 96 68.5z" />
    <glyph glyph-name="uni02A4" unicode="&#x2a4;" horiz-adv-x="956" 
d="M856 160q61 -50 61 -150q0 -75 -33.5 -127t-91.5 -77.5t-130 -25.5q-115 0 -189 41l34 76q72 -33 148 -33q77 0 119.5 37.5t42.5 108.5q0 73 -51.5 105t-136.5 32h-46v75l185 234h-275v1h-2v-457h-89v38v34q-53 -85 -153 -85q-94 0 -146.5 75t-52.5 209q0 133 54.5 207
t152.5 74q42 0 77.5 -16t59.5 -45v279h97v-231h2h386v-84l-189 -235q105 -10 166 -60zM339.5 92.5q28.5 13.5 54.5 43.5v272q-23 27 -55 41.5t-67 14.5q-61 0 -91.5 -48t-30.5 -143q0 -194 128 -194q33 0 61.5 13.5z" />
    <glyph glyph-name="uni0257" unicode="&#x257;" horiz-adv-x="584" 
d="M602 768l-13 -77q-28 6 -47 6q-26 0 -38.5 -15t-12.5 -46v-160v-438v-38h-89v72q-53 -85 -153 -85q-94 0 -146.5 75t-52.5 209q0 133 54.5 207t152.5 74q42 0 77 -16t60 -45v148q0 70 36 105.5t105 35.5q37 0 67 -12zM394 408q-23 26 -55 41t-67 15q-61 0 -91.5 -48
t-30.5 -143q0 -194 128 -194q33 0 61.5 13.5t54.5 43.5v272z" />
    </font>
</defs>
</svg>
