<?xml version="1.0" standalone="no"?>
<!DOCTYPE svg PUBLIC "-//W3C//DTD SVG 1.1//EN" "http://www.w3.org/Graphics/SVG/1.1/DTD/svg11.dtd" >
<svg xmlns="http://www.w3.org/2000/svg" xmlns:xlink="http://www.w3.org/1999/xlink" version="1.1">
<metadata>
Created by FontForge 20161116 at Sat Oct 31 16:34:12 2015
 By Jimmy Warting
Copyright 2015 Samsung Electronics Co., Ltd. All Rights Reserved.
</metadata>
<defs>
<font id="SamsungOneUI-800" horiz-adv-x="0" >
  <font-face 
    font-family="SamsungOneUI 800"
    font-weight="800"
    font-stretch="normal"
    units-per-em="1024"
    panose-1="2 11 9 3 3 3 3 2 2 4"
    ascent="794"
    descent="-230"
    x-height="546"
    cap-height="724"
    bbox="-698 -304 2478 1047"
    underline-thickness="41"
    underline-position="-143"
    unicode-range="U+0002-1F16B"
  />
<missing-glyph horiz-adv-x="694" 
d="M616 0h-113h-363h-62v724h113h425v-724zM503 622h-264l264 -435v435zM191 102h264l-264 435v-435z" />
    <glyph glyph-name="fi" unicode="fi" horiz-adv-x="656" 
d="M88 429h-83v117h84v41q0 95 57.5 147.5t163.5 52.5q34 0 61 -5v-118q-29 4 -61 4q-86 0 -86 -81v-41h128v-117h-128v-429h-136v429zM446 546h136v-546h-136v546zM454.5 637.5q-21.5 20.5 -21.5 56.5q0 37 21.5 57.5t59.5 20.5t59.5 -20.5t21.5 -56.5q0 -37 -21.5 -57.5
t-59.5 -20.5t-59.5 20.5z" />
    <glyph glyph-name="fl" unicode="fl" horiz-adv-x="698" 
d="M88 429h-83v117h84v41q0 95 57.5 147.5t163.5 52.5q34 0 61 -5v-118q-29 4 -61 4q-86 0 -86 -81v-41h128v-117h-128v-429h-136v429zM478.5 29q-36.5 36 -36.5 110v631h136v-601q0 -29 11 -42t37 -13q16 0 35 3l9 -115q-39 -9 -81 -9q-74 0 -110.5 36z" />
    <glyph glyph-name=".notdef" horiz-adv-x="694" 
d="M616 0h-113h-363h-62v724h113h425v-724zM503 622h-264l264 -435v435zM191 102h264l-264 435v-435z" />
    <glyph glyph-name="NULL" horiz-adv-x="4" 
 />
    <glyph glyph-name="nonmarkingreturn" unicode="&#xd;" 
 />
    <glyph glyph-name="space" unicode=" " horiz-adv-x="204" 
 />
    <glyph glyph-name="A" unicode="A" horiz-adv-x="670" 
d="M463 156h-258l-46 -156h-144l245 724h150l245 -724h-145zM428 276l-94 315l-93 -315h187z" />
    <glyph glyph-name="A.c2sc" horiz-adv-x="619" 
d="M426 119h-234l-37 -119h-142l223 613h147l223 -613h-142zM389 237l-80 255l-80 -255h160z" />
    <glyph glyph-name="uniA732" unicode="&#xa732;" horiz-adv-x="1166" 
d="M959 156h-258l-46 -156h-145l-47 156h-258l-46 -156h-144l245 724h150l173 -511l173 511h150l245 -724h-145zM428 276l-94 315l-93 -315h187zM924 276l-94 315l-93 -315h187z" />
    <glyph glyph-name="uniA73A" unicode="&#xa73a;" horiz-adv-x="902" 
d="M775 373h83v-114h-118l-80 -259h-111h-39l-77 259h-197l-77 -259h-144l245 724h150l114 -351h123l92 351h144zM399 373l-65 218l-65 -218h130zM592 164l27 102h-60z" />
    <glyph glyph-name="uniA73C" unicode="&#xa73c;" horiz-adv-x="897" 
d="M878 724l-223 -724q-58 -155 -270 -220l-46 114q68 24 107 48.5t64 57.5l-47 156h-258l-46 -156h-144l245 724h150l182 -538l142 538h144zM428 276l-94 315l-93 -315h187z" />
    <glyph glyph-name="Aacute" unicode="&#xc1;" horiz-adv-x="670" 
d="M363 781h-114v12l145 133h151v-12zM463 156h-258l-46 -156h-144l245 724h150l245 -724h-145zM428 276l-94 315l-93 -315h187z" />
    <glyph glyph-name="Aacute.c2sc" horiz-adv-x="619" 
d="M426 119h-234l-37 -119h-142l223 613h147l223 -613h-142zM389 237l-80 255l-80 -255h160zM236 684l95 159h141v-10l-132 -159h-104v10z" />
    <glyph glyph-name="Abreve" unicode="&#x102;" horiz-adv-x="670" 
d="M218 823.5q-42 43.5 -45 126.5h78q10 -73 85 -73q76 0 86 73h75q-3 -83 -45 -126.5t-117 -43.5t-117 43.5zM463 156h-258l-46 -156h-144l245 724h150l245 -724h-145zM428 276l-94 315l-93 -315h187z" />
    <glyph glyph-name="Abreve.c2sc" horiz-adv-x="619" 
d="M426 119h-234l-37 -119h-142l223 613h147l223 -613h-142zM389 237l-80 255l-80 -255h160zM193 712.5q-42 43.5 -45 126.5h78q10 -73 85 -73q76 0 86 73h75q-3 -83 -45 -126.5t-117 -43.5t-117 43.5z" />
    <glyph glyph-name="uni1EAE" unicode="&#x1eae;" horiz-adv-x="670" 
d="M376 900h-90v10l73 127h119v-10zM220.5 796.5q-41.5 36.5 -45.5 103.5h66q10 -64 95 -64q86 0 96 64h63q-4 -67 -45.5 -103.5t-114.5 -36.5t-114.5 36.5zM463 156h-258l-46 -156h-144l245 724h150l245 -724h-145zM428 276l-94 315l-93 -315h187z" />
    <glyph glyph-name="uni1EB6" unicode="&#x1eb6;" horiz-adv-x="670" 
d="M218 823.5q-42 43.5 -45 126.5h78q10 -73 85 -73q76 0 86 73h75q-3 -83 -45 -126.5t-117 -43.5t-117 43.5zM510 0l-47 156h-258l-46 -156h-144l245 724h150l245 -724h-145zM428 276l-94 315l-93 -315h187zM395.5 -93.5q21.5 -20.5 21.5 -56.5q0 -37 -21.5 -57.5
t-59.5 -20.5t-59.5 20.5t-21.5 56.5q0 37 21.5 57.5t59.5 20.5t59.5 -20.5z" />
    <glyph glyph-name="uni1EB0" unicode="&#x1eb0;" horiz-adv-x="670" 
d="M294 900l-96 127v10h119l67 -127v-10h-90zM220.5 796.5q-41.5 36.5 -45.5 103.5h66q10 -64 95 -64q86 0 96 64h63q-4 -67 -45.5 -103.5t-114.5 -36.5t-114.5 36.5zM463 156h-258l-46 -156h-144l245 724h150l245 -724h-145zM428 276l-94 315l-93 -315h187z" />
    <glyph glyph-name="uni1EB2" unicode="&#x1eb2;" horiz-adv-x="670" 
d="M268 965l-25 55q20 12 46.5 19t53.5 7q44 0 68 -18.5t24 -51.5q0 -24 -10.5 -35t-28.5 -18q-11 -5 -16.5 -9.5t-5.5 -11.5t1 -12h-80q-2 10 -2 15q0 18 7.5 26.5t21.5 16.5q8 5 12.5 9t4.5 10q0 13 -21 13q-20 0 -50 -15zM220.5 796.5q-41.5 36.5 -45.5 103.5h66
q10 -64 95 -64q86 0 96 64h63q-4 -67 -45.5 -103.5t-114.5 -36.5t-114.5 36.5zM463 156h-258l-46 -156h-144l245 724h150l245 -724h-145zM428 276l-94 315l-93 -315h187z" />
    <glyph glyph-name="uni1EB4" unicode="&#x1eb4;" horiz-adv-x="670" 
d="M229 923h-63q0 59 28 91t80 32q27 0 43.5 -7.5t35.5 -20.5q13 -10 23 -14.5t23 -4.5q38 0 42 45h63q0 -59 -28 -91t-80 -32q-27 0 -43.5 7.5t-35.5 20.5q-13 10 -23 14.5t-23 4.5q-37 0 -42 -45zM432 900h63q-4 -67 -45.5 -103.5t-114.5 -36.5t-114.5 36.5t-45.5 103.5
h66q10 -64 95 -64q86 0 96 64zM463 156h-258l-46 -156h-144l245 724h150l245 -724h-145zM428 276l-94 315l-93 -315h187z" />
    <glyph glyph-name="uni01CD" unicode="&#x1cd;" horiz-adv-x="670" 
d="M270 781l-117 133v12h101l83 -76l82 76h98v-12l-117 -133h-130zM463 156h-258l-46 -156h-144l245 724h150l245 -724h-145zM428 276l-94 315l-93 -315h187z" />
    <glyph glyph-name="Acircumflex" unicode="&#xc2;" horiz-adv-x="670" 
d="M251 781h-98v12l117 133h130l117 -133v-12h-101l-83 76zM463 156h-258l-46 -156h-144l245 724h150l245 -724h-145zM428 276l-94 315l-93 -315h187z" />
    <glyph glyph-name="Acircumflex.c2sc" horiz-adv-x="619" 
d="M426 119h-234l-37 -119h-142l223 613h147l223 -613h-142zM389 237l-80 255l-80 -255h160zM474 684v-10h-95l-71 88l-70 -88h-92v10l102 159h124z" />
    <glyph glyph-name="uni1EA4" unicode="&#x1ea4;" horiz-adv-x="670" 
d="M550 896h-90v10l73 127h119v-10zM261 785h-92v10l104 139h124l104 -139v-10h-95l-73 77zM463 156h-258l-46 -156h-144l245 724h150l245 -724h-145zM428 276l-94 315l-93 -315h187z" />
    <glyph glyph-name="uni1EAC" unicode="&#x1eac;" horiz-adv-x="670" 
d="M251 781h-98v12l117 133h130l117 -133v-12h-101l-83 76zM510 0l-47 156h-258l-46 -156h-144l245 724h150l245 -724h-145zM428 276l-94 315l-93 -315h187zM395.5 -93.5q21.5 -20.5 21.5 -56.5q0 -37 -21.5 -57.5t-59.5 -20.5t-59.5 20.5t-21.5 56.5q0 37 21.5 57.5
t59.5 20.5t59.5 -20.5z" />
    <glyph glyph-name="uni1EA6" unicode="&#x1ea6;" horiz-adv-x="670" 
d="M120 896l-96 127v10h119l67 -127v-10h-90zM169 795l104 139h124l104 -139v-10h-95l-73 77l-72 -77h-92v10zM463 156h-258l-46 -156h-144l245 724h150l245 -724h-145zM428 276l-94 315l-93 -315h187z" />
    <glyph glyph-name="uni1EA8" unicode="&#x1ea8;" horiz-adv-x="670" 
d="M442 961l-25 55q20 12 46.5 19t53.5 7q44 0 68 -18.5t24 -51.5q0 -24 -10.5 -35t-28.5 -18q-11 -5 -16.5 -9.5t-5.5 -11.5t1 -12h-80q-2 10 -2 15q0 18 7.5 26.5t21.5 16.5q8 5 12.5 9t4.5 10q0 13 -21 13q-20 0 -50 -15zM261 785h-92v10l104 139h124l104 -139v-10h-95
l-73 77zM463 156h-258l-46 -156h-144l245 724h150l245 -724h-145zM428 276l-94 315l-93 -315h187z" />
    <glyph glyph-name="uni1EAA" unicode="&#x1eaa;" horiz-adv-x="670" 
d="M229 923h-63q0 59 28 91t80 32q27 0 43.5 -7.5t35.5 -20.5q13 -10 23 -14.5t23 -4.5q38 0 42 45h63q0 -59 -28 -91t-80 -32q-27 0 -43.5 7.5t-35.5 20.5q-13 10 -23 14.5t-23 4.5q-37 0 -42 -45zM395 896l106 -121v-10h-89l-78 68l-79 -68h-86v10l106 121h120zM463 156
h-258l-46 -156h-144l245 724h150l245 -724h-145zM428 276l-94 315l-93 -315h187z" />
    <glyph glyph-name="uni0200" unicode="&#x200;" horiz-adv-x="670" 
d="M224 781l-120 133v12h127l85 -133v-12h-92zM396 781l-119 133v12h125l84 -133v-12h-90zM463 156h-258l-46 -156h-144l245 724h150l245 -724h-145zM428 276l-94 315l-93 -315h187z" />
    <glyph glyph-name="Adieresis" unicode="&#xc4;" horiz-adv-x="670" 
d="M178 791q-19 19 -19 51q0 34 19 53t53 19t53.5 -19t19.5 -52q0 -34 -19 -52.5t-54 -18.5q-34 0 -53 19zM385 791q-19 19 -19 51q0 34 19 53t53 19t53.5 -19t19.5 -52q0 -34 -19 -52.5t-54 -18.5q-34 0 -53 19zM463 156h-258l-46 -156h-144l245 724h150l245 -724h-145z
M428 276l-94 315l-93 -315h187z" />
    <glyph glyph-name="Adieresis.c2sc" horiz-adv-x="619" 
d="M426 119h-234l-37 -119h-142l223 613h147l223 -613h-142zM389 237l-80 255l-80 -255h160zM159 692q-19 19 -19 51q0 34 19 53t53 19t53.5 -19t19.5 -52q0 -34 -19 -52.5t-54 -18.5q-34 0 -53 19zM354 692q-19 19 -19 51q0 34 19 53t53 19t53.5 -19t19.5 -52
q0 -34 -19 -52.5t-54 -18.5q-34 0 -53 19z" />
    <glyph glyph-name="uni01DE" unicode="&#x1de;" horiz-adv-x="670" 
d="M499 955h-328v92h328v-92zM178 791q-19 19 -19 51q0 34 19 53t53 19t53.5 -19t19.5 -52q0 -34 -19 -52.5t-54 -18.5q-34 0 -53 19zM491.5 895q19.5 -19 19.5 -52q0 -34 -19 -52.5t-54 -18.5q-34 0 -53 19t-19 51q0 34 19 53t53 19t53.5 -19zM463 156h-258l-46 -156h-144
l245 724h150l245 -724h-145zM428 276l-94 315l-93 -315h187z" />
    <glyph glyph-name="uni0226" unicode="&#x226;" horiz-adv-x="670" 
d="M275.5 796.5q-21.5 20.5 -21.5 56.5q0 37 21.5 57.5t59.5 20.5t59.5 -20.5t21.5 -56.5q0 -37 -21.5 -57.5t-59.5 -20.5t-59.5 20.5zM463 156h-258l-46 -156h-144l245 724h150l245 -724h-145zM428 276l-94 315l-93 -315h187z" />
    <glyph glyph-name="uni1EA0" unicode="&#x1ea0;" horiz-adv-x="670" 
d="M463 156h-258l-46 -156h-144l245 724h150l245 -724h-145zM428 276l-94 315l-93 -315h187zM276.5 -207.5q-21.5 20.5 -21.5 56.5q0 37 21.5 57.5t59.5 20.5t59.5 -20.5t21.5 -56.5q0 -37 -21.5 -57.5t-59.5 -20.5t-59.5 20.5z" />
    <glyph glyph-name="uni01E0" unicode="&#x1e0;" horiz-adv-x="670" 
d="M499 955h-328v92h328v-92zM275.5 910.5q21.5 20.5 59.5 20.5t59.5 -20.5t21.5 -56.5q0 -37 -21.5 -57.5t-59.5 -20.5t-59.5 20.5t-21.5 56.5q0 37 21.5 57.5zM463 156h-258l-46 -156h-144l245 724h150l245 -724h-145zM428 276l-94 315l-93 -315h187z" />
    <glyph glyph-name="Agrave" unicode="&#xc0;" horiz-adv-x="670" 
d="M306 781l-173 133v12h151l136 -133v-12h-114zM463 156h-258l-46 -156h-144l245 724h150l245 -724h-145zM428 276l-94 315l-93 -315h187z" />
    <glyph glyph-name="Agrave.c2sc" horiz-adv-x="619" 
d="M426 119h-234l-37 -119h-142l223 613h147l223 -613h-142zM389 237l-80 255l-80 -255h160zM160 833v10h141l87 -159v-10h-104z" />
    <glyph glyph-name="uni1EA2" unicode="&#x1ea2;" horiz-adv-x="670" 
d="M251 861l-30 64q25 16 58 25t68 9q52 0 80.5 -20t28.5 -56q0 -28 -13.5 -41t-36.5 -21q-14 -6 -20 -10.5t-6 -12.5l2 -17h-94q-2 12 -2 22q0 19 9.5 28.5t26.5 18.5q10 4 15 8.5t5 10.5q0 12 -23 12q-28 0 -68 -20zM463 156h-258l-46 -156h-144l245 724h150l245 -724
h-145zM428 276l-94 315l-93 -315h187z" />
    <glyph glyph-name="uni0202" unicode="&#x202;" horiz-adv-x="670" 
d="M248 791h-75q3 83 45 126.5t117 43.5t117 -43.5t45 -126.5h-78q-10 73 -85 73q-76 0 -86 -73zM463 156h-258l-46 -156h-144l245 724h150l245 -724h-145zM428 276l-94 315l-93 -315h187z" />
    <glyph glyph-name="uni2C6D" unicode="&#x2c6d;" horiz-adv-x="682" 
d="M604 724v-724h-125v98q-62 -111 -192 -111q-114 0 -176.5 98t-62.5 276q0 179 62.5 277.5t177.5 98.5q54 0 101 -21t77 -58v66h138zM402.5 128.5q31.5 15.5 63.5 50.5v371q-26 29 -64 47t-75 18q-137 0 -137 -249q0 -253 141 -253q40 0 71.5 15.5z" />
    <glyph glyph-name="Amacron" unicode="&#x100;" horiz-adv-x="670" 
d="M499 806h-328v92h328v-92zM463 156h-258l-46 -156h-144l245 724h150l245 -724h-145zM428 276l-94 315l-93 -315h187z" />
    <glyph glyph-name="Amacron.c2sc" horiz-adv-x="619" 
d="M426 119h-234l-37 -119h-142l223 613h147l223 -613h-142zM389 237l-80 255l-80 -255h160zM146 787h328v-92h-328v92z" />
    <glyph glyph-name="uniA734" unicode="&#xa734;" horiz-adv-x="1087" 
d="M959.5 642.5q79.5 -94.5 79.5 -280.5t-79.5 -280.5t-230.5 -94.5q-103 0 -172 43.5t-93 123.5l-1 2h-258l-46 -156h-144l245 724h150l53 -169q65 182 266 182q151 0 230.5 -94.5zM897 362q0 252 -168 252t-168 -252t168 -252t168 252zM428 276l-94 315l-93 -315h187z" />
    <glyph glyph-name="Aogonek" unicode="&#x104;" horiz-adv-x="670" 
d="M706 -199q-24 -15 -55 -23t-63 -8q-59 0 -92 27t-33 76q0 40 22.5 73t63.5 54h-39l-47 156h-258l-46 -156h-144l245 724h150l245 -724q-81 -48 -81 -102q0 -40 46 -40q27 0 56 13zM428 276l-94 315l-93 -315h187z" />
    <glyph glyph-name="Aogonek.c2sc" horiz-adv-x="619" 
d="M657 -199q-24 -15 -55 -23t-63 -8q-59 0 -92 27t-33 76q0 40 22.5 73t63.5 54h-36l-38 119h-234l-37 -119h-142l223 613h147l223 -613q-81 -48 -81 -102q0 -40 46 -40q27 0 56 13zM389 237l-80 255l-80 -255h160z" />
    <glyph glyph-name="Aring" unicode="&#xc5;" horiz-adv-x="670" 
d="M234 796.5q-36 31.5 -36 88.5t36 88.5t101 31.5t101 -31.5t36 -88.5t-36 -88.5t-101 -31.5t-101 31.5zM282 885q0 -54 53 -54t53 54t-53 54t-53 -54zM463 156h-258l-46 -156h-144l245 724h150l245 -724h-145zM428 276l-94 315l-93 -315h187z" />
    <glyph glyph-name="Aring.c2sc" horiz-adv-x="619" 
d="M426 119h-234l-37 -119h-142l223 613h147l223 -613h-142zM389 237l-80 255l-80 -255h160zM209.5 690.5q-35.5 31.5 -35.5 88.5t35.5 88.5t100.5 31.5t100.5 -31.5t35.5 -88.5t-35.5 -88.5t-100.5 -31.5t-100.5 31.5zM363 779q0 55 -53 55t-53 -55t53 -55t53 55z" />
    <glyph glyph-name="Aringacute" unicode="&#x1fa;" horiz-adv-x="670" 
d="M368 909h-114v12l135 125h151v-12zM463 156h-258l-46 -156h-144l226 666q-43 32 -43 94q0 57 36 88.5t101 31.5t101 -31.5t36 -88.5q0 -62 -43 -94l226 -666h-145zM282 760q0 -54 53 -54t53 54t-53 54t-53 -54zM428 276l-94 315l-93 -315h187z" />
    <glyph glyph-name="Aringacute.c2sc" horiz-adv-x="619" 
d="M343 909h-114v12l135 125h151v-12zM209 671.5q-36 31.5 -36 88.5t36 88.5t101 31.5t101 -31.5t36 -88.5t-36 -88.5t-101 -31.5t-101 31.5zM257 760q0 -54 53 -54t53 54t-53 54t-53 -54zM426 119h-234l-37 -119h-142l223 613h147l223 -613h-142zM389 237l-80 255l-80 -255
h160z" />
    <glyph glyph-name="uni1E00" unicode="&#x1e00;" horiz-adv-x="670" 
d="M463 156h-258l-46 -156h-144l245 724h150l245 -724h-145zM428 276l-94 315l-93 -315h187zM235.5 -261.5q-35.5 31.5 -35.5 88.5t35.5 88.5t100.5 31.5t100.5 -31.5t35.5 -88.5t-35.5 -88.5t-100.5 -31.5t-100.5 31.5zM389 -173q0 55 -53 55t-53 -55t53 -55t53 55z" />
    <glyph glyph-name="uni023A" unicode="&#x23a;" horiz-adv-x="670" 
d="M463 156h-126l-88 -263h-85l88 263h-47l-46 -156h-144l245 724h150l17 -49l45 135h85l-88 -261l186 -549h-145zM293 276l71 213l-30 102l-93 -315h52zM428 276l-24 79l-26 -79h50z" />
    <glyph glyph-name="Atilde" unicode="&#xc3;" horiz-adv-x="670" 
d="M225 787h-75q1 71 31 110.5t83 39.5q27 0 46.5 -9t45.5 -26q15 -11 26.5 -16.5t23.5 -5.5q33 0 39 55h75q-1 -71 -31 -110.5t-83 -39.5q-27 0 -46.5 9t-45.5 26q-15 11 -26.5 16.5t-23.5 5.5q-33 0 -39 -55zM463 156h-258l-46 -156h-144l245 724h150l245 -724h-145z
M428 276l-94 315l-93 -315h187z" />
    <glyph glyph-name="Atilde.c2sc" horiz-adv-x="619" 
d="M426 119h-234l-37 -119h-142l223 613h147l223 -613h-142zM389 237l-80 255l-80 -255h160zM334.5 683q-19.5 9 -45.5 26q-15 11 -26.5 16.5t-23.5 5.5q-33 0 -39 -55h-75q1 71 31 110.5t83 39.5q27 0 46.5 -9t45.5 -26q15 -11 26.5 -16.5t23.5 -5.5q33 0 39 55h75
q-1 -71 -31 -110.5t-83 -39.5q-27 0 -46.5 9z" />
    <glyph glyph-name="uni2C6F" unicode="&#x2c6f;" horiz-adv-x="670" 
d="M655 724l-245 -724h-150l-245 724h145l47 -156h258l46 156h144zM429 448h-187l94 -315z" />
    <glyph glyph-name="uniA736" unicode="&#xa736;" horiz-adv-x="1053" 
d="M980 724v-475q0 -125 -72 -193.5t-203 -68.5q-96 0 -153.5 40.5t-87.5 128.5h-259l-46 -156h-144l245 724h150l173 -511q20 -57 48 -80t78 -23q133 0 133 149v465h138zM241 276h187l-94 315z" />
    <glyph glyph-name="uniA738" unicode="&#xa738;" horiz-adv-x="897" 
d="M878 724l-223 -724h-145l-47 156h-258l-46 -156h-144l245 724h150l182 -538l142 538h144zM428 276l-94 315l-93 -315h187z" />
    <glyph glyph-name="AE" unicode="&#xc6;" horiz-adv-x="932" 
d="M902 123v-123h-452v147h-237l-73 -147h-146l369 724h138h387v-123h-304v-169h220v-124h-220v-185h318zM450 267v355l-177 -355h177z" />
    <glyph glyph-name="AEacute" unicode="&#x1fc;" horiz-adv-x="932" 
d="M534 781h-114v12l145 133h151v-12zM902 123v-123h-452v147h-237l-73 -147h-146l369 724h138h387v-123h-304v-169h220v-124h-220v-185h318zM450 267v355l-177 -355h177z" />
    <glyph glyph-name="uni01E2" unicode="&#x1e2;" horiz-adv-x="932" 
d="M670 806h-328v92h328v-92zM902 123v-123h-452v147h-237l-73 -147h-146l369 724h138h387v-123h-304v-169h220v-124h-220v-185h318zM450 267v355l-177 -355h177z" />
    <glyph glyph-name="B" unicode="B" horiz-adv-x="648" 
d="M610 218q0 -104 -62.5 -161t-175.5 -57h-219h-75v724h137h124q110 0 170 -54t60 -153q0 -100 -93 -135q134 -40 134 -164zM215 602v-173h124q90 0 90 85q0 88 -97 88h-117zM469 215q0 96 -97 96h-157v-189h164q90 0 90 93z" />
    <glyph glyph-name="B.c2sc" horiz-adv-x="606" 
d="M570 189q0 -91 -58 -140t-163 -49h-199h-74v613h135h108q102 0 158 -47t56 -132q0 -79 -76 -111q113 -35 113 -134zM211 493v-123h108q76 0 76 61q0 62 -83 62h-101zM432 185q0 70 -83 70h-138v-135h145q76 0 76 65z" />
    <glyph glyph-name="uni1E02" unicode="&#x1e02;" horiz-adv-x="648" 
d="M255.5 796.5q-21.5 20.5 -21.5 56.5q0 37 21.5 57.5t59.5 20.5t59.5 -20.5t21.5 -56.5q0 -37 -21.5 -57.5t-59.5 -20.5t-59.5 20.5zM610 218q0 -104 -62.5 -161t-175.5 -57h-219h-75v724h137h124q110 0 170 -54t60 -153q0 -100 -93 -135q134 -40 134 -164zM215 602v-173
h124q90 0 90 85q0 88 -97 88h-117zM469 215q0 96 -97 96h-157v-189h164q90 0 90 93z" />
    <glyph glyph-name="uni1E04" unicode="&#x1e04;" horiz-adv-x="648" 
d="M610 218q0 -104 -62.5 -161t-175.5 -57h-219h-75v724h137h124q110 0 170 -54t60 -153q0 -100 -93 -135q134 -40 134 -164zM215 602v-173h124q90 0 90 85q0 88 -97 88h-117zM469 215q0 96 -97 96h-157v-189h164q90 0 90 93zM268.5 -203.5q-21.5 20.5 -21.5 56.5
q0 37 21.5 57.5t59.5 20.5t59.5 -20.5t21.5 -56.5q0 -37 -21.5 -57.5t-59.5 -20.5t-59.5 20.5z" />
    <glyph glyph-name="uni0181" unicode="&#x181;" horiz-adv-x="729" 
d="M691 218q0 -104 -62.5 -161t-175.5 -57h-219h-75v600q-29 0 -43.5 -14t-14.5 -45q0 -15 3 -48h-122q-4 21 -4 47q0 88 47.5 136t133.5 48h137h124q110 0 170 -54t60 -153q0 -100 -93 -135q134 -40 134 -164zM296 602v-173h124q90 0 90 85q0 88 -97 88h-117zM550 215
q0 96 -97 96h-157v-189h164q90 0 90 93z" />
    <glyph glyph-name="uni1E06" unicode="&#x1e06;" horiz-adv-x="648" 
d="M610 218q0 -104 -62.5 -161t-175.5 -57h-219h-75v724h137h124q110 0 170 -54t60 -153q0 -100 -93 -135q134 -40 134 -164zM215 602v-173h124q90 0 90 85q0 88 -97 88h-117zM469 215q0 96 -97 96h-157v-189h164q90 0 90 93zM164 -92h328v-92h-328v92z" />
    <glyph glyph-name="uni0243" unicode="&#x243;" horiz-adv-x="648" 
d="M610 218q0 -104 -62.5 -161t-175.5 -57h-219h-75v167h-63v99h63v458h137h124q110 0 170 -54t60 -153q0 -100 -93 -135q134 -40 134 -164zM215 602v-173h124q90 0 90 85q0 88 -97 88h-117zM469 215q0 96 -97 96h-157v-45h115v-99h-115v-45h164q90 0 90 93z" />
    <glyph glyph-name="uni0182" unicode="&#x182;" horiz-adv-x="627" 
d="M523.5 418q65.5 -60 65.5 -179q0 -118 -64.5 -178.5t-184.5 -60.5h-262v724h138h316v-105h-316v-141h119q123 0 188.5 -60zM447 242q0 117 -105 117h-126v-236h117q114 0 114 119z" />
    <glyph glyph-name="C" unicode="C" horiz-adv-x="603" 
d="M126 82q-88 94 -88 265q0 120 40 208t114.5 135t175.5 47q56 0 110 -15t93 -43l-47 -105q-78 39 -158 39q-89 0 -137.5 -67t-48.5 -189q0 -243 199 -243q92 0 151 35l47 -104q-33 -27 -87 -42t-117 -15q-159 0 -247 94z" />
    <glyph glyph-name="C.c2sc" horiz-adv-x="560" 
d="M117.5 69.5q-81.5 79.5 -81.5 223.5q0 102 37 176.5t105.5 114.5t162.5 40q53 0 103.5 -14t86.5 -39l-46 -102q-72 33 -146 33q-78 0 -120.5 -52t-42.5 -147q0 -190 175 -190q85 0 139 30l46 -101q-31 -25 -81 -38.5t-109 -13.5q-147 0 -228.5 79.5z" />
    <glyph glyph-name="C.ss06" horiz-adv-x="603" 
d="M126 82q-88 94 -88 265q0 120 40 208t114.5 135t175.5 47q56 0 110 -15t93 -43l-47 -105q-78 39 -158 39q-89 0 -137.5 -67t-48.5 -189q0 -243 199 -243q92 0 151 35l47 -104q-33 -27 -87 -42t-117 -15q-159 0 -247 94z" />
    <glyph glyph-name="Cacute" unicode="&#x106;" horiz-adv-x="603" 
d="M266 793l145 133h151v-12l-182 -133h-114v12zM126 82q-88 94 -88 265q0 120 40 208t114.5 135t175.5 47q56 0 110 -15t93 -43l-47 -105q-78 39 -158 39q-89 0 -137.5 -67t-48.5 -189q0 -243 199 -243q92 0 151 35l47 -104q-33 -27 -87 -42t-117 -15q-159 0 -247 94z" />
    <glyph glyph-name="Cacute.c2sc" horiz-adv-x="560" 
d="M117.5 69.5q-81.5 79.5 -81.5 223.5q0 102 37 176.5t105.5 114.5t162.5 40q53 0 103.5 -14t86.5 -39l-46 -102q-72 33 -146 33q-78 0 -120.5 -52t-42.5 -147q0 -190 175 -190q85 0 139 30l46 -101q-31 -25 -81 -38.5t-109 -13.5q-147 0 -228.5 79.5zM253 684l95 159h141
v-10l-132 -159h-104v10z" />
    <glyph glyph-name="uniA792" unicode="&#xa792;" horiz-adv-x="603" 
d="M577 45q-33 -27 -87 -42t-117 -15q-150 0 -237 84t-97 238h-67v105h70q16 151 102 236.5t224 85.5q56 0 110 -15t93 -43l-47 -105q-78 39 -158 39q-77 0 -124.5 -51.5t-58.5 -146.5h154v-105h-155q18 -196 197 -196q92 0 151 35z" />
    <glyph glyph-name="Ccaron" unicode="&#x10c;" horiz-adv-x="603" 
d="M287 781l-117 133v12h101l83 -76l82 76h98v-12l-117 -133h-130zM577 45q-33 -27 -87 -42t-117 -15q-159 0 -247 94t-88 265q0 120 40 208t114.5 135t175.5 47q56 0 110 -15t93 -43l-47 -105q-78 39 -158 39q-89 0 -137.5 -67t-48.5 -189q0 -243 199 -243q92 0 151 35z
" />
    <glyph glyph-name="Ccaron.c2sc" horiz-adv-x="560" 
d="M117.5 69.5q-81.5 79.5 -81.5 223.5q0 102 37 176.5t105.5 114.5t162.5 40q53 0 103.5 -14t86.5 -39l-46 -102q-72 33 -146 33q-78 0 -120.5 -52t-42.5 -147q0 -190 175 -190q85 0 139 30l46 -101q-31 -25 -81 -38.5t-109 -13.5q-147 0 -228.5 79.5zM491 843v-10
l-102 -159h-124l-102 159v10h95l70 -88l71 88h92z" />
    <glyph glyph-name="Ccedilla" unicode="&#xc7;" horiz-adv-x="603" 
d="M454.5 -71.5q29.5 -22.5 29.5 -63.5q0 -50 -36 -77.5t-102 -27.5q-68 0 -122 26l21 62q53 -17 86 -17q49 0 49 31q0 29 -43 29q-21 0 -39 -7l-30 34l31 76q-125 21 -193 112.5t-68 240.5q0 120 40 208t114.5 135t175.5 47q56 0 110 -15t93 -43l-47 -105q-78 39 -158 39
q-89 0 -137.5 -67t-48.5 -189q0 -243 199 -243q92 0 151 35l47 -104q-32 -26 -84 -41t-114 -16l-29 -39q14 2 21 2q54 0 83.5 -22.5z" />
    <glyph glyph-name="Ccedilla.c2sc" horiz-adv-x="560" 
d="M429.5 -71.5q29.5 -22.5 29.5 -63.5q0 -50 -36 -77.5t-102 -27.5q-68 0 -122 26l21 62q53 -17 86 -17q49 0 49 31q0 29 -43 29q-21 0 -39 -7l-30 34l32 77q-115 19 -177 96t-62 202q0 102 37 176.5t105.5 114.5t162.5 40q53 0 103.5 -14t86.5 -39l-46 -102
q-72 33 -146 33q-78 0 -120.5 -52t-42.5 -147q0 -190 175 -190q85 0 139 30l46 -101q-29 -24 -76 -37t-105 -15l-30 -41q14 2 21 2q54 0 83.5 -22.5z" />
    <glyph glyph-name="uni1E08" unicode="&#x1e08;" horiz-adv-x="603" 
d="M380 781h-114v12l145 133h151v-12zM454.5 -71.5q29.5 -22.5 29.5 -63.5q0 -50 -36 -77.5t-102 -27.5q-68 0 -122 26l21 62q53 -17 86 -17q49 0 49 31q0 29 -43 29q-21 0 -39 -7l-30 34l31 76q-125 21 -193 112.5t-68 240.5q0 120 40 208t114.5 135t175.5 47q56 0 110 -15
t93 -43l-47 -105q-78 39 -158 39q-89 0 -137.5 -67t-48.5 -189q0 -243 199 -243q92 0 151 35l47 -104q-32 -26 -84 -41t-114 -16l-29 -39q14 2 21 2q54 0 83.5 -22.5z" />
    <glyph glyph-name="Ccircumflex" unicode="&#x108;" horiz-adv-x="603" 
d="M268 781h-98v12l117 133h130l117 -133v-12h-101l-83 76zM577 45q-33 -27 -87 -42t-117 -15q-159 0 -247 94t-88 265q0 120 40 208t114.5 135t175.5 47q56 0 110 -15t93 -43l-47 -105q-78 39 -158 39q-89 0 -137.5 -67t-48.5 -189q0 -243 199 -243q92 0 151 35z" />
    <glyph glyph-name="Ccircumflex.c2sc" horiz-adv-x="560" 
d="M117.5 69.5q-81.5 79.5 -81.5 223.5q0 102 37 176.5t105.5 114.5t162.5 40q53 0 103.5 -14t86.5 -39l-46 -102q-72 33 -146 33q-78 0 -120.5 -52t-42.5 -147q0 -190 175 -190q85 0 139 30l46 -101q-31 -25 -81 -38.5t-109 -13.5q-147 0 -228.5 79.5zM491 684v-10h-95
l-71 88l-70 -88h-92v10l102 159h124z" />
    <glyph glyph-name="Cdotaccent" unicode="&#x10a;" horiz-adv-x="603" 
d="M292.5 796.5q-21.5 20.5 -21.5 56.5q0 37 21.5 57.5t59.5 20.5t59.5 -20.5t21.5 -56.5q0 -37 -21.5 -57.5t-59.5 -20.5t-59.5 20.5zM126 82q-88 94 -88 265q0 120 40 208t114.5 135t175.5 47q56 0 110 -15t93 -43l-47 -105q-78 39 -158 39q-89 0 -137.5 -67t-48.5 -189
q0 -243 199 -243q92 0 151 35l47 -104q-33 -27 -87 -42t-117 -15q-159 0 -247 94z" />
    <glyph glyph-name="uni0187" unicode="&#x187;" horiz-adv-x="693" 
d="M687 859v-111q-33 3 -48 3q-35 0 -51.5 -17t-16.5 -52v-21v-87h-47q-78 39 -158 39q-89 0 -137.5 -67t-48.5 -189q0 -243 199 -243q92 0 151 35l47 -104q-33 -27 -87 -42t-117 -15q-159 0 -247 94t-88 265q0 120 40 208t114.5 135t175.5 47q45 0 92 -11q11 66 57.5 101.5
t122.5 35.5q26 0 47 -4z" />
    <glyph glyph-name="uniA76E" unicode="&#xa76e;" horiz-adv-x="572" 
d="M103 96q67 14 110.5 29.5t73.5 35.5q37 24 57.5 56t29 81t8.5 128q0 188 -111 188q-106 0 -106 -113q0 -118 113 -118q19 0 43 3v-122q-28 -4 -62 -4q-112 0 -174 62t-62 174q0 115 65 178t184 63q252 0 252 -308q0 -95 -14.5 -160t-47 -111.5t-87.5 -82.5
q-102 -68 -249 -88z" />
    <glyph glyph-name="uniA73E" unicode="&#xa73e;" horiz-adv-x="603" 
d="M113 3q-54 15 -87 42l47 104q59 -35 151 -35q199 0 199 243q0 122 -48.5 189t-137.5 67q-80 0 -158 -39l-47 105q39 28 93 43t110 15q101 0 175.5 -47t114.5 -135t40 -208q0 -171 -88 -265t-247 -94q-63 0 -117 15zM165.5 310.5q-21.5 20.5 -21.5 56.5q0 37 21.5 57.5
t59.5 20.5t59.5 -20.5t21.5 -56.5q0 -37 -21.5 -57.5t-59.5 -20.5t-59.5 20.5z" />
    <glyph glyph-name="uni023B" unicode="&#x23b;" horiz-adv-x="603" 
d="M490 3q-54 -15 -117 -15q-77 0 -140 23l-42 -118h-85l56 157q-60 45 -92 120.5t-32 176.5q0 120 40 208t114.5 135t175.5 47q13 0 39 -2l27 75h85l-32 -91q51 -16 84 -40l-47 -105q-41 21 -79 29l-167 -467q41 -22 101 -22q92 0 151 35l47 -104q-33 -27 -87 -42zM215 197
l149 416q-88 -1 -136 -68t-48 -188q0 -101 35 -160z" />
    <glyph glyph-name="uniA72C" unicode="&#xa72c;" horiz-adv-x="585" 
d="M548 176h-83v-44q0 -145 -156 -145q-45 0 -82 15l19 108q27 -5 46 -5t27 8.5t8 28.5v34h-310v117l254 431h194v-431h83v-117zM327 293v307l-167 -307h167z" />
    <glyph glyph-name="uniA72E" unicode="&#xa72e;" horiz-adv-x="714" 
d="M548 176h-83v-44q0 -145 -156 -145q-45 0 -82 15l19 108q27 -5 46 -5t27 8.5t8 28.5v34h-310v117l254 431h194v-431h83v-117zM327 293v307l-167 -307h167zM462 -128q39 42 55 82.5t16 98.5q0 37 -6 79h132q6 -39 6 -77q0 -72 -35 -130t-112 -113z" />
    <glyph glyph-name="D" unicode="D" horiz-adv-x="693" 
d="M561.5 633q83.5 -91 83.5 -270q0 -181 -83.5 -272t-243.5 -91h-240v724h240q160 0 243.5 -91zM503 363q0 238 -188 238h-99v-478h98q189 0 189 240z" />
    <glyph glyph-name="D.c2sc" horiz-adv-x="648" 
d="M525.5 536q76.5 -77 76.5 -229q0 -154 -76 -230.5t-222 -76.5h-228v613h227q146 0 222.5 -77zM463 307q0 93 -40 139t-122 46h-89v-371h87q164 0 164 186z" />
    <glyph glyph-name="D.ss06" horiz-adv-x="693" 
d="M561.5 633q83.5 -91 83.5 -270q0 -181 -83.5 -272t-243.5 -91h-240v724h240q160 0 243.5 -91zM503 363q0 238 -188 238h-99v-478h98q189 0 189 240z" />
    <glyph glyph-name="uni01F1" unicode="&#x1f1;" horiz-adv-x="1228" 
d="M561.5 633q83.5 -91 83.5 -270q0 -181 -83.5 -272t-243.5 -91h-240v724h240q160 0 243.5 -91zM503 363q0 238 -188 238h-99v-478h98q189 0 189 240zM1193 121v-121h-487v122l325 481h-311v121h467v-121l-325 -482h331z" />
    <glyph glyph-name="uni01C4" unicode="&#x1c4;" horiz-adv-x="1228" 
d="M884 781l-117 133v12h101l83 -76l82 76h98v-12l-117 -133h-130zM561.5 633q83.5 -91 83.5 -270q0 -181 -83.5 -272t-243.5 -91h-240v724h240q160 0 243.5 -91zM1193 121v-121h-487v122l325 481h-311v121h467v-121l-325 -482h331zM503 363q0 238 -188 238h-99v-478h98
q189 0 189 240z" />
    <glyph glyph-name="uni0189" unicode="&#x189;" horiz-adv-x="694" 
d="M562.5 633q83.5 -91 83.5 -270q0 -181 -83.5 -272t-243.5 -91h-240v314h-64v105h64v305h240q160 0 243.5 -91zM504 363q0 238 -188 238h-99v-182h153v-105h-153v-191h98q189 0 189 240z" />
    <glyph glyph-name="Eth" unicode="&#xd0;" horiz-adv-x="694" 
d="M562.5 633q83.5 -91 83.5 -270q0 -181 -83.5 -272t-243.5 -91h-240v314h-64v105h64v305h240q160 0 243.5 -91zM504 363q0 238 -188 238h-99v-182h153v-105h-153v-191h98q189 0 189 240z" />
    <glyph glyph-name="Eth.c2sc" horiz-adv-x="648" 
d="M525.5 536q76.5 -77 76.5 -229q0 -154 -76 -230.5t-222 -76.5h-228v260h-58v100h58v253h227q146 0 222.5 -77zM463 307q0 93 -40 139t-122 46h-89v-132h135v-100h-135v-139h87q164 0 164 186z" />
    <glyph glyph-name="Dcaron" unicode="&#x10e;" horiz-adv-x="693" 
d="M275 781l-117 133v12h101l83 -76l82 76h98v-12l-117 -133h-130zM561.5 633q83.5 -91 83.5 -270q0 -181 -83.5 -272t-243.5 -91h-240v724h240q160 0 243.5 -91zM503 363q0 238 -188 238h-99v-478h98q189 0 189 240z" />
    <glyph glyph-name="Dcaron.c2sc" horiz-adv-x="648" 
d="M525.5 536q76.5 -77 76.5 -229q0 -154 -76 -230.5t-222 -76.5h-228v613h227q146 0 222.5 -77zM463 307q0 93 -40 139t-122 46h-89v-371h87q164 0 164 186zM484 843v-10l-102 -159h-124l-102 159v10h95l70 -88l71 88h92z" />
    <glyph glyph-name="uni1E10" unicode="&#x1e10;" horiz-adv-x="693" 
d="M561.5 633q83.5 -91 83.5 -270q0 -181 -83.5 -272t-243.5 -91h-240v724h240q160 0 243.5 -91zM503 363q0 238 -188 238h-99v-478h98q189 0 189 240zM231 -238q25 27 35 54.5t10 67.5q0 24 -4 50h124q4 -26 4 -49q0 -48 -28.5 -90t-91.5 -86z" />
    <glyph glyph-name="uni1E12" unicode="&#x1e12;" horiz-adv-x="693" 
d="M561.5 633q83.5 -91 83.5 -270q0 -181 -83.5 -272t-243.5 -91h-240v724h240q160 0 243.5 -91zM503 363q0 238 -188 238h-99v-478h98q189 0 189 240zM518 -217v-12h-101l-83 76l-82 -76h-98v12l117 133h130z" />
    <glyph glyph-name="Dcroat" unicode="&#x110;" horiz-adv-x="694" 
d="M562.5 633q83.5 -91 83.5 -270q0 -181 -83.5 -272t-243.5 -91h-240v314h-64v105h64v305h240q160 0 243.5 -91zM504 363q0 238 -188 238h-99v-182h153v-105h-153v-191h98q189 0 189 240z" />
    <glyph glyph-name="Dcroat.c2sc" horiz-adv-x="648" 
d="M525.5 536q76.5 -77 76.5 -229q0 -154 -76 -230.5t-222 -76.5h-228v260h-58v100h58v253h227q146 0 222.5 -77zM463 307q0 93 -40 139t-122 46h-89v-132h135v-100h-135v-139h87q164 0 164 186z" />
    <glyph glyph-name="uni1E0A" unicode="&#x1e0a;" horiz-adv-x="693" 
d="M280.5 796.5q-21.5 20.5 -21.5 56.5q0 37 21.5 57.5t59.5 20.5t59.5 -20.5t21.5 -56.5q0 -37 -21.5 -57.5t-59.5 -20.5t-59.5 20.5zM561.5 633q83.5 -91 83.5 -270q0 -181 -83.5 -272t-243.5 -91h-240v724h240q160 0 243.5 -91zM503 363q0 238 -188 238h-99v-478h98
q189 0 189 240z" />
    <glyph glyph-name="uni1E0C" unicode="&#x1e0c;" horiz-adv-x="693" 
d="M561.5 633q83.5 -91 83.5 -270q0 -181 -83.5 -272t-243.5 -91h-240v724h240q160 0 243.5 -91zM503 363q0 238 -188 238h-99v-478h98q189 0 189 240zM276.5 -207.5q-21.5 20.5 -21.5 56.5q0 37 21.5 57.5t59.5 20.5t59.5 -20.5t21.5 -56.5q0 -37 -21.5 -57.5t-59.5 -20.5
t-59.5 20.5z" />
    <glyph glyph-name="uni018A" unicode="&#x18a;" horiz-adv-x="774" 
d="M642.5 633q83.5 -91 83.5 -270q0 -181 -83.5 -272t-243.5 -91h-240v600q-29 0 -43.5 -14t-14.5 -45q0 -15 3 -48h-122q-4 21 -4 47q0 88 47.5 136t133.5 48h240q160 0 243.5 -91zM584 363q0 238 -188 238h-99v-478h98q189 0 189 240z" />
    <glyph glyph-name="uniA779" unicode="&#xa779;" horiz-adv-x="708" 
d="M582 631q78 -93 78 -275q0 -369 -306 -369t-306 369q0 153 83 254h-107v114h330q150 0 228 -93zM478 170q40 60 40 186q0 121 -46 186.5t-130 65.5h-71q-81 -85 -81 -252q0 -126 40 -186t124 -60t124 60z" />
    <glyph glyph-name="uni1E0E" unicode="&#x1e0e;" horiz-adv-x="693" 
d="M561.5 633q83.5 -91 83.5 -270q0 -181 -83.5 -272t-243.5 -91h-240v724h240q160 0 243.5 -91zM503 363q0 238 -188 238h-99v-478h98q189 0 189 240zM172 -96h328v-92h-328v92z" />
    <glyph glyph-name="uni018B" unicode="&#x18b;" horiz-adv-x="627" 
d="M549 0h-262q-120 0 -184.5 60.5t-64.5 178.5q0 119 65.5 179t188.5 60h119v141h-316v105h454v-724zM411 359h-126q-105 0 -105 -117q0 -119 114 -119h117v236z" />
    <glyph glyph-name="uni01F2" unicode="&#x1f2;" horiz-adv-x="1155" 
d="M561.5 633q83.5 -91 83.5 -270q0 -181 -83.5 -272t-243.5 -91h-240v724h240q160 0 243.5 -91zM503 363q0 238 -188 238h-99v-478h98q189 0 189 240zM1125 115v-115h-414v115l256 316h-246v115h398v-115l-256 -316h262z" />
    <glyph glyph-name="uni01C5" unicode="&#x1c5;" horiz-adv-x="1155" 
d="M851 611l-117 133v12h101l83 -76l82 76h98v-12l-117 -133h-130zM561.5 633q83.5 -91 83.5 -270q0 -181 -83.5 -272t-243.5 -91h-240v724h240q160 0 243.5 -91zM503 363q0 238 -188 238h-99v-478h98q189 0 189 240zM1125 115v-115h-414v115l256 316h-246v115h398v-115
l-256 -316h262z" />
    <glyph glyph-name="E" unicode="E" horiz-adv-x="578" 
d="M548 123v-123h-470v724h456v-123h-318v-169h234v-124h-234v-185h332z" />
    <glyph glyph-name="E.c2sc" horiz-adv-x="541" 
d="M513 121v-121h-437v613h424v-121h-288v-118h211v-122h-211v-131h301z" />
    <glyph glyph-name="Eacute" unicode="&#xc9;" horiz-adv-x="578" 
d="M333 781h-114v12l145 133h151v-12zM548 123v-123h-470v724h456v-123h-318v-169h234v-124h-234v-185h332z" />
    <glyph glyph-name="Eacute.c2sc" horiz-adv-x="541" 
d="M513 121v-121h-437v613h424v-121h-288v-118h211v-122h-211v-131h301zM213 684l95 159h141v-10l-132 -159h-104v10z" />
    <glyph glyph-name="Ebreve" unicode="&#x114;" horiz-adv-x="578" 
d="M188 823.5q-42 43.5 -45 126.5h78q10 -73 85 -73q76 0 86 73h75q-3 -83 -45 -126.5t-117 -43.5t-117 43.5zM548 123v-123h-470v724h456v-123h-318v-169h234v-124h-234v-185h332z" />
    <glyph glyph-name="Ebreve.c2sc" horiz-adv-x="541" 
d="M513 121v-121h-437v613h424v-121h-288v-118h211v-122h-211v-131h301zM170 712.5q-42 43.5 -45 126.5h78q10 -73 85 -73q76 0 86 73h75q-3 -83 -45 -126.5t-117 -43.5t-117 43.5z" />
    <glyph glyph-name="Ecaron" unicode="&#x11a;" horiz-adv-x="578" 
d="M240 781l-117 133v12h101l83 -76l82 76h98v-12l-117 -133h-130zM548 123v-123h-470v724h456v-123h-318v-169h234v-124h-234v-185h332z" />
    <glyph glyph-name="Ecaron.c2sc" horiz-adv-x="541" 
d="M513 121v-121h-437v613h424v-121h-288v-118h211v-122h-211v-131h301zM451 843v-10l-102 -159h-124l-102 159v10h95l70 -88l71 88h92z" />
    <glyph glyph-name="uni0228" unicode="&#x228;" horiz-adv-x="578" 
d="M352 0l-38 -51q14 2 21 2q54 0 83.5 -22.5t29.5 -63.5q0 -50 -36 -77.5t-102 -27.5q-68 0 -122 26l21 62q53 -17 86 -17q49 0 49 31q0 29 -43 29q-21 0 -39 -7l-30 34l34 82h-188v724h456v-123h-318v-169h234v-124h-234v-185h332v-123h-196z" />
    <glyph glyph-name="uni1E1C" unicode="&#x1e1c;" horiz-adv-x="578" 
d="M188 823.5q-42 43.5 -45 126.5h78q10 -73 85 -73q76 0 86 73h75q-3 -83 -45 -126.5t-117 -43.5t-117 43.5zM352 0l-38 -51q14 2 21 2q54 0 83.5 -22.5t29.5 -63.5q0 -50 -36 -77.5t-102 -27.5q-68 0 -122 26l21 62q53 -17 86 -17q49 0 49 31q0 29 -43 29q-21 0 -39 -7
l-30 34l34 82h-188v724h456v-123h-318v-169h234v-124h-234v-185h332v-123h-196z" />
    <glyph glyph-name="Ecircumflex" unicode="&#xca;" horiz-adv-x="578" 
d="M221 781h-98v12l117 133h130l117 -133v-12h-101l-83 76zM548 123v-123h-470v724h456v-123h-318v-169h234v-124h-234v-185h332z" />
    <glyph glyph-name="Ecircumflex.c2sc" horiz-adv-x="541" 
d="M513 121v-121h-437v613h424v-121h-288v-118h211v-122h-211v-131h301zM451 684v-10h-95l-71 88l-70 -88h-92v10l102 159h124z" />
    <glyph glyph-name="uni1EBE" unicode="&#x1ebe;" horiz-adv-x="578" 
d="M622 1033v-10l-102 -127h-90v10l73 127h119zM231 785h-92v10l104 139h124l104 -139v-10h-95l-73 77zM216 123h332v-123h-470v724h456v-123h-318v-169h234v-124h-234v-185z" />
    <glyph glyph-name="uni1E18" unicode="&#x1e18;" horiz-adv-x="578" 
d="M548 123v-123h-470v724h456v-123h-318v-169h234v-124h-234v-185h332zM498 -217v-12h-101l-83 76l-82 -76h-98v12l117 133h130z" />
    <glyph glyph-name="uni1EC6" unicode="&#x1ec6;" horiz-adv-x="578" 
d="M221 781h-98v12l117 133h130l117 -133v-12h-101l-83 76zM548 123v-123h-470v724h456v-123h-318v-169h234v-124h-234v-185h332zM375.5 -93.5q21.5 -20.5 21.5 -56.5q0 -37 -21.5 -57.5t-59.5 -20.5t-59.5 20.5t-21.5 56.5q0 37 21.5 57.5t59.5 20.5t59.5 -20.5z" />
    <glyph glyph-name="uni1EC0" unicode="&#x1ec0;" horiz-adv-x="578" 
d="M90 896l-96 127v10h119l67 -127v-10h-90zM139 795l104 139h124l104 -139v-10h-95l-73 77l-72 -77h-92v10zM548 123v-123h-470v724h456v-123h-318v-169h234v-124h-234v-185h332z" />
    <glyph glyph-name="uni1EC2" unicode="&#x1ec2;" horiz-adv-x="578" 
d="M555 1023.5q24 -18.5 24 -51.5q0 -24 -10.5 -35t-28.5 -18q-11 -5 -16.5 -9.5t-5.5 -11.5t1 -12h-80q-2 10 -2 15q0 18 7.5 26.5t21.5 16.5q8 5 12.5 9t4.5 10q0 13 -21 13q-20 0 -50 -15l-25 55q20 12 46.5 19t53.5 7q44 0 68 -18.5zM231 785h-92v10l104 139h124
l104 -139v-10h-95l-73 77zM216 123h332v-123h-470v724h456v-123h-318v-169h234v-124h-234v-185z" />
    <glyph glyph-name="uni1EC4" unicode="&#x1ec4;" horiz-adv-x="578" 
d="M199 923h-63q0 59 28 91t80 32q27 0 43.5 -7.5t35.5 -20.5q13 -10 23 -14.5t23 -4.5q38 0 42 45h63q0 -59 -28 -91t-80 -32q-27 0 -43.5 7.5t-35.5 20.5q-13 10 -23 14.5t-23 4.5q-37 0 -42 -45zM365 896l106 -121v-10h-89l-78 68l-79 -68h-86v10l106 121h120zM548 123
v-123h-470v724h456v-123h-318v-169h234v-124h-234v-185h332z" />
    <glyph glyph-name="uni0204" unicode="&#x204;" horiz-adv-x="578" 
d="M194 781l-120 133v12h127l85 -133v-12h-92zM366 781l-119 133v12h125l84 -133v-12h-90zM548 123v-123h-470v724h456v-123h-318v-169h234v-124h-234v-185h332z" />
    <glyph glyph-name="Edieresis" unicode="&#xcb;" horiz-adv-x="578" 
d="M148 791q-19 19 -19 51q0 34 19 53t53 19t53.5 -19t19.5 -52q0 -34 -19 -52.5t-54 -18.5q-34 0 -53 19zM355 791q-19 19 -19 51q0 34 19 53t53 19t53.5 -19t19.5 -52q0 -34 -19 -52.5t-54 -18.5q-34 0 -53 19zM548 123v-123h-470v724h456v-123h-318v-169h234v-124h-234
v-185h332z" />
    <glyph glyph-name="Edieresis.c2sc" horiz-adv-x="541" 
d="M136 692q-19 19 -19 51q0 34 19 53t53 19t53.5 -19t19.5 -52q0 -34 -19 -52.5t-54 -18.5q-34 0 -53 19zM331 692q-19 19 -19 51q0 34 19 53t53 19t53.5 -19t19.5 -52q0 -34 -19 -52.5t-54 -18.5q-34 0 -53 19zM513 121v-121h-437v613h424v-121h-288v-118h211v-122h-211
v-131h301z" />
    <glyph glyph-name="Edotaccent" unicode="&#x116;" horiz-adv-x="578" 
d="M245.5 796.5q-21.5 20.5 -21.5 56.5q0 37 21.5 57.5t59.5 20.5t59.5 -20.5t21.5 -56.5q0 -37 -21.5 -57.5t-59.5 -20.5t-59.5 20.5zM548 123v-123h-470v724h456v-123h-318v-169h234v-124h-234v-185h332z" />
    <glyph glyph-name="Edotaccent.c2sc" horiz-adv-x="541" 
d="M513 121v-121h-437v613h424v-121h-288v-118h211v-122h-211v-131h301zM227.5 696.5q-21.5 20.5 -21.5 56.5q0 37 21.5 57.5t59.5 20.5t59.5 -20.5t21.5 -56.5q0 -37 -21.5 -57.5t-59.5 -20.5t-59.5 20.5z" />
    <glyph glyph-name="uni1EB8" unicode="&#x1eb8;" horiz-adv-x="578" 
d="M548 123v-123h-470v724h456v-123h-318v-169h234v-124h-234v-185h332zM256.5 -207.5q-21.5 20.5 -21.5 56.5q0 37 21.5 57.5t59.5 20.5t59.5 -20.5t21.5 -56.5q0 -37 -21.5 -57.5t-59.5 -20.5t-59.5 20.5z" />
    <glyph glyph-name="Egrave" unicode="&#xc8;" horiz-adv-x="578" 
d="M276 781l-173 133v12h151l136 -133v-12h-114zM548 123v-123h-470v724h456v-123h-318v-169h234v-124h-234v-185h332z" />
    <glyph glyph-name="Egrave.c2sc" horiz-adv-x="541" 
d="M513 121v-121h-437v613h424v-121h-288v-118h211v-122h-211v-131h301zM137 833v10h141l87 -159v-10h-104z" />
    <glyph glyph-name="uni1EBA" unicode="&#x1eba;" horiz-adv-x="578" 
d="M221 861l-30 64q25 16 58 25t68 9q52 0 80.5 -20t28.5 -56q0 -28 -13.5 -41t-36.5 -21q-14 -6 -20 -10.5t-6 -12.5l2 -17h-94q-2 12 -2 22q0 19 9.5 29t26.5 18q10 4 15 8.5t5 10.5q0 12 -23 12q-28 0 -68 -20zM548 123v-123h-470v724h456v-123h-318v-169h234v-124h-234
v-185h332z" />
    <glyph glyph-name="uni0206" unicode="&#x206;" horiz-adv-x="578" 
d="M218 791h-75q3 83 45 126.5t117 43.5t117 -43.5t45 -126.5h-78q-10 73 -85 73q-76 0 -86 -73zM548 123v-123h-470v724h456v-123h-318v-169h234v-124h-234v-185h332z" />
    <glyph glyph-name="Emacron" unicode="&#x112;" horiz-adv-x="578" 
d="M469 806h-328v92h328v-92zM548 123v-123h-470v724h456v-123h-318v-169h234v-124h-234v-185h332z" />
    <glyph glyph-name="Emacron.c2sc" horiz-adv-x="541" 
d="M513 121v-121h-437v613h424v-121h-288v-118h211v-122h-211v-131h301zM123 787h328v-92h-328v92z" />
    <glyph glyph-name="uni1E16" unicode="&#x1e16;" horiz-adv-x="578" 
d="M343 910h-90v10l73 127h119v-10zM479 788h-328v92h328v-92zM548 123v-123h-470v724h456v-123h-318v-169h234v-124h-234v-185h332z" />
    <glyph glyph-name="uni1E14" unicode="&#x1e14;" horiz-adv-x="578" 
d="M261 910l-96 127v10h119l67 -127v-10h-90zM479 788h-328v92h328v-92zM548 123v-123h-470v724h456v-123h-318v-169h234v-124h-234v-185h332z" />
    <glyph glyph-name="Eogonek" unicode="&#x118;" horiz-adv-x="578" 
d="M599 -199q-24 -15 -55 -23t-63 -8q-59 0 -92 27t-33 76q0 40 22.5 73t63.5 54h-364v724h456v-123h-318v-169h234v-124h-234v-185h332v-123q-81 -48 -81 -102q0 -40 46 -40q27 0 56 13z" />
    <glyph glyph-name="Eogonek.c2sc" horiz-adv-x="541" 
d="M564 -199q-24 -15 -55 -23t-63 -8q-59 0 -92 27t-33 76q0 40 22.5 73t63.5 54h-331v613h424v-121h-288v-118h211v-122h-211v-131h301v-121q-81 -48 -81 -102q0 -40 46 -40q27 0 56 13z" />
    <glyph glyph-name="uni0190" unicode="&#x190;" horiz-adv-x="576" 
d="M566 46q-48 -29 -115.5 -43.5t-135.5 -14.5q-130 0 -208.5 56t-78.5 170q0 130 136 171q-108 46 -108 157q0 97 69.5 146t189.5 49q121 0 224 -53l-45 -108q-84 42 -165 42q-62 0 -97 -23.5t-35 -72.5q0 -41 30.5 -66.5t88.5 -25.5h121v-114h-129q-66 0 -102 -20.5
t-36 -74.5q0 -56 39 -83t117 -27q46 0 97.5 11.5t92.5 31.5z" />
    <glyph glyph-name="uni018E" unicode="&#x18e;" horiz-adv-x="578" 
d="M500 724v-724h-470v123h332v185h-234v124h234v169h-318v123h456z" />
    <glyph glyph-name="uniA7AB" unicode="&#xa7ab;" horiz-adv-x="576" 
d="M520 182q0 -97 -69.5 -146t-189.5 -49q-121 0 -224 53l45 108q84 -42 165 -42q62 0 97 23.5t35 72.5q0 41 -30.5 66.5t-88.5 25.5h-121v114h129q66 0 102 20.5t36 74.5q0 56 -39 83t-117 27q-46 0 -97.5 -11.5t-92.5 -31.5l-50 108q48 29 115.5 43.5t135.5 14.5
q130 0 208.5 -56t78.5 -170q0 -130 -136 -171q108 -46 108 -157z" />
    <glyph glyph-name="uni01A9" unicode="&#x1a9;" horiz-adv-x="593" 
d="M42 121l209 246l-209 236v121h519v-121h-349l212 -236l-212 -246h349v-121h-519v121z" />
    <glyph glyph-name="uni0246" unicode="&#x246;" horiz-adv-x="578" 
d="M548 0h-279l-28 -107h-85l28 107h-106v724h294l22 86h85l-22 -86h77v-123h-109l-44 -169h69v-124h-101l-48 -185h247v-123zM340 601h-124v-169h80zM264 308h-48v-184z" />
    <glyph glyph-name="uniA76A" unicode="&#xa76a;" horiz-adv-x="527" 
d="M499 210q0 -100 -74 -155t-208 -55h-201v123h191q76 0 113 24.5t37 74.5q0 97 -138 97h-124v114h106q58 0 86.5 23.5t28.5 70.5q0 91 -104 91q-42 0 -79.5 -11t-77.5 -31l-45 108q103 53 216 53q110 0 170.5 -49.5t60.5 -139.5q0 -110 -96 -161q138 -43 138 -177z" />
    <glyph glyph-name="uni1EBC" unicode="&#x1ebc;" horiz-adv-x="578" 
d="M195 787h-75q1 71 31 110.5t83 39.5q27 0 46.5 -9t45.5 -26q15 -11 26.5 -16.5t23.5 -5.5q33 0 39 55h75q-1 -71 -31 -110.5t-83 -39.5q-27 0 -46.5 9t-45.5 26q-15 11 -26.5 16.5t-23.5 5.5q-33 0 -39 -55zM548 123v-123h-470v724h456v-123h-318v-169h234v-124h-234
v-185h332z" />
    <glyph glyph-name="uni1E1A" unicode="&#x1e1a;" horiz-adv-x="578" 
d="M548 123v-123h-470v724h456v-123h-318v-169h234v-124h-234v-185h332zM340.5 -221q-19.5 9 -45.5 26q-15 11 -26.5 16.5t-23.5 5.5q-33 0 -39 -55h-75q1 71 31 110.5t83 39.5q27 0 46.5 -9t45.5 -26q15 -11 26.5 -16.5t23.5 -5.5q33 0 39 55h75q-1 -71 -31 -110.5
t-83 -39.5q-27 0 -46.5 9z" />
    <glyph glyph-name="uni01B7" unicode="&#x1b7;" horiz-adv-x="597" 
d="M561 228q0 -80 -41.5 -134t-111 -80.5t-153.5 -26.5q-142 0 -245 56l49 110q99 -42 193 -42q79 0 123 31.5t44 87.5q0 64 -53 87t-159 23h-43v101l182 162h-301v121h470v-124l-182 -161q228 -26 228 -211z" />
    <glyph glyph-name="uni01EE" unicode="&#x1ee;" horiz-adv-x="597" 
d="M208 781l-117 133v12h101l83 -76l82 76h98v-12l-117 -133h-130zM561 228q0 -80 -41.5 -134t-111 -80.5t-153.5 -26.5q-142 0 -245 56l49 110q99 -42 193 -42q79 0 123 31.5t44 87.5q0 64 -53 87t-159 23h-43v101l182 162h-301v121h470v-124l-182 -161q228 -26 228 -211z
" />
    <glyph glyph-name="uni01B8" unicode="&#x1b8;" horiz-adv-x="597" 
d="M587 43q-103 -56 -245 -56q-84 0 -153.5 26.5t-111 80.5t-41.5 134q0 185 228 211l-182 161v124h470v-121h-301l182 -162v-101h-43q-106 0 -159 -23t-53 -87q0 -56 44 -87.5t123 -31.5q94 0 193 42z" />
    <glyph glyph-name="F" unicode="F" horiz-adv-x="540" 
d="M216 601v-189h252v-124h-252v-288h-138v724h448v-123h-310z" />
    <glyph glyph-name="F.c2sc" horiz-adv-x="505" 
d="M212 492v-137h228v-122h-228v-233h-136v613h417v-121h-281z" />
    <glyph glyph-name="uni1E1E" unicode="&#x1e1e;" horiz-adv-x="540" 
d="M242.5 796.5q-21.5 20.5 -21.5 56.5q0 37 21.5 57.5t59.5 20.5t59.5 -20.5t21.5 -56.5q0 -37 -21.5 -57.5t-59.5 -20.5t-59.5 20.5zM216 601v-189h252v-124h-252v-288h-138v724h448v-123h-310z" />
    <glyph glyph-name="uni0191" unicode="&#x191;" horiz-adv-x="540" 
d="M216 601v-189h252v-124h-252v-288v-58q0 -160 -166 -160q-45 0 -82 15l20 115q27 -7 53 -7q19 0 28 11t9 36v214v558h448v-123h-310z" />
    <glyph glyph-name="uniA77B" unicode="&#xa77b;" horiz-adv-x="489" 
d="M276 575q-31 -26 -60 -84v-276h195v-123h-195v-299h-138v931h132v-131q36 72 78 108t94 36q45 0 93 -24l-48 -126q-47 14 -81 14q-39 0 -70 -26z" />
    <glyph glyph-name="G" unicode="G" horiz-adv-x="668" 
d="M610 415v-370q-41 -28 -99.5 -43t-121.5 -15q-163 0 -252 98t-89 277t89 277t252 98q64 0 120 -15t94 -42l-40 -110q-94 44 -176 44q-197 0 -197 -252t199 -252q40 0 83 10v173h-119v122h257z" />
    <glyph glyph-name="G.c2sc" horiz-adv-x="623" 
d="M567 362v-321q-38 -25 -92.5 -38.5t-112.5 -13.5q-151 0 -233.5 82.5t-82.5 234.5t82.5 235t233.5 83q60 0 112.5 -13.5t87.5 -38.5l-39 -108q-87 39 -163 39q-88 0 -131 -49t-43 -148t43.5 -147.5t132.5 -48.5q38 0 69 7v125h-107v120h243z" />
    <glyph glyph-name="G.ss06" horiz-adv-x="668" 
d="M610 415v-370q-41 -28 -99.5 -43t-121.5 -15q-163 0 -252 98t-89 277t89 277t252 98q64 0 120 -15t94 -42l-40 -110q-94 44 -176 44q-197 0 -197 -252t199 -252q40 0 83 10v173h-119v122h257z" />
    <glyph glyph-name="uni01F4" unicode="&#x1f4;" horiz-adv-x="668" 
d="M389 781h-114v12l145 133h151v-12zM610 415v-370q-41 -28 -99.5 -43t-121.5 -15q-163 0 -252 98t-89 277t89 277t252 98q64 0 120 -15t94 -42l-40 -110q-94 44 -176 44q-197 0 -197 -252t199 -252q40 0 83 10v173h-119v122h257z" />
    <glyph glyph-name="uni0194" unicode="&#x194;" horiz-adv-x="634" 
d="M431 57q15 -38 21 -62.5t6 -46.5q0 -61 -36.5 -94.5t-103.5 -33.5q-66 0 -102.5 33.5t-36.5 94.5q0 23 6 47.5t21 61.5l52 132l-239 535h145l154 -385l153 385h144l-238 -532zM345 -40q0 34 -19 77l-9 20l-9 -20q-19 -42 -19 -77q0 -43 29 -43q27 0 27 43z" />
    <glyph glyph-name="Gbreve" unicode="&#x11e;" horiz-adv-x="668" 
d="M244 823.5q-42 43.5 -45 126.5h78q10 -73 85 -73q76 0 86 73h75q-3 -83 -45 -126.5t-117 -43.5t-117 43.5zM610 415v-370q-41 -28 -99.5 -43t-121.5 -15q-163 0 -252 98t-89 277t89 277t252 98q64 0 120 -15t94 -42l-40 -110q-94 44 -176 44q-197 0 -197 -252t199 -252
q40 0 83 10v173h-119v122h257z" />
    <glyph glyph-name="Gbreve.c2sc" horiz-adv-x="623" 
d="M567 362v-321q-38 -25 -92.5 -38.5t-112.5 -13.5q-151 0 -233.5 82.5t-82.5 234.5t82.5 235t233.5 83q60 0 112.5 -13.5t87.5 -38.5l-39 -108q-87 39 -163 39q-88 0 -131 -49t-43 -148t43.5 -147.5t132.5 -48.5q38 0 69 7v125h-107v120h243zM219 712.5
q-42 43.5 -45 126.5h78q10 -73 85 -73q76 0 86 73h75q-3 -83 -45 -126.5t-117 -43.5t-117 43.5z" />
    <glyph glyph-name="Gcaron" unicode="&#x1e6;" horiz-adv-x="668" 
d="M296 781l-117 133v12h101l83 -76l82 76h98v-12l-117 -133h-130zM610 415v-370q-41 -28 -99.5 -43t-121.5 -15q-163 0 -252 98t-89 277t89 277t252 98q64 0 120 -15t94 -42l-40 -110q-94 44 -176 44q-197 0 -197 -252t199 -252q40 0 83 10v173h-119v122h257z" />
    <glyph glyph-name="Gcircumflex" unicode="&#x11c;" horiz-adv-x="668" 
d="M277 781h-98v12l117 133h130l117 -133v-12h-101l-83 76zM610 415v-370q-41 -28 -99.5 -43t-121.5 -15q-163 0 -252 98t-89 277t89 277t252 98q64 0 120 -15t94 -42l-40 -110q-94 44 -176 44q-197 0 -197 -252t199 -252q40 0 83 10v173h-119v122h257z" />
    <glyph glyph-name="Gcircumflex.c2sc" horiz-adv-x="623" 
d="M567 362v-321q-38 -25 -92.5 -38.5t-112.5 -13.5q-151 0 -233.5 82.5t-82.5 234.5t82.5 235t233.5 83q60 0 112.5 -13.5t87.5 -38.5l-39 -108q-87 39 -163 39q-88 0 -131 -49t-43 -148t43.5 -147.5t132.5 -48.5q38 0 69 7v125h-107v120h243zM500 684v-10h-95l-71 88
l-70 -88h-92v10l102 159h124z" />
    <glyph glyph-name="Gcommaaccent" unicode="&#x122;" horiz-adv-x="668" 
d="M610 415v-370q-41 -28 -99.5 -43t-121.5 -15q-163 0 -252 98t-89 277t89 277t252 98q64 0 120 -15t94 -42l-40 -110q-94 44 -176 44q-197 0 -197 -252t199 -252q40 0 83 10v173h-119v122h257zM256 -238q25 27 35 54.5t10 67.5q0 24 -4 50h124q4 -26 4 -49
q0 -48 -28.5 -90t-91.5 -86z" />
    <glyph glyph-name="Gcommaaccent.c2sc" horiz-adv-x="623" 
d="M567 362v-321q-38 -25 -92.5 -38.5t-112.5 -13.5q-151 0 -233.5 82.5t-82.5 234.5t82.5 235t233.5 83q60 0 112.5 -13.5t87.5 -38.5l-39 -108q-87 39 -163 39q-88 0 -131 -49t-43 -148t43.5 -147.5t132.5 -48.5q38 0 69 7v125h-107v120h243zM231 -238q25 27 35 54.5
t10 67.5q0 24 -4 50h124q4 -26 4 -49q0 -48 -28.5 -90t-91.5 -86z" />
    <glyph glyph-name="Gdotaccent" unicode="&#x120;" horiz-adv-x="668" 
d="M301.5 796.5q-21.5 20.5 -21.5 56.5q0 37 21.5 57.5t59.5 20.5t59.5 -20.5t21.5 -56.5q0 -37 -21.5 -57.5t-59.5 -20.5t-59.5 20.5zM610 415v-370q-41 -28 -99.5 -43t-121.5 -15q-163 0 -252 98t-89 277t89 277t252 98q64 0 120 -15t94 -42l-40 -110q-94 44 -176 44
q-197 0 -197 -252t199 -252q40 0 83 10v173h-119v122h257z" />
    <glyph glyph-name="uni0193" unicode="&#x193;" horiz-adv-x="759" 
d="M719 859v-111q-33 3 -48 3q-35 0 -51.5 -17t-16.5 -52v-21v-91h-40q-94 44 -176 44q-197 0 -197 -252t199 -252q40 0 83 10v173h-119v122h257v-370q-41 -28 -99.5 -43t-121.5 -15q-163 0 -252 98t-89 277t89 277t252 98q53 0 103 -11q11 66 57.5 101.5t122.5 35.5
q26 0 47 -4z" />
    <glyph glyph-name="uniA77D" unicode="&#xa77d;" horiz-adv-x="530" 
d="M369.5 411.5q15.5 -24.5 48.5 -61.5q41 -45 62.5 -82t21.5 -89q0 -57 -29.5 -100.5t-83.5 -67.5t-125 -24q-111 0 -173.5 50t-62.5 138q0 71 46 131t152 124q-2 16 -2 23q0 49 28 87.5t81 62.5h-285v121h438v-120q-132 -52 -132 -137q0 -31 15.5 -55.5zM339.5 128
q26.5 18 26.5 51q0 29 -15.5 54t-47.5 62q-20 22 -35 42q-104 -76 -104 -151q0 -37 25.5 -56.5t75.5 -19.5q48 0 74.5 18z" />
    <glyph glyph-name="uni0241" unicode="&#x241;" horiz-adv-x="564" 
d="M468.5 353.5q-49.5 -72.5 -141.5 -114.5v-239h-138v315q182 60 182 196q0 97 -98 97q-39 0 -79.5 -15.5t-88.5 -49.5l-69 98q48 46 113.5 71t137.5 25q110 0 170.5 -57t60.5 -161q0 -93 -49.5 -165.5z" />
    <glyph glyph-name="uni1E20" unicode="&#x1e20;" horiz-adv-x="668" 
d="M525 806h-328v92h328v-92zM610 415v-370q-41 -28 -99.5 -43t-121.5 -15q-163 0 -252 98t-89 277t89 277t252 98q64 0 120 -15t94 -42l-40 -110q-94 44 -176 44q-197 0 -197 -252t199 -252q40 0 83 10v173h-119v122h257z" />
    <glyph glyph-name="uniA7A0" unicode="&#xa7a0;" horiz-adv-x="695" 
d="M687 466l-476 -134q11 -222 198 -222q40 0 83 10v103h-119v112h257v-290q-41 -28 -99.5 -43t-121.5 -15q-146 0 -233 79.5t-104 226.5l-82 -23h-12v77l90 25q3 174 92 269.5t249 95.5q64 0 120 -15t94 -42l-40 -110q-94 44 -176 44q-175 0 -195 -201l463 130h12v-77z" />
    <glyph glyph-name="uniA7AC" unicode="&#xa7ac;" horiz-adv-x="682" 
d="M604 724v-701q0 -116 -72 -179.5t-206 -63.5q-61 0 -121.5 13t-105.5 36l38 107q84 -37 174 -37q79 0 117 30.5t38 93.5v84q-62 -90 -179 -90q-114 0 -176.5 94t-62.5 265q0 172 62.5 266.5t177.5 94.5q54 0 101 -21t77 -58v66h138zM402.5 158.5q31.5 15.5 63.5 50.5v341
q-26 29 -64 47t-75 18q-137 0 -137 -234q0 -238 141 -238q40 0 71.5 15.5z" />
    <glyph glyph-name="uni01E4" unicode="&#x1e4;" horiz-adv-x="666" 
d="M678 155h-68v-110q-41 -28 -99.5 -43t-121.5 -15q-163 0 -252 98t-89 277t89 277t252 98q64 0 120 -15t94 -42l-40 -110q-94 44 -176 44q-197 0 -197 -252t199 -252q40 0 83 10v35h-119v98h119v40h-119v122h257v-162h68v-98z" />
    <glyph glyph-name="uniA77E" unicode="&#xa77e;" horiz-adv-x="530" 
d="M278 183.5q-28 -38.5 -81 -62.5h285v-121h-438v120q132 53 132 137q0 31 -15.5 55.5t-48.5 61.5q-41 45 -62.5 82t-21.5 89q0 57 29.5 100.5t83.5 67.5t125 24q111 0 173.5 -50t62.5 -138q0 -71 -46 -131t-152 -124q2 -16 2 -23q0 -49 -28 -87.5zM179.5 491
q15.5 -25 47.5 -62q20 -22 35 -42q104 76 104 151q0 37 -25.5 56.5t-75.5 19.5q-48 0 -74.5 -18t-26.5 -51q0 -29 15.5 -54z" />
    <glyph glyph-name="H" unicode="H" horiz-adv-x="704" 
d="M626 724v-724h-138v306h-272v-306h-138v724h138v-295h272v295h138z" />
    <glyph glyph-name="H.c2sc" horiz-adv-x="661" 
d="M585 613v-613h-136v250h-237v-250h-136v613h136v-242h237v242h136z" />
    <glyph glyph-name="uni2C75" unicode="&#x2c75;" horiz-adv-x="572" 
d="M552 306h-336v-306h-138v724h138v-295h336v-123z" />
    <glyph glyph-name="Hbar" unicode="&#x126;" horiz-adv-x="704" 
d="M689 520h-63v-520h-138v306h-272v-306h-138v520h-63v102h63v102h138v-102h272v102h138v-102h63v-102zM488 520h-272v-91h272v91z" />
    <glyph glyph-name="uni1E2A" unicode="&#x1e2a;" horiz-adv-x="704" 
d="M626 724v-724h-138v306h-272v-306h-138v724h138v-295h272v295h138zM235 -183.5q-42 43.5 -45 126.5h78q10 -73 85 -73q76 0 86 73h75q-3 -83 -45 -126.5t-117 -43.5t-117 43.5z" />
    <glyph glyph-name="uni021E" unicode="&#x21e;" horiz-adv-x="704" 
d="M287 781l-117 133v12h101l83 -76l82 76h98v-12l-117 -133h-130zM626 724v-724h-138v306h-272v-306h-138v724h138v-295h272v295h138z" />
    <glyph glyph-name="uni1E28" unicode="&#x1e28;" horiz-adv-x="704" 
d="M626 724v-724h-138v306h-272v-306h-138v724h138v-295h272v295h138zM256.5 -71.5q29.5 -22.5 29.5 -63.5q0 -50 -36 -77.5t-102 -27.5q-68 0 -122 26l21 62q53 -17 86 -17q49 0 49 31q0 29 -43 29q-21 0 -39 -7l-30 34l42 102l88 -6l-48 -65q14 2 21 2q54 0 83.5 -22.5z
" />
    <glyph glyph-name="Hcircumflex" unicode="&#x124;" horiz-adv-x="704" 
d="M268 781h-98v12l117 133h130l117 -133v-12h-101l-83 76zM626 724v-724h-138v306h-272v-306h-138v724h138v-295h272v295h138z" />
    <glyph glyph-name="Hcircumflex.c2sc" horiz-adv-x="661" 
d="M585 613v-613h-136v250h-237v-250h-136v613h136v-242h237v242h136zM495 684v-10h-95l-71 88l-70 -88h-92v10l102 159h124z" />
    <glyph glyph-name="uni2C67" unicode="&#x2c67;" horiz-adv-x="719" 
d="M711 121v-276h-103l-22 155h-98v306h-272v-306h-138v724h138v-295h272v295h138v-603h85z" />
    <glyph glyph-name="uni1E26" unicode="&#x1e26;" horiz-adv-x="704" 
d="M195 791q-19 19 -19 51q0 34 19 53t53 19t53.5 -19t19.5 -52q0 -34 -19 -52.5t-54 -18.5q-34 0 -53 19zM402 791q-19 19 -19 51q0 34 19 53t53 19t53.5 -19t19.5 -52q0 -34 -19 -52.5t-54 -18.5q-34 0 -53 19zM626 724v-724h-138v306h-272v-306h-138v724h138v-295h272
v295h138z" />
    <glyph glyph-name="uni1E22" unicode="&#x1e22;" horiz-adv-x="704" 
d="M292.5 796.5q-21.5 20.5 -21.5 56.5q0 37 21.5 57.5t59.5 20.5t59.5 -20.5t21.5 -56.5q0 -37 -21.5 -57.5t-59.5 -20.5t-59.5 20.5zM626 724v-724h-138v306h-272v-306h-138v724h138v-295h272v295h138z" />
    <glyph glyph-name="uni1E24" unicode="&#x1e24;" horiz-adv-x="704" 
d="M626 724v-724h-138v306h-272v-306h-138v724h138v-295h272v295h138zM292.5 -207.5q-21.5 20.5 -21.5 56.5q0 37 21.5 57.5t59.5 20.5t59.5 -20.5t21.5 -56.5q0 -37 -21.5 -57.5t-59.5 -20.5t-59.5 20.5z" />
    <glyph glyph-name="uniA726" unicode="&#xa726;" horiz-adv-x="704" 
d="M626 724v-724v-30q0 -91 -52 -140.5t-147 -49.5q-96 0 -160 52l48 102q60 -33 105 -33q35 0 51.5 19.5t16.5 59.5v237v89h-272v-306h-138v724h138v-295h272v295h138z" />
    <glyph glyph-name="uniA7AA" unicode="&#xa7aa;" horiz-adv-x="785" 
d="M707 724v-724h-138v306h-272v-306h-138v600q-29 0 -43.5 -14t-14.5 -45q0 -15 3 -48h-122q-4 21 -4 47q0 88 47.5 136t133.5 48h138v-295h272v295h138z" />
    <glyph glyph-name="uniA78D" unicode="&#xa78d;" horiz-adv-x="674" 
d="M596 724v-724h-138v296h-318h-72v428h138v-305h252v305h138z" />
    <glyph glyph-name="uni01F6" unicode="&#x1f6;" horiz-adv-x="1011" 
d="M939 272q0 -136 -60 -210.5t-170 -74.5q-104 0 -162.5 55.5t-58.5 155.5v108h-272v-306h-138v724h138v-295h272v295h138v-513q0 -103 83 -103q95 0 95 161q0 74 -8.5 130.5t-31.5 146.5h137q38 -143 38 -274z" />
    <glyph glyph-name="I" unicode="I" horiz-adv-x="298" 
d="M80 724h138v-724h-138v724z" />
    <glyph glyph-name="I.c2sc" horiz-adv-x="292" 
d="M78 613h136v-613h-136v613z" />
    <glyph glyph-name="IJ" unicode="&#x132;" horiz-adv-x="691" 
d="M78 724h138v-724h-138v724zM351 -4q-38 9 -68 25l43 114q57 -24 95 -24q72 0 72 86v527h138v-537q0 -95 -53 -147.5t-150 -52.5q-39 0 -77 9z" />
    <glyph glyph-name="Iacute" unicode="&#xcd;" horiz-adv-x="298" 
d="M63 793l145 133h151v-12l-182 -133h-114v12zM80 724h138v-724h-138v724z" />
    <glyph glyph-name="Iacute.c2sc" horiz-adv-x="292" 
d="M78 613h136v-613h-136v613zM72 684l95 159h141v-10l-132 -159h-104v10z" />
    <glyph glyph-name="Ibreve" unicode="&#x12c;" horiz-adv-x="298" 
d="M32 823.5q-42 43.5 -45 126.5h78q10 -73 85 -73q76 0 86 73h75q-3 -83 -45 -126.5t-117 -43.5t-117 43.5zM80 724h138v-724h-138v724z" />
    <glyph glyph-name="Ibreve.c2sc" horiz-adv-x="292" 
d="M78 613h136v-613h-136v613zM29 712.5q-42 43.5 -45 126.5h78q10 -73 85 -73q76 0 86 73h75q-3 -83 -45 -126.5t-117 -43.5t-117 43.5z" />
    <glyph glyph-name="uni01CF" unicode="&#x1cf;" horiz-adv-x="298" 
d="M331 926v-12l-117 -133h-130l-117 133v12h101l83 -76l82 76h98zM80 724h138v-724h-138v724z" />
    <glyph glyph-name="Icircumflex" unicode="&#xce;" horiz-adv-x="298" 
d="M331 793v-12h-101l-83 76l-82 -76h-98v12l117 133h130zM80 724h138v-724h-138v724z" />
    <glyph glyph-name="Icircumflex.c2sc" horiz-adv-x="292" 
d="M78 613h136v-613h-136v613zM310 684v-10h-95l-71 88l-70 -88h-92v10l102 159h124z" />
    <glyph glyph-name="uni0208" unicode="&#x208;" horiz-adv-x="298" 
d="M38 781l-120 133v12h127l85 -133v-12h-92zM210 781l-119 133v12h125l84 -133v-12h-90zM80 724h138v-724h-138v724z" />
    <glyph glyph-name="Idieresis" unicode="&#xcf;" horiz-adv-x="298" 
d="M-8 791q-19 19 -19 51q0 34 19 53t53 19t53.5 -19t19.5 -52q0 -34 -19 -52.5t-54 -18.5q-34 0 -53 19zM199 791q-19 19 -19 51q0 34 19 53t53 19t53.5 -19t19.5 -52q0 -34 -19 -52.5t-54 -18.5q-34 0 -53 19zM80 724h138v-724h-138v724z" />
    <glyph glyph-name="Idieresis.c2sc" horiz-adv-x="292" 
d="M-1 692q-19 19 -19 51q0 34 18.5 53t52.5 19q33 0 51.5 -19t18.5 -52q0 -34 -18.5 -52.5t-51.5 -18.5t-52 19zM190 692q-19 19 -19 51q0 34 18.5 53t52.5 19q33 0 51.5 -19t18.5 -52q0 -34 -18.5 -52.5t-51.5 -18.5t-52 19zM78 613h136v-613h-136v613z" />
    <glyph glyph-name="uni1E2E" unicode="&#x1e2e;" horiz-adv-x="298" 
d="M100 920l73 127h119v-10l-102 -127h-90v10zM8 780q-18 18 -18 49q0 32 18 49.5t50 17.5q31 0 49 -18t18 -48q0 -33 -17.5 -50.5t-49.5 -17.5t-50 18zM191 780q-18 18 -18 49q0 32 18 49.5t50 17.5q31 0 49 -18t18 -48q0 -33 -17.5 -50.5t-49.5 -17.5t-50 18zM80 724h138
v-724h-138v724z" />
    <glyph glyph-name="Idotaccent" unicode="&#x130;" horiz-adv-x="298" 
d="M89.5 796.5q-21.5 20.5 -21.5 56.5q0 37 21.5 57.5t59.5 20.5t59.5 -20.5t21.5 -56.5q0 -37 -21.5 -57.5t-59.5 -20.5t-59.5 20.5zM80 724h138v-724h-138v724z" />
    <glyph glyph-name="Idotaccent.c2sc" horiz-adv-x="292" 
d="M78 613h136v-613h-136v613zM86.5 696.5q-21.5 20.5 -21.5 56.5q0 37 21.5 57.5t59.5 20.5t59.5 -20.5t21.5 -56.5q0 -37 -21.5 -57.5t-59.5 -20.5t-59.5 20.5z" />
    <glyph glyph-name="uni1ECA" unicode="&#x1eca;" horiz-adv-x="298" 
d="M80 724h138v-724h-138v724zM89.5 -207.5q-21.5 20.5 -21.5 56.5q0 37 21.5 57.5t59.5 20.5t59.5 -20.5t21.5 -56.5q0 -37 -21.5 -57.5t-59.5 -20.5t-59.5 20.5z" />
    <glyph glyph-name="Igrave" unicode="&#xcc;" horiz-adv-x="298" 
d="M-53 914v12h151l136 -133v-12h-114zM80 724h138v-724h-138v724z" />
    <glyph glyph-name="Igrave.c2sc" horiz-adv-x="292" 
d="M78 613h136v-613h-136v613zM-4 833v10h141l87 -159v-10h-104z" />
    <glyph glyph-name="uni1EC8" unicode="&#x1ec8;" horiz-adv-x="298" 
d="M100 803q0 19 9.5 29t26.5 18q10 4 15 8.5t5 10.5q0 12 -23 12q-28 0 -68 -20l-30 64q25 16 58 25t68 9q52 0 80.5 -20t28.5 -56q0 -28 -13.5 -41t-36.5 -21q-14 -6 -20 -10.5t-6 -12.5l2 -17h-94q-2 12 -2 22zM80 724h138v-724h-138v724z" />
    <glyph glyph-name="uni020A" unicode="&#x20a;" horiz-adv-x="298" 
d="M266 917.5q42 -43.5 45 -126.5h-78q-10 73 -85 73q-76 0 -86 -73h-75q3 83 45 126.5t117 43.5t117 -43.5zM80 724h138v-724h-138v724z" />
    <glyph glyph-name="Imacron" unicode="&#x12a;" horiz-adv-x="298" 
d="M-15 898h328v-92h-328v92zM80 724h138v-724h-138v724z" />
    <glyph glyph-name="Imacron.c2sc" horiz-adv-x="292" 
d="M16 787h260v-92h-260v92zM78 613h136v-613h-136v613z" />
    <glyph glyph-name="Iogonek" unicode="&#x12e;" horiz-adv-x="298" 
d="M282 -199q-24 -15 -55 -23t-63 -8q-59 0 -92 27t-33 76q0 38 20 71t57 56h-36v724h138v-724q-68 -50 -68 -102q0 -40 46 -40q27 0 56 13z" />
    <glyph glyph-name="Iogonek.c2sc" horiz-adv-x="292" 
d="M278 -199q-24 -15 -55 -23t-63 -8q-59 0 -92 27t-33 76q0 38 20 71t57 56h-34v613h136v-613q-68 -50 -68 -102q0 -40 46 -40q27 0 56 13z" />
    <glyph glyph-name="uni0196" unicode="&#x196;" horiz-adv-x="316" 
d="M78 135v589h138v-559q0 -26 9 -37.5t29 -11.5q16 0 35 3l9 -118q-39 -9 -81 -9q-139 0 -139 143z" />
    <glyph glyph-name="uniA76C" unicode="&#xa76c;" horiz-adv-x="527" 
d="M474 695.5q45 -41.5 45 -117.5q0 -80 -49 -123.5t-139 -43.5h-21v-219v-4q0 -95 -55.5 -147.5t-155.5 -52.5q-34 0 -61 5v118q29 -4 61 -4q76 0 76 81v41v182h-133v111h133v54q0 77 45 119t127 42t127 -41.5zM388 575q0 45 -39 45t-39 -44v-56h21q57 0 57 55z" />
    <glyph glyph-name="uni0197" unicode="&#x197;" horiz-adv-x="330" 
d="M320 320h-86v-320h-138v320h-86v105h86v299h138v-299h86v-105z" />
    <glyph glyph-name="Itilde" unicode="&#x128;" horiz-adv-x="298" 
d="M162.5 794.5q-16.5 9.5 -32.5 26.5q-10 11 -18.5 16.5t-19.5 5.5q-35 0 -41 -56h-74q0 71 30 110.5t84 39.5q28 0 44.5 -9.5t32.5 -26.5q10 -11 18.5 -16.5t19.5 -5.5q35 0 41 56h74q0 -71 -30 -110.5t-84 -39.5q-28 0 -44.5 9.5zM80 724h138v-724h-138v724z" />
    <glyph glyph-name="Itilde.c2sc" horiz-adv-x="292" 
d="M159.5 683.5q-16.5 9.5 -32.5 26.5q-10 11 -18.5 16.5t-19.5 5.5q-35 0 -41 -56h-74q0 71 30 110.5t84 39.5q28 0 44.5 -9.5t32.5 -26.5q10 -11 18.5 -16.5t19.5 -5.5q35 0 41 56h74q0 -71 -30 -110.5t-84 -39.5q-28 0 -44.5 9.5zM78 613h136v-613h-136v613z" />
    <glyph glyph-name="uni1E2C" unicode="&#x1e2c;" horiz-adv-x="298" 
d="M80 724h138v-724h-138v724zM173.5 -221q-19.5 9 -45.5 26q-15 11 -26.5 16.5t-23.5 5.5q-33 0 -39 -55h-75q1 71 31 110.5t83 39.5q27 0 46.5 -9t45.5 -26q15 -11 26.5 -16.5t23.5 -5.5q33 0 39 55h75q-1 -71 -31 -110.5t-83 -39.5q-27 0 -46.5 9z" />
    <glyph glyph-name="J" unicode="J" horiz-adv-x="472" 
d="M79 1.5q-47 14.5 -79 41.5l49 105q68 -37 124 -37q88 0 88 86v527h138v-537q0 -95 -57.5 -147.5t-161.5 -52.5q-54 0 -101 14.5z" />
    <glyph glyph-name="J.c2sc" horiz-adv-x="443" 
d="M72 2q-44 13 -74 38l48 102q63 -31 114 -31q76 0 76 61v441h136v-453q0 -82 -53.5 -126.5t-151.5 -44.5q-51 0 -95 13z" />
    <glyph glyph-name="Jcircumflex" unicode="&#x134;" horiz-adv-x="472" 
d="M512 793v-12h-101l-83 76l-82 -76h-98v12l117 133h130zM261 724h138v-537q0 -95 -57.5 -147.5t-161.5 -52.5q-54 0 -101 14.5t-79 41.5l49 105q68 -37 124 -37q88 0 88 86v527z" />
    <glyph glyph-name="Jcircumflex.c2sc" horiz-adv-x="443" 
d="M72 2q-44 13 -74 38l48 102q63 -31 114 -31q76 0 76 61v441h136v-453q0 -82 -53.5 -126.5t-151.5 -44.5q-51 0 -95 13zM468 684v-10h-95l-71 88l-70 -88h-92v10l102 159h124z" />
    <glyph glyph-name="uni0248" unicode="&#x248;" horiz-adv-x="488" 
d="M485 320h-86v-133q0 -95 -57.5 -147.5t-161.5 -52.5q-54 0 -101 14.5t-79 41.5l49 105q68 -37 124 -37q88 0 88 86v123h-116v105h116v299h138v-299h86v-105z" />
    <glyph glyph-name="K" unicode="K" horiz-adv-x="636" 
d="M293 301l-77 -96v-205h-138v724h138v-341l255 341h163l-254 -315l270 -409h-163z" />
    <glyph glyph-name="K.c2sc" horiz-adv-x="594" 
d="M282 249l-70 -82v-167h-136v613h136v-276l223 276h160l-226 -263l241 -350h-160z" />
    <glyph glyph-name="K.salt" horiz-adv-x="636" 
d="M293 301l-77 -96v-205h-138v724h138v-341l255 341h163l-254 -315l270 -409h-163z" />
    <glyph glyph-name="K.ss05" horiz-adv-x="636" 
d="M293 301l-77 -96v-205h-138v724h138v-341l255 341h163l-254 -315l270 -409h-163z" />
    <glyph glyph-name="uni1E30" unicode="&#x1e30;" horiz-adv-x="636" 
d="M359 781h-114v12l145 133h151v-12zM293 301l-77 -96v-205h-138v724h138v-341l255 341h163l-254 -315l270 -409h-163z" />
    <glyph glyph-name="uni01E8" unicode="&#x1e8;" horiz-adv-x="636" 
d="M266 781l-117 133v12h101l83 -76l82 76h98v-12l-117 -133h-130zM293 301l-77 -96v-205h-138v724h138v-341l255 341h163l-254 -315l270 -409h-163z" />
    <glyph glyph-name="Kcommaaccent" unicode="&#x136;" horiz-adv-x="636" 
d="M293 301l-77 -96v-205h-138v724h138v-341l255 341h163l-254 -315l270 -409h-163zM241 -238q25 27 35 54.5t10 67.5q0 24 -4 50h124q4 -26 4 -49q0 -48 -28.5 -90t-91.5 -86z" />
    <glyph glyph-name="Kcommaaccent.c2sc" horiz-adv-x="594" 
d="M282 249l-70 -82v-167h-136v613h136v-276l223 276h160l-226 -263l241 -350h-160zM221 -238q25 27 35 54.5t10 67.5q0 24 -4 50h124q4 -26 4 -49q0 -48 -28.5 -90t-91.5 -86z" />
    <glyph glyph-name="uni2C69" unicode="&#x2c69;" horiz-adv-x="641" 
d="M655 121v-276h-103l-22 155h-43l-194 301l-77 -96v-205h-138v724h138v-341l255 341h163l-254 -315l190 -288h85z" />
    <glyph glyph-name="uniA742" unicode="&#xa742;" horiz-adv-x="636" 
d="M487 0l-85 132l-87 -64h-12v84l58 43l-68 106l-77 -96v-205h-138v724h138v-341l255 341h163l-254 -315l89 -135l113 83h12v-84l-84 -62l140 -211h-163z" />
    <glyph glyph-name="uni1E32" unicode="&#x1e32;" horiz-adv-x="636" 
d="M293 301l-77 -96v-205h-138v724h138v-341l255 341h163l-254 -315l270 -409h-163zM286.5 -207.5q-21.5 20.5 -21.5 56.5q0 37 21.5 57.5t59.5 20.5t59.5 -20.5t21.5 -56.5q0 -37 -21.5 -57.5t-59.5 -20.5t-59.5 20.5z" />
    <glyph glyph-name="uni0198" unicode="&#x198;" horiz-adv-x="635" 
d="M378 412l272 -412h-163l-195 302l-76 -96v-206h-138v724h138v-340l178 248q43 60 81.5 84.5t90.5 24.5q41 0 70 -14.5t53 -45.5l-73 -89q-25 24 -51 24q-16 0 -29.5 -10t-34.5 -37z" />
    <glyph glyph-name="uni1E34" unicode="&#x1e34;" horiz-adv-x="636" 
d="M293 301l-77 -96v-205h-138v724h138v-341l255 341h163l-254 -315l270 -409h-163zM182 -96h328v-92h-328v92z" />
    <glyph glyph-name="uniA7A2" unicode="&#xa7a2;" horiz-adv-x="651" 
d="M395 165l-164 -40v-125h-138v92l-73 -18h-12v77l85 21v552h138v-341l255 341h163l-254 -315l93 -141l145 35h12v-77l-111 -27l131 -199h-163zM351 234l-43 67l-77 -96z" />
    <glyph glyph-name="uniA740" unicode="&#xa740;" horiz-adv-x="636" 
d="M293 301l-77 -96v-205h-138v547h-63v102h63v75h138v-75h80v-102h-80v-164l255 341h163l-254 -315l270 -409h-163z" />
    <glyph glyph-name="uniA744" unicode="&#xa744;" horiz-adv-x="636" 
d="M487 0l-85 132l-87 -64h-12v84l58 43l-68 106l-77 -96v-205h-138v547h-63v102h63v75h138v-75h80v-102h-80v-164l255 341h163l-254 -315l89 -135l113 83h12v-84l-84 -62l140 -211h-163z" />
    <glyph glyph-name="uniA7B0" unicode="&#xa7b0;" horiz-adv-x="636" 
d="M558 724v-724h-138v341l-255 -341h-163l254 315l-270 409h163l194 -301l77 96v205h138z" />
    <glyph glyph-name="L" unicode="L" horiz-adv-x="531" 
d="M507 124v-124h-429v724h138v-600h291z" />
    <glyph glyph-name="L.c2sc" horiz-adv-x="496" 
d="M474 122v-122h-398v613h136v-491h262z" />
    <glyph glyph-name="uni01C7" unicode="&#x1c7;" horiz-adv-x="987" 
d="M216 124h291v-124h-429v724h138v-600zM914 724v-537q0 -95 -53 -147.5t-150 -52.5q-46 0 -87 10.5t-72 30.5l49 110q57 -27 103 -27q72 0 72 86v527h138z" />
    <glyph glyph-name="uni1EFA" unicode="&#x1efa;" horiz-adv-x="759" 
d="M735 0h-429h-228v724h138v-600h90v600h138v-600h291v-124z" />
    <glyph glyph-name="Lacute" unicode="&#x139;" horiz-adv-x="531" 
d="M205 781h-114v12l145 133h151v-12zM507 124v-124h-429v724h138v-600h291z" />
    <glyph glyph-name="Lacute.c2sc" horiz-adv-x="496" 
d="M474 122v-122h-398v613h136v-491h262zM89 684l95 159h141v-10l-132 -159h-104v10z" />
    <glyph glyph-name="uni023D" unicode="&#x23d;" horiz-adv-x="532" 
d="M508 124v-124h-429v314h-64v105h64v305h138v-305h157v-105h-157v-190h291z" />
    <glyph glyph-name="uniA7AD" unicode="&#xa7ad;" horiz-adv-x="619" 
d="M595 124v-124h-429v243q-7 -1 -19 -1q-66 0 -102.5 35.5t-36.5 99.5t35.5 99t100.5 35q8 0 22 -2v215h138v-350l103 37l29 -83l-121 -44l-11 -4v-156h291zM166 337v77q-14 2 -20 2q-39 0 -39 -40t40 -40q12 0 19 1z" />
    <glyph glyph-name="uniA746" unicode="&#xa746;" horiz-adv-x="639" 
d="M615 124v-124h-429v313h-138v411h138v-293h138v-307h291z" />
    <glyph glyph-name="Lcaron" unicode="&#x13d;" horiz-adv-x="531" 
d="M399 540h-78v230h112v-10zM507 124v-124h-429v724h138v-600h291z" />
    <glyph glyph-name="Lcaron.c2sc" horiz-adv-x="496" 
d="M385 455h-78v230h112v-10zM474 122v-122h-398v613h136v-491h262z" />
    <glyph glyph-name="uni1E3C" unicode="&#x1e3c;" horiz-adv-x="531" 
d="M507 124v-124h-429v724h138v-600h291zM483 -217v-12h-101l-83 76l-82 -76h-98v12l117 133h130z" />
    <glyph glyph-name="Lcommaaccent" unicode="&#x13b;" horiz-adv-x="531" 
d="M507 124v-124h-429v724h138v-600h291zM196 -238q25 27 35 54.5t10 67.5q0 24 -4 50h124q4 -26 4 -49q0 -48 -28.5 -90t-91.5 -86z" />
    <glyph glyph-name="Lcommaaccent.c2sc" horiz-adv-x="496" 
d="M474 122v-122h-398v613h136v-491h262zM179 -238q25 27 35 54.5t10 67.5q0 24 -4 50h124q4 -26 4 -49q0 -48 -28.5 -90t-91.5 -86z" />
    <glyph glyph-name="Ldot" unicode="&#x13f;" horiz-adv-x="531" 
d="M507 124v-124h-429v724h138v-600h291zM346.5 355.5q-21.5 20.5 -21.5 56.5q0 37 21.5 57.5t59.5 20.5t59.5 -20.5t21.5 -56.5q0 -37 -21.5 -57.5t-59.5 -20.5t-59.5 20.5z" />
    <glyph glyph-name="Ldot.c2sc" horiz-adv-x="496" 
d="M474 122v-122h-398v613h136v-491h262zM326.5 307.5q-21.5 20.5 -21.5 56.5q0 37 21.5 57.5t59.5 20.5t59.5 -20.5t21.5 -56.5q0 -37 -21.5 -57.5t-59.5 -20.5t-59.5 20.5z" />
    <glyph glyph-name="uni1E36" unicode="&#x1e36;" horiz-adv-x="531" 
d="M507 124v-124h-429v724h138v-600h291zM241.5 -207.5q-21.5 20.5 -21.5 56.5q0 37 21.5 57.5t59.5 20.5t59.5 -20.5t21.5 -56.5q0 -37 -21.5 -57.5t-59.5 -20.5t-59.5 20.5z" />
    <glyph glyph-name="uni1E38" unicode="&#x1e38;" horiz-adv-x="531" 
d="M341 806h-328v92h328v-92zM507 124v-124h-429v724h138v-600h291zM360.5 -93.5q21.5 -20.5 21.5 -56.5q0 -37 -21.5 -57.5t-59.5 -20.5t-59.5 20.5t-21.5 56.5q0 37 21.5 57.5t59.5 20.5t59.5 -20.5z" />
    <glyph glyph-name="uni2C60" unicode="&#x2c60;" horiz-adv-x="531" 
d="M507 124v-124h-429v240h-63v103h63v70h-63v103h63v208h138v-208h158v-103h-158v-70h158v-103h-158v-116h291z" />
    <glyph glyph-name="uniA748" unicode="&#xa748;" horiz-adv-x="531" 
d="M507 124v-124h-429v519h-63v105h63v100h138v-100h158v-105h-158v-395h291z" />
    <glyph glyph-name="uni01C8" unicode="&#x1c8;" horiz-adv-x="815" 
d="M507 124v-124h-429v724h138v-600h291zM462 -112q59 20 89.5 40.5t42 48.5t11.5 76v493h136v-497q0 -77 -21 -126t-71 -82.5t-142 -63.5zM613.5 637.5q-21.5 20.5 -21.5 56.5q0 37 21.5 57.5t59.5 20.5t59.5 -20.5t21.5 -56.5q0 -37 -21.5 -57.5t-59.5 -20.5t-59.5 20.5z
" />
    <glyph glyph-name="uni1E3A" unicode="&#x1e3a;" horiz-adv-x="531" 
d="M507 124v-124h-429v724h138v-600h291zM137 -96h328v-92h-328v92z" />
    <glyph glyph-name="uni2C62" unicode="&#x2c62;" horiz-adv-x="531" 
d="M507 124v-124h-429v383q-33 0 -39 -55h-75q1 71 31 110.5t83 39.5v246h138v-303h4q33 0 39 55h75q-1 -71 -31 -110.5t-83 -39.5h-4v-202h291z" />
    <glyph glyph-name="Lslash" unicode="&#x141;" horiz-adv-x="535" 
d="M511 124v-124h-429v232l-48 -29h-10v108l58 32v381h138v-304l182 106h10v-108l-192 -107v-187h291z" />
    <glyph glyph-name="uniA780" unicode="&#xa780;" horiz-adv-x="531" 
d="M453 724v-724h-138v600h-291v124h429z" />
    <glyph glyph-name="M" unicode="M" horiz-adv-x="855" 
d="M777 724v-724h-134v503l-144 -362h-144l-145 362v-503h-132v724h166l184 -456l181 456h168z" />
    <glyph glyph-name="M.c2sc" horiz-adv-x="801" 
d="M725 613v-613h-132v398l-122 -282h-142l-123 282v-398h-130v613h164l161 -378l159 378h165z" />
    <glyph glyph-name="uni1E3E" unicode="&#x1e3e;" horiz-adv-x="855" 
d="M453 781h-114v12l145 133h151v-12zM777 724v-724h-134v503l-144 -362h-144l-145 362v-503h-132v724h166l184 -456l181 456h168z" />
    <glyph glyph-name="uni1E40" unicode="&#x1e40;" horiz-adv-x="855" 
d="M365.5 796.5q-21.5 20.5 -21.5 56.5q0 37 21.5 57.5t59.5 20.5t59.5 -20.5t21.5 -56.5q0 -37 -21.5 -57.5t-59.5 -20.5t-59.5 20.5zM777 724v-724h-134v503l-144 -362h-144l-145 362v-503h-132v724h166l184 -456l181 456h168z" />
    <glyph glyph-name="uni1E42" unicode="&#x1e42;" horiz-adv-x="855" 
d="M777 724v-724h-134v503l-144 -362h-144l-145 362v-503h-132v724h166l184 -456l181 456h168zM365.5 -207.5q-21.5 20.5 -21.5 56.5q0 37 21.5 57.5t59.5 20.5t59.5 -20.5t21.5 -56.5q0 -37 -21.5 -57.5t-59.5 -20.5t-59.5 20.5z" />
    <glyph glyph-name="uni2C6E" unicode="&#x2c6e;" horiz-adv-x="855" 
d="M777 724v-724v-58q0 -160 -164 -160q-47 0 -84 15l20 115q27 -7 55 -7q20 0 29.5 11t9.5 36v214v337l-144 -362h-144l-145 362v-503h-132v724h166l184 -456l181 456h168z" />
    <glyph glyph-name="uni019C" unicode="&#x19c;" horiz-adv-x="896" 
d="M818 724v-724h-124v69q-64 -82 -159 -82q-51 0 -87 22t-54 64q-68 -86 -160 -86q-73 0 -114.5 47t-41.5 132v558h138v-538q0 -73 71 -73q23 0 44.5 9t45.5 28v16v558h138v-538q0 -73 73 -73q46 0 92 36v575h138z" />
    <glyph glyph-name="N" unicode="N" horiz-adv-x="726" 
d="M648 724v-724h-133l-301 491v-491h-136v724h133l301 -489v489h136z" />
    <glyph glyph-name="N.c2sc" horiz-adv-x="682" 
d="M606 613v-613h-132l-264 383v-383h-134v613h131l265 -384v384h134z" />
    <glyph glyph-name="uni01CA" unicode="&#x1ca;" horiz-adv-x="1132" 
d="M512 724h136v-724h-133l-301 491v-491h-136v724h133l301 -489v489zM1059 724v-537q0 -95 -53 -147.5t-150 -52.5q-46 0 -87 10.5t-72 30.5l49 110q57 -27 103 -27q72 0 72 86v527h138z" />
    <glyph glyph-name="Nacute" unicode="&#x143;" horiz-adv-x="726" 
d="M391 781h-114v12l145 133h151v-12zM648 724v-724h-133l-301 491v-491h-136v724h133l301 -489v489h136z" />
    <glyph glyph-name="Nacute.c2sc" horiz-adv-x="682" 
d="M606 613v-613h-132l-264 383v-383h-134v613h131l265 -384v384h134zM267 684l95 159h141v-10l-132 -159h-104v10z" />
    <glyph glyph-name="Ncaron" unicode="&#x147;" horiz-adv-x="726" 
d="M298 781l-117 133v12h101l83 -76l82 76h98v-12l-117 -133h-130zM648 724v-724h-133l-301 491v-491h-136v724h133l301 -489v489h136z" />
    <glyph glyph-name="Ncaron.c2sc" horiz-adv-x="682" 
d="M606 613v-613h-132l-264 383v-383h-134v613h131l265 -384v384h134zM505 843v-10l-102 -159h-124l-102 159v10h95l70 -88l71 88h92z" />
    <glyph glyph-name="uni1E4A" unicode="&#x1e4a;" horiz-adv-x="726" 
d="M648 724v-724h-133l-301 491v-491h-136v724h133l301 -489v489h136zM545 -217v-12h-101l-83 76l-82 -76h-98v12l117 133h130z" />
    <glyph glyph-name="Ncommaaccent" unicode="&#x145;" horiz-adv-x="726" 
d="M648 724v-724h-133l-301 491v-491h-136v724h133l301 -489v489h136zM258 -238q25 27 35 54.5t10 67.5q0 24 -4 50h124q4 -26 4 -49q0 -48 -28.5 -90t-91.5 -86z" />
    <glyph glyph-name="Ncommaaccent.c2sc" horiz-adv-x="682" 
d="M606 613v-613h-132l-264 383v-383h-134v613h131l265 -384v384h134zM236 -238q25 27 35 54.5t10 67.5q0 24 -4 50h124q4 -26 4 -49q0 -48 -28.5 -90t-91.5 -86z" />
    <glyph glyph-name="uniA790" unicode="&#xa790;" horiz-adv-x="741" 
d="M733 121v-276h-103l-22 155h-93l-301 491v-491h-136v724h133l301 -489v489h136v-603h85z" />
    <glyph glyph-name="uni1E44" unicode="&#x1e44;" horiz-adv-x="726" 
d="M303.5 796.5q-21.5 20.5 -21.5 56.5q0 37 21.5 57.5t59.5 20.5t59.5 -20.5t21.5 -56.5q0 -37 -21.5 -57.5t-59.5 -20.5t-59.5 20.5zM648 724v-724h-133l-301 491v-491h-136v724h133l301 -489v489h136z" />
    <glyph glyph-name="uni1E46" unicode="&#x1e46;" horiz-adv-x="726" 
d="M648 724v-724h-133l-301 491v-491h-136v724h133l301 -489v489h136zM303.5 -207.5q-21.5 20.5 -21.5 56.5q0 37 21.5 57.5t59.5 20.5t59.5 -20.5t21.5 -56.5q0 -37 -21.5 -57.5t-59.5 -20.5t-59.5 20.5z" />
    <glyph glyph-name="uni01F8" unicode="&#x1f8;" horiz-adv-x="726" 
d="M334 781l-173 133v12h151l136 -133v-12h-114zM648 724v-724h-133l-301 491v-491h-136v724h133l301 -489v489h136z" />
    <glyph glyph-name="Eng" unicode="&#x14a;" horiz-adv-x="727" 
d="M648 724v-724v-30q0 -91 -52 -140.5t-147 -49.5q-96 0 -160 52l48 102q60 -33 105 -33q70 0 70 79v25l-298 486v-491h-136v724h133l301 -489v489h136z" />
    <glyph glyph-name="uni019D" unicode="&#x19d;" horiz-adv-x="726" 
d="M648 724v-724h-133l-301 491v-491v-58q0 -160 -165 -160q-46 0 -83 15l20 115q27 -7 54 -7q20 0 29 11t9 36v214v558h133l301 -489v489h136z" />
    <glyph glyph-name="uni01CB" unicode="&#x1cb;" horiz-adv-x="1010" 
d="M648 724v-724h-133l-301 491v-491h-136v724h133l301 -489v489h136zM657 -112q59 20 89.5 40.5t42 48.5t11.5 76v493h136v-497q0 -77 -21 -126t-71 -82.5t-142 -63.5zM808.5 637.5q-21.5 20.5 -21.5 56.5q0 37 21.5 57.5t59.5 20.5t59.5 -20.5t21.5 -56.5
q0 -37 -21.5 -57.5t-59.5 -20.5t-59.5 20.5z" />
    <glyph glyph-name="uni1E48" unicode="&#x1e48;" horiz-adv-x="726" 
d="M648 724v-724h-133l-301 491v-491h-136v724h133l301 -489v489h136zM199 -96h328v-92h-328v92z" />
    <glyph glyph-name="uni0220" unicode="&#x220;" horiz-adv-x="685" 
d="M558 676.5q54 -60.5 54 -170.5v-636h-138v638q0 102 -114 102q-40 0 -74 -13.5t-70 -42.5v-554h-138v724h132v-78q76 91 196 91q98 0 152 -60.5z" />
    <glyph glyph-name="uniA7A4" unicode="&#xa7a4;" horiz-adv-x="756" 
d="M748 418l-85 -20v-398h-133l-198 322l-103 -24v-298h-136v267l-73 -17h-12v75l85 20v379h133l188 -305l113 26v279h136v-248l73 17h12v-75zM291 390l-62 101v-115zM527 367l-71 -16l71 -116v132z" />
    <glyph glyph-name="Ntilde" unicode="&#xd1;" horiz-adv-x="726" 
d="M253 787h-75q1 71 31 110.5t83 39.5q27 0 46.5 -9t45.5 -26q15 -11 26.5 -16.5t23.5 -5.5q33 0 39 55h75q-1 -71 -31 -110.5t-83 -39.5q-27 0 -46.5 9t-45.5 26q-15 11 -26.5 16.5t-23.5 5.5q-33 0 -39 -55zM648 724v-724h-133l-301 491v-491h-136v724h133l301 -489v489
h136z" />
    <glyph glyph-name="Ntilde.c2sc" horiz-adv-x="682" 
d="M606 613v-613h-132l-264 383v-383h-134v613h131l265 -384v384h134zM365.5 683q-19.5 9 -45.5 26q-15 11 -26.5 16.5t-23.5 5.5q-33 0 -39 -55h-75q1 71 31 110.5t83 39.5q27 0 46.5 -9t45.5 -26q15 -11 26.5 -16.5t23.5 -5.5q33 0 39 55h75q-1 -71 -31 -110.5t-83 -39.5
q-27 0 -46.5 9z" />
    <glyph glyph-name="O" unicode="O" horiz-adv-x="716" 
d="M127.5 81.5q-79.5 94.5 -79.5 280.5t79.5 280.5t230.5 94.5t230.5 -94.5t79.5 -280.5t-79.5 -280.5t-230.5 -94.5t-230.5 94.5zM526 362q0 252 -168 252t-168 -252t168 -252t168 252z" />
    <glyph glyph-name="O.c2sc" horiz-adv-x="666" 
d="M119.5 68q-73.5 79 -73.5 238t73.5 238.5t213.5 79.5t213.5 -79.5t73.5 -238.5t-73.5 -238t-213.5 -79t-213.5 79zM444 158.5q37 48.5 37 147.5q0 197 -148 197q-147 0 -147 -197q0 -196 147 -196q74 0 111 48.5z" />
    <glyph glyph-name="O.ss06" horiz-adv-x="716" 
d="M127.5 81.5q-79.5 94.5 -79.5 280.5t79.5 280.5t230.5 94.5t230.5 -94.5t79.5 -280.5t-79.5 -280.5t-230.5 -94.5t-230.5 94.5zM526 362q0 252 -168 252t-168 -252t168 -252t168 252z" />
    <glyph glyph-name="uniA74E" unicode="&#xa74e;" horiz-adv-x="1162" 
d="M1036.5 642.5q77.5 -94.5 77.5 -280.5t-77.5 -280.5t-224.5 -94.5q-77 0 -135 30.5t-96 89.5q-38 -59 -96 -89.5t-135 -30.5q-147 0 -224.5 94.5t-77.5 280.5t77.5 280.5t224.5 94.5q77 0 135 -30.5t96 -89.5q38 59 96 89.5t135 30.5q147 0 224.5 -94.5zM510 362
q0 252 -160 252t-160 -252t160 -252t160 252zM972 362q0 252 -160 252t-160 -252t160 -252t160 252z" />
    <glyph glyph-name="uni0222" unicode="&#x222;" horiz-adv-x="652" 
d="M578 303q33 -48 33 -112q0 -97 -74.5 -150.5t-210.5 -53.5t-210.5 53.5t-74.5 150.5q0 64 33 112t95 72q-54 23 -83 65.5t-29 100.5q0 73 46 124.5t130 71.5l44 -109q-79 -34 -79 -103q0 -90 127 -90q129 0 129 90q0 68 -80 103l45 109q84 -20 130 -71.5t46 -124.5
q0 -58 -29 -100.5t-83 -65.5q62 -24 95 -72zM434 134.5q35 24.5 35 74.5q0 103 -143 103t-143 -103q0 -50 35 -74.5t108 -24.5t108 24.5z" />
    <glyph glyph-name="Oacute" unicode="&#xd3;" horiz-adv-x="716" 
d="M272 793l145 133h151v-12l-182 -133h-114v12zM127.5 81.5q-79.5 94.5 -79.5 280.5t79.5 280.5t230.5 94.5t230.5 -94.5t79.5 -280.5t-79.5 -280.5t-230.5 -94.5t-230.5 94.5zM526 362q0 252 -168 252t-168 -252t168 -252t168 252z" />
    <glyph glyph-name="Oacute.c2sc" horiz-adv-x="666" 
d="M119.5 68q-73.5 79 -73.5 238t73.5 238.5t213.5 79.5t213.5 -79.5t73.5 -238.5t-73.5 -238t-213.5 -79t-213.5 79zM444 158.5q37 48.5 37 147.5q0 197 -148 197q-147 0 -147 -197q0 -196 147 -196q74 0 111 48.5zM259 684l95 159h141v-10l-132 -159h-104v10z" />
    <glyph glyph-name="Obreve" unicode="&#x14e;" horiz-adv-x="716" 
d="M241 823.5q-42 43.5 -45 126.5h78q10 -73 85 -73q76 0 86 73h75q-3 -83 -45 -126.5t-117 -43.5t-117 43.5zM127.5 81.5q-79.5 94.5 -79.5 280.5t79.5 280.5t230.5 94.5t230.5 -94.5t79.5 -280.5t-79.5 -280.5t-230.5 -94.5t-230.5 94.5zM526 362q0 252 -168 252
t-168 -252t168 -252t168 252z" />
    <glyph glyph-name="Obreve.c2sc" horiz-adv-x="666" 
d="M119.5 68q-73.5 79 -73.5 238t73.5 238.5t213.5 79.5t213.5 -79.5t73.5 -238.5t-73.5 -238t-213.5 -79t-213.5 79zM444 158.5q37 48.5 37 147.5q0 197 -148 197q-147 0 -147 -197q0 -196 147 -196q74 0 111 48.5zM216 712.5q-42 43.5 -45 126.5h78q10 -73 85 -73
q76 0 86 73h75q-3 -83 -45 -126.5t-117 -43.5t-117 43.5z" />
    <glyph glyph-name="uni01D1" unicode="&#x1d1;" horiz-adv-x="716" 
d="M293 781l-117 133v12h101l83 -76l82 76h98v-12l-117 -133h-130zM588.5 642.5q79.5 -94.5 79.5 -280.5t-79.5 -280.5t-230.5 -94.5t-230.5 94.5t-79.5 280.5t79.5 280.5t230.5 94.5t230.5 -94.5zM526 362q0 252 -168 252t-168 -252t168 -252t168 252z" />
    <glyph glyph-name="uni019F" unicode="&#x19f;" horiz-adv-x="716" 
d="M588.5 642.5q79.5 -94.5 79.5 -280.5t-79.5 -280.5t-230.5 -94.5t-230.5 94.5t-79.5 280.5t79.5 280.5t230.5 94.5t230.5 -94.5zM191 425h334q-19 189 -167 189q-147 0 -167 -189zM526 305h-336q18 -195 168 -195t168 195z" />
    <glyph glyph-name="Ocircumflex" unicode="&#xd4;" horiz-adv-x="716" 
d="M274 781h-98v12l117 133h130l117 -133v-12h-101l-83 76zM588.5 642.5q79.5 -94.5 79.5 -280.5t-79.5 -280.5t-230.5 -94.5t-230.5 94.5t-79.5 280.5t79.5 280.5t230.5 94.5t230.5 -94.5zM526 362q0 252 -168 252t-168 -252t168 -252t168 252z" />
    <glyph glyph-name="Ocircumflex.c2sc" horiz-adv-x="666" 
d="M119.5 68q-73.5 79 -73.5 238t73.5 238.5t213.5 79.5t213.5 -79.5t73.5 -238.5t-73.5 -238t-213.5 -79t-213.5 79zM444 158.5q37 48.5 37 147.5q0 197 -148 197q-147 0 -147 -197q0 -196 147 -196q74 0 111 48.5zM497 684v-10h-95l-71 88l-70 -88h-92v10l102 159h124z
" />
    <glyph glyph-name="uni1ED0" unicode="&#x1ed0;" horiz-adv-x="716" 
d="M675 1033v-10l-102 -127h-90v10l73 127h119zM284 785h-92v10l104 139h124l104 -139v-10h-95l-73 77zM588.5 642.5q79.5 -94.5 79.5 -280.5t-79.5 -280.5t-230.5 -94.5t-230.5 94.5t-79.5 280.5t79.5 280.5t230.5 94.5t230.5 -94.5zM526 362q0 252 -168 252t-168 -252
t168 -252t168 252z" />
    <glyph glyph-name="uni1ED8" unicode="&#x1ed8;" horiz-adv-x="716" 
d="M274 781h-98v12l117 133h130l117 -133v-12h-101l-83 76zM588.5 642.5q79.5 -94.5 79.5 -280.5t-79.5 -280.5t-230.5 -94.5t-230.5 94.5t-79.5 280.5t79.5 280.5t230.5 94.5t230.5 -94.5zM526 362q0 252 -168 252t-168 -252t168 -252t168 252zM417.5 -93.5
q21.5 -20.5 21.5 -56.5q0 -37 -21.5 -57.5t-59.5 -20.5t-59.5 20.5t-21.5 56.5q0 37 21.5 57.5t59.5 20.5t59.5 -20.5z" />
    <glyph glyph-name="uni1ED2" unicode="&#x1ed2;" horiz-adv-x="716" 
d="M143 896l-96 127v10h119l67 -127v-10h-90zM192 795l104 139h124l104 -139v-10h-95l-73 77l-72 -77h-92v10zM588.5 642.5q79.5 -94.5 79.5 -280.5t-79.5 -280.5t-230.5 -94.5t-230.5 94.5t-79.5 280.5t79.5 280.5t230.5 94.5t230.5 -94.5zM526 362q0 252 -168 252
t-168 -252t168 -252t168 252z" />
    <glyph glyph-name="uni1ED4" unicode="&#x1ed4;" horiz-adv-x="716" 
d="M465 961l-25 55q20 12 46.5 19t53.5 7q44 0 68 -18.5t24 -51.5q0 -24 -10.5 -35t-28.5 -18q-11 -5 -16.5 -9.5t-5.5 -11.5t1 -12h-80q-2 10 -2 15q0 18 7.5 26.5t21.5 16.5q8 5 12.5 9t4.5 10q0 13 -21 13q-20 0 -50 -15zM284 785h-92v10l104 139h124l104 -139v-10h-95
l-73 77zM588.5 642.5q79.5 -94.5 79.5 -280.5t-79.5 -280.5t-230.5 -94.5t-230.5 94.5t-79.5 280.5t79.5 280.5t230.5 94.5t230.5 -94.5zM526 362q0 252 -168 252t-168 -252t168 -252t168 252z" />
    <glyph glyph-name="uni1ED6" unicode="&#x1ed6;" horiz-adv-x="716" 
d="M252 923h-63q0 59 28 91t80 32q27 0 43.5 -7.5t35.5 -20.5q13 -10 23 -14.5t23 -4.5q38 0 42 45h63q0 -59 -28 -91t-80 -32q-27 0 -43.5 7.5t-35.5 20.5q-13 10 -23 14.5t-23 4.5q-37 0 -42 -45zM418 896l106 -121v-10h-89l-78 68l-79 -68h-86v10l106 121h120z
M588.5 642.5q79.5 -94.5 79.5 -280.5t-79.5 -280.5t-230.5 -94.5t-230.5 94.5t-79.5 280.5t79.5 280.5t230.5 94.5t230.5 -94.5zM526 362q0 252 -168 252t-168 -252t168 -252t168 252z" />
    <glyph glyph-name="uni020C" unicode="&#x20c;" horiz-adv-x="716" 
d="M247 781l-120 133v12h127l85 -133v-12h-92zM419 781l-119 133v12h125l84 -133v-12h-90zM127.5 81.5q-79.5 94.5 -79.5 280.5t79.5 280.5t230.5 94.5t230.5 -94.5t79.5 -280.5t-79.5 -280.5t-230.5 -94.5t-230.5 94.5zM526 362q0 252 -168 252t-168 -252t168 -252t168 252
z" />
    <glyph glyph-name="Odieresis" unicode="&#xd6;" horiz-adv-x="716" 
d="M201 791q-19 19 -19 51q0 34 19 53t53 19t53.5 -19t19.5 -52q0 -34 -19 -52.5t-54 -18.5q-34 0 -53 19zM408 791q-19 19 -19 51q0 34 19 53t53 19t53.5 -19t19.5 -52q0 -34 -19 -52.5t-54 -18.5q-34 0 -53 19zM127.5 81.5q-79.5 94.5 -79.5 280.5t79.5 280.5t230.5 94.5
t230.5 -94.5t79.5 -280.5t-79.5 -280.5t-230.5 -94.5t-230.5 94.5zM526 362q0 252 -168 252t-168 -252t168 -252t168 252z" />
    <glyph glyph-name="Odieresis.c2sc" horiz-adv-x="666" 
d="M182 692q-19 19 -19 51q0 34 19 53t53 19t53.5 -19t19.5 -52q0 -34 -19 -52.5t-54 -18.5q-34 0 -53 19zM377 692q-19 19 -19 51q0 34 19 53t53 19t53.5 -19t19.5 -52q0 -34 -19 -52.5t-54 -18.5q-34 0 -53 19zM119.5 68q-73.5 79 -73.5 238t73.5 238.5t213.5 79.5
t213.5 -79.5t73.5 -238.5t-73.5 -238t-213.5 -79t-213.5 79zM444 158.5q37 48.5 37 147.5q0 197 -148 197q-147 0 -147 -197q0 -196 147 -196q74 0 111 48.5z" />
    <glyph glyph-name="uni022A" unicode="&#x22a;" horiz-adv-x="716" 
d="M194 1047h328v-92h-328v92zM201 791q-19 19 -19 51q0 34 19 53t53 19t53.5 -19t19.5 -52q0 -34 -19 -52.5t-54 -18.5q-34 0 -53 19zM408 791q-19 19 -19 51q0 34 19 53t53 19t53.5 -19t19.5 -52q0 -34 -19 -52.5t-54 -18.5q-34 0 -53 19zM127.5 81.5
q-79.5 94.5 -79.5 280.5t79.5 280.5t230.5 94.5t230.5 -94.5t79.5 -280.5t-79.5 -280.5t-230.5 -94.5t-230.5 94.5zM526 362q0 252 -168 252t-168 -252t168 -252t168 252z" />
    <glyph glyph-name="uni022E" unicode="&#x22e;" horiz-adv-x="716" 
d="M298.5 796.5q-21.5 20.5 -21.5 56.5q0 37 21.5 57.5t59.5 20.5t59.5 -20.5t21.5 -56.5q0 -37 -21.5 -57.5t-59.5 -20.5t-59.5 20.5zM127.5 81.5q-79.5 94.5 -79.5 280.5t79.5 280.5t230.5 94.5t230.5 -94.5t79.5 -280.5t-79.5 -280.5t-230.5 -94.5t-230.5 94.5zM526 362
q0 252 -168 252t-168 -252t168 -252t168 252z" />
    <glyph glyph-name="uni0230" unicode="&#x230;" horiz-adv-x="716" 
d="M194 1047h328v-92h-328v92zM298.5 796.5q-21.5 20.5 -21.5 56.5q0 37 21.5 57.5t59.5 20.5t59.5 -20.5t21.5 -56.5q0 -37 -21.5 -57.5t-59.5 -20.5t-59.5 20.5zM127.5 81.5q-79.5 94.5 -79.5 280.5t79.5 280.5t230.5 94.5t230.5 -94.5t79.5 -280.5t-79.5 -280.5
t-230.5 -94.5t-230.5 94.5zM526 362q0 252 -168 252t-168 -252t168 -252t168 252z" />
    <glyph glyph-name="uni1ECC" unicode="&#x1ecc;" horiz-adv-x="716" 
d="M127.5 81.5q-79.5 94.5 -79.5 280.5t79.5 280.5t230.5 94.5t230.5 -94.5t79.5 -280.5t-79.5 -280.5t-230.5 -94.5t-230.5 94.5zM526 362q0 252 -168 252t-168 -252t168 -252t168 252zM298.5 -207.5q-21.5 20.5 -21.5 56.5q0 37 21.5 57.5t59.5 20.5t59.5 -20.5
t21.5 -56.5q0 -37 -21.5 -57.5t-59.5 -20.5t-59.5 20.5z" />
    <glyph glyph-name="Ograve" unicode="&#xd2;" horiz-adv-x="716" 
d="M156 914v12h151l136 -133v-12h-114zM127.5 81.5q-79.5 94.5 -79.5 280.5t79.5 280.5t230.5 94.5t230.5 -94.5t79.5 -280.5t-79.5 -280.5t-230.5 -94.5t-230.5 94.5zM526 362q0 252 -168 252t-168 -252t168 -252t168 252z" />
    <glyph glyph-name="Ograve.c2sc" horiz-adv-x="666" 
d="M119.5 68q-73.5 79 -73.5 238t73.5 238.5t213.5 79.5t213.5 -79.5t73.5 -238.5t-73.5 -238t-213.5 -79t-213.5 79zM444 158.5q37 48.5 37 147.5q0 197 -148 197q-147 0 -147 -197q0 -196 147 -196q74 0 111 48.5zM183 833v10h141l87 -159v-10h-104z" />
    <glyph glyph-name="uni1ECE" unicode="&#x1ece;" horiz-adv-x="716" 
d="M309 803q0 19 9.5 29t26.5 18q10 4 15 8.5t5 10.5q0 12 -23 12q-28 0 -68 -20l-30 64q25 16 58 25t68 9q52 0 80.5 -20t28.5 -56q0 -28 -13.5 -41t-36.5 -21q-14 -6 -20 -10.5t-6 -12.5l2 -17h-94q-2 12 -2 22zM127.5 81.5q-79.5 94.5 -79.5 280.5t79.5 280.5t230.5 94.5
t230.5 -94.5t79.5 -280.5t-79.5 -280.5t-230.5 -94.5t-230.5 94.5zM526 362q0 252 -168 252t-168 -252t168 -252t168 252z" />
    <glyph glyph-name="Ohorn" unicode="&#x1a0;" horiz-adv-x="716" 
d="M685 691.5q-29 -37.5 -97 -47.5q80 -97 80 -282q0 -186 -79.5 -280.5t-230.5 -94.5t-230.5 94.5t-79.5 280.5t79.5 280.5t230.5 94.5q55 0 105 -14q34 -9 57 -9q44 0 60.5 18.5t16.5 69.5q0 25 -5 61h117q5 -30 5 -59q0 -75 -29 -112.5zM526 362q0 252 -168 252
t-168 -252t168 -252t168 252z" />
    <glyph glyph-name="uni1EDA" unicode="&#x1eda;" horiz-adv-x="716" 
d="M391 781h-114v12l145 133h151v-12zM685 691.5q-29 -37.5 -97 -47.5q80 -97 80 -282q0 -186 -79.5 -280.5t-230.5 -94.5t-230.5 94.5t-79.5 280.5t79.5 280.5t230.5 94.5q55 0 105 -14q34 -9 57 -9q44 0 60.5 18.5t16.5 69.5q0 25 -5 61h117q5 -30 5 -59q0 -75 -29 -112.5
zM526 362q0 252 -168 252t-168 -252t168 -252t168 252z" />
    <glyph glyph-name="uni1EE2" unicode="&#x1ee2;" horiz-adv-x="716" 
d="M685 691.5q-29 -37.5 -97 -47.5q80 -97 80 -282q0 -186 -79.5 -280.5t-230.5 -94.5t-230.5 94.5t-79.5 280.5t79.5 280.5t230.5 94.5q55 0 105 -14q34 -9 57 -9q44 0 60.5 18.5t16.5 69.5q0 25 -5 61h117q5 -30 5 -59q0 -75 -29 -112.5zM526 362q0 252 -168 252
t-168 -252t168 -252t168 252zM303.5 -207.5q-21.5 20.5 -21.5 56.5q0 37 21.5 57.5t59.5 20.5t59.5 -20.5t21.5 -56.5q0 -37 -21.5 -57.5t-59.5 -20.5t-59.5 20.5z" />
    <glyph glyph-name="uni1EDC" unicode="&#x1edc;" horiz-adv-x="716" 
d="M334 781l-173 133v12h151l136 -133v-12h-114zM685 691.5q-29 -37.5 -97 -47.5q80 -97 80 -282q0 -186 -79.5 -280.5t-230.5 -94.5t-230.5 94.5t-79.5 280.5t79.5 280.5t230.5 94.5q55 0 105 -14q34 -9 57 -9q44 0 60.5 18.5t16.5 69.5q0 25 -5 61h117q5 -30 5 -59
q0 -75 -29 -112.5zM526 362q0 252 -168 252t-168 -252t168 -252t168 252z" />
    <glyph glyph-name="uni1EDE" unicode="&#x1ede;" horiz-adv-x="716" 
d="M279 861l-30 64q25 16 58 25t68 9q52 0 80.5 -20t28.5 -56q0 -28 -13.5 -41t-36.5 -21q-14 -6 -20 -10.5t-6 -12.5l2 -17h-94q-2 12 -2 22q0 19 9.5 28.5t26.5 18.5q10 4 15 8.5t5 10.5q0 12 -23 12q-28 0 -68 -20zM685 691.5q-29 -37.5 -97 -47.5q80 -97 80 -282
q0 -186 -79.5 -280.5t-230.5 -94.5t-230.5 94.5t-79.5 280.5t79.5 280.5t230.5 94.5q55 0 105 -14q34 -9 57 -9q44 0 60.5 18.5t16.5 69.5q0 25 -5 61h117q5 -30 5 -59q0 -75 -29 -112.5zM526 362q0 252 -168 252t-168 -252t168 -252t168 252z" />
    <glyph glyph-name="uni1EE0" unicode="&#x1ee0;" horiz-adv-x="716" 
d="M253 787h-75q1 71 31 110.5t83 39.5q27 0 46.5 -9t45.5 -26q15 -11 26.5 -16.5t23.5 -5.5q33 0 39 55h75q-1 -71 -31 -110.5t-83 -39.5q-27 0 -46.5 9t-45.5 26q-15 11 -26.5 16.5t-23.5 5.5q-33 0 -39 -55zM685 691.5q-29 -37.5 -97 -47.5q80 -97 80 -282
q0 -186 -79.5 -280.5t-230.5 -94.5t-230.5 94.5t-79.5 280.5t79.5 280.5t230.5 94.5q55 0 105 -14q34 -9 57 -9q44 0 60.5 18.5t16.5 69.5q0 25 -5 61h117q5 -30 5 -59q0 -75 -29 -112.5zM526 362q0 252 -168 252t-168 -252t168 -252t168 252z" />
    <glyph glyph-name="Ohungarumlaut" unicode="&#x150;" horiz-adv-x="716" 
d="M206 793l93 133h125v-12l-128 -133h-90v12zM376 793l94 133h127v-12l-129 -133h-92v12zM127.5 81.5q-79.5 94.5 -79.5 280.5t79.5 280.5t230.5 94.5t230.5 -94.5t79.5 -280.5t-79.5 -280.5t-230.5 -94.5t-230.5 94.5zM526 362q0 252 -168 252t-168 -252t168 -252t168 252
z" />
    <glyph glyph-name="Ohungarumlaut.c2sc" horiz-adv-x="666" 
d="M119.5 68q-73.5 79 -73.5 238t73.5 238.5t213.5 79.5t213.5 -79.5t73.5 -238.5t-73.5 -238t-213.5 -79t-213.5 79zM444 158.5q37 48.5 37 147.5q0 197 -148 197q-147 0 -147 -197q0 -196 147 -196q74 0 111 48.5zM200 684l54 159h121v-10l-89 -159h-86v10zM355 684
l56 159h121v-10l-91 -159h-86v10z" />
    <glyph glyph-name="uni01A2" unicode="&#x1a2;" horiz-adv-x="913" 
d="M835 724v-932h-138v809h-81v-557q-54 -26 -121.5 -40.5t-136.5 -14.5q-151 0 -230.5 94t-79.5 279t79.5 279t230.5 94q21 0 57 -3q115 -8 201 -8h219zM478 124v482q-74 6 -120 6q-168 0 -168 -250t168 -250q66 0 120 12z" />
    <glyph glyph-name="uni020E" unicode="&#x20e;" horiz-adv-x="716" 
d="M475 917.5q42 -43.5 45 -126.5h-78q-10 73 -85 73q-76 0 -86 -73h-75q3 83 45 126.5t117 43.5t117 -43.5zM127.5 81.5q-79.5 94.5 -79.5 280.5t79.5 280.5t230.5 94.5t230.5 -94.5t79.5 -280.5t-79.5 -280.5t-230.5 -94.5t-230.5 94.5zM526 362q0 252 -168 252t-168 -252
t168 -252t168 252z" />
    <glyph glyph-name="uniA74A" unicode="&#xa74a;" horiz-adv-x="780" 
d="M772 313h-74q-10 -162 -88.5 -244t-219.5 -82q-137 0 -217 85t-91 241h-74v102h74q11 160 90 241t218 81q136 0 216 -84t92 -238h74v-102zM220 415h340q-16 203 -170 203t-170 -203zM560 313h-340q15 -207 170 -207t170 207z" />
    <glyph glyph-name="uniA74C" unicode="&#xa74c;" horiz-adv-x="939" 
d="M852 672q59 -65 59 -194q0 -130 -59 -194.5t-171 -64.5q-19 0 -28 1q-27 -116 -101.5 -174.5t-193.5 -58.5q-151 0 -230.5 94.5t-79.5 280.5t79.5 280.5t230.5 94.5q107 0 179 -48q47 48 144 48q112 0 171 -65zM769.5 357q28.5 39 28.5 121t-28.5 121t-88.5 39
q-44 0 -73 -22q60 -94 60 -254q0 -29 -1 -43q4 -1 14 -1q60 0 88.5 39zM526 362q0 252 -168 252t-168 -252t168 -252t168 252z" />
    <glyph glyph-name="Omacron" unicode="&#x14c;" horiz-adv-x="716" 
d="M194 898h328v-92h-328v92zM127.5 81.5q-79.5 94.5 -79.5 280.5t79.5 280.5t230.5 94.5t230.5 -94.5t79.5 -280.5t-79.5 -280.5t-230.5 -94.5t-230.5 94.5zM526 362q0 252 -168 252t-168 -252t168 -252t168 252z" />
    <glyph glyph-name="Omacron.c2sc" horiz-adv-x="666" 
d="M119.5 68q-73.5 79 -73.5 238t73.5 238.5t213.5 79.5t213.5 -79.5t73.5 -238.5t-73.5 -238t-213.5 -79t-213.5 79zM444 158.5q37 48.5 37 147.5q0 197 -148 197q-147 0 -147 -197q0 -196 147 -196q74 0 111 48.5zM169 787h328v-92h-328v92z" />
    <glyph glyph-name="uni1E52" unicode="&#x1e52;" horiz-adv-x="716" 
d="M306 920l73 127h119v-10l-102 -127h-90v10zM194 880h328v-92h-328v92zM127.5 81.5q-79.5 94.5 -79.5 280.5t79.5 280.5t230.5 94.5t230.5 -94.5t79.5 -280.5t-79.5 -280.5t-230.5 -94.5t-230.5 94.5zM526 362q0 252 -168 252t-168 -252t168 -252t168 252z" />
    <glyph glyph-name="uni1E50" unicode="&#x1e50;" horiz-adv-x="716" 
d="M218 1037v10h119l67 -127v-10h-90zM194 880h328v-92h-328v92zM127.5 81.5q-79.5 94.5 -79.5 280.5t79.5 280.5t230.5 94.5t230.5 -94.5t79.5 -280.5t-79.5 -280.5t-230.5 -94.5t-230.5 94.5zM526 362q0 252 -168 252t-168 -252t168 -252t168 252z" />
    <glyph glyph-name="uni01EA" unicode="&#x1ea;" horiz-adv-x="716" 
d="M402 -102q0 -40 46 -40q27 0 56 13l30 -70q-24 -15 -55 -23t-63 -8q-59 0 -92 27t-33 76q0 63 57 114q-146 3 -223 97.5t-77 277.5q0 186 79.5 280.5t230.5 94.5t230.5 -94.5t79.5 -280.5q0 -134 -42 -220t-127 -130q-97 -50 -97 -114zM358 110q168 0 168 252t-168 252
t-168 -252t168 -252z" />
    <glyph glyph-name="uni01EC" unicode="&#x1ec;" horiz-adv-x="716" 
d="M522 806h-328v92h328v-92zM402 -102q0 -40 46 -40q27 0 56 13l30 -70q-24 -15 -55 -23t-63 -8q-59 0 -92 27t-33 76q0 63 57 114q-146 3 -223 97.5t-77 277.5q0 186 79.5 280.5t230.5 94.5t230.5 -94.5t79.5 -280.5q0 -134 -42 -220t-127 -130q-97 -50 -97 -114zM358 110
q168 0 168 252t-168 252t-168 -252t168 -252z" />
    <glyph glyph-name="uni0186" unicode="&#x186;" horiz-adv-x="603" 
d="M477 642q88 -94 88 -265q0 -120 -40 -208t-114.5 -135t-175.5 -47q-56 0 -110 15t-93 43l47 105q78 -39 158 -39q89 0 137.5 67t48.5 189q0 243 -199 243q-92 0 -151 -35l-47 104q33 27 87 42t117 15q159 0 247 -94z" />
    <glyph glyph-name="Oslash" unicode="&#xd8;" horiz-adv-x="716" 
d="M698 724l-91 -113q61 -95 61 -249q0 -186 -79.5 -280.5t-230.5 -94.5q-113 0 -190 60l-42 -57h-108v10l91 113q-61 95 -61 249q0 186 79.5 280.5t230.5 94.5q113 0 190 -60l42 57h108v-10zM186 362q0 -83 14 -133l272 349q-40 40 -114 40q-172 0 -172 -256zM530 362
q0 83 -14 133l-272 -349q40 -40 114 -40q172 0 172 256z" />
    <glyph glyph-name="Oslashacute" unicode="&#x1fe;" horiz-adv-x="716" 
d="M386 781h-114v12l145 133h151v-12zM698 724l-91 -113q61 -95 61 -249q0 -186 -79.5 -280.5t-230.5 -94.5q-113 0 -190 60l-42 -57h-108v10l91 113q-61 95 -61 249q0 186 79.5 280.5t230.5 94.5q113 0 190 -60l42 57h108v-10zM186 362q0 -83 14 -133l272 349
q-40 40 -114 40q-172 0 -172 -256zM530 362q0 83 -14 133l-272 -349q40 -40 114 -40q172 0 172 256z" />
    <glyph glyph-name="Otilde" unicode="&#xd5;" horiz-adv-x="716" 
d="M382.5 794q-19.5 9 -45.5 26q-15 11 -26.5 16.5t-23.5 5.5q-33 0 -39 -55h-75q1 71 31 110.5t83 39.5q27 0 46.5 -9t45.5 -26q15 -11 26.5 -16.5t23.5 -5.5q33 0 39 55h75q-1 -71 -31 -110.5t-83 -39.5q-27 0 -46.5 9zM127.5 81.5q-79.5 94.5 -79.5 280.5t79.5 280.5
t230.5 94.5t230.5 -94.5t79.5 -280.5t-79.5 -280.5t-230.5 -94.5t-230.5 94.5zM526 362q0 252 -168 252t-168 -252t168 -252t168 252z" />
    <glyph glyph-name="Otilde.c2sc" horiz-adv-x="666" 
d="M119.5 68q-73.5 79 -73.5 238t73.5 238.5t213.5 79.5t213.5 -79.5t73.5 -238.5t-73.5 -238t-213.5 -79t-213.5 79zM444 158.5q37 48.5 37 147.5q0 197 -148 197q-147 0 -147 -197q0 -196 147 -196q74 0 111 48.5zM357.5 683q-19.5 9 -45.5 26q-15 11 -26.5 16.5
t-23.5 5.5q-33 0 -39 -55h-75q1 71 31 110.5t83 39.5q27 0 46.5 -9t45.5 -26q15 -11 26.5 -16.5t23.5 -5.5q33 0 39 55h75q-1 -71 -31 -110.5t-83 -39.5q-27 0 -46.5 9z" />
    <glyph glyph-name="uni1E4C" unicode="&#x1e4c;" horiz-adv-x="716" 
d="M309 920l73 127h119v-10l-102 -127h-90v10zM375.5 772.5q-16.5 7.5 -35.5 20.5q-13 10 -23 14.5t-23 4.5q-37 0 -42 -45h-63q0 59 28 91t80 32q27 0 43.5 -7.5t35.5 -20.5q13 -10 23 -14.5t23 -4.5q38 0 42 45h63q0 -59 -28 -91t-80 -32q-27 0 -43.5 7.5zM127.5 81.5
q-79.5 94.5 -79.5 280.5t79.5 280.5t230.5 94.5t230.5 -94.5t79.5 -280.5t-79.5 -280.5t-230.5 -94.5t-230.5 94.5zM526 362q0 252 -168 252t-168 -252t168 -252t168 252z" />
    <glyph glyph-name="uni1E4E" unicode="&#x1e4e;" horiz-adv-x="716" 
d="M211 937.5q-18 16.5 -18 45.5q0 30 18 46.5t50 16.5t50 -16.5t18 -45.5q0 -31 -18 -47t-50 -16t-50 16.5zM405 937.5q-18 16.5 -18 45.5q0 30 18 46.5t50 16.5t50 -16.5t18 -45.5q0 -31 -18 -47t-50 -16t-50 16.5zM375.5 777.5q-16.5 7.5 -35.5 20.5q-13 10 -23 14.5
t-23 4.5q-37 0 -42 -45h-63q0 59 28 91t80 32q27 0 43.5 -7.5t35.5 -20.5q13 -10 23 -14.5t23 -4.5q38 0 42 45h63q0 -59 -28 -91t-80 -32q-27 0 -43.5 7.5zM127.5 81.5q-79.5 94.5 -79.5 280.5t79.5 280.5t230.5 94.5t230.5 -94.5t79.5 -280.5t-79.5 -280.5t-230.5 -94.5
t-230.5 94.5zM526 362q0 252 -168 252t-168 -252t168 -252t168 252z" />
    <glyph glyph-name="uni022C" unicode="&#x22c;" horiz-adv-x="716" 
d="M194 1047h328v-92h-328v92zM375.5 802.5q-16.5 7.5 -35.5 20.5q-13 10 -23 14.5t-23 4.5q-37 0 -42 -45h-63q0 59 28 91t80 32q27 0 43.5 -7.5t35.5 -20.5q13 -10 23 -14.5t23 -4.5q38 0 42 45h63q0 -59 -28 -91t-80 -32q-27 0 -43.5 7.5zM127.5 81.5
q-79.5 94.5 -79.5 280.5t79.5 280.5t230.5 94.5t230.5 -94.5t79.5 -280.5t-79.5 -280.5t-230.5 -94.5t-230.5 94.5zM526 362q0 252 -168 252t-168 -252t168 -252t168 252z" />
    <glyph glyph-name="OE" unicode="&#x152;" horiz-adv-x="964" 
d="M934 123v-123h-452h-124q-151 0 -230.5 91t-79.5 271t79.5 271t230.5 91h163h399v-123h-304v-169h220v-124h-220v-185h318zM482 123v478h-124q-168 0 -168 -239t168 -239h124z" />
    <glyph glyph-name="P" unicode="P" horiz-adv-x="599" 
d="M526 659q63 -65 63 -183q0 -119 -65 -184.5t-184 -65.5h-124v-226h-138v724h138h131q116 0 179 -65zM447 473q0 128 -107 128h-124v-252h131q100 0 100 124z" />
    <glyph glyph-name="P.c2sc" horiz-adv-x="559" 
d="M492 556.5q59 -56.5 59 -159.5q0 -104 -60.5 -160.5t-171.5 -56.5h-107v-180h-136v613h136h114q107 0 166 -56.5zM411 394q0 50 -22.5 74t-69.5 24h-107v-191h114q85 0 85 93z" />
    <glyph glyph-name="uni1E54" unicode="&#x1e54;" horiz-adv-x="599" 
d="M338 781h-114v12l145 133h151v-12zM526 659q63 -65 63 -183q0 -119 -65 -184.5t-184 -65.5h-124v-226h-138v724h138h131q116 0 179 -65zM447 473q0 128 -107 128h-124v-252h131q100 0 100 124z" />
    <glyph glyph-name="uni1E56" unicode="&#x1e56;" horiz-adv-x="599" 
d="M250.5 796.5q-21.5 20.5 -21.5 56.5q0 37 21.5 57.5t59.5 20.5t59.5 -20.5t21.5 -56.5q0 -37 -21.5 -57.5t-59.5 -20.5t-59.5 20.5zM526 659q63 -65 63 -183q0 -119 -65 -184.5t-184 -65.5h-124v-226h-138v724h138h131q116 0 179 -65zM447 473q0 128 -107 128h-124v-252
h131q100 0 100 124z" />
    <glyph glyph-name="uniA752" unicode="&#xa752;" horiz-adv-x="726" 
d="M653 659q63 -65 63 -183q0 -119 -65 -184.5t-184 -65.5h-124v-226h-138v229q-82 -6 -82 -90q0 -15 3 -48h-122q-4 21 -4 47q0 97 54 152t151 58v376h138h131q116 0 179 -65zM574 473q0 128 -107 128h-124v-252h131q100 0 100 124z" />
    <glyph glyph-name="uni01A4" unicode="&#x1a4;" horiz-adv-x="680" 
d="M607 659q63 -65 63 -183q0 -119 -65 -184.5t-184 -65.5h-124v-226h-138v600q-29 0 -43.5 -14t-14.5 -45q0 -15 3 -48h-122q-4 21 -4 47q0 88 47.5 136t133.5 48h138h131q116 0 179 -65zM528 473q0 128 -107 128h-124v-252h131q100 0 100 124z" />
    <glyph glyph-name="Thorn" unicode="&#xde;" horiz-adv-x="617" 
d="M520.5 551q63.5 -64 63.5 -180q0 -118 -65.5 -182.5t-183.5 -63.5h-119v-125h-138v724h138v-109h126q115 0 178.5 -64zM442 368q0 124 -107 124h-119v-244h126q100 0 100 120z" />
    <glyph glyph-name="uniA754" unicode="&#xa754;" horiz-adv-x="741" 
d="M668 659q63 -65 63 -183q0 -119 -65 -184.5t-184 -65.5h-124v-226h-138v246q-88 5 -136 52t-48 128q0 32 6.5 55t19.5 51q9 22 13.5 35.5t4.5 30.5q0 24 -15 38t-59 33l36 68q78 -31 107 -60t29 -76q0 -25 -5.5 -43.5t-16.5 -43.5q-10 -23 -15 -40t-5 -38q0 -77 84 -86
v374h138h131q116 0 179 -65zM589 473q0 128 -107 128h-124v-252h131q100 0 100 124z" />
    <glyph glyph-name="uni2C63" unicode="&#x2c63;" horiz-adv-x="599" 
d="M526 659q63 -65 63 -183q0 -119 -65 -184.5t-184 -65.5h-124v-226h-138v424h-63v103h63v197h138h131q116 0 179 -65zM447 473q0 128 -107 128h-124v-74h126v-103h-126v-75h131q100 0 100 124z" />
    <glyph glyph-name="uniA750" unicode="&#xa750;" horiz-adv-x="599" 
d="M216 226v-57h164v-105h-164v-64h-138v64h-63v105h63v555h138h131q116 0 179 -65t63 -183q0 -119 -65 -184.5t-184 -65.5h-124zM216 601v-252h131q100 0 100 124q0 128 -107 128h-124z" />
    <glyph glyph-name="Q" unicode="Q" horiz-adv-x="716" 
d="M594 -165l-140 163q-46 -11 -96 -11q-151 0 -230.5 94.5t-79.5 280.5t79.5 280.5t230.5 94.5t230.5 -94.5t79.5 -280.5q0 -218 -108 -309l122 -130zM358 110q168 0 168 252t-168 252t-168 -252t168 -252z" />
    <glyph glyph-name="Q.c2sc" horiz-adv-x="666" 
d="M548 -144l-131 141q-42 -8 -84 -8q-140 0 -213.5 79t-73.5 238t73.5 238.5t213.5 79.5t213.5 -79.5t73.5 -238.5q0 -180 -96 -259l110 -106zM333 110q74 0 111 48.5t37 147.5q0 197 -148 197q-147 0 -147 -197q0 -196 147 -196z" />
    <glyph glyph-name="Q.ss06" horiz-adv-x="716" 
d="M594 -165l-140 163q-46 -11 -96 -11q-151 0 -230.5 94.5t-79.5 280.5t79.5 280.5t230.5 94.5t230.5 -94.5t79.5 -280.5q0 -218 -108 -309l122 -130zM358 110q168 0 168 252t-168 252t-168 -252t168 -252z" />
    <glyph glyph-name="uniA758" unicode="&#xa758;" horiz-adv-x="821" 
d="M827 211q0 -47 -28 -91.5t-90 -98.5l-66 -57l39 -41l-88 -88l-43 50l-94 -80l-56 63l95 81l-42 49q-46 -11 -96 -11q-151 0 -230.5 94.5t-79.5 280.5t79.5 280.5t230.5 94.5t230.5 -94.5t79.5 -280.5q0 -218 -108 -309l26 -28l68 58q40 34 57.5 61.5t17.5 58.5
q0 20 -8 47l94 28q12 -36 12 -67zM358 110q168 0 168 252t-168 252t-168 -252t168 -252z" />
    <glyph glyph-name="uni024A" unicode="&#x24a;" horiz-adv-x="682" 
d="M714 -203q-37 -15 -82 -15q-166 0 -166 160v135q-62 -90 -179 -90q-114 0 -176.5 98t-62.5 276q0 179 62.5 277.5t177.5 98.5q54 0 101 -21t77 -58v66h138v-724v-48q0 -25 9 -36t28 -11q26 0 53 7zM402.5 128.5q31.5 15.5 63.5 50.5v371q-26 29 -64 47t-75 18
q-137 0 -137 -249q0 -253 141 -253q40 0 71.5 15.5z" />
    <glyph glyph-name="uniA756" unicode="&#xa756;" horiz-adv-x="716" 
d="M642 -34l40 -43l-88 -88l-44 51l-93 -81l-56 63l94 82l-41 48q-46 -11 -96 -11q-151 0 -230.5 94.5t-79.5 280.5t79.5 280.5t230.5 94.5t230.5 -94.5t79.5 -280.5q0 -218 -108 -309l24 -26l100 86l55 -62zM358 110q168 0 168 252t-168 252t-168 -252t168 -252z" />
    <glyph glyph-name="R" unicode="R" horiz-adv-x="635" 
d="M303 250h-87v-250h-138v724h138h122q115 0 177.5 -61.5t62.5 -174.5q0 -83 -34.5 -139t-99.5 -81l179 -268h-165zM216 368h122q98 0 98 117q0 118 -102 118h-118v-235z" />
    <glyph glyph-name="R.c2sc" horiz-adv-x="594" 
d="M285 202h-73v-202h-136v613h136h106q107 0 165 -53.5t58 -151.5q0 -70 -31 -118t-88 -70l162 -220h-162zM212 317h106q83 0 83 88q0 89 -87 89h-102v-177z" />
    <glyph glyph-name="R.ss03" horiz-adv-x="635" 
d="M303 250h-87v-250h-138v724h138h122q115 0 177.5 -61.5t62.5 -174.5q0 -83 -34.5 -139t-99.5 -81l179 -268h-165zM216 368h122q98 0 98 117q0 118 -102 118h-118v-235z" />
    <glyph glyph-name="Racute" unicode="&#x154;" horiz-adv-x="635" 
d="M346 781h-114v12l145 133h151v-12zM303 250h-87v-250h-138v724h138h122q115 0 177.5 -61.5t62.5 -174.5q0 -83 -34.5 -139t-99.5 -81l179 -268h-165zM216 368h122q98 0 98 117q0 118 -102 118h-118v-235z" />
    <glyph glyph-name="Racute.c2sc" horiz-adv-x="594" 
d="M285 202h-73v-202h-136v613h136h106q107 0 165 -53.5t58 -151.5q0 -70 -31 -118t-88 -70l162 -220h-162zM212 317h106q83 0 83 88q0 89 -87 89h-102v-177zM226 684l95 159h141v-10l-132 -159h-104v10z" />
    <glyph glyph-name="Rcaron" unicode="&#x158;" horiz-adv-x="635" 
d="M253 781l-117 133v12h101l83 -76l82 76h98v-12l-117 -133h-130zM303 250h-87v-250h-138v724h138h122q115 0 177.5 -61.5t62.5 -174.5q0 -83 -34.5 -139t-99.5 -81l179 -268h-165zM216 368h122q98 0 98 117q0 118 -102 118h-118v-235z" />
    <glyph glyph-name="Rcaron.c2sc" horiz-adv-x="594" 
d="M285 202h-73v-202h-136v613h136h106q107 0 165 -53.5t58 -151.5q0 -70 -31 -118t-88 -70l162 -220h-162zM212 317h106q83 0 83 88q0 89 -87 89h-102v-177zM464 843v-10l-102 -159h-124l-102 159v10h95l70 -88l71 88h92z" />
    <glyph glyph-name="Rcommaaccent" unicode="&#x156;" horiz-adv-x="635" 
d="M303 250h-87v-250h-138v724h138h122q115 0 177.5 -61.5t62.5 -174.5q0 -83 -34.5 -139t-99.5 -81l179 -268h-165zM216 368h122q98 0 98 117q0 118 -102 118h-118v-235zM232 -238q25 27 35 54.5t10 67.5q0 24 -4 50h124q4 -26 4 -49q0 -48 -28.5 -90t-91.5 -86z" />
    <glyph glyph-name="Rcommaaccent.c2sc" horiz-adv-x="594" 
d="M285 202h-73v-202h-136v613h136h106q107 0 165 -53.5t58 -151.5q0 -70 -31 -118t-88 -70l162 -220h-162zM212 317h106q83 0 83 88q0 89 -87 89h-102v-177zM212 -238q25 27 35 54.5t10 67.5q0 24 -4 50h124q4 -26 4 -49q0 -48 -28.5 -90t-91.5 -86z" />
    <glyph glyph-name="uni0210" unicode="&#x210;" horiz-adv-x="635" 
d="M207 781l-120 133v12h127l85 -133v-12h-92zM379 781l-119 133v12h125l84 -133v-12h-90zM303 250h-87v-250h-138v724h138h122q115 0 177.5 -61.5t62.5 -174.5q0 -83 -34.5 -139t-99.5 -81l179 -268h-165zM216 368h122q98 0 98 117q0 118 -102 118h-118v-235z" />
    <glyph glyph-name="uni1E58" unicode="&#x1e58;" horiz-adv-x="635" 
d="M258.5 796.5q-21.5 20.5 -21.5 56.5q0 37 21.5 57.5t59.5 20.5t59.5 -20.5t21.5 -56.5q0 -37 -21.5 -57.5t-59.5 -20.5t-59.5 20.5zM303 250h-87v-250h-138v724h138h122q115 0 177.5 -61.5t62.5 -174.5q0 -83 -34.5 -139t-99.5 -81l179 -268h-165zM216 368h122
q98 0 98 117q0 118 -102 118h-118v-235z" />
    <glyph glyph-name="uni1E5A" unicode="&#x1e5a;" horiz-adv-x="635" 
d="M303 250h-87v-250h-138v724h138h122q115 0 177.5 -61.5t62.5 -174.5q0 -83 -34.5 -139t-99.5 -81l179 -268h-165zM216 368h122q98 0 98 117q0 118 -102 118h-118v-235zM277.5 -207.5q-21.5 20.5 -21.5 56.5q0 37 21.5 57.5t59.5 20.5t59.5 -20.5t21.5 -56.5
q0 -37 -21.5 -57.5t-59.5 -20.5t-59.5 20.5z" />
    <glyph glyph-name="uni1E5C" unicode="&#x1e5c;" horiz-adv-x="635" 
d="M482 806h-328v92h328v-92zM623 0h-165l-155 250h-87v-250h-138v724h138h122q115 0 177.5 -61.5t62.5 -174.5q0 -83 -34.5 -139t-99.5 -81zM216 368h122q98 0 98 117q0 118 -102 118h-118v-235zM396.5 -93.5q21.5 -20.5 21.5 -56.5q0 -37 -21.5 -57.5t-59.5 -20.5
t-59.5 20.5t-21.5 56.5q0 37 21.5 57.5t59.5 20.5t59.5 -20.5z" />
    <glyph glyph-name="uniA782" unicode="&#xa782;" horiz-adv-x="726" 
d="M712 8q-37 -15 -82 -15q-156 0 -156 150v234v131q0 102 -114 102q-40 0 -74 -13.5t-70 -42.5v-761h-138v931h132v-78q76 91 196 91q98 0 152 -60.5t54 -170.5v-336v-17q0 -20 8 -28.5t27 -8.5q20 0 45 5z" />
    <glyph glyph-name="uni0212" unicode="&#x212;" horiz-adv-x="635" 
d="M231 791h-75q3 83 45 126.5t117 43.5t117 -43.5t45 -126.5h-78q-10 73 -85 73q-76 0 -86 -73zM303 250h-87v-250h-138v724h138h122q115 0 177.5 -61.5t62.5 -174.5q0 -83 -34.5 -139t-99.5 -81l179 -268h-165zM216 368h122q98 0 98 117q0 118 -102 118h-118v-235z" />
    <glyph glyph-name="uni1E5E" unicode="&#x1e5e;" horiz-adv-x="635" 
d="M303 250h-87v-250h-138v724h138h122q115 0 177.5 -61.5t62.5 -174.5q0 -83 -34.5 -139t-99.5 -81l179 -268h-165zM216 368h122q98 0 98 117q0 118 -102 118h-118v-235zM173 -96h328v-92h-328v92z" />
    <glyph glyph-name="uniA7A6" unicode="&#xa7a6;" horiz-adv-x="641" 
d="M669 515l-76 -17v-10q0 -83 -34.5 -139t-99.5 -81l179 -268h-165l-155 250h-87v-250h-138v389l-73 -16h-12v77l85 19v255h138h122q90 0 148.5 -38.5t79.5 -110.5l76 17h12v-77zM231 499l211 46q-21 58 -93 58h-118v-104zM450 467l-219 -48v-51h122q91 0 97 99z" />
    <glyph glyph-name="uniA75A" unicode="&#xa75a;" horiz-adv-x="541" 
d="M443 331q-63 -63 -179 -68l221 -251v-12h-161l-240 302v104q73 -22 150 -22q130 0 130 116q0 112 -119 112q-74 0 -162 -46l-50 104q45 32 105 49.5t123 17.5q117 0 181 -61t64 -172q0 -110 -63 -173z" />
    <glyph glyph-name="uni024C" unicode="&#x24c;" horiz-adv-x="645" 
d="M313 250h-87v-250h-138v254h-80v109h80v361h138h122q115 0 177.5 -61.5t62.5 -174.5q0 -83 -34.5 -139t-99.5 -81l179 -268h-165zM226 368h122q98 0 98 117q0 118 -102 118h-118v-235z" />
    <glyph glyph-name="uni2C64" unicode="&#x2c64;" horiz-adv-x="635" 
d="M225 -84q9 -11 28 -11q26 0 53 7l20 -115q-37 -15 -82 -15q-166 0 -166 160v224v558h138h122q115 0 177.5 -61.5t62.5 -174.5q0 -83 -34.5 -139t-99.5 -81l179 -268h-165l-155 250h-87v-298q0 -25 9 -36zM216 603v-235h122q98 0 98 117q0 118 -102 118h-118z" />
    <glyph glyph-name="uniA75C" unicode="&#xa75c;" horiz-adv-x="589" 
d="M579 0h-99l-39 -149h-136l39 149h-278v120q141 124 210.5 224t69.5 171q0 48 -30.5 72.5t-84.5 24.5q-37 0 -73.5 -11.5t-78.5 -35.5l-59 101q104 71 221 71q72 0 127 -25t85.5 -71t30.5 -105q0 -88 -66 -195.5t-189 -221.5h146l39 150h136l-39 -150h68v-119z" />
    <glyph glyph-name="S" unicode="S" horiz-adv-x="564" 
d="M139.5 5.5q-62.5 17.5 -110.5 48.5l44 108q95 -55 195 -55q125 0 125 86q0 36 -23 59t-74 37l-82 23q-93 26 -134.5 74t-41.5 129q0 105 64 163t179 58q55 0 114 -13t112 -37l-45 -108q-105 39 -183 39q-109 0 -109 -79q0 -36 23 -58.5t74 -36.5l82 -23q94 -26 135 -74
t41 -130q0 -109 -67.5 -168.5t-189.5 -59.5q-66 0 -128.5 17.5z" />
    <glyph glyph-name="S.c2sc" horiz-adv-x="525" 
d="M129 5q-58 15 -102 43l43 105q87 -47 179 -47q56 0 82.5 14.5t26.5 45.5q0 26 -20 42.5t-66 28.5l-75 19q-86 22 -123.5 62.5t-37.5 110.5q0 93 58.5 143.5t166.5 50.5q51 0 105.5 -11.5t104.5 -32.5l-44 -105q-97 33 -168 33q-49 0 -71.5 -13t-22.5 -42q0 -25 20 -41.5
t67 -28.5l75 -19q86 -22 123.5 -62.5t37.5 -111.5q0 -96 -62.5 -147.5t-176.5 -51.5q-62 0 -120 15z" />
    <glyph glyph-name="Sacute" unicode="&#x15a;" horiz-adv-x="564" 
d="M184 793l145 133h151v-12l-182 -133h-114v12zM139.5 5.5q-62.5 17.5 -110.5 48.5l44 108q95 -55 195 -55q125 0 125 86q0 36 -23 59t-74 37l-82 23q-93 26 -134.5 74t-41.5 129q0 105 64 163t179 58q55 0 114 -13t112 -37l-45 -108q-105 39 -183 39q-109 0 -109 -79
q0 -36 23 -58.5t74 -36.5l82 -23q94 -26 135 -74t41 -130q0 -109 -67.5 -168.5t-189.5 -59.5q-66 0 -128.5 17.5z" />
    <glyph glyph-name="Sacute.c2sc" horiz-adv-x="525" 
d="M129 5q-58 15 -102 43l43 105q87 -47 179 -47q56 0 82.5 14.5t26.5 45.5q0 26 -20 42.5t-66 28.5l-75 19q-86 22 -123.5 62.5t-37.5 110.5q0 93 58.5 143.5t166.5 50.5q51 0 105.5 -11.5t104.5 -32.5l-44 -105q-97 33 -168 33q-49 0 -71.5 -13t-22.5 -42q0 -25 20 -41.5
t67 -28.5l75 -19q86 -22 123.5 -62.5t37.5 -111.5q0 -96 -62.5 -147.5t-176.5 -51.5q-62 0 -120 15zM177 684l95 159h141v-10l-132 -159h-104v10z" />
    <glyph glyph-name="uni1E64" unicode="&#x1e64;" horiz-adv-x="564" 
d="M134 901q-18 18 -18 48q0 32 18 49.5t51 17.5t51.5 -17.5t18.5 -48.5q0 -32 -18.5 -49.5t-51.5 -17.5t-51 18zM184 793l145 133h151v-12l-182 -133h-114v12zM139.5 5.5q-62.5 17.5 -110.5 48.5l44 108q95 -55 195 -55q125 0 125 86q0 36 -23 59t-74 37l-82 23
q-93 26 -134.5 74t-41.5 129q0 105 64 163t179 58q55 0 114 -13t112 -37l-45 -108q-105 39 -183 39q-109 0 -109 -79q0 -36 23 -58.5t74 -36.5l82 -23q94 -26 135 -74t41 -130q0 -109 -67.5 -168.5t-189.5 -59.5q-66 0 -128.5 17.5z" />
    <glyph glyph-name="uniA78B" unicode="&#xa78b;" horiz-adv-x="348" 
d="M98 770h152l-20 -377h-112z" />
    <glyph glyph-name="Scaron" unicode="&#x160;" horiz-adv-x="564" 
d="M205 781l-117 133v12h101l83 -76l82 76h98v-12l-117 -133h-130zM484 346q41 -48 41 -130q0 -109 -67.5 -168.5t-189.5 -59.5q-66 0 -128.5 17.5t-110.5 48.5l44 108q95 -55 195 -55q125 0 125 86q0 36 -23 59t-74 37l-82 23q-93 26 -134.5 74t-41.5 129q0 105 64 163
t179 58q55 0 114 -13t112 -37l-45 -108q-105 39 -183 39q-109 0 -109 -79q0 -36 23 -58.5t74 -36.5l82 -23q94 -26 135 -74z" />
    <glyph glyph-name="Scaron.c2sc" horiz-adv-x="525" 
d="M129 5q-58 15 -102 43l43 105q87 -47 179 -47q56 0 82.5 14.5t26.5 45.5q0 26 -20 42.5t-66 28.5l-75 19q-86 22 -123.5 62.5t-37.5 110.5q0 93 58.5 143.5t166.5 50.5q51 0 105.5 -11.5t104.5 -32.5l-44 -105q-97 33 -168 33q-49 0 -71.5 -13t-22.5 -42q0 -25 20 -41.5
t67 -28.5l75 -19q86 -22 123.5 -62.5t37.5 -111.5q0 -96 -62.5 -147.5t-176.5 -51.5q-62 0 -120 15zM415 843v-10l-102 -159h-124l-102 159v10h95l70 -88l71 88h92z" />
    <glyph glyph-name="uni1E66" unicode="&#x1e66;" horiz-adv-x="564" 
d="M218.5 935.5q-18.5 17.5 -18.5 46.5q0 31 18.5 48t51.5 17t51.5 -17.5t18.5 -46.5q0 -31 -18.5 -48t-51.5 -17t-51.5 17.5zM205 781l-117 133v12h101l83 -76l82 76h98v-12l-117 -133h-130zM484 346q41 -48 41 -130q0 -109 -67.5 -168.5t-189.5 -59.5q-66 0 -128.5 17.5
t-110.5 48.5l44 108q95 -55 195 -55q125 0 125 86q0 36 -23 59t-74 37l-82 23q-93 26 -134.5 74t-41.5 129q0 105 64 163t179 58q55 0 114 -13t112 -37l-45 -108q-105 39 -183 39q-109 0 -109 -79q0 -36 23 -58.5t74 -36.5l82 -23q94 -26 135 -74z" />
    <glyph glyph-name="Scedilla" unicode="&#x15e;" horiz-adv-x="564" 
d="M468 57.5q-57 -58.5 -162 -67.5l-30 -41q14 2 21 2q54 0 83.5 -22.5t29.5 -63.5q0 -50 -36 -77.5t-102 -27.5q-68 0 -122 26l21 62q53 -17 86 -17q49 0 49 31q0 29 -43 29q-21 0 -39 -7l-30 34l30 72q-115 11 -195 64l44 108q95 -55 195 -55q125 0 125 86q0 36 -23 59
t-74 37l-82 23q-93 26 -134.5 74t-41.5 129q0 105 64 163t179 58q55 0 114 -13t112 -37l-45 -108q-105 39 -183 39q-109 0 -109 -79q0 -36 23 -58.5t74 -36.5l82 -23q94 -26 135 -74t41 -130q0 -100 -57 -158.5z" />
    <glyph glyph-name="Scedilla.c2sc" horiz-adv-x="525" 
d="M436 51q-52 -51 -148 -59l-32 -43q14 2 21 2q54 0 83.5 -22.5t29.5 -63.5q0 -50 -36 -77.5t-102 -27.5q-68 0 -122 26l21 62q53 -17 86 -17q49 0 49 31q0 29 -43 29q-21 0 -39 -7l-30 34l30 74q-49 4 -95 18.5t-82 37.5l43 105q87 -47 179 -47q56 0 82.5 14.5t26.5 45.5
q0 26 -20 42.5t-66 28.5l-75 19q-86 22 -123.5 62.5t-37.5 110.5q0 93 58.5 143.5t166.5 50.5q51 0 105.5 -11.5t104.5 -32.5l-44 -105q-97 33 -168 33q-49 0 -71.5 -13t-22.5 -42q0 -25 20 -41.5t67 -28.5l75 -19q86 -22 123.5 -62.5t37.5 -111.5q0 -87 -52 -138z" />
    <glyph glyph-name="Scircumflex" unicode="&#x15c;" horiz-adv-x="564" 
d="M186 781h-98v12l117 133h130l117 -133v-12h-101l-83 76zM484 346q41 -48 41 -130q0 -109 -67.5 -168.5t-189.5 -59.5q-66 0 -128.5 17.5t-110.5 48.5l44 108q95 -55 195 -55q125 0 125 86q0 36 -23 59t-74 37l-82 23q-93 26 -134.5 74t-41.5 129q0 105 64 163t179 58
q55 0 114 -13t112 -37l-45 -108q-105 39 -183 39q-109 0 -109 -79q0 -36 23 -58.5t74 -36.5l82 -23q94 -26 135 -74z" />
    <glyph glyph-name="Scircumflex.c2sc" horiz-adv-x="525" 
d="M129 5q-58 15 -102 43l43 105q87 -47 179 -47q56 0 82.5 14.5t26.5 45.5q0 26 -20 42.5t-66 28.5l-75 19q-86 22 -123.5 62.5t-37.5 110.5q0 93 58.5 143.5t166.5 50.5q51 0 105.5 -11.5t104.5 -32.5l-44 -105q-97 33 -168 33q-49 0 -71.5 -13t-22.5 -42q0 -25 20 -41.5
t67 -28.5l75 -19q86 -22 123.5 -62.5t37.5 -111.5q0 -96 -62.5 -147.5t-176.5 -51.5q-62 0 -120 15zM415 684v-10h-95l-71 88l-70 -88h-92v10l102 159h124z" />
    <glyph glyph-name="Scommaaccent" unicode="&#x218;" horiz-adv-x="564" 
d="M139.5 5.5q-62.5 17.5 -110.5 48.5l44 108q95 -55 195 -55q125 0 125 86q0 36 -23 59t-74 37l-82 23q-93 26 -134.5 74t-41.5 129q0 105 64 163t179 58q55 0 114 -13t112 -37l-45 -108q-105 39 -183 39q-109 0 -109 -79q0 -36 23 -58.5t74 -36.5l82 -23q94 -26 135 -74
t41 -130q0 -109 -67.5 -168.5t-189.5 -59.5q-66 0 -128.5 17.5zM173 -238q25 27 35 54.5t10 67.5q0 24 -4 50h124q4 -26 4 -49q0 -48 -28.5 -90t-91.5 -86z" />
    <glyph glyph-name="uni1E60" unicode="&#x1e60;" horiz-adv-x="564" 
d="M210.5 796.5q-21.5 20.5 -21.5 56.5q0 37 21.5 57.5t59.5 20.5t59.5 -20.5t21.5 -56.5q0 -37 -21.5 -57.5t-59.5 -20.5t-59.5 20.5zM139.5 5.5q-62.5 17.5 -110.5 48.5l44 108q95 -55 195 -55q125 0 125 86q0 36 -23 59t-74 37l-82 23q-93 26 -134.5 74t-41.5 129
q0 105 64 163t179 58q55 0 114 -13t112 -37l-45 -108q-105 39 -183 39q-109 0 -109 -79q0 -36 23 -58.5t74 -36.5l82 -23q94 -26 135 -74t41 -130q0 -109 -67.5 -168.5t-189.5 -59.5q-66 0 -128.5 17.5z" />
    <glyph glyph-name="uni1E62" unicode="&#x1e62;" horiz-adv-x="564" 
d="M139.5 5.5q-62.5 17.5 -110.5 48.5l44 108q95 -55 195 -55q125 0 125 86q0 36 -23 59t-74 37l-82 23q-93 26 -134.5 74t-41.5 129q0 105 64 163t179 58q55 0 114 -13t112 -37l-45 -108q-105 39 -183 39q-109 0 -109 -79q0 -36 23 -58.5t74 -36.5l82 -23q94 -26 135 -74
t41 -130q0 -109 -67.5 -168.5t-189.5 -59.5q-66 0 -128.5 17.5zM218.5 -207.5q-21.5 20.5 -21.5 56.5q0 37 21.5 57.5t59.5 20.5t59.5 -20.5t21.5 -56.5q0 -37 -21.5 -57.5t-59.5 -20.5t-59.5 20.5z" />
    <glyph glyph-name="uni1E68" unicode="&#x1e68;" horiz-adv-x="564" 
d="M210.5 796.5q-21.5 20.5 -21.5 56.5q0 37 21.5 57.5t59.5 20.5t59.5 -20.5t21.5 -56.5q0 -37 -21.5 -57.5t-59.5 -20.5t-59.5 20.5zM139.5 5.5q-62.5 17.5 -110.5 48.5l44 108q95 -55 195 -55q125 0 125 86q0 36 -23 59t-74 37l-82 23q-93 26 -134.5 74t-41.5 129
q0 105 64 163t179 58q55 0 114 -13t112 -37l-45 -108q-105 39 -183 39q-109 0 -109 -79q0 -36 23 -58.5t74 -36.5l82 -23q94 -26 135 -74t41 -130q0 -109 -67.5 -168.5t-189.5 -59.5q-66 0 -128.5 17.5zM218.5 -207.5q-21.5 20.5 -21.5 56.5q0 37 21.5 57.5t59.5 20.5
t59.5 -20.5t21.5 -56.5q0 -37 -21.5 -57.5t-59.5 -20.5t-59.5 20.5z" />
    <glyph glyph-name="uni1E9E" unicode="&#x1e9e;" horiz-adv-x="675" 
d="M647 207q0 -102 -67.5 -158t-189.5 -56q-78 0 -133 20l21 111q64 -16 117 -16q121 0 121 86q0 113 -216 123v104q62 26 90 56.5t28 71.5q0 77 -93 77q-117 0 -117 -116v-510h-138v510q0 113 66.5 175t187.5 62q106 0 164 -48t58 -135q0 -105 -85 -160q186 -31 186 -197z
" />
    <glyph glyph-name="uniA784" unicode="&#xa784;" horiz-adv-x="489" 
d="M475 713l-48 -126q-47 14 -81 14q-39 0 -70 -26t-60 -84v-698h-138v931h132v-131q36 72 78 108t94 36q45 0 93 -24z" />
    <glyph glyph-name="uniA7A8" unicode="&#xa7a8;" horiz-adv-x="592" 
d="M553 400l-88 -27q37 -27 54 -65t17 -92q0 -109 -67.5 -168.5t-189.5 -59.5q-66 0 -128.5 17.5t-110.5 48.5l44 108q95 -55 195 -55q125 0 125 86q0 36 -23 59t-74 37l-62 17l-204 -62h-12v78l100 31q-42 27 -61 66.5t-19 95.5q0 105 64 163t179 58q55 0 114 -13t112 -37
l-45 -108q-105 39 -183 39q-109 0 -109 -79q0 -36 23 -58.5t74 -36.5l77 -22l186 57h12v-78z" />
    <glyph glyph-name="uni018F" unicode="&#x18f;" horiz-adv-x="689" 
d="M556.5 642q84.5 -94 84.5 -281q0 -185 -77.5 -279t-225.5 -94q-145 0 -225 92t-80 259q0 49 7 77h460q-11 92 -60.5 141t-130.5 49q-87 0 -189 -43l-51 109q48 31 111 47.5t131 16.5q161 0 245.5 -94zM500 296h-326q8 -88 50.5 -135t115.5 -47q141 0 160 182z" />
    <glyph glyph-name="T" unicode="T" horiz-adv-x="530" 
d="M514 600h-180v-600h-138v600h-180v124h318h180v-124z" />
    <glyph glyph-name="T.c2sc" horiz-adv-x="490" 
d="M476 491h-163v-491h-136v491h-163v122h299h163v-122z" />
    <glyph glyph-name="Tbar" unicode="&#x166;" horiz-adv-x="530" 
d="M334 600v-211h120v-105h-120v-284h-138v284h-120v105h120v211h-180v124h318h180v-124h-180z" />
    <glyph glyph-name="Tbar.c2sc" horiz-adv-x="490" 
d="M313 491v-179h108v-93h-108v-219h-136v219h-108v93h108v179h-163v122h299h163v-122h-163z" />
    <glyph glyph-name="Tcaron" unicode="&#x164;" horiz-adv-x="530" 
d="M200 781l-117 133v12h101l83 -76l82 76h98v-12l-117 -133h-130zM514 600h-180v-600h-138v600h-180v124h318h180v-124z" />
    <glyph glyph-name="Tcaron.c2sc" horiz-adv-x="490" 
d="M476 491h-163v-491h-136v491h-163v122h299h163v-122zM409 843v-10l-102 -159h-124l-102 159v10h95l70 -88l71 88h92z" />
    <glyph glyph-name="uni0162" unicode="&#x162;" horiz-adv-x="530" 
d="M301 0l-38 -51q14 2 21 2q54 0 83.5 -22.5t29.5 -63.5q0 -50 -36 -77.5t-102 -27.5q-68 0 -122 26l21 62q53 -17 86 -17q49 0 49 31q0 29 -43 29q-21 0 -39 -7l-30 34l34 82h-19v600h-180v124h318h180v-124h-180v-600h-33z" />
    <glyph glyph-name="uni1E70" unicode="&#x1e70;" horiz-adv-x="530" 
d="M514 600h-180v-600h-138v600h-180v124h318h180v-124zM447 -217v-12h-101l-83 76l-82 -76h-98v12l117 133h130z" />
    <glyph glyph-name="uni021A" unicode="&#x21a;" horiz-adv-x="530" 
d="M514 600h-180v-600h-138v600h-180v124h318h180v-124zM160 -238q25 27 35 54.5t10 67.5q0 24 -4 50h124q4 -26 4 -49q0 -48 -28.5 -90t-91.5 -86z" />
    <glyph glyph-name="uni021A.c2sc" horiz-adv-x="490" 
d="M476 491h-163v-491h-136v491h-163v122h299h163v-122zM140 -238q25 27 35 54.5t10 67.5q0 24 -4 50h124q4 -26 4 -49q0 -48 -28.5 -90t-91.5 -86z" />
    <glyph glyph-name="uni023E" unicode="&#x23e;" horiz-adv-x="530" 
d="M475 724h39v-124h-95l-85 -190v-410h-138v104l-95 -211h-85l180 396v311h-180v124h318h58l37 86h85zM359 600h-25v-53z" />
    <glyph glyph-name="uni1E6A" unicode="&#x1e6a;" horiz-adv-x="530" 
d="M205.5 796.5q-21.5 20.5 -21.5 56.5q0 37 21.5 57.5t59.5 20.5t59.5 -20.5t21.5 -56.5q0 -37 -21.5 -57.5t-59.5 -20.5t-59.5 20.5zM514 600h-180v-600h-138v600h-180v124h318h180v-124z" />
    <glyph glyph-name="uni1E6C" unicode="&#x1e6c;" horiz-adv-x="530" 
d="M514 600h-180v-600h-138v600h-180v124h318h180v-124zM205.5 -207.5q-21.5 20.5 -21.5 56.5q0 37 21.5 57.5t59.5 20.5t59.5 -20.5t21.5 -56.5q0 -37 -21.5 -57.5t-59.5 -20.5t-59.5 20.5z" />
    <glyph glyph-name="uni01AC" unicode="&#x1ac;" horiz-adv-x="530" 
d="M514 600h-180v-600h-138v600h-35q-29 0 -43.5 -14t-14.5 -45q0 -15 3 -48h-122q-4 21 -4 47q0 86 46 134.5t130 49.5h178h180v-124z" />
    <glyph glyph-name="uniA764" unicode="&#xa764;" horiz-adv-x="617" 
d="M584 297q0 -104 -65.5 -160.5t-183.5 -55.5h-119v-81h-138v560h-63v102h63v62h138v-62h135v-102h-135v-59h126q242 0 242 -204zM442 294q0 94 -107 94h-119v-184h126q100 0 100 90z" />
    <glyph glyph-name="uniA766" unicode="&#xa766;" horiz-adv-x="617" 
d="M216 223v-59h135v-102h-135v-62h-138v62h-63v102h63v560h138v-81h126q115 0 178.5 -56t63.5 -158q0 -206 -249 -206h-119zM216 520v-184h126q100 0 100 90q0 94 -107 94h-119z" />
    <glyph glyph-name="uniA786" unicode="&#xa786;" horiz-adv-x="612" 
d="M280 600q-91 -97 -91 -253q0 -120 49.5 -176.5t149.5 -56.5q92 0 151 35l47 -104q-33 -27 -87 -42t-117 -15q-160 0 -247.5 89.5t-87.5 259.5q0 77 23.5 144.5t67.5 118.5h-115v124h573v-124h-316z" />
    <glyph glyph-name="uni1E6E" unicode="&#x1e6e;" horiz-adv-x="530" 
d="M514 600h-180v-600h-138v600h-180v124h318h180v-124zM101 -96h328v-92h-328v92z" />
    <glyph glyph-name="uni01BC" unicode="&#x1bc;" horiz-adv-x="554" 
d="M448 397.5q67 -60.5 67 -160.5q0 -75 -33 -131.5t-93 -87.5t-139 -31q-61 0 -119.5 17.5t-95.5 46.5l50 109q42 -23 85.5 -35.5t79.5 -12.5q59 0 92 32.5t33 89.5q0 107 -141 117l-147 10v244h-78v119h156h316v-119h-258v-134l36 -3q122 -10 189 -70.5z" />
    <glyph glyph-name="uni0184" unicode="&#x184;" horiz-adv-x="608" 
d="M531.5 416.5q66.5 -63.5 66.5 -178.5q0 -113 -65.5 -175.5t-183.5 -62.5h-262v482l-69 63v53l110 126h97v-199v-45h119q121 0 187.5 -63.5zM456 241q0 116 -105 116h-126v-234h117q114 0 114 118z" />
    <glyph glyph-name="uni01A7" unicode="&#x1a7;" horiz-adv-x="564" 
d="M106.5 47.5q-67.5 59.5 -67.5 168.5q0 82 41 130t135 74l82 23q51 14 74 36.5t23 58.5q0 79 -109 79q-78 0 -183 -39l-45 108q53 24 112 37t114 13q115 0 179 -58t64 -163q0 -81 -41.5 -129t-134.5 -74l-82 -23q-51 -14 -74 -37t-23 -59q0 -86 125 -86q100 0 195 55
l44 -108q-48 -31 -110.5 -48.5t-128.5 -17.5q-122 0 -189.5 59.5z" />
    <glyph glyph-name="uniA72A" unicode="&#xa72a;" horiz-adv-x="566" 
d="M546 55q-40 -31 -102 -49.5t-126 -18.5q-79 0 -138.5 30t-92 85.5t-32.5 127.5q0 88 48.5 147.5t131.5 74.5l-156 153v119h448v-119h-299l198 -201l-53 -69q-35 8 -63 8q-54 0 -84.5 -30t-30.5 -83q0 -56 32.5 -86.5t90.5 -30.5q40 0 86 13.5t92 38.5z" />
    <glyph glyph-name="uni01AE" unicode="&#x1ae;" horiz-adv-x="530" 
d="M343 -84q9 -11 28 -11q26 0 53 7l20 -115q-37 -15 -82 -15q-166 0 -166 160v224v434h-180v124h318h180v-124h-180v-648q0 -25 9 -36z" />
    <glyph glyph-name="uniA7B1" unicode="&#xa7b1;" horiz-adv-x="530" 
d="M514 124v-124h-318h-180v124h180v600h138v-600h180z" />
    <glyph glyph-name="uniA728" unicode="&#xa728;" horiz-adv-x="834" 
d="M753.5 167.5q56.5 -49.5 56.5 -151.5q0 -76 -37.5 -129.5t-100 -80t-137.5 -26.5q-57 0 -106 9.5t-94 32.5l47 105q68 -33 142 -33q69 0 108 31.5t39 93.5q0 119 -172 119h-50v96l167 197h-255h-27v-431h-138v600h-180v124h318h180v-124h-180v-54h67h369v-115l-172 -202
q99 -12 155.5 -61.5z" />
    <glyph glyph-name="U" unicode="U" horiz-adv-x="688" 
d="M143.5 55.5q-70.5 68.5 -70.5 193.5v475h138v-465q0 -149 132 -149q134 0 134 149v465h138v-475q0 -125 -71 -193.5t-201 -68.5q-129 0 -199.5 68.5z" />
    <glyph glyph-name="U.c2sc" horiz-adv-x="646" 
d="M136.5 46q-65.5 57 -65.5 162v405h136v-393q0 -56 28.5 -83t86.5 -27q59 0 88 27t29 83v393h136v-405q0 -105 -66 -162t-187 -57q-120 0 -185.5 57z" />
    <glyph glyph-name="Uacute" unicode="&#xda;" horiz-adv-x="688" 
d="M258 793l145 133h151v-12l-182 -133h-114v12zM143.5 55.5q-70.5 68.5 -70.5 193.5v475h138v-465q0 -149 132 -149q134 0 134 149v465h138v-475q0 -125 -71 -193.5t-201 -68.5q-129 0 -199.5 68.5z" />
    <glyph glyph-name="Uacute.c2sc" horiz-adv-x="646" 
d="M136.5 46q-65.5 57 -65.5 162v405h136v-393q0 -56 28.5 -83t86.5 -27q59 0 88 27t29 83v393h136v-405q0 -105 -66 -162t-187 -57q-120 0 -185.5 57zM249 684l95 159h141v-10l-132 -159h-104v10z" />
    <glyph glyph-name="uni0244" unicode="&#x244;" horiz-adv-x="712" 
d="M709 320h-82v-71q0 -125 -71 -193.5t-201 -68.5q-129 0 -199.5 68.5t-70.5 193.5v71h-82v105h82v299h138v-299h266v299h138v-299h82v-105zM489 320h-266v-61q0 -149 132 -149q134 0 134 149v61z" />
    <glyph glyph-name="Ubreve" unicode="&#x16c;" horiz-adv-x="688" 
d="M227 823.5q-42 43.5 -45 126.5h78q10 -73 85 -73q76 0 86 73h75q-3 -83 -45 -126.5t-117 -43.5t-117 43.5zM143.5 55.5q-70.5 68.5 -70.5 193.5v475h138v-465q0 -149 132 -149q134 0 134 149v465h138v-475q0 -125 -71 -193.5t-201 -68.5q-129 0 -199.5 68.5z" />
    <glyph glyph-name="Ubreve.c2sc" horiz-adv-x="646" 
d="M136.5 46q-65.5 57 -65.5 162v405h136v-393q0 -56 28.5 -83t86.5 -27q59 0 88 27t29 83v393h136v-405q0 -105 -66 -162t-187 -57q-120 0 -185.5 57zM206 712.5q-42 43.5 -45 126.5h78q10 -73 85 -73q76 0 86 73h75q-3 -83 -45 -126.5t-117 -43.5t-117 43.5z" />
    <glyph glyph-name="uni01D3" unicode="&#x1d3;" horiz-adv-x="688" 
d="M279 781l-117 133v12h101l83 -76l82 76h98v-12l-117 -133h-130zM615 724v-475q0 -125 -71 -193.5t-201 -68.5q-129 0 -199.5 68.5t-70.5 193.5v475h138v-465q0 -149 132 -149q134 0 134 149v465h138z" />
    <glyph glyph-name="Ucircumflex" unicode="&#xdb;" horiz-adv-x="688" 
d="M260 781h-98v12l117 133h130l117 -133v-12h-101l-83 76zM615 724v-475q0 -125 -71 -193.5t-201 -68.5q-129 0 -199.5 68.5t-70.5 193.5v475h138v-465q0 -149 132 -149q134 0 134 149v465h138z" />
    <glyph glyph-name="Ucircumflex.c2sc" horiz-adv-x="646" 
d="M136.5 46q-65.5 57 -65.5 162v405h136v-393q0 -56 28.5 -83t86.5 -27q59 0 88 27t29 83v393h136v-405q0 -105 -66 -162t-187 -57q-120 0 -185.5 57zM487 684v-10h-95l-71 88l-70 -88h-92v10l102 159h124z" />
    <glyph glyph-name="uni1E76" unicode="&#x1e76;" horiz-adv-x="688" 
d="M143.5 55.5q-70.5 68.5 -70.5 193.5v475h138v-465q0 -149 132 -149q134 0 134 149v465h138v-475q0 -125 -71 -193.5t-201 -68.5q-129 0 -199.5 68.5zM526 -217v-12h-101l-83 76l-82 -76h-98v12l117 133h130z" />
    <glyph glyph-name="uni0214" unicode="&#x214;" horiz-adv-x="688" 
d="M233 781l-120 133v12h127l85 -133v-12h-92zM405 781l-119 133v12h125l84 -133v-12h-90zM143.5 55.5q-70.5 68.5 -70.5 193.5v475h138v-465q0 -149 132 -149q134 0 134 149v465h138v-475q0 -125 -71 -193.5t-201 -68.5q-129 0 -199.5 68.5z" />
    <glyph glyph-name="Udieresis" unicode="&#xdc;" horiz-adv-x="688" 
d="M187 791q-19 19 -19 51q0 34 19 53t53 19t53.5 -19t19.5 -52q0 -34 -19 -52.5t-54 -18.5q-34 0 -53 19zM394 791q-19 19 -19 51q0 34 19 53t53 19t53.5 -19t19.5 -52q0 -34 -19 -52.5t-54 -18.5q-34 0 -53 19zM143.5 55.5q-70.5 68.5 -70.5 193.5v475h138v-465
q0 -149 132 -149q134 0 134 149v465h138v-475q0 -125 -71 -193.5t-201 -68.5q-129 0 -199.5 68.5z" />
    <glyph glyph-name="Udieresis.c2sc" horiz-adv-x="646" 
d="M172 692q-19 19 -19 51q0 34 19 53t53 19t53.5 -19t19.5 -52q0 -34 -19 -52.5t-54 -18.5q-34 0 -53 19zM367 692q-19 19 -19 51q0 34 19 53t53 19t53.5 -19t19.5 -52q0 -34 -19 -52.5t-54 -18.5q-34 0 -53 19zM136.5 46q-65.5 57 -65.5 162v405h136v-393q0 -56 28.5 -83
t86.5 -27q59 0 88 27t29 83v393h136v-405q0 -105 -66 -162t-187 -57q-120 0 -185.5 57z" />
    <glyph glyph-name="uni01D7" unicode="&#x1d7;" horiz-adv-x="688" 
d="M296 919l73 127h119v-10l-102 -127h-90v10zM197.5 774.5q-18.5 18.5 -18.5 50.5q0 33 18.5 51t51.5 18t51.5 -18t18.5 -50q0 -34 -18.5 -52t-51.5 -18t-51.5 18.5zM387.5 774.5q-18.5 18.5 -18.5 50.5q0 33 18.5 51t51.5 18t51.5 -18t18.5 -50q0 -34 -18.5 -52t-51.5 -18
t-51.5 18.5zM143.5 55.5q-70.5 68.5 -70.5 193.5v475h138v-465q0 -149 132 -149q134 0 134 149v465h138v-475q0 -125 -71 -193.5t-201 -68.5q-129 0 -199.5 68.5z" />
    <glyph glyph-name="uni1E72" unicode="&#x1e72;" horiz-adv-x="688" 
d="M143.5 55.5q-70.5 68.5 -70.5 193.5v475h138v-465q0 -149 132 -149q134 0 134 149v465h138v-475q0 -125 -71 -193.5t-201 -68.5q-129 0 -199.5 68.5zM193 -208q-19 19 -19 51q0 34 19 53t53 19t53.5 -19t19.5 -52q0 -34 -19 -52.5t-54 -18.5q-34 0 -53 19zM388 -208
q-19 19 -19 51q0 34 19 53t53 19t53.5 -19t19.5 -52q0 -34 -19 -52.5t-54 -18.5q-34 0 -53 19z" />
    <glyph glyph-name="uni01D9" unicode="&#x1d9;" horiz-adv-x="688" 
d="M285 915l-106 121v10h89l79 -68l78 68h86v-10l-106 -121h-120zM197.5 774.5q-18.5 18.5 -18.5 50.5q0 33 18.5 51t51.5 18t51.5 -18t18.5 -50q0 -34 -18.5 -52t-51.5 -18t-51.5 18.5zM387.5 876q18.5 18 51.5 18t51.5 -18t18.5 -50q0 -34 -18.5 -52t-51.5 -18t-51.5 18.5
t-18.5 50.5q0 33 18.5 51zM615 724v-475q0 -125 -71 -193.5t-201 -68.5q-129 0 -199.5 68.5t-70.5 193.5v475h138v-465q0 -149 132 -149q134 0 134 149v465h138z" />
    <glyph glyph-name="uni01DB" unicode="&#x1db;" horiz-adv-x="688" 
d="M208 1036v10h119l67 -127v-10h-90zM197.5 774.5q-18.5 18.5 -18.5 50.5q0 33 18.5 51t51.5 18t51.5 -18t18.5 -50q0 -34 -18.5 -52t-51.5 -18t-51.5 18.5zM387.5 774.5q-18.5 18.5 -18.5 50.5q0 33 18.5 51t51.5 18t51.5 -18t18.5 -50q0 -34 -18.5 -52t-51.5 -18
t-51.5 18.5zM143.5 55.5q-70.5 68.5 -70.5 193.5v475h138v-465q0 -149 132 -149q134 0 134 149v465h138v-475q0 -125 -71 -193.5t-201 -68.5q-129 0 -199.5 68.5z" />
    <glyph glyph-name="uni01D5" unicode="&#x1d5;" horiz-adv-x="688" 
d="M181 1010h328v-91h-328v91zM197.5 774.5q-18.5 18.5 -18.5 50.5q0 33 18.5 51t51.5 18t51.5 -18t18.5 -50q0 -34 -18.5 -52t-51.5 -18t-51.5 18.5zM387.5 774.5q-18.5 18.5 -18.5 50.5q0 33 18.5 51t51.5 18t51.5 -18t18.5 -50q0 -34 -18.5 -52t-51.5 -18t-51.5 18.5z
M143.5 55.5q-70.5 68.5 -70.5 193.5v475h138v-465q0 -149 132 -149q134 0 134 149v465h138v-475q0 -125 -71 -193.5t-201 -68.5q-129 0 -199.5 68.5z" />
    <glyph glyph-name="uni1EE4" unicode="&#x1ee4;" horiz-adv-x="688" 
d="M143.5 55.5q-70.5 68.5 -70.5 193.5v475h138v-465q0 -149 132 -149q134 0 134 149v465h138v-475q0 -125 -71 -193.5t-201 -68.5q-129 0 -199.5 68.5zM284.5 -207.5q-21.5 20.5 -21.5 56.5q0 37 21.5 57.5t59.5 20.5t59.5 -20.5t21.5 -56.5q0 -37 -21.5 -57.5t-59.5 -20.5
t-59.5 20.5z" />
    <glyph glyph-name="Ugrave" unicode="&#xd9;" horiz-adv-x="688" 
d="M142 914v12h151l136 -133v-12h-114zM143.5 55.5q-70.5 68.5 -70.5 193.5v475h138v-465q0 -149 132 -149q134 0 134 149v465h138v-475q0 -125 -71 -193.5t-201 -68.5q-129 0 -199.5 68.5z" />
    <glyph glyph-name="Ugrave.c2sc" horiz-adv-x="646" 
d="M136.5 46q-65.5 57 -65.5 162v405h136v-393q0 -56 28.5 -83t86.5 -27q59 0 88 27t29 83v393h136v-405q0 -105 -66 -162t-187 -57q-120 0 -185.5 57zM173 833v10h141l87 -159v-10h-104z" />
    <glyph glyph-name="uni1EE6" unicode="&#x1ee6;" horiz-adv-x="688" 
d="M295 803q0 19 9.5 29t26.5 18q10 4 15 8.5t5 10.5q0 12 -23 12q-28 0 -68 -20l-30 64q25 16 58 25t68 9q52 0 80.5 -20t28.5 -56q0 -28 -13.5 -41t-36.5 -21q-14 -6 -20 -10.5t-6 -12.5l2 -17h-94q-2 12 -2 22zM143.5 55.5q-70.5 68.5 -70.5 193.5v475h138v-465
q0 -149 132 -149q134 0 134 149v465h138v-475q0 -125 -71 -193.5t-201 -68.5q-129 0 -199.5 68.5z" />
    <glyph glyph-name="Uhorn" unicode="&#x1af;" horiz-adv-x="688" 
d="M708 698q-28 -36 -93 -46v-403q0 -125 -71 -193.5t-201 -68.5q-129 0 -199.5 68.5t-70.5 193.5v475h138v-465q0 -149 132 -149q134 0 134 149v465h65q44 0 60.5 16.5t16.5 61.5q0 25 -5 61h117q5 -30 5 -59q0 -70 -28 -106z" />
    <glyph glyph-name="uni1EE8" unicode="&#x1ee8;" horiz-adv-x="688" 
d="M372 781h-114v12l145 133h151v-12zM708 698q-28 -36 -93 -46v-403q0 -125 -71 -193.5t-201 -68.5q-129 0 -199.5 68.5t-70.5 193.5v475h138v-465q0 -149 132 -149q134 0 134 149v465h65q44 0 60.5 16.5t16.5 61.5q0 25 -5 61h117q5 -30 5 -59q0 -70 -28 -106z" />
    <glyph glyph-name="uni1EF0" unicode="&#x1ef0;" horiz-adv-x="688" 
d="M708 698q-28 -36 -93 -46v-403q0 -125 -71 -193.5t-201 -68.5q-129 0 -199.5 68.5t-70.5 193.5v475h138v-465q0 -149 132 -149q134 0 134 149v465h65q44 0 60.5 16.5t16.5 61.5q0 25 -5 61h117q5 -30 5 -59q0 -70 -28 -106zM284.5 -207.5q-21.5 20.5 -21.5 56.5
q0 37 21.5 57.5t59.5 20.5t59.5 -20.5t21.5 -56.5q0 -37 -21.5 -57.5t-59.5 -20.5t-59.5 20.5z" />
    <glyph glyph-name="uni1EEA" unicode="&#x1eea;" horiz-adv-x="688" 
d="M315 781l-173 133v12h151l136 -133v-12h-114zM708 698q-28 -36 -93 -46v-403q0 -125 -71 -193.5t-201 -68.5q-129 0 -199.5 68.5t-70.5 193.5v475h138v-465q0 -149 132 -149q134 0 134 149v465h65q44 0 60.5 16.5t16.5 61.5q0 25 -5 61h117q5 -30 5 -59q0 -70 -28 -106z
" />
    <glyph glyph-name="uni1EEC" unicode="&#x1eec;" horiz-adv-x="688" 
d="M260 861l-30 64q25 16 58 25t68 9q52 0 80.5 -20t28.5 -56q0 -28 -13.5 -41t-36.5 -21q-14 -6 -20 -10.5t-6 -12.5l2 -17h-94q-2 12 -2 22q0 19 9.5 29t26.5 18q10 4 15 8.5t5 10.5q0 12 -23 12q-28 0 -68 -20zM708 698q-28 -36 -93 -46v-403q0 -125 -71 -193.5
t-201 -68.5q-129 0 -199.5 68.5t-70.5 193.5v475h138v-465q0 -149 132 -149q134 0 134 149v465h65q44 0 60.5 16.5t16.5 61.5q0 25 -5 61h117q5 -30 5 -59q0 -70 -28 -106z" />
    <glyph glyph-name="uni1EEE" unicode="&#x1eee;" horiz-adv-x="688" 
d="M234 787h-75q1 71 31 110.5t83 39.5q27 0 46.5 -9t45.5 -26q15 -11 26.5 -16.5t23.5 -5.5q33 0 39 55h75q-1 -71 -31 -110.5t-83 -39.5q-27 0 -46.5 9t-45.5 26q-15 11 -26.5 16.5t-23.5 5.5q-33 0 -39 -55zM708 698q-28 -36 -93 -46v-403q0 -125 -71 -193.5t-201 -68.5
q-129 0 -199.5 68.5t-70.5 193.5v475h138v-465q0 -149 132 -149q134 0 134 149v465h65q44 0 60.5 16.5t16.5 61.5q0 25 -5 61h117q5 -30 5 -59q0 -70 -28 -106z" />
    <glyph glyph-name="Uhungarumlaut" unicode="&#x170;" horiz-adv-x="688" 
d="M192 793l93 133h125v-12l-128 -133h-90v12zM362 793l94 133h127v-12l-129 -133h-92v12zM143.5 55.5q-70.5 68.5 -70.5 193.5v475h138v-465q0 -149 132 -149q134 0 134 149v465h138v-475q0 -125 -71 -193.5t-201 -68.5q-129 0 -199.5 68.5z" />
    <glyph glyph-name="Uhungarumlaut.c2sc" horiz-adv-x="646" 
d="M136.5 46q-65.5 57 -65.5 162v405h136v-393q0 -56 28.5 -83t86.5 -27q59 0 88 27t29 83v393h136v-405q0 -105 -66 -162t-187 -57q-120 0 -185.5 57zM190 684l54 159h121v-10l-89 -159h-86v10zM345 684l56 159h121v-10l-91 -159h-86v10z" />
    <glyph glyph-name="uni0216" unicode="&#x216;" horiz-adv-x="688" 
d="M461 917.5q42 -43.5 45 -126.5h-78q-10 73 -85 73q-76 0 -86 -73h-75q3 83 45 126.5t117 43.5t117 -43.5zM143.5 55.5q-70.5 68.5 -70.5 193.5v475h138v-465q0 -149 132 -149q134 0 134 149v465h138v-475q0 -125 -71 -193.5t-201 -68.5q-129 0 -199.5 68.5z" />
    <glyph glyph-name="Umacron" unicode="&#x16a;" horiz-adv-x="688" 
d="M180 898h328v-92h-328v92zM143.5 55.5q-70.5 68.5 -70.5 193.5v475h138v-465q0 -149 132 -149q134 0 134 149v465h138v-475q0 -125 -71 -193.5t-201 -68.5q-129 0 -199.5 68.5z" />
    <glyph glyph-name="Umacron.c2sc" horiz-adv-x="646" 
d="M136.5 46q-65.5 57 -65.5 162v405h136v-393q0 -56 28.5 -83t86.5 -27q59 0 88 27t29 83v393h136v-405q0 -105 -66 -162t-187 -57q-120 0 -185.5 57zM159 787h328v-92h-328v92z" />
    <glyph glyph-name="uni1E7A" unicode="&#x1e7a;" horiz-adv-x="688" 
d="M194 937.5q-18 16.5 -18 45.5q0 30 18 46.5t50 16.5t50 -16.5t18 -45.5q0 -31 -18 -47t-50 -16t-50 16.5zM388 937.5q-18 16.5 -18 45.5q0 30 18 46.5t50 16.5t50 -16.5t18 -45.5q0 -31 -18 -47t-50 -16t-50 16.5zM180 878h328v-92h-328v92zM143.5 55.5
q-70.5 68.5 -70.5 193.5v475h138v-465q0 -149 132 -149q134 0 134 149v465h138v-475q0 -125 -71 -193.5t-201 -68.5q-129 0 -199.5 68.5z" />
    <glyph glyph-name="Uogonek" unicode="&#x172;" horiz-adv-x="688" 
d="M434.5 -45q-18.5 -30 -18.5 -57q0 -40 46 -40q27 0 56 13l30 -70q-24 -15 -55 -23t-63 -8q-59 0 -92 27t-33 76q0 63 53 114h-15q-129 0 -199.5 68.5t-70.5 193.5v475h138v-465q0 -149 132 -149q134 0 134 149v465h138v-475q0 -74 -23 -122t-79 -93l-27 -22
q-33 -27 -51.5 -57z" />
    <glyph glyph-name="Uogonek.c2sc" horiz-adv-x="646" 
d="M575 613v-405q0 -82 -40.5 -135t-117.5 -73q-81 -48 -81 -102q0 -40 46 -40q27 0 56 13l30 -70q-24 -15 -55 -23t-63 -8q-59 0 -92 27t-33 76q0 35 18 65t51 52q-107 7 -165 63t-58 155v405h136v-393q0 -56 28.5 -83t86.5 -27q59 0 88 27t29 83v393h136z" />
    <glyph glyph-name="uni01B1" unicode="&#x1b1;" horiz-adv-x="736" 
d="M201.5 29q-69.5 41 -105.5 117.5t-36 181.5q0 176 118 287h-130v109h262v-123q-57 -52 -82.5 -115t-25.5 -150q0 -227 166 -227t166 227q0 87 -25.5 150t-82.5 115v123h262v-109h-130q118 -111 118 -287q0 -105 -36 -181.5t-105.5 -117.5t-166.5 -41t-166.5 41z" />
    <glyph glyph-name="Uring" unicode="&#x16e;" horiz-adv-x="688" 
d="M243 796.5q-36 31.5 -36 88.5t36 88.5t101 31.5t101 -31.5t36 -88.5t-36 -88.5t-101 -31.5t-101 31.5zM397 885q0 54 -53 54t-53 -54t53 -54t53 54zM143.5 55.5q-70.5 68.5 -70.5 193.5v475h138v-465q0 -149 132 -149q134 0 134 149v465h138v-475q0 -125 -71 -193.5
t-201 -68.5q-129 0 -199.5 68.5z" />
    <glyph glyph-name="Uring.c2sc" horiz-adv-x="646" 
d="M136.5 46q-65.5 57 -65.5 162v405h136v-393q0 -56 28.5 -83t86.5 -27q59 0 88 27t29 83v393h136v-405q0 -105 -66 -162t-187 -57q-120 0 -185.5 57zM222.5 690.5q-35.5 31.5 -35.5 88.5t35.5 88.5t100.5 31.5t100.5 -31.5t35.5 -88.5t-35.5 -88.5t-100.5 -31.5
t-100.5 31.5zM376 779q0 55 -53 55t-53 -55t53 -55t53 55z" />
    <glyph glyph-name="Utilde" unicode="&#x168;" horiz-adv-x="688" 
d="M368.5 794q-19.5 9 -45.5 26q-15 11 -26.5 16.5t-23.5 5.5q-33 0 -39 -55h-75q1 71 31 110.5t83 39.5q27 0 46.5 -9t45.5 -26q15 -11 26.5 -16.5t23.5 -5.5q33 0 39 55h75q-1 -71 -31 -110.5t-83 -39.5q-27 0 -46.5 9zM143.5 55.5q-70.5 68.5 -70.5 193.5v475h138v-465
q0 -149 132 -149q134 0 134 149v465h138v-475q0 -125 -71 -193.5t-201 -68.5q-129 0 -199.5 68.5z" />
    <glyph glyph-name="Utilde.c2sc" horiz-adv-x="646" 
d="M136.5 46q-65.5 57 -65.5 162v405h136v-393q0 -56 28.5 -83t86.5 -27q59 0 88 27t29 83v393h136v-405q0 -105 -66 -162t-187 -57q-120 0 -185.5 57zM347.5 683q-19.5 9 -45.5 26q-15 11 -26.5 16.5t-23.5 5.5q-33 0 -39 -55h-75q1 71 31 110.5t83 39.5q27 0 46.5 -9
t45.5 -26q15 -11 26.5 -16.5t23.5 -5.5q33 0 39 55h75q-1 -71 -31 -110.5t-83 -39.5q-27 0 -46.5 9z" />
    <glyph glyph-name="uni1E78" unicode="&#x1e78;" horiz-adv-x="688" 
d="M295 920l73 127h119v-10l-102 -127h-90v10zM361.5 772.5q-16.5 7.5 -35.5 20.5q-13 10 -23 14.5t-23 4.5q-37 0 -42 -45h-63q0 59 28 91t80 32q27 0 43.5 -7.5t35.5 -20.5q13 -10 23 -14.5t23 -4.5q38 0 42 45h63q0 -59 -28 -91t-80 -32q-27 0 -43.5 7.5zM143.5 55.5
q-70.5 68.5 -70.5 193.5v475h138v-465q0 -149 132 -149q134 0 134 149v465h138v-475q0 -125 -71 -193.5t-201 -68.5q-129 0 -199.5 68.5z" />
    <glyph glyph-name="uni1E74" unicode="&#x1e74;" horiz-adv-x="688" 
d="M143.5 55.5q-70.5 68.5 -70.5 193.5v475h138v-465q0 -149 132 -149q134 0 134 149v465h138v-475q0 -125 -71 -193.5t-201 -68.5q-129 0 -199.5 68.5zM368.5 -221q-19.5 9 -45.5 26q-15 11 -26.5 16.5t-23.5 5.5q-33 0 -39 -55h-75q1 71 31 110.5t83 39.5q27 0 46.5 -9
t45.5 -26q15 -11 26.5 -16.5t23.5 -5.5q33 0 39 55h75q-1 -71 -31 -110.5t-83 -39.5q-27 0 -46.5 9z" />
    <glyph glyph-name="V" unicode="V" horiz-adv-x="634" 
d="M615 724l-223 -724h-150l-223 724h145l154 -579l153 579h144z" />
    <glyph glyph-name="uni1EFC" unicode="&#x1efc;" horiz-adv-x="572" 
d="M48 295q0 95 14.5 160t47 111.5t87.5 82.5q102 68 249 88l23 -109q-67 -14 -110.5 -29.5t-73.5 -35.5q-37 -24 -57.5 -56t-29 -81t-8.5 -128q0 -188 111 -188q106 0 106 111q0 55 -30.5 84t-104.5 45l35 122q128 -24 185 -81t57 -161q0 -116 -65.5 -179.5t-183.5 -63.5
q-252 0 -252 308z" />
    <glyph glyph-name="V.c2sc" horiz-adv-x="587" 
d="M570 613l-203 -613h-147l-203 613h142l135 -481l134 481h142z" />
    <glyph glyph-name="uniA760" unicode="&#xa760;" horiz-adv-x="954" 
d="M935 724l-223 -724q-58 -155 -270 -220l-46 114q75 26 113.5 52t52.5 54l-89 288l-81 -288h-150l-223 724h145l154 -579l92 348l-71 231h145l154 -579l153 579h144z" />
    <glyph glyph-name="uniA75E" unicode="&#xa75e;" horiz-adv-x="634" 
d="M615 724l-223 -724h-150l-25 81l-57 -188h-85l99 327l-155 504h145l76 -286l113 372h85l-158 -521l38 -144l153 579h144z" />
    <glyph glyph-name="uni1E7E" unicode="&#x1e7e;" horiz-adv-x="634" 
d="M615 724l-223 -724h-150l-223 724h145l154 -579l153 579h144zM258.5 -207.5q-21.5 20.5 -21.5 56.5q0 37 21.5 57.5t59.5 20.5t59.5 -20.5t21.5 -56.5q0 -37 -21.5 -57.5t-59.5 -20.5t-59.5 20.5z" />
    <glyph glyph-name="uniA768" unicode="&#xa768;" horiz-adv-x="568" 
d="M216 -41v-166h-138v931h138v-507l189 507h144z" />
    <glyph glyph-name="uni01B2" unicode="&#x1b2;" horiz-adv-x="688" 
d="M615 577v-224v-104q0 -125 -71 -193.5t-201 -68.5q-129 0 -199.5 68.5t-70.5 193.5v475h138v-465q0 -149 132 -149q134 0 134 149v265v43q0 25 -9 36t-28 11q-26 0 -53 -7l-20 115q37 15 82 15q166 0 166 -160z" />
    <glyph glyph-name="uni1E7C" unicode="&#x1e7c;" horiz-adv-x="634" 
d="M206 787h-75q1 71 31 110.5t83 39.5q27 0 46.5 -9t45.5 -26q15 -11 26.5 -16.5t23.5 -5.5q33 0 39 55h75q-1 -71 -31 -110.5t-83 -39.5q-27 0 -46.5 9t-45.5 26q-15 11 -26.5 16.5t-23.5 5.5q-33 0 -39 -55zM615 724l-223 -724h-150l-223 724h145l154 -579l153 579h144z
" />
    <glyph glyph-name="uni0245" unicode="&#x245;" horiz-adv-x="634" 
d="M470 0l-154 579l-153 -579h-144l223 724h150l223 -724h-145z" />
    <glyph glyph-name="W" unicode="W" horiz-adv-x="898" 
d="M877 724l-172 -724h-150l-107 536l-106 -536h-150l-171 724h142l106 -561l106 560h148l108 -561l105 562h141z" />
    <glyph glyph-name="W.c2sc" horiz-adv-x="829" 
d="M810 613l-156 -613h-147l-93 443l-93 -443h-147l-155 613h140l90 -463l93 462h145l95 -463l90 464h138z" />
    <glyph glyph-name="Wacute" unicode="&#x1e82;" horiz-adv-x="898" 
d="M475 781h-114v12l145 133h151v-12zM877 724l-172 -724h-150l-107 536l-106 -536h-150l-171 724h142l106 -561l106 560h148l108 -561l105 562h141z" />
    <glyph glyph-name="Wcircumflex" unicode="&#x174;" horiz-adv-x="898" 
d="M363 781h-98v12l117 133h130l117 -133v-12h-101l-83 76zM877 724l-172 -724h-150l-107 536l-106 -536h-150l-171 724h142l106 -561l106 560h148l108 -561l105 562h141z" />
    <glyph glyph-name="Wcircumflex.c2sc" horiz-adv-x="829" 
d="M810 613l-156 -613h-147l-93 443l-93 -443h-147l-155 613h140l90 -463l93 462h145l95 -463l90 464h138zM577 684v-10h-95l-71 88l-70 -88h-92v10l102 159h124z" />
    <glyph glyph-name="Wdieresis" unicode="&#x1e84;" horiz-adv-x="898" 
d="M290 791q-19 19 -19 51q0 34 19 53t53 19t53.5 -19t19.5 -52q0 -34 -19 -52.5t-54 -18.5q-34 0 -53 19zM497 791q-19 19 -19 51q0 34 19 53t53 19t53.5 -19t19.5 -52q0 -34 -19 -52.5t-54 -18.5q-34 0 -53 19zM877 724l-172 -724h-150l-107 536l-106 -536h-150l-171 724
h142l106 -561l106 560h148l108 -561l105 562h141z" />
    <glyph glyph-name="uni1E86" unicode="&#x1e86;" horiz-adv-x="898" 
d="M387.5 796.5q-21.5 20.5 -21.5 56.5q0 37 21.5 57.5t59.5 20.5t59.5 -20.5t21.5 -56.5q0 -37 -21.5 -57.5t-59.5 -20.5t-59.5 20.5zM877 724l-172 -724h-150l-107 536l-106 -536h-150l-171 724h142l106 -561l106 560h148l108 -561l105 562h141z" />
    <glyph glyph-name="uni1E88" unicode="&#x1e88;" horiz-adv-x="898" 
d="M877 724l-172 -724h-150l-107 536l-106 -536h-150l-171 724h142l106 -561l106 560h148l108 -561l105 562h141zM389.5 -207.5q-21.5 20.5 -21.5 56.5q0 37 21.5 57.5t59.5 20.5t59.5 -20.5t21.5 -56.5q0 -37 -21.5 -57.5t-59.5 -20.5t-59.5 20.5z" />
    <glyph glyph-name="Wgrave" unicode="&#x1e80;" horiz-adv-x="898" 
d="M418 781l-173 133v12h151l136 -133v-12h-114zM877 724l-172 -724h-150l-107 536l-106 -536h-150l-171 724h142l106 -561l106 560h148l108 -561l105 562h141z" />
    <glyph glyph-name="uni2C72" unicode="&#x2c72;" horiz-adv-x="987" 
d="M1016 581l-111 -20q-4 29 -11.5 42t-20.5 13q-12 0 -20 -13.5t-16 -46.5l-132 -556h-150l-107 536l-106 -536h-150l-171 724h142l106 -561l106 560h148l108 -561l79 422q30 159 163 159q131 0 143 -162z" />
    <glyph glyph-name="uni01F7" unicode="&#x1f7;" horiz-adv-x="579" 
d="M519 674q50 -63 50 -178q0 -70 -22 -123t-73.5 -103.5t-145.5 -113.5l-112 -75v-288h-138v931h132v-66q64 79 167 79q92 0 142 -63zM401.5 381.5q25.5 40.5 25.5 102.5q0 127 -92 127q-31 0 -60 -13.5t-59 -43.5v-324l92 63q68 48 93.5 88.5z" />
    <glyph glyph-name="X" unicode="X" horiz-adv-x="610" 
d="M440 0l-137 252l-135 -252h-152l213 367l-205 357h154l130 -242l132 242h152l-211 -357l213 -367h-154z" />
    <glyph glyph-name="X.c2sc" horiz-adv-x="564" 
d="M399 0l-119 203l-117 -203h-149l193 311l-186 302h151l112 -194l115 194h149l-191 -302l193 -311h-151z" />
    <glyph glyph-name="uni1E8C" unicode="&#x1e8c;" horiz-adv-x="610" 
d="M148 791q-19 19 -19 51q0 34 19 53t53 19t53.5 -19t19.5 -52q0 -34 -19 -52.5t-54 -18.5q-34 0 -53 19zM355 791q-19 19 -19 51q0 34 19 53t53 19t53.5 -19t19.5 -52q0 -34 -19 -52.5t-54 -18.5q-34 0 -53 19zM440 0l-137 252l-135 -252h-152l213 367l-205 357h154
l130 -242l132 242h152l-211 -357l213 -367h-154z" />
    <glyph glyph-name="uni1E8A" unicode="&#x1e8a;" horiz-adv-x="610" 
d="M245.5 796.5q-21.5 20.5 -21.5 56.5q0 37 21.5 57.5t59.5 20.5t59.5 -20.5t21.5 -56.5q0 -37 -21.5 -57.5t-59.5 -20.5t-59.5 20.5zM440 0l-137 252l-135 -252h-152l213 367l-205 357h154l130 -242l132 242h152l-211 -357l213 -367h-154z" />
    <glyph glyph-name="Y" unicode="Y" horiz-adv-x="590" 
d="M579 724l-216 -485v-239h-138v239l-214 485h147l138 -335l137 335h146z" />
    <glyph glyph-name="Y.c2sc" horiz-adv-x="545" 
d="M536 613l-196 -417v-196h-136v196l-195 417h144l121 -276l119 276h143z" />
    <glyph glyph-name="Yacute" unicode="&#xdd;" horiz-adv-x="590" 
d="M322 781h-114v12l145 133h151v-12zM579 724l-216 -485v-239h-138v239l-214 485h147l138 -335l137 335h146z" />
    <glyph glyph-name="Yacute.c2sc" horiz-adv-x="545" 
d="M536 613l-196 -417v-196h-136v196l-195 417h144l121 -276l119 276h143zM198 684l95 159h141v-10l-132 -159h-104v10z" />
    <glyph glyph-name="Ycircumflex" unicode="&#x176;" horiz-adv-x="590" 
d="M210 781h-98v12l117 133h130l117 -133v-12h-101l-83 76zM579 724l-216 -485v-239h-138v239l-214 485h147l138 -335l137 335h146z" />
    <glyph glyph-name="Ycircumflex.c2sc" horiz-adv-x="545" 
d="M536 613l-196 -417v-196h-136v196l-195 417h144l121 -276l119 276h143zM436 684v-10h-95l-71 88l-70 -88h-92v10l102 159h124z" />
    <glyph glyph-name="Ydieresis" unicode="&#x178;" horiz-adv-x="590" 
d="M137 791q-19 19 -19 51q0 34 19 53t53 19t53.5 -19t19.5 -52q0 -34 -19 -52.5t-54 -18.5q-34 0 -53 19zM344 791q-19 19 -19 51q0 34 19 53t53 19t53.5 -19t19.5 -52q0 -34 -19 -52.5t-54 -18.5q-34 0 -53 19zM579 724l-216 -485v-239h-138v239l-214 485h147l138 -335
l137 335h146z" />
    <glyph glyph-name="Ydieresis.c2sc" horiz-adv-x="545" 
d="M121 692q-19 19 -19 51q0 34 19 53t53 19t53.5 -19t19.5 -52q0 -34 -19 -52.5t-54 -18.5q-34 0 -53 19zM316 692q-19 19 -19 51q0 34 19 53t53 19t53.5 -19t19.5 -52q0 -34 -19 -52.5t-54 -18.5q-34 0 -53 19zM536 613l-196 -417v-196h-136v196l-195 417h144l121 -276
l119 276h143z" />
    <glyph glyph-name="uni1E8E" unicode="&#x1e8e;" horiz-adv-x="590" 
d="M234.5 796.5q-21.5 20.5 -21.5 56.5q0 37 21.5 57.5t59.5 20.5t59.5 -20.5t21.5 -56.5q0 -37 -21.5 -57.5t-59.5 -20.5t-59.5 20.5zM579 724l-216 -485v-239h-138v239l-214 485h147l138 -335l137 335h146z" />
    <glyph glyph-name="uni1EF4" unicode="&#x1ef4;" horiz-adv-x="590" 
d="M579 724l-216 -485v-239h-138v239l-214 485h147l138 -335l137 335h146zM234.5 -207.5q-21.5 20.5 -21.5 56.5q0 37 21.5 57.5t59.5 20.5t59.5 -20.5t21.5 -56.5q0 -37 -21.5 -57.5t-59.5 -20.5t-59.5 20.5z" />
    <glyph glyph-name="Ygrave" unicode="&#x1ef2;" horiz-adv-x="590" 
d="M265 781l-173 133v12h151l136 -133v-12h-114zM579 724l-216 -485v-239h-138v239l-214 485h147l138 -335l137 335h146z" />
    <glyph glyph-name="uni01B3" unicode="&#x1b3;" horiz-adv-x="655" 
d="M694 581l-111 -20q-4 29 -11.5 42t-20.5 13q-11 0 -19.5 -9t-18.5 -31l-150 -337v-239h-138v239l-214 485h147l138 -335l89 217q30 72 69 104.5t97 32.5q131 0 143 -162z" />
    <glyph glyph-name="uni1EF6" unicode="&#x1ef6;" horiz-adv-x="590" 
d="M210 861l-30 64q25 16 58 25t68 9q52 0 80.5 -20t28.5 -56q0 -28 -13.5 -41t-36.5 -21q-14 -6 -20 -10.5t-6 -12.5l2 -17h-94q-2 12 -2 22q0 19 9.5 29t26.5 18q10 4 15 8.5t5 10.5q0 12 -23 12q-28 0 -68 -20zM579 724l-216 -485v-239h-138v239l-214 485h147l138 -335
l137 335h146z" />
    <glyph glyph-name="uni1EFE" unicode="&#x1efe;" horiz-adv-x="620" 
d="M651 724l-276 -579q-42 -89 -93 -128.5t-123 -39.5q-67 0 -103.5 32t-36.5 90q0 75 60.5 124t172.5 67l-217 434h146l168 -364l157 364h145zM234 142l27 51q-63 -10 -92 -27.5t-29 -46.5t28 -29q38 0 66 52z" />
    <glyph glyph-name="uni0232" unicode="&#x232;" horiz-adv-x="590" 
d="M458 806h-328v92h328v-92zM579 724l-216 -485v-239h-138v239l-214 485h147l138 -335l137 335h146z" />
    <glyph glyph-name="uni021C" unicode="&#x21c;" horiz-adv-x="533" 
d="M505 195q0 -83 -49.5 -142.5t-154 -100.5t-271.5 -68l-20 114q131 23 207.5 50t111 64t34.5 90q0 86 -87 125q-63 -33 -159 -67l-38 105q133 49 188 90t55 93q0 70 -95 70q-79 0 -165 -44l-46 110q50 25 110 39t118 14q104 0 161.5 -45.5t57.5 -128.5q0 -99 -89 -173
q131 -60 131 -195z" />
    <glyph glyph-name="uni01A6" unicode="&#x1a6;" horiz-adv-x="600" 
d="M324 207h-108v-207h-138v724h138v-81h121q113 0 175 -56.5t62 -160.5q0 -70 -29 -119t-84 -75l229 -342h-170zM216 325h121q95 0 95 97q0 100 -99 100h-117v-197z" />
    <glyph glyph-name="uni024E" unicode="&#x24e;" horiz-adv-x="590" 
d="M528 609h50v-102h-96l-119 -268v-239h-138v239l-118 268h-96v102h51l-51 115h147l47 -115h181l47 115h146zM345 507h-97l48 -118z" />
    <glyph glyph-name="uni1EF8" unicode="&#x1ef8;" horiz-adv-x="590" 
d="M184 787h-75q1 71 31 110.5t83 39.5q27 0 46.5 -9t45.5 -26q15 -11 26.5 -16.5t23.5 -5.5q33 0 39 55h75q-1 -71 -31 -110.5t-83 -39.5q-27 0 -46.5 9t-45.5 26q-15 11 -26.5 16.5t-23.5 5.5q-33 0 -39 -55zM579 724l-216 -485v-239h-138v239l-214 485h147l138 -335
l137 335h146z" />
    <glyph glyph-name="Z" unicode="Z" horiz-adv-x="555" 
d="M520 121v-121h-487v122l325 481h-311v121h467v-121l-325 -482h331z" />
    <glyph glyph-name="Z.c2sc" horiz-adv-x="515" 
d="M482 119v-119h-451v120l288 374h-275v119h433v-119l-289 -375h294z" />
    <glyph glyph-name="Zacute" unicode="&#x179;" horiz-adv-x="555" 
d="M304 781h-114v12l145 133h151v-12zM520 121v-121h-487v122l325 481h-311v121h467v-121l-325 -482h331z" />
    <glyph glyph-name="Zacute.c2sc" horiz-adv-x="515" 
d="M482 119v-119h-451v120l288 374h-275v119h433v-119l-289 -375h294zM182 684l95 159h141v-10l-132 -159h-104v10z" />
    <glyph glyph-name="Zcaron" unicode="&#x17d;" horiz-adv-x="555" 
d="M211 781l-117 133v12h101l83 -76l82 76h98v-12l-117 -133h-130zM520 121v-121h-487v122l325 481h-311v121h467v-121l-325 -482h331z" />
    <glyph glyph-name="Zcaron.c2sc" horiz-adv-x="515" 
d="M482 119v-119h-451v120l288 374h-275v119h433v-119l-289 -375h294zM420 843v-10l-102 -159h-124l-102 159v10h95l70 -88l71 88h92z" />
    <glyph glyph-name="uni1E90" unicode="&#x1e90;" horiz-adv-x="555" 
d="M192 781h-98v12l117 133h130l117 -133v-12h-101l-83 76zM520 121v-121h-487v122l325 481h-311v121h467v-121l-325 -482h331z" />
    <glyph glyph-name="uni2C6B" unicode="&#x2c6b;" horiz-adv-x="555" 
d="M520 -155h-103l-22 155h-362v122l325 481h-311v121h467v-121l-325 -482h331v-276z" />
    <glyph glyph-name="Zdotaccent" unicode="&#x17b;" horiz-adv-x="555" 
d="M216.5 796.5q-21.5 20.5 -21.5 56.5q0 37 21.5 57.5t59.5 20.5t59.5 -20.5t21.5 -56.5q0 -37 -21.5 -57.5t-59.5 -20.5t-59.5 20.5zM520 121v-121h-487v122l325 481h-311v121h467v-121l-325 -482h331z" />
    <glyph glyph-name="Zdotaccent.c2sc" horiz-adv-x="515" 
d="M482 119v-119h-451v120l288 374h-275v119h433v-119l-289 -375h294zM196.5 696.5q-21.5 20.5 -21.5 56.5q0 37 21.5 57.5t59.5 20.5t59.5 -20.5t21.5 -56.5q0 -37 -21.5 -57.5t-59.5 -20.5t-59.5 20.5z" />
    <glyph glyph-name="uni1E92" unicode="&#x1e92;" horiz-adv-x="555" 
d="M520 121v-121h-487v122l325 481h-311v121h467v-121l-325 -482h331zM220.5 -207.5q-21.5 20.5 -21.5 56.5q0 37 21.5 57.5t59.5 20.5t59.5 -20.5t21.5 -56.5q0 -37 -21.5 -57.5t-59.5 -20.5t-59.5 20.5z" />
    <glyph glyph-name="uni0224" unicode="&#x224;" horiz-adv-x="555" 
d="M489.5 73q47.5 -48 47.5 -136q0 -26 -4 -47h-122q3 33 3 48q0 32 -14.5 47t-43.5 15h-323v122l325 481h-311v121h467v-121l-325 -482h167q86 0 133.5 -48z" />
    <glyph glyph-name="uni1E94" unicode="&#x1e94;" horiz-adv-x="555" 
d="M520 121v-121h-487v122l325 481h-311v121h467v-121l-325 -482h331zM116 -96h328v-92h-328v92z" />
    <glyph glyph-name="uni01B5" unicode="&#x1b5;" horiz-adv-x="555" 
d="M520 121v-121h-487v122l138 205h-96v103h166l117 173h-311v121h467v-121l-117 -173h81v-103h-150l-139 -206h331z" />
    <glyph glyph-name="uniA722" unicode="&#xa722;" horiz-adv-x="319" 
d="M54 724h75q81 0 125.5 -36.5t44.5 -103.5q0 -68 -51 -117.5t-163 -91.5l-41 76q76 34 106.5 61.5t30.5 59.5q0 50 -69 50h-72zM54 339h75q81 0 125.5 -36.5t44.5 -103.5q0 -68 -51 -117.5t-163 -91.5l-41 76q76 34 106.5 61.5t30.5 59.5q0 50 -69 50h-72z" />
    <glyph glyph-name="uniA724" unicode="&#xa724;" horiz-adv-x="319" 
d="M207 622q-69 0 -69 -50q0 -32 30.5 -59.5t106.5 -61.5l-41 -76q-112 42 -163 91.5t-51 117.5q0 67 44.5 103.5t125.5 36.5h75l14 -102h-72z" />
    <glyph glyph-name="uni1D01" unicode="&#x1d01;" horiz-adv-x="795" 
d="M769 121v-121h-391v89h-197l-48 -89h-143l302 546h135h329v-121h-246v-85h177v-122h-177v-97h259zM378 207v248l-134 -248h134z" />
    <glyph glyph-name="uni1D00" unicode="&#x1d00;" horiz-adv-x="571" 
d="M388 97h-206l-30 -97h-141l201 546h147l201 -546h-142zM351 214l-67 213l-66 -213h133z" />
    <glyph glyph-name="uni1D03" unicode="&#x1d03;" horiz-adv-x="552" 
d="M554 236h-55q19 -26 19 -65q0 -82 -53.5 -126.5t-152.5 -44.5h-179h-74v233h-52v91h52v222h135h91q95 0 147 -42t52 -119q0 -37 -20 -63h90v-86zM194 426v-91h91q61 0 61 46q0 24 -16.5 34.5t-51.5 10.5h-84zM380 168q0 53 -68 53h-118v-102h125q61 0 61 49z" />
    <glyph glyph-name="uni0299" unicode="&#x299;" horiz-adv-x="567" 
d="M533 171q0 -82 -53.5 -126.5t-152.5 -44.5h-179h-74v546h135h91q95 0 147 -42t52 -119q0 -69 -66 -96q100 -33 100 -118zM209 426v-91h91q61 0 61 46q0 24 -16.5 34.5t-51.5 10.5h-84zM395 168q0 53 -68 53h-118v-102h125q61 0 61 49z" />
    <glyph glyph-name="uni1D04" unicode="&#x1d04;" horiz-adv-x="520" 
d="M109 61.5q-75 70.5 -75 199.5q0 139 75 217t207 78q49 0 96.5 -13t80.5 -37l-46 -101q-64 30 -133 30q-68 0 -104.5 -43t-36.5 -122q0 -156 152 -156q78 0 127 26l46 -100q-28 -23 -75 -36t-103 -13q-136 0 -211 70.5z" />
    <glyph glyph-name="uni1D05" unicode="&#x1d05;" horiz-adv-x="606" 
d="M492.5 478q69.5 -68 69.5 -204q0 -138 -69 -206t-202 -68h-217v546h216q133 0 202.5 -68zM389 159q34 38 34 115t-33 114t-102 37h-78v-304h76q69 0 103 38z" />
    <glyph glyph-name="uni1D07" unicode="&#x1d07;" horiz-adv-x="507" 
d="M481 121v-121h-407v546h395v-121h-259v-85h189v-122h-189v-97h271z" />
    <glyph glyph-name="uni1D06" unicode="&#x1d06;" horiz-adv-x="592" 
d="M477.5 478q69.5 -68 69.5 -204q0 -138 -69 -206t-202 -68h-217v227h-52v99h52v220h216q133 0 202.5 -68zM374 159q34 38 34 115t-33 114t-102 37h-78v-99h117v-99h-117v-106h76q69 0 103 38z" />
    <glyph glyph-name="uni1D23" unicode="&#x1d23;" horiz-adv-x="519" 
d="M438 288.5q49 -37.5 49 -112.5q0 -62 -37 -104t-98 -62t-133 -20q-121 0 -213 43l46 108q42 -16 80.5 -23.5t83.5 -7.5q61 0 96.5 19t35.5 50q0 41 -42 52.5t-133 11.5h-37v95l145 90h-246v118h412v-122l-143 -87q85 -11 134 -48.5z" />
    <glyph glyph-name="uniA730" unicode="&#xa730;" horiz-adv-x="471" 
d="M210 425v-104h204v-122h-204v-199h-136v546h387v-121h-251z" />
    <glyph glyph-name="uni0262" unicode="&#x262;" horiz-adv-x="581" 
d="M527 331v-293q-36 -23 -86.5 -35.5t-104.5 -12.5q-140 0 -216 73.5t-76 209.5q0 135 76 209t216 74q57 0 106 -13t82 -36l-39 -107q-81 36 -151 36q-76 0 -113.5 -40t-37.5 -123q0 -82 38 -122t115 -40q27 0 55 5v96h-95v119h231z" />
    <glyph glyph-name="uni029B" unicode="&#x29b;" horiz-adv-x="677" 
d="M641 685v-109q-33 3 -48 3q-35 0 -52 -17.5t-17 -53.5v-108h-39q-81 36 -151 36q-76 0 -113.5 -40t-37.5 -123q0 -82 38 -122t115 -40q27 0 55 5v96h-95v119h231v-293q-36 -23 -86.5 -35.5t-104.5 -12.5q-140 0 -216 73.5t-76 209.5q0 135 76 209t216 74q43 0 77 -7
q11 68 58 104t123 36q26 0 47 -4z" />
    <glyph glyph-name="uni029C" unicode="&#x29c;" horiz-adv-x="622" 
d="M548 546v-546h-136v217h-202v-217h-136v546h136v-209h202v209h136z" />
    <glyph glyph-name="uni026A" unicode="&#x26a;" horiz-adv-x="288" 
d="M76 546h136v-546h-136v546z" />
    <glyph glyph-name="uni1D0A" unicode="&#x1d0a;" horiz-adv-x="416" 
d="M66 2.5q-42 12.5 -70 35.5l47 102q59 -28 104 -28q64 0 64 45v389h136v-402q0 -73 -50 -113.5t-141 -40.5q-48 0 -90 12.5z" />
    <glyph glyph-name="uni1D0B" unicode="&#x1d0b;" horiz-adv-x="555" 
d="M271 214l-61 -70v-144h-136v546h136v-233l190 233h159l-201 -232l215 -314h-160z" />
    <glyph glyph-name="uni029F" unicode="&#x29f;" horiz-adv-x="459" 
d="M441 121v-121h-369v546h136v-425h233z" />
    <glyph glyph-name="uni1D0C" unicode="&#x1d0c;" horiz-adv-x="461" 
d="M441 121v-121h-369v179l-39 -21h-8v102l47 23v263h136v-195l140 72h8v-103l-148 -73v-126h233z" />
    <glyph glyph-name="uni1D0D" unicode="&#x1d0d;" horiz-adv-x="751" 
d="M677 546v-546h-132v333l-99 -232h-142l-100 231v-332h-130v546h164l138 -327l135 327h166z" />
    <glyph glyph-name="uniA7FA" unicode="&#xa7fa;" horiz-adv-x="776" 
d="M702 534v-534h-628v534h136v-410h110v410h136v-410h110v410h136z" />
    <glyph glyph-name="uni1D0E" unicode="&#x1d0e;" horiz-adv-x="640" 
d="M566 546v-546h-134v319l-226 -319h-132v546h134v-317l226 317h132z" />
    <glyph glyph-name="uni0274" unicode="&#x274;" horiz-adv-x="640" 
d="M566 546v-546h-132l-226 319v-319h-134v546h132l226 -317v317h134z" />
    <glyph glyph-name="uni0276" unicode="&#x276;" horiz-adv-x="825" 
d="M799 121v-121h-392h-97q-130 0 -198 68t-68 205q0 136 68 204.5t198 68.5h131h345v-121h-246v-85h177v-122h-177v-97h259zM407 121v304h-97q-64 0 -95.5 -37t-31.5 -115t31.5 -115t95.5 -37h97z" />
    <glyph glyph-name="uni1D15" unicode="&#x1d15;" horiz-adv-x="564" 
d="M499 228.5q28 -36.5 28 -86.5q0 -73 -64 -112.5t-181 -39.5t-181 39.5t-64 112.5q0 50 27.5 86.5t79.5 54.5q-45 17 -69.5 49t-24.5 75q0 55 39.5 93.5t111.5 55.5l41 -101q-57 -19 -57 -63q0 -56 98 -56q96 0 96 54q0 44 -59 65l42 101q73 -17 112 -55.5t39 -93.5
q0 -43 -24 -75t-70 -49q52 -18 80 -54.5zM391 165q0 62 -109 62q-110 0 -110 -62q0 -60 110 -60q109 0 109 60z" />
    <glyph glyph-name="uni1D10" unicode="&#x1d10;" horiz-adv-x="520" 
d="M411 484.5q75 -70.5 75 -199.5q0 -139 -75 -217t-207 -78q-49 0 -96.5 13t-80.5 37l46 101q65 -30 133 -30t104.5 43t36.5 122q0 156 -152 156q-78 0 -127 -26l-46 100q28 23 75 36t103 13q136 0 211 -70.5z" />
    <glyph glyph-name="uni1D0F" unicode="&#x1d0f;" horiz-adv-x="620" 
d="M112 60.5q-68 70.5 -68 212.5t68 212.5t198 70.5q129 0 197.5 -70.5t68.5 -212.5t-68.5 -212.5t-197.5 -70.5q-130 0 -198 70.5zM405 151q31 40 31 122t-31 122t-95 40t-95.5 -40t-31.5 -122t31.5 -122t95.5 -40t95 40z" />
    <glyph glyph-name="uni1D18" unicode="&#x1d18;" horiz-adv-x="521" 
d="M461 495q54 -51 54 -145q0 -95 -56 -146.5t-159 -51.5h-90v-152h-136v546h136h97q100 0 154 -51zM359 291q17 18 17 55q0 41 -18.5 60t-57.5 19h-90v-152h97q35 0 52 18z" />
    <glyph glyph-name="uni1D19" unicode="&#x1d19;" horiz-adv-x="556" 
d="M482 0h-136v173h-56l-120 -173h-162l147 191q-51 21 -78 64t-27 105q0 89 53.5 137.5t153.5 48.5h225v-546zM346 287v141h-86q-71 0 -71 -71q0 -70 68 -70h89z" />
    <glyph glyph-name="uni0280" unicode="&#x280;" horiz-adv-x="556" 
d="M266 173h-56v-173h-136v546h136h89q100 0 153.5 -48.5t53.5 -137.5q0 -62 -27 -105t-78 -64l147 -191h-162zM210 287h89q68 0 68 70q0 71 -71 71h-86v-141z" />
    <glyph glyph-name="uni0281" unicode="&#x281;" horiz-adv-x="556" 
d="M479 291q27 -43 27 -105q0 -89 -53.5 -137.5t-153.5 -48.5h-108h-117v546h136v-173h56l120 173h162l-147 -191q51 -21 78 -64zM367 189q0 70 -68 70h-89v-141h86q71 0 71 71z" />
    <glyph glyph-name="uniA731" unicode="&#xa731;" horiz-adv-x="488" 
d="M120 5q-54 14 -95 40l42 103q80 -42 164 -42q49 0 71 10t22 34q0 19 -17.5 31.5t-58.5 23.5l-68 17q-79 20 -113 56t-34 99q0 86 54 132t155 46q97 0 196 -41l-44 -103q-87 29 -154 29q-41 0 -59.5 -9t-18.5 -30q0 -19 17 -31.5t58 -22.5l69 -17q79 -19 113 -55.5
t34 -101.5q0 -88 -57.5 -135t-164.5 -47q-57 0 -111 14z" />
    <glyph glyph-name="uni1D1B" unicode="&#x1d1b;" horiz-adv-x="453" 
d="M441 424h-146v-424h-136v424h-147v122h283h146v-122z" />
    <glyph glyph-name="uni1D1A" unicode="&#x1d1a;" horiz-adv-x="556" 
d="M482 546v-546h-136h-89q-100 0 -153.5 48.5t-53.5 137.5q0 62 27 105t78 64l-147 191h162l120 -173h56v173h136zM346 118v141h-89q-68 0 -68 -70q0 -71 71 -71h86z" />
    <glyph glyph-name="uni2C7B" unicode="&#x2c7b;" horiz-adv-x="507" 
d="M433 546v-546h-395v121h259v85h-189v122h189v97h-271v121h407z" />
    <glyph glyph-name="uni1D1C" unicode="&#x1d1c;" horiz-adv-x="607" 
d="M129.5 40q-60.5 50 -60.5 144v362h136v-350q0 -44 24 -64.5t73 -20.5q51 0 75.5 20.5t24.5 64.5v350h136v-362q0 -94 -61.5 -144t-174.5 -50q-112 0 -172.5 50z" />
    <glyph glyph-name="uni1D20" unicode="&#x1d20;" horiz-adv-x="542" 
d="M527 546l-183 -546h-146l-183 546h142l115 -415l114 415h141z" />
    <glyph glyph-name="uni1D21" unicode="&#x1d21;" horiz-adv-x="764" 
d="M747 546l-140 -546h-146l-80 380l-78 -380h-147l-139 546h139l75 -398l79 397h145l79 -395l75 396h138z" />
    <glyph glyph-name="uni028F" unicode="&#x28f;" horiz-adv-x="503" 
d="M496 546l-178 -376v-170h-136v170l-175 376h144l102 -236l100 236h143z" />
    <glyph glyph-name="uni1D22" unicode="&#x1d22;" horiz-adv-x="478" 
d="M447 119v-119h-418v119l254 308h-242v119h400v-119l-253 -308h259z" />
    <glyph glyph-name="a" unicode="a" horiz-adv-x="536" 
d="M416 512q55 -47 55 -132v-380h-121v80q-49 -91 -161 -91q-78 0 -120.5 43t-42.5 121q0 98 73.5 143.5t237.5 47.5v20q0 75 -102 75q-62 0 -127 -28l-34 104q93 44 186 44q101 0 156 -47zM337 156v98q-96 -1 -139 -22.5t-43 -67.5q0 -61 69 -61q65 0 113 53z" />
    <glyph glyph-name="uniA733" unicode="&#xa733;" horiz-adv-x="825" 
d="M705 512q55 -47 55 -132v-380h-121v56q-35 -34 -73.5 -50.5t-84.5 -16.5q-97 0 -133 71q-36 -37 -75.5 -54t-86.5 -17q-76 0 -118 42t-42 119q0 96 72.5 140.5t232.5 46.5v27q0 75 -99 75q-61 0 -124 -28l-34 104q93 44 183 44q80 0 127 -38q76 38 165 38q101 0 156 -47z
M524 439q-52 0 -86 -12q4 -20 4 -47v-69q65 24 184 26v27q0 75 -102 75zM331 156v91q-93 -1 -134.5 -22t-41.5 -65q0 -57 66 -57q63 0 110 53zM626 156v91q-93 -1 -134.5 -22t-41.5 -65q0 -57 66 -57q63 0 110 53z" />
    <glyph glyph-name="aacute" unicode="&#xe1;" horiz-adv-x="536" 
d="M416 512q55 -47 55 -132v-380h-121v80q-49 -91 -161 -91q-78 0 -120.5 43t-42.5 121q0 98 73.5 143.5t237.5 47.5v20q0 75 -102 75q-62 0 -127 -28l-34 104q93 44 186 44q101 0 156 -47zM337 156v98q-96 -1 -139 -22.5t-43 -67.5q0 -61 69 -61q65 0 113 53zM183 625
l95 159h141v-10l-132 -159h-104v10z" />
    <glyph glyph-name="abreve" unicode="&#x103;" horiz-adv-x="536" 
d="M416 512q55 -47 55 -132v-380h-121v80q-49 -91 -161 -91q-78 0 -120.5 43t-42.5 121q0 98 73.5 143.5t237.5 47.5v20q0 75 -102 75q-62 0 -127 -28l-34 104q93 44 186 44q101 0 156 -47zM337 156v98q-96 -1 -139 -22.5t-43 -67.5q0 -61 69 -61q65 0 113 53zM140 653.5
q-42 43.5 -45 126.5h78q10 -73 85 -73q76 0 86 73h75q-3 -83 -45 -126.5t-117 -43.5t-117 43.5z" />
    <glyph glyph-name="uni1EAF" unicode="&#x1eaf;" horiz-adv-x="536" 
d="M298 764h-90v10l73 127h119v-10zM142 652.5q-42 42.5 -45 119.5h74q9 -72 87 -72q79 0 88 72h71q-3 -77 -45 -119.5t-115 -42.5t-115 42.5zM416 512q55 -47 55 -132v-380h-121v80q-49 -91 -161 -91q-78 0 -120.5 43t-42.5 121q0 98 73.5 143.5t237.5 47.5v20
q0 75 -102 75q-62 0 -127 -28l-34 104q93 44 186 44q101 0 156 -47zM337 156v98q-96 -1 -139 -22.5t-43 -67.5q0 -61 69 -61q65 0 113 53z" />
    <glyph glyph-name="uni1EB7" unicode="&#x1eb7;" horiz-adv-x="536" 
d="M416 512q55 -47 55 -132v-380h-121v80q-49 -91 -161 -91q-78 0 -120.5 43t-42.5 121q0 98 73.5 143.5t237.5 47.5v20q0 75 -102 75q-62 0 -127 -28l-34 104q93 44 186 44q101 0 156 -47zM337 156v98q-96 -1 -139 -22.5t-43 -67.5q0 -61 69 -61q65 0 113 53zM187.5 -207.5
q-21.5 20.5 -21.5 56.5q0 37 21.5 57.5t59.5 20.5t59.5 -20.5t21.5 -56.5q0 -37 -21.5 -57.5t-59.5 -20.5t-59.5 20.5zM140 653.5q-42 43.5 -45 126.5h78q10 -73 85 -73q76 0 86 73h75q-3 -83 -45 -126.5t-117 -43.5t-117 43.5z" />
    <glyph glyph-name="uni1EB1" unicode="&#x1eb1;" horiz-adv-x="536" 
d="M216 764l-96 127v10h119l67 -127v-10h-90zM142 652.5q-42 42.5 -45 119.5h74q9 -72 87 -72q79 0 88 72h71q-3 -77 -45 -119.5t-115 -42.5t-115 42.5zM416 512q55 -47 55 -132v-380h-121v80q-49 -91 -161 -91q-78 0 -120.5 43t-42.5 121q0 98 73.5 143.5t237.5 47.5v20
q0 75 -102 75q-62 0 -127 -28l-34 104q93 44 186 44q101 0 156 -47zM337 156v98q-96 -1 -139 -22.5t-43 -67.5q0 -61 69 -61q65 0 113 53z" />
    <glyph glyph-name="uni1EB3" unicode="&#x1eb3;" horiz-adv-x="536" 
d="M181 854l-28 61q23 14 52.5 21.5t59.5 7.5q49 0 76.5 -20.5t27.5 -57.5q0 -27 -12 -39t-32 -21q-12 -5 -18.5 -10.5t-6.5 -13.5q0 -6 2 -18h-90q-2 12 -2 21q0 20 8 30t24 20q9 5 14 9.5t5 11.5q0 14 -23 14q-24 0 -57 -16zM142 652.5q-42 42.5 -45 119.5h74
q9 -72 87 -72q79 0 88 72h71q-3 -77 -45 -119.5t-115 -42.5t-115 42.5zM416 512q55 -47 55 -132v-380h-121v80q-49 -91 -161 -91q-78 0 -120.5 43t-42.5 121q0 98 73.5 143.5t237.5 47.5v20q0 75 -102 75q-62 0 -127 -28l-34 104q93 44 186 44q101 0 156 -47zM337 156v98
q-96 -1 -139 -22.5t-43 -67.5q0 -61 69 -61q65 0 113 53z" />
    <glyph glyph-name="uni1EB5" unicode="&#x1eb5;" horiz-adv-x="536" 
d="M156 818h-68q0 65 29 101t82 36q27 0 43.5 -8.5t31.5 -23.5q14 -12 21.5 -16.5t20.5 -4.5q36 0 42 51h68q0 -65 -29 -101t-82 -36q-27 0 -43.5 8.5t-31.5 23.5q-14 12 -21.5 16.5t-20.5 4.5q-36 0 -42 -51zM346 772h71q-3 -77 -45 -119.5t-115 -42.5t-115 42.5t-45 119.5
h74q9 -72 87 -72q79 0 88 72zM416 512q55 -47 55 -132v-380h-121v80q-49 -91 -161 -91q-78 0 -120.5 43t-42.5 121q0 98 73.5 143.5t237.5 47.5v20q0 75 -102 75q-62 0 -127 -28l-34 104q93 44 186 44q101 0 156 -47zM337 156v98q-96 -1 -139 -22.5t-43 -67.5q0 -61 69 -61
q65 0 113 53z" />
    <glyph glyph-name="uni01CE" unicode="&#x1ce;" horiz-adv-x="536" 
d="M416 512q55 -47 55 -132v-380h-121v80q-49 -91 -161 -91q-78 0 -120.5 43t-42.5 121q0 98 73.5 143.5t237.5 47.5v20q0 75 -102 75q-62 0 -127 -28l-34 104q93 44 186 44q101 0 156 -47zM337 156v98q-96 -1 -139 -22.5t-43 -67.5q0 -61 69 -61q65 0 113 53zM421 784v-10
l-102 -159h-124l-102 159v10h95l70 -88l71 88h92z" />
    <glyph glyph-name="acircumflex" unicode="&#xe2;" horiz-adv-x="536" 
d="M416 512q55 -47 55 -132v-380h-121v80q-49 -91 -161 -91q-78 0 -120.5 43t-42.5 121q0 98 73.5 143.5t237.5 47.5v20q0 75 -102 75q-62 0 -127 -28l-34 104q93 44 186 44q101 0 156 -47zM337 156v98q-96 -1 -139 -22.5t-43 -67.5q0 -61 69 -61q65 0 113 53zM421 625v-10
h-95l-71 88l-70 -88h-92v10l102 159h124z" />
    <glyph glyph-name="uni1EA5" unicode="&#x1ea5;" horiz-adv-x="536" 
d="M574 863v-10l-102 -127h-90v10l73 127h119zM183 615h-92v10l104 139h124l104 -139v-10h-95l-73 77zM416 512q55 -47 55 -132v-380h-121v80q-49 -91 -161 -91q-78 0 -120.5 43t-42.5 121q0 98 73.5 143.5t237.5 47.5v20q0 75 -102 75q-62 0 -127 -28l-34 104q93 44 186 44
q101 0 156 -47zM337 156v98q-96 -1 -139 -22.5t-43 -67.5q0 -61 69 -61q65 0 113 53z" />
    <glyph glyph-name="uni1EAD" unicode="&#x1ead;" horiz-adv-x="536" 
d="M416 512q55 -47 55 -132v-380h-121v80q-49 -91 -161 -91q-78 0 -120.5 43t-42.5 121q0 98 73.5 143.5t237.5 47.5v20q0 75 -102 75q-62 0 -127 -28l-34 104q93 44 186 44q101 0 156 -47zM337 156v98q-96 -1 -139 -22.5t-43 -67.5q0 -61 69 -61q65 0 113 53zM187.5 -207.5
q-21.5 20.5 -21.5 56.5q0 37 21.5 57.5t59.5 20.5t59.5 -20.5t21.5 -56.5q0 -37 -21.5 -57.5t-59.5 -20.5t-59.5 20.5zM421 625v-10h-95l-71 88l-70 -88h-92v10l102 159h124z" />
    <glyph glyph-name="uni1EA7" unicode="&#x1ea7;" horiz-adv-x="536" 
d="M42 726l-96 127v10h119l67 -127v-10h-90zM91 625l104 139h124l104 -139v-10h-95l-73 77l-72 -77h-92v10zM416 512q55 -47 55 -132v-380h-121v80q-49 -91 -161 -91q-78 0 -120.5 43t-42.5 121q0 98 73.5 143.5t237.5 47.5v20q0 75 -102 75q-62 0 -127 -28l-34 104
q93 44 186 44q101 0 156 -47zM337 156v98q-96 -1 -139 -22.5t-43 -67.5q0 -61 69 -61q65 0 113 53z" />
    <glyph glyph-name="uni1EA9" unicode="&#x1ea9;" horiz-adv-x="536" 
d="M515.5 885.5q27.5 -20.5 27.5 -57.5q0 -27 -12 -39t-32 -21q-12 -5 -18.5 -10.5t-6.5 -13.5q0 -6 2 -18h-90q-2 12 -2 21q0 20 8 30t24 20q9 5 14 9.5t5 11.5q0 14 -23 14q-24 0 -57 -16l-28 61q23 14 52.5 21.5t59.5 7.5q49 0 76.5 -20.5zM183 615h-92v10l104 139h124
l104 -139v-10h-95l-73 77zM416 512q55 -47 55 -132v-380h-121v80q-49 -91 -161 -91q-78 0 -120.5 43t-42.5 121q0 98 73.5 143.5t237.5 47.5v20q0 75 -102 75q-62 0 -127 -28l-34 104q93 44 186 44q101 0 156 -47zM337 156v98q-96 -1 -139 -22.5t-43 -67.5q0 -61 69 -61
q65 0 113 53z" />
    <glyph glyph-name="uni1EAB" unicode="&#x1eab;" horiz-adv-x="536" 
d="M156 800h-68q0 65 29 101t82 36q27 0 43.5 -8.5t31.5 -23.5q14 -12 21.5 -16.5t20.5 -4.5q36 0 42 51h68q0 -65 -29 -101t-82 -36q-27 0 -43.5 8.5t-31.5 23.5q-14 12 -21.5 16.5t-20.5 4.5q-36 0 -42 -51zM319 764l104 -139v-10h-95l-73 77l-72 -77h-92v10l104 139h124z
M416 512q55 -47 55 -132v-380h-121v80q-49 -91 -161 -91q-78 0 -120.5 43t-42.5 121q0 98 73.5 143.5t237.5 47.5v20q0 75 -102 75q-62 0 -127 -28l-34 104q93 44 186 44q101 0 156 -47zM337 156v98q-96 -1 -139 -22.5t-43 -67.5q0 -61 69 -61q65 0 113 53z" />
    <glyph glyph-name="uni0201" unicode="&#x201;" horiz-adv-x="536" 
d="M416 512q55 -47 55 -132v-380h-121v80q-49 -91 -161 -91q-78 0 -120.5 43t-42.5 121q0 98 73.5 143.5t237.5 47.5v20q0 75 -102 75q-62 0 -127 -28l-34 104q93 44 186 44q101 0 156 -47zM337 156v98q-96 -1 -139 -22.5t-43 -67.5q0 -61 69 -61q65 0 113 53zM153 615
l-83 159v10h121l48 -159v-10h-86zM308 615l-81 159v10h121l46 -159v-10h-86z" />
    <glyph glyph-name="adieresis" unicode="&#xe4;" horiz-adv-x="536" 
d="M106 633q-19 19 -19 51q0 34 19 53t53 19t53.5 -19t19.5 -52q0 -34 -19 -52.5t-54 -18.5q-34 0 -53 19zM301 633q-19 19 -19 51q0 34 19 53t53 19t53.5 -19t19.5 -52q0 -34 -19 -52.5t-54 -18.5q-34 0 -53 19zM416 512q55 -47 55 -132v-380h-121v80q-49 -91 -161 -91
q-78 0 -120.5 43t-42.5 121q0 98 73.5 143.5t237.5 47.5v20q0 75 -102 75q-62 0 -127 -28l-34 104q93 44 186 44q101 0 156 -47zM337 156v98q-96 -1 -139 -22.5t-43 -67.5q0 -61 69 -61q65 0 113 53z" />
    <glyph glyph-name="uni01DF" unicode="&#x1df;" horiz-adv-x="536" 
d="M421 798h-328v92h328v-92zM106 633q-19 19 -19 51q0 34 19 53t53 19t53.5 -19t19.5 -52q0 -34 -19 -52.5t-54 -18.5q-34 0 -53 19zM407.5 737q19.5 -19 19.5 -52q0 -34 -19 -52.5t-54 -18.5q-34 0 -53 19t-19 51q0 34 19 53t53 19t53.5 -19zM416 512q55 -47 55 -132v-380
h-121v80q-49 -91 -161 -91q-78 0 -120.5 43t-42.5 121q0 98 73.5 143.5t237.5 47.5v20q0 75 -102 75q-62 0 -127 -28l-34 104q93 44 186 44q101 0 156 -47zM337 156v98q-96 -1 -139 -22.5t-43 -67.5q0 -61 69 -61q65 0 113 53z" />
    <glyph glyph-name="uni0227" unicode="&#x227;" horiz-adv-x="536" 
d="M416 512q55 -47 55 -132v-380h-121v80q-49 -91 -161 -91q-78 0 -120.5 43t-42.5 121q0 98 73.5 143.5t237.5 47.5v20q0 75 -102 75q-62 0 -127 -28l-34 104q93 44 186 44q101 0 156 -47zM337 156v98q-96 -1 -139 -22.5t-43 -67.5q0 -61 69 -61q65 0 113 53zM197.5 637.5
q-21.5 20.5 -21.5 56.5q0 37 21.5 57.5t59.5 20.5t59.5 -20.5t21.5 -56.5q0 -37 -21.5 -57.5t-59.5 -20.5t-59.5 20.5z" />
    <glyph glyph-name="uni1EA1" unicode="&#x1ea1;" horiz-adv-x="536" 
d="M416 512q55 -47 55 -132v-380h-121v80q-49 -91 -161 -91q-78 0 -120.5 43t-42.5 121q0 98 73.5 143.5t237.5 47.5v20q0 75 -102 75q-62 0 -127 -28l-34 104q93 44 186 44q101 0 156 -47zM337 156v98q-96 -1 -139 -22.5t-43 -67.5q0 -61 69 -61q65 0 113 53zM187.5 -207.5
q-21.5 20.5 -21.5 56.5q0 37 21.5 57.5t59.5 20.5t59.5 -20.5t21.5 -56.5q0 -37 -21.5 -57.5t-59.5 -20.5t-59.5 20.5z" />
    <glyph glyph-name="uni01E1" unicode="&#x1e1;" horiz-adv-x="536" 
d="M416 512q55 -47 55 -132v-380h-121v80q-49 -91 -161 -91q-78 0 -120.5 43t-42.5 121q0 98 73.5 143.5t237.5 47.5v20q0 75 -102 75q-62 0 -127 -28l-34 104q93 44 186 44q101 0 156 -47zM337 156v98q-96 -1 -139 -22.5t-43 -67.5q0 -61 69 -61q65 0 113 53zM197.5 637.5
q-21.5 20.5 -21.5 56.5q0 37 21.5 57.5t59.5 20.5t59.5 -20.5t21.5 -56.5q0 -37 -21.5 -57.5t-59.5 -20.5t-59.5 20.5zM93 899h328v-92h-328v92z" />
    <glyph glyph-name="uni1D02" unicode="&#x1d02;" horiz-adv-x="828" 
d="M729.5 255.5q-72.5 -44.5 -232.5 -46.5v-27q0 -75 99 -75q61 0 124 28l34 -104q-93 -44 -183 -44q-105 0 -152 64q-27 -31 -67 -47.5t-88 -16.5q-110 0 -170.5 69t-60.5 194q0 38 6 66h326q-16 120 -133 120q-62 0 -129 -32l-48 101q40 25 90 39t102 14q70 0 122 -26
t84 -76q42 53 87.5 77t101.5 24q76 0 118 -42t42 -119q0 -96 -72.5 -140.5zM487 378q10 -38 11 -79q92 1 133.5 22t41.5 65q0 57 -66 57q-68 0 -120 -65zM366 225h-198q1 -57 27 -88t72 -31q86 0 99 119z" />
    <glyph glyph-name="agrave" unicode="&#xe0;" horiz-adv-x="536" 
d="M416 512q55 -47 55 -132v-380h-121v80q-49 -91 -161 -91q-78 0 -120.5 43t-42.5 121q0 98 73.5 143.5t237.5 47.5v20q0 75 -102 75q-62 0 -127 -28l-34 104q93 44 186 44q101 0 156 -47zM337 156v98q-96 -1 -139 -22.5t-43 -67.5q0 -61 69 -61q65 0 113 53zM107 774v10
h141l87 -159v-10h-104z" />
    <glyph glyph-name="uni1EA3" unicode="&#x1ea3;" horiz-adv-x="536" 
d="M416 512q55 -47 55 -132v-380h-121v80q-49 -91 -161 -91q-78 0 -120.5 43t-42.5 121q0 98 73.5 143.5t237.5 47.5v20q0 75 -102 75q-62 0 -127 -28l-34 104q93 44 186 44q101 0 156 -47zM337 156v98q-96 -1 -139 -22.5t-43 -67.5q0 -61 69 -61q65 0 113 53zM209 638
q0 24 9 37t24 24q18 13 18 25q0 16 -23 16q-25 0 -59 -17l-29 63q50 31 116 31q50 0 77.5 -21t27.5 -59q0 -26 -10 -39t-30 -25q-14 -9 -21.5 -17t-7.5 -21q0 -8 2 -20h-92q-2 12 -2 23z" />
    <glyph glyph-name="uni1D25" unicode="&#x1d25;" horiz-adv-x="618" 
d="M80.5 -1.5q-36.5 11.5 -66.5 31.5l36 95q60 -33 107 -33q46 0 71 31q-54 66 -83.5 131.5t-29.5 118.5q0 88 51 137t143 49t143 -49t51 -137q0 -53 -29.5 -118.5t-83.5 -131.5q25 -31 70 -31t108 33l36 -95q-30 -20 -66.5 -31.5t-71.5 -11.5q-46 0 -87 20t-70 56
q-29 -36 -70 -56t-87 -20q-35 0 -71.5 11.5z" />
    <glyph glyph-name="uni0203" unicode="&#x203;" horiz-adv-x="536" 
d="M416 512q55 -47 55 -132v-380h-121v80q-49 -91 -161 -91q-78 0 -120.5 43t-42.5 121q0 98 73.5 143.5t237.5 47.5v20q0 75 -102 75q-62 0 -127 -28l-34 104q93 44 186 44q101 0 156 -47zM337 156v98q-96 -1 -139 -22.5t-43 -67.5q0 -61 69 -61q65 0 113 53zM374 747.5
q42 -43.5 45 -126.5h-78q-10 73 -85 73q-76 0 -86 -73h-75q3 83 45 126.5t117 43.5t117 -43.5z" />
    <glyph glyph-name="uni0251" unicode="&#x251;" horiz-adv-x="579" 
d="M507 546v-546h-123v78q-51 -91 -150 -91q-93 0 -144 74.5t-51 210.5q0 137 51 212t145 75q87 0 136 -60v47h136zM326 124q22 11 45 35v233q-19 22 -44 33.5t-53 11.5q-96 0 -96 -160q0 -164 100 -164q26 0 48 11z" />
    <glyph glyph-name="uni0252" unicode="&#x252;" horiz-adv-x="579" 
d="M489 484.5q51 -74.5 51 -210.5q0 -137 -51 -212t-145 -75q-87 0 -136 60v-47h-136v546h123v-78q51 91 150 91q93 0 144 -74.5zM401 269q0 164 -100 164q-26 0 -48 -11t-45 -35v-233q19 -22 44 -33.5t53 -11.5q96 0 96 160z" />
    <glyph glyph-name="amacron" unicode="&#x101;" horiz-adv-x="536" 
d="M416 512q55 -47 55 -132v-380h-121v80q-49 -91 -161 -91q-78 0 -120.5 43t-42.5 121q0 98 73.5 143.5t237.5 47.5v20q0 75 -102 75q-62 0 -127 -28l-34 104q93 44 186 44q101 0 156 -47zM337 156v98q-96 -1 -139 -22.5t-43 -67.5q0 -61 69 -61q65 0 113 53zM93 728h328
v-92h-328v92z" />
    <glyph glyph-name="uniA735" unicode="&#xa735;" horiz-adv-x="837" 
d="M735 486.5q63 -72.5 63 -213.5t-63.5 -213.5t-176.5 -72.5q-63 0 -110 25.5t-76 73.5q-42 -51 -86.5 -74t-99.5 -23q-76 0 -118 42t-42 119q0 96 72.5 140.5t232.5 46.5v27q0 75 -99 75q-61 0 -124 -28l-34 104q93 44 183 44q100 0 147 -58q60 58 155 58q113 0 176 -72.5
zM659 273q0 165 -100 165q-101 0 -101 -165t100 -165q101 0 101 165zM340 167q-9 42 -10 80q-92 -1 -133.5 -22t-41.5 -65q0 -57 66 -57q68 0 119 64z" />
    <glyph glyph-name="aogonek" unicode="&#x105;" horiz-adv-x="536" 
d="M522 -199q-24 -15 -55 -23t-63 -8q-59 0 -92 27t-33 76q0 40 22.5 73t63.5 54h-13v84q-32 -50 -70.5 -72.5t-92.5 -22.5q-78 0 -120.5 43t-42.5 121q0 98 73.5 143.5t237.5 47.5v20q0 75 -102 75q-62 0 -127 -28l-34 104q93 44 186 44q101 0 156 -47t55 -132v-380
q-81 -48 -81 -102q0 -40 46 -40q27 0 56 13zM337 156v98q-95 -1 -138.5 -22.5t-43.5 -67.5q0 -61 69 -61q65 0 113 53z" />
    <glyph glyph-name="uni1E9A" unicode="&#x1e9a;" horiz-adv-x="536" 
d="M416 512q55 -47 55 -132v-380h-121v80q-49 -91 -161 -91q-78 0 -120.5 43t-42.5 121q0 98 73.5 143.5t237.5 47.5v20q0 75 -102 75q-62 0 -127 -28l-34 104q93 44 186 44q101 0 156 -47zM337 156v98q-96 -1 -139 -22.5t-43 -67.5q0 -61 69 -61q65 0 113 53zM197 665
q53 0 53 55t-53 55v65q65 0 100.5 -31.5t35.5 -88.5t-35.5 -88.5t-100.5 -31.5v65z" />
    <glyph glyph-name="aring" unicode="&#xe5;" horiz-adv-x="536" 
d="M416 512q55 -47 55 -132v-380h-121v80q-49 -91 -161 -91q-78 0 -120.5 43t-42.5 121q0 98 73.5 143.5t237.5 47.5v20q0 75 -102 75q-62 0 -127 -28l-34 104q93 44 186 44q101 0 156 -47zM337 156v98q-96 -1 -139 -22.5t-43 -67.5q0 -61 69 -61q65 0 113 53zM156.5 631.5
q-35.5 31.5 -35.5 88.5t35.5 88.5t100.5 31.5t100.5 -31.5t35.5 -88.5t-35.5 -88.5t-100.5 -31.5t-100.5 31.5zM310 720q0 55 -53 55t-53 -55t53 -55t53 55z" />
    <glyph glyph-name="aringacute" unicode="&#x1fb;" horiz-adv-x="536" 
d="M298 875h-90v10l73 127h119v-10zM156.5 631.5q-35.5 31.5 -35.5 88.5t35.5 88.5t100.5 31.5t100.5 -31.5t35.5 -88.5t-35.5 -88.5t-100.5 -31.5t-100.5 31.5zM204 720q0 -55 53 -55t53 55t-53 55t-53 -55zM416 512q55 -47 55 -132v-380h-121v80q-49 -91 -161 -91
q-78 0 -120.5 43t-42.5 121q0 98 73.5 143.5t237.5 47.5v20q0 75 -102 75q-62 0 -127 -28l-34 104q93 44 186 44q101 0 156 -47zM337 156v98q-96 -1 -139 -22.5t-43 -67.5q0 -61 69 -61q65 0 113 53z" />
    <glyph glyph-name="uni1E01" unicode="&#x1e01;" horiz-adv-x="536" 
d="M416 512q55 -47 55 -132v-380h-121v80q-49 -91 -161 -91q-78 0 -120.5 43t-42.5 121q0 98 73.5 143.5t237.5 47.5v20q0 75 -102 75q-62 0 -127 -28l-34 104q93 44 186 44q101 0 156 -47zM337 156v98q-96 -1 -139 -22.5t-43 -67.5q0 -61 69 -61q65 0 113 53zM146.5 -261.5
q-35.5 31.5 -35.5 88.5t35.5 88.5t100.5 31.5t100.5 -31.5t35.5 -88.5t-35.5 -88.5t-100.5 -31.5t-100.5 31.5zM300 -173q0 55 -53 55t-53 -55t53 -55t53 55z" />
    <glyph glyph-name="uni2C65" unicode="&#x2c65;" horiz-adv-x="536" 
d="M447.5 474.5q23.5 -39.5 23.5 -94.5v-380h-121v80q-49 -90 -157 -91l-34 -99h-81l38 111q-44 17 -67 56t-23 96q0 81 49 125.5t155 58.5l34 100q-18 2 -29 2q-62 0 -127 -28l-34 104q93 44 186 44q24 0 45 -3l33 97h81l-40 -117q45 -22 68.5 -61.5zM313 343q8 1 24 1v20
q0 18 -6 31zM337 156v98q-29 0 -55 -3l-50 -148q60 3 105 53zM161 133l32 95q-38 -20 -38 -64q0 -17 6 -31z" />
    <glyph glyph-name="atilde" unicode="&#xe3;" horiz-adv-x="536" 
d="M416 512q55 -47 55 -132v-380h-121v80q-49 -91 -161 -91q-78 0 -120.5 43t-42.5 121q0 98 73.5 143.5t237.5 47.5v20q0 75 -102 75q-62 0 -127 -28l-34 104q93 44 186 44q101 0 156 -47zM337 156v98q-96 -1 -139 -22.5t-43 -67.5q0 -61 69 -61q65 0 113 53zM281.5 624
q-19.5 9 -45.5 26q-15 11 -26.5 16.5t-23.5 5.5q-33 0 -39 -55h-75q1 71 31 110.5t83 39.5q27 0 46.5 -9t45.5 -26q15 -11 26.5 -16.5t23.5 -5.5q33 0 39 55h75q-1 -71 -31 -110.5t-83 -39.5q-27 0 -46.5 9z" />
    <glyph glyph-name="uni0250" unicode="&#x250;" horiz-adv-x="536" 
d="M436.5 249.5q-73.5 -45.5 -237.5 -47.5v-20q0 -75 102 -75q62 0 127 28l34 -104q-93 -44 -186 -44q-101 0 -156 47t-55 132v380h121v-80q49 91 161 91q78 0 120.5 -43t42.5 -121q0 -98 -73.5 -143.5zM199 390v-98q96 1 139 22.5t43 67.5q0 61 -69 61q-65 0 -113 -53z" />
    <glyph glyph-name="uniA737" unicode="&#xa737;" horiz-adv-x="838" 
d="M766 546v-546h-123v77q-60 -90 -158 -90q-47 0 -81 19.5t-52 57.5q-37 -39 -77.5 -57t-88.5 -18q-76 0 -118 42t-42 119q0 96 72.5 140.5t232.5 46.5v27q0 75 -99 75q-61 0 -124 -28l-34 104q93 44 183 44q98 0 153 -47t55 -132v-101v-93q0 -73 73 -73q26 0 48 10.5
t44 33.5v389h136zM331 156v10v81q-93 -1 -134.5 -22t-41.5 -65q0 -57 66 -57q62 0 110 53z" />
    <glyph glyph-name="uniA739" unicode="&#xa739;" horiz-adv-x="749" 
d="M765 546l-231 -546h-73h-111v80q-49 -91 -161 -91q-78 0 -120.5 43t-42.5 121q0 98 73.5 143.5t237.5 47.5v20q0 75 -102 75q-62 0 -127 -28l-34 104q93 44 186 44q101 0 156 -47t55 -132v-271q10 53 34 120l119 317h141zM337 156v98q-96 -1 -139 -22.5t-43 -67.5
q0 -61 69 -61q65 0 113 53z" />
    <glyph glyph-name="uniA73B" unicode="&#xa73b;" horiz-adv-x="749" 
d="M765 546l-231 -546h-73h-111v80q-49 -91 -161 -91q-78 0 -120.5 43t-42.5 121q0 98 73.5 143.5t237.5 47.5v20q0 75 -102 75q-62 0 -127 -28l-34 104q93 44 186 44q101 0 156 -47t55 -132v-36h77l76 202h141zM505 229l10 26h-44v-146q10 53 34 120zM337 156v98
q-96 -1 -139 -22.5t-43 -67.5q0 -61 69 -61q65 0 113 53z" />
    <glyph glyph-name="uniA73D" unicode="&#xa73d;" horiz-adv-x="779" 
d="M765 546l-231 -546q-34 -80 -99 -133.5t-173 -86.5l-46 114q68 24 109.5 48.5t72.5 57.5h-48v80q-49 -91 -161 -91q-78 0 -120.5 43t-42.5 121q0 98 73.5 143.5t237.5 47.5v20q0 75 -102 75q-62 0 -127 -28l-34 104q93 44 186 44q101 0 156 -47t55 -132v-271
q10 53 34 120l119 317h141zM337 156v98q-96 -1 -139 -22.5t-43 -67.5q0 -61 69 -61q65 0 113 53z" />
    <glyph glyph-name="ae" unicode="&#xe6;" horiz-adv-x="828" 
d="M789 230h-326q17 -120 133 -120q62 0 129 32l48 -101q-40 -25 -90 -39t-102 -14q-70 0 -122 26t-84 76q-42 -53 -87.5 -77t-101.5 -24q-76 0 -118 42t-42 119q0 96 72.5 140.5t232.5 46.5v27q0 75 -99 75q-61 0 -124 -28l-34 104q93 44 183 44q105 0 152 -64
q27 31 67 47.5t88 16.5q110 0 170.5 -69t60.5 -194q0 -37 -6 -66zM462 321h198q-1 57 -27 88t-72 31q-86 0 -99 -119zM341 168q-10 38 -11 79q-92 -1 -133.5 -22t-41.5 -65q0 -57 66 -57q68 0 120 65z" />
    <glyph glyph-name="aeacute" unicode="&#x1fd;" horiz-adv-x="828" 
d="M789 230h-326q17 -120 133 -120q62 0 129 32l48 -101q-40 -25 -90 -39t-102 -14q-70 0 -122 26t-84 76q-42 -53 -87.5 -77t-101.5 -24q-76 0 -118 42t-42 119q0 96 72.5 140.5t232.5 46.5v27q0 75 -99 75q-61 0 -124 -28l-34 104q93 44 183 44q105 0 152 -64
q27 31 67 47.5t88 16.5q110 0 170.5 -69t60.5 -194q0 -37 -6 -66zM462 321h198q-1 57 -27 88t-72 31q-86 0 -99 -119zM341 168q-10 38 -11 79q-92 -1 -133.5 -22t-41.5 -65q0 -57 66 -57q68 0 120 65zM352 625l95 159h141v-10l-132 -159h-104v10z" />
    <glyph glyph-name="uni01E3" unicode="&#x1e3;" horiz-adv-x="828" 
d="M789 230h-326q17 -120 133 -120q62 0 129 32l48 -101q-40 -25 -90 -39t-102 -14q-70 0 -122 26t-84 76q-42 -53 -87.5 -77t-101.5 -24q-76 0 -118 42t-42 119q0 96 72.5 140.5t232.5 46.5v27q0 75 -99 75q-61 0 -124 -28l-34 104q93 44 183 44q105 0 152 -64
q27 31 67 47.5t88 16.5q110 0 170.5 -69t60.5 -194q0 -37 -6 -66zM462 321h198q-1 57 -27 88t-72 31q-86 0 -99 -119zM341 168q-10 38 -11 79q-92 -1 -133.5 -22t-41.5 -65q0 -57 66 -57q68 0 120 65zM262 728h328v-92h-328v92z" />
    <glyph glyph-name="b" unicode="b" horiz-adv-x="581" 
d="M490.5 484.5q51.5 -74.5 51.5 -210.5q0 -137 -52 -212t-146 -75q-48 0 -87 19.5t-62 56.5v-63h-123v513v257h136v-281q49 70 137 70q94 0 145.5 -74.5zM403 269q0 164 -102 164q-26 0 -48 -11t-45 -35v-233q19 -22 44 -33.5t53 -11.5q98 0 98 160z" />
    <glyph glyph-name="b.ss06" horiz-adv-x="581" 
d="M490.5 484.5q51.5 -74.5 51.5 -210.5q0 -137 -52 -212t-146 -75q-48 0 -87 19.5t-62 56.5v-63h-123v513v257h136v-281q49 70 137 70q94 0 145.5 -74.5zM403 269q0 164 -102 164q-26 0 -48 -11t-45 -35v-233q19 -22 44 -33.5t53 -11.5q98 0 98 160z" />
    <glyph glyph-name="uni1E03" unicode="&#x1e03;" horiz-adv-x="581" 
d="M490.5 484.5q51.5 -74.5 51.5 -210.5q0 -137 -52 -212t-146 -75q-48 0 -87 19.5t-62 56.5v-63h-123v513v257h136v-281q49 70 137 70q94 0 145.5 -74.5zM403 269q0 164 -102 164q-26 0 -48 -11t-45 -35v-233q19 -22 44 -33.5t53 -11.5q98 0 98 160zM232.5 853.5
q-21.5 20.5 -21.5 56.5q0 37 21.5 57.5t59.5 20.5t59.5 -20.5t21.5 -56.5q0 -37 -21.5 -57.5t-59.5 -20.5t-59.5 20.5z" />
    <glyph glyph-name="uni1E05" unicode="&#x1e05;" horiz-adv-x="581" 
d="M490.5 484.5q51.5 -74.5 51.5 -210.5q0 -137 -52 -212t-146 -75q-48 0 -87 19.5t-62 56.5v-63h-123v513v257h136v-281q49 70 137 70q94 0 145.5 -74.5zM403 269q0 164 -102 164q-26 0 -48 -11t-45 -35v-233q19 -22 44 -33.5t53 -11.5q98 0 98 160zM242.5 -207.5
q-21.5 20.5 -21.5 56.5q0 37 21.5 57.5t59.5 20.5t59.5 -20.5t21.5 -56.5q0 -37 -21.5 -57.5t-59.5 -20.5t-59.5 20.5z" />
    <glyph glyph-name="uni0253" unicode="&#x253;" horiz-adv-x="581" 
d="M490.5 484.5q51.5 -74.5 51.5 -210.5q0 -137 -52 -212t-146 -75q-48 0 -87 19.5t-62 56.5v-63h-123v403v143v97q0 144 155 144q46 0 83 -15l-19 -108q-32 6 -47 6q-19 0 -27.5 -8.5t-8.5 -28.5v-144q49 70 137 70q94 0 145.5 -74.5zM403 269q0 164 -102 164
q-26 0 -48 -11t-45 -35v-233q19 -22 44 -33.5t53 -11.5q98 0 98 160z" />
    <glyph glyph-name="uni02AD" unicode="&#x2ad;" horiz-adv-x="540" 
d="M58 724v-319h106v197h212v-197h106v319h-424zM58 319v-319h106v197h212v-197h106v319h-424z" />
    <glyph glyph-name="uni0298" unicode="&#x298;" horiz-adv-x="856" 
d="M225.5 33.5q-85.5 46.5 -131.5 135t-46 212.5t46 212.5t131.5 135t202.5 46.5t202.5 -46.5t131.5 -135t46 -212.5t-46 -212.5t-131.5 -135t-202.5 -46.5t-202.5 46.5zM603.5 181q62.5 71 62.5 200t-62.5 200t-175.5 71t-175.5 -71t-62.5 -200t62.5 -200t175.5 -71
t175.5 71zM366.5 324.5q-22.5 21.5 -22.5 58.5q0 38 22 59t62 21q39 0 61.5 -21.5t22.5 -57.5q0 -38 -22 -59.5t-62 -21.5q-39 0 -61.5 21.5z" />
    <glyph glyph-name="uni02AC" unicode="&#x2ac;" horiz-adv-x="576" 
d="M122 405l-101 319h107l53 -220l53 220h109l55 -220l51 220h106l-99 -319h-116l-52 210l-50 -210h-116zM449 319h106l-99 -319h-116l-52 210l-50 -210h-116l-101 319h107l53 -220l53 220h109l55 -220z" />
    <glyph glyph-name="uni1E07" unicode="&#x1e07;" horiz-adv-x="581" 
d="M490.5 484.5q51.5 -74.5 51.5 -210.5q0 -137 -52 -212t-146 -75q-48 0 -87 19.5t-62 56.5v-63h-123v513v257h136v-281q49 70 137 70q94 0 145.5 -74.5zM403 269q0 164 -102 164q-26 0 -48 -11t-45 -35v-233q19 -22 44 -33.5t53 -11.5q98 0 98 160zM138 -96h328v-92h-328
v92z" />
    <glyph glyph-name="uni0180" unicode="&#x180;" horiz-adv-x="583" 
d="M492 470.5q52 -72.5 52 -204.5q0 -133 -52.5 -206t-147.5 -73q-48 0 -87 19.5t-62 56.5v-63h-123v603h-62v93h62v74h136v-74h198v-93h-198v-130q49 70 137 70q95 0 147 -72.5zM405 261q0 156 -104 156q-26 0 -48 -11t-45 -35v-217q19 -22 44 -33.5t53 -11.5
q100 0 100 152z" />
    <glyph glyph-name="uni0183" unicode="&#x183;" horiz-adv-x="581" 
d="M490.5 484.5q51.5 -74.5 51.5 -210.5q0 -137 -52 -212t-146 -75q-48 0 -87 19.5t-62 56.5v-63h-123v513v257h136h264v-108h-264v-173q49 70 137 70q94 0 145.5 -74.5zM403 269q0 164 -102 164q-26 0 -48 -11t-45 -35v-233q19 -22 44 -33.5t53 -11.5q98 0 98 160z" />
    <glyph glyph-name="c" unicode="c" horiz-adv-x="483" 
d="M104 60.5q-69 72.5 -69 204.5q0 88 32 154.5t90.5 103t135.5 36.5q46 0 89.5 -13t75.5 -36l-48 -105q-71 31 -119 31q-56 0 -86.5 -43t-30.5 -121q0 -160 130 -160q57 0 114 30l46 -104q-65 -50 -166 -50q-125 0 -194 72.5z" />
    <glyph glyph-name="c.ss06" horiz-adv-x="483" 
d="M104 60.5q-69 72.5 -69 204.5q0 88 32 154.5t90.5 103t135.5 36.5q46 0 89.5 -13t75.5 -36l-48 -105q-71 31 -119 31q-56 0 -86.5 -43t-30.5 -121q0 -160 130 -160q57 0 114 30l46 -104q-65 -50 -166 -50q-125 0 -194 72.5z" />
    <glyph glyph-name="cacute" unicode="&#x107;" horiz-adv-x="483" 
d="M104 60.5q-69 72.5 -69 204.5q0 88 32 154.5t90.5 103t135.5 36.5q46 0 89.5 -13t75.5 -36l-48 -105q-71 31 -119 31q-56 0 -86.5 -43t-30.5 -121q0 -160 130 -160q57 0 114 30l46 -104q-65 -50 -166 -50q-125 0 -194 72.5zM193 625l95 159h141v-10l-132 -159h-104v10z
" />
    <glyph glyph-name="uniA793" unicode="&#xa793;" horiz-adv-x="483" 
d="M464 38q-65 -50 -166 -50q-118 0 -186 64t-76 181h-60v93h63q16 107 84 170t170 63q46 0 89.5 -13t75.5 -36l-48 -105q-71 31 -119 31q-45 0 -74 -28.5t-38 -81.5h114v-93h-117q15 -121 128 -121q57 0 114 30z" />
    <glyph glyph-name="ccaron" unicode="&#x10d;" horiz-adv-x="483" 
d="M104 60.5q-69 72.5 -69 204.5q0 88 32 154.5t90.5 103t135.5 36.5q46 0 89.5 -13t75.5 -36l-48 -105q-71 31 -119 31q-56 0 -86.5 -43t-30.5 -121q0 -160 130 -160q57 0 114 30l46 -104q-65 -50 -166 -50q-125 0 -194 72.5zM431 784v-10l-102 -159h-124l-102 159v10h95
l70 -88l71 88h92z" />
    <glyph glyph-name="ccedilla" unicode="&#xe7;" horiz-adv-x="483" 
d="M370.5 -71.5q29.5 -22.5 29.5 -63.5q0 -50 -36 -77.5t-102 -27.5q-68 0 -122 26l21 62q53 -17 86 -17q49 0 49 31q0 29 -43 29q-21 0 -39 -7l-30 34l33 79q-88 22 -135 91t-47 177q0 88 32 154.5t90.5 103t135.5 36.5q46 0 89.5 -13t75.5 -36l-48 -105q-71 31 -119 31
q-56 0 -86.5 -43t-30.5 -121q0 -160 130 -160q57 0 114 30l46 -104q-65 -50 -166 -50h-3l-29 -39q14 2 21 2q54 0 83.5 -22.5z" />
    <glyph glyph-name="uni1E09" unicode="&#x1e09;" horiz-adv-x="483" 
d="M297 615h-104v10l95 159h141v-10zM370.5 -71.5q29.5 -22.5 29.5 -63.5q0 -50 -36 -77.5t-102 -27.5q-68 0 -122 26l21 62q53 -17 86 -17q49 0 49 31q0 29 -43 29q-21 0 -39 -7l-30 34l33 79q-88 22 -135 91t-47 177q0 88 32 154.5t90.5 103t135.5 36.5q46 0 89.5 -13
t75.5 -36l-48 -105q-71 31 -119 31q-56 0 -86.5 -43t-30.5 -121q0 -160 130 -160q57 0 114 30l46 -104q-65 -50 -166 -50h-3l-29 -39q14 2 21 2q54 0 83.5 -22.5z" />
    <glyph glyph-name="ccircumflex" unicode="&#x109;" horiz-adv-x="483" 
d="M104 60.5q-69 72.5 -69 204.5q0 88 32 154.5t90.5 103t135.5 36.5q46 0 89.5 -13t75.5 -36l-48 -105q-71 31 -119 31q-56 0 -86.5 -43t-30.5 -121q0 -160 130 -160q57 0 114 30l46 -104q-65 -50 -166 -50q-125 0 -194 72.5zM431 625v-10h-95l-71 88l-70 -88h-92v10
l102 159h124z" />
    <glyph glyph-name="uni0255" unicode="&#x255;" horiz-adv-x="508" 
d="M463 279.5q36 -39.5 36 -110.5q0 -86 -53.5 -133.5t-151.5 -47.5q-68 0 -124 28l-64 -98l-71 47l67 103q-33 36 -50 86.5t-17 110.5q0 88 32 154.5t90.5 103t135.5 36.5q46 0 89.5 -13t75.5 -36l-48 -105q-71 31 -119 31q-56 0 -86.5 -43t-30.5 -121q0 -48 10 -79
q43 66 85 96t92 30q66 0 102 -39.5zM357.5 126.5q20.5 16.5 20.5 45.5q0 20 -9.5 31.5t-27.5 11.5q-22 0 -42.5 -16.5t-43.5 -52.5l-15 -23q25 -13 60 -13q37 0 57.5 16.5z" />
    <glyph glyph-name="cdotaccent" unicode="&#x10b;" horiz-adv-x="483" 
d="M104 60.5q-69 72.5 -69 204.5q0 88 32 154.5t90.5 103t135.5 36.5q46 0 89.5 -13t75.5 -36l-48 -105q-71 31 -119 31q-56 0 -86.5 -43t-30.5 -121q0 -160 130 -160q57 0 114 30l46 -104q-65 -50 -166 -50q-125 0 -194 72.5zM207.5 637.5q-21.5 20.5 -21.5 56.5
q0 37 21.5 57.5t59.5 20.5t59.5 -20.5t21.5 -56.5q0 -37 -21.5 -57.5t-59.5 -20.5t-59.5 20.5z" />
    <glyph glyph-name="uni0188" unicode="&#x188;" horiz-adv-x="574" 
d="M575 685v-109q-33 3 -48 3q-35 0 -52 -17.5t-17 -53.5v-103h-48q-71 31 -119 31q-56 0 -86.5 -43t-30.5 -121q0 -160 130 -160q57 0 114 30l46 -104q-65 -50 -166 -50q-125 0 -194 72.5t-69 204.5q0 88 32 154.5t90.5 103t135.5 36.5q25 0 55 -5q12 65 58.5 100t121.5 35
q26 0 47 -4z" />
    <glyph glyph-name="uniA76F" unicode="&#xa76f;" horiz-adv-x="570" 
d="M114 -113q67 14 110.5 29.5t73.5 35.5q37 25 57 58t28.5 85t8.5 138q0 205 -110 205q-104 0 -104 -130q0 -136 111 -136q19 0 43 3v-119q-28 -4 -62 -4q-110 0 -170.5 65.5t-60.5 184.5q0 122 64 189.5t180 67.5q248 0 248 -323q0 -105 -15 -173.5t-46 -113.5t-84 -81
q-101 -67 -249 -88z" />
    <glyph glyph-name="uni2184" unicode="&#x2184;" horiz-adv-x="483" 
d="M19 38l46 104q57 -30 114 -30q130 0 130 160q0 78 -30.5 121t-86.5 43q-48 0 -119 -31l-48 105q32 23 75.5 36t89.5 13q77 0 135.5 -36.5t90.5 -103t32 -154.5q0 -132 -69 -204.5t-194 -72.5q-101 0 -166 50z" />
    <glyph glyph-name="uniA73F" unicode="&#xa73f;" horiz-adv-x="483" 
d="M19 38l46 104q57 -30 114 -30q130 0 130 160q0 78 -30.5 121t-86.5 43q-48 0 -119 -31l-48 105q32 23 75.5 36t89.5 13q77 0 135.5 -36.5t90.5 -103t32 -154.5q0 -132 -69 -204.5t-194 -72.5q-101 0 -166 50zM100.5 219.5q-21.5 20.5 -21.5 56.5q0 37 21.5 57.5
t59.5 20.5t59.5 -20.5t21.5 -56.5q0 -37 -21.5 -57.5t-59.5 -20.5t-59.5 20.5z" />
    <glyph glyph-name="uni0297" unicode="&#x297;" horiz-adv-x="500" 
d="M103 -125q-68 95 -68 286q0 190 70 294t198 104q48 0 93 -14t79 -40l-51 -106q-72 36 -123 36q-127 0 -127 -267q0 -138 33.5 -200.5t106.5 -62.5q62 0 118 35l49 -105q-33 -26 -78 -40.5t-95 -14.5q-137 0 -205 95z" />
    <glyph glyph-name="uni023C" unicode="&#x23c;" horiz-adv-x="483" 
d="M298 -12q-50 0 -92 12l-37 -110h-81l49 142q-50 35 -76 94t-26 139q0 88 32 154.5t90.5 103t135.5 36.5q15 0 23 -1l32 95h81l-37 -110q39 -13 66 -33l-48 -105q-32 14 -58 21l-104 -304q23 -10 56 -10q57 0 114 30l46 -104q-65 -50 -166 -50zM188 184l86 251
q-48 -7 -74 -49t-26 -114q0 -52 14 -88z" />
    <glyph glyph-name="uniA72D" unicode="&#xa72d;" horiz-adv-x="527" 
d="M455 546v-546v-63q0 -155 -165 -155q-46 0 -83 15l19 110q28 -7 55 -7q20 0 29 11t9 36v53h-302v117l244 429h194zM319 423l-160 -306h160v306z" />
    <glyph glyph-name="uniA72F" unicode="&#xa72f;" horiz-adv-x="734" 
d="M455 546v-546v-63q0 -155 -165 -155q-46 0 -83 15l19 110q28 -7 55 -7q20 0 29 11t9 36v53h-302v117l244 429h194zM319 423l-160 -306h160v306zM482 -128q39 42 55 82.5t16 98.5q0 37 -6 79h132q6 -39 6 -77q0 -72 -35 -130t-112 -113z" />
    <glyph glyph-name="d" unicode="d" horiz-adv-x="581" 
d="M509 770v-737v-33h-123v78q-51 -91 -150 -91q-94 0 -145.5 74.5t-51.5 210.5q0 137 52 212t146 75q42 0 77 -15t59 -43v269h136zM328 124q22 11 45 35v233q-19 22 -44 33.5t-53 11.5q-98 0 -98 -160q0 -164 102 -164q26 0 48 11z" />
    <glyph glyph-name="d.ss06" horiz-adv-x="581" 
d="M509 770v-737v-33h-123v78q-51 -91 -150 -91q-94 0 -145.5 74.5t-51.5 210.5q0 137 52 212t146 75q42 0 77 -15t59 -43v269h136zM328 124q22 11 45 35v233q-19 22 -44 33.5t-53 11.5q-98 0 -98 -160q0 -164 102 -164q26 0 48 11z" />
    <glyph glyph-name="eth" unicode="&#xf0;" horiz-adv-x="563" 
d="M484.5 515.5q39.5 -92.5 39.5 -219.5q0 -155 -61 -232t-184 -77q-118 0 -181.5 70t-63.5 207q0 129 59.5 200t168.5 71q65 0 105 -37q-33 71 -101 125l-118 -71l-40 70l89 45q-34 17 -70 30l-28 10l30 85l28 -10q77 -27 136 -61l104 64l40 -70l-76 -40
q84 -67 123.5 -159.5zM386 273q0 70 -28 108.5t-78 38.5q-107 0 -107 -156t106 -156q107 0 107 165z" />
    <glyph glyph-name="uni0238" unicode="&#x238;" horiz-adv-x="882" 
d="M791.5 484.5q51.5 -74.5 51.5 -210.5q0 -137 -52 -212t-146 -75q-48 0 -87 19.5t-62 56.5v-63h-110v78q-51 -91 -150 -91q-94 0 -145.5 74.5t-51.5 210.5q0 137 52 212t146 75q42 0 77 -15t59 -43v269h136v-281q49 70 137 70q94 0 145.5 -74.5zM328 124q22 11 45 35v233
q-19 22 -44 33.5t-53 11.5q-98 0 -98 -160q0 -164 102 -164q26 0 48 11zM704 269q0 164 -102 164q-26 0 -48 -11t-45 -35v-233q19 -22 44 -33.5t53 -11.5q98 0 98 160z" />
    <glyph glyph-name="dcaron" unicode="&#x10f;" horiz-adv-x="581" 
d="M373 770h136v-737v-33h-123v78q-51 -91 -150 -91q-94 0 -145.5 74.5t-51.5 210.5q0 137 52 212t146 75q42 0 77 -15t59 -43v269zM671 770v-10l-34 -220h-78v230h112zM328 124q22 11 45 35v233q-19 22 -44 33.5t-53 11.5q-98 0 -98 -160q0 -164 102 -164q26 0 48 11z" />
    <glyph glyph-name="uni1E11" unicode="&#x1e11;" horiz-adv-x="581" 
d="M509 770v-737v-33h-123v78q-51 -91 -150 -91q-94 0 -145.5 74.5t-51.5 210.5q0 137 52 212t146 75q42 0 77 -15t59 -43v269h136zM328 124q22 11 45 35v233q-19 22 -44 33.5t-53 11.5q-98 0 -98 -160q0 -164 102 -164q26 0 48 11zM187 -238q25 27 35 54.5t10 67.5
q0 24 -4 50h124q4 -26 4 -49q0 -48 -28.5 -90t-91.5 -86z" />
    <glyph glyph-name="uni1E13" unicode="&#x1e13;" horiz-adv-x="581" 
d="M509 770v-737v-33h-123v78q-51 -91 -150 -91q-94 0 -145.5 74.5t-51.5 210.5q0 137 52 212t146 75q42 0 77 -15t59 -43v269h136zM328 124q22 11 45 35v233q-19 22 -44 33.5t-53 11.5q-98 0 -98 -160q0 -164 102 -164q26 0 48 11zM474 -217v-12h-101l-83 76l-82 -76h-98
v12l117 133h130z" />
    <glyph glyph-name="dcroat" unicode="&#x111;" horiz-adv-x="583" 
d="M573 607h-62v-607h-123v78q-51 -91 -150 -91q-95 0 -147 72.5t-52 204.5q0 133 52.5 206t147.5 73q42 0 77 -15t59 -43v122h-193v85h193v78h136v-78h62v-85zM330 124q22 11 45 35v217q-19 22 -44 33.5t-53 11.5q-100 0 -100 -152q0 -156 104 -156q26 0 48 11z" />
    <glyph glyph-name="uni0221" unicode="&#x221;" horiz-adv-x="581" 
d="M635 -17q33 -31 33 -87q0 -59 -37 -91.5t-104 -32.5q-57 0 -92.5 23.5t-44.5 66.5q-5 -3 -15 -11l-74 -57l-47 64l77 59q35 26 44 32v111q-49 -73 -139 -73q-94 0 -145.5 74.5t-51.5 210.5q0 137 52 212t146 75q42 0 77 -15t59 -43v269h136v-669v-90q17 3 34 3
q59 0 92 -31zM328 124q22 11 45 35v233q-19 22 -44 33.5t-53 11.5q-98 0 -98 -160q0 -164 102 -164q26 0 48 11zM568 -106q0 38 -36 38q-13 0 -31 -6v-27q0 -40 35 -40q32 0 32 35z" />
    <glyph glyph-name="uni1E0B" unicode="&#x1e0b;" horiz-adv-x="581" 
d="M509 770v-737v-33h-123v78q-51 -91 -150 -91q-94 0 -145.5 74.5t-51.5 210.5q0 137 52 212t146 75q42 0 77 -15t59 -43v269h136zM328 124q22 11 45 35v233q-19 22 -44 33.5t-53 11.5q-98 0 -98 -160q0 -164 102 -164q26 0 48 11zM222.5 853.5q-21.5 20.5 -21.5 56.5
q0 37 21.5 57.5t59.5 20.5t59.5 -20.5t21.5 -56.5q0 -37 -21.5 -57.5t-59.5 -20.5t-59.5 20.5z" />
    <glyph glyph-name="uni1E0D" unicode="&#x1e0d;" horiz-adv-x="581" 
d="M509 770v-737v-33h-123v78q-51 -91 -150 -91q-94 0 -145.5 74.5t-51.5 210.5q0 137 52 212t146 75q42 0 77 -15t59 -43v269h136zM328 124q22 11 45 35v233q-19 22 -44 33.5t-53 11.5q-98 0 -98 -160q0 -164 102 -164q26 0 48 11zM232.5 -207.5q-21.5 20.5 -21.5 56.5
q0 37 21.5 57.5t59.5 20.5t59.5 -20.5t21.5 -56.5q0 -37 -21.5 -57.5t-59.5 -20.5t-59.5 20.5z" />
    <glyph glyph-name="uni1E9F" unicode="&#x1e9f;" horiz-adv-x="556" 
d="M138 23q-54 35 -80 92t-26 125q0 88 33 156.5t120 104.5q-39 26 -55.5 56t-16.5 68q0 79 57 120t150 41q58 0 100.5 -13.5t77.5 -33.5l-45 -103q-35 15 -67 24t-70 9q-34 0 -51 -13t-17 -34q0 -20 15.5 -34.5t71.5 -52.5q66 -45 101.5 -76.5t58 -83.5t22.5 -133
q0 -60 -23.5 -118t-78.5 -97t-143 -39q-80 0 -134 35zM350.5 140.5q27.5 42.5 27.5 111.5t-25 110t-78 70q-42 -14 -72.5 -59t-30.5 -121q0 -67 24 -110.5t78 -43.5q49 0 76.5 42.5z" />
    <glyph glyph-name="uni018D" unicode="&#x18d;" horiz-adv-x="563" 
d="M78 -173l45 103q68 -33 127 -33q68 0 68 46q0 17 -12 28.5t-49 35.5l-36 24q-66 45 -101.5 76.5t-58 81t-22.5 125.5q0 55 24 111t79 94.5t142 38.5q80 0 134 -34t80 -89.5t26 -118.5q0 -81 -33.5 -148.5t-119.5 -102.5q45 -30 63.5 -58.5t18.5 -67.5q0 -76 -54 -117.5
t-153 -41.5q-100 0 -168 47zM353.5 191.5q30.5 43.5 30.5 112.5q0 60 -24.5 102t-77.5 42q-49 0 -76.5 -41t-27.5 -103t25 -101.5t78 -68.5q42 14 72.5 57.5z" />
    <glyph glyph-name="uni02A4" unicode="&#x2a4;" horiz-adv-x="984" 
d="M903.5 167.5q56.5 -49.5 56.5 -151.5q0 -76 -37.5 -129.5t-100 -80t-137.5 -26.5q-57 0 -106 9.5t-94 32.5l47 105q68 -33 142 -33q69 0 108 31.5t39 93.5q0 119 -172 119h-50v96l167 197h-255h-2v-431h-123v78q-51 -91 -150 -91q-94 0 -145.5 74.5t-51.5 210.5
q0 137 52 212t146 75q42 0 77 -15t59 -43v269h136v-224h43h368v-115l-172 -202q99 -12 155.5 -61.5zM328 124q22 11 45 35v233q-19 22 -44 33.5t-53 11.5q-98 0 -98 -160q0 -164 102 -164q26 0 48 11z" />
    <glyph glyph-name="uni0257" unicode="&#x257;" horiz-adv-x="600" 
d="M611 772l-19 -108q-32 6 -47 6q-19 0 -27.5 -8.5t-8.5 -28.5v-150v-450v-33h-123v78q-51 -91 -150 -91q-94 0 -145.5 74.5t-51.5 210.5q0 137 52 212t146 75q42 0 77 -15t59 -43v142q0 144 155 144q46 0 83 -15zM328 124q22 11 45 35v233q-19 22 -44 33.5t-53 11.5
q-98 0 -98 -160q0 -164 102 -164q26 0 48 11z" />
    <glyph glyph-name="uniA77A" unicode="&#xa77a;" horiz-adv-x="579" 
d="M540 277q0 -138 -65.5 -214t-185.5 -76q-119 0 -184.5 70.5t-65.5 198.5q0 238 234 281q-68 47 -172 75l-101 28l32 104l113 -31q395 -108 395 -436zM401 271q0 104 -42 177q-95 -15 -138 -62t-43 -136q0 -142 111 -142q112 0 112 163z" />
    <glyph glyph-name="uni1E0F" unicode="&#x1e0f;" horiz-adv-x="581" 
d="M509 770v-737v-33h-123v78q-51 -91 -150 -91q-94 0 -145.5 74.5t-51.5 210.5q0 137 52 212t146 75q42 0 77 -15t59 -43v269h136zM328 124q22 11 45 35v233q-19 22 -44 33.5t-53 11.5q-98 0 -98 -160q0 -164 102 -164q26 0 48 11zM128 -96h328v-92h-328v92z" />
    <glyph glyph-name="uni0256" unicode="&#x256;" horiz-adv-x="581" 
d="M611 -200q-37 -15 -83 -15q-155 0 -155 144v128q-49 -70 -137 -70q-94 0 -145.5 74.5t-51.5 210.5q0 137 52 212t146 75q42 0 77 -15t59 -43v269h136v-601v-169v-61q0 -20 8.5 -28.5t27.5 -8.5q15 0 47 6zM328 124q22 11 45 35v233q-19 22 -44 33.5t-53 11.5
q-98 0 -98 -160q0 -164 102 -164q26 0 48 11z" />
    <glyph glyph-name="uni018C" unicode="&#x18c;" horiz-adv-x="581" 
d="M509 33v-33h-123v78q-51 -91 -150 -91q-94 0 -145.5 74.5t-51.5 210.5q0 137 52 212t146 75q42 0 77 -15t59 -43v161h-264v108h400v-737zM328 124q22 11 45 35v233q-19 22 -44 33.5t-53 11.5q-98 0 -98 -160q0 -164 102 -164q26 0 48 11z" />
    <glyph glyph-name="uniA771" unicode="&#xa771;" horiz-adv-x="701" 
d="M627 117h55v-117h-82l-41 -178h-83l41 178h-36h-95v78q-51 -91 -150 -91q-94 0 -145.5 74.5t-51.5 210.5q0 137 52 212t146 75q42 0 77 -15t59 -43v269h136v-653h35l67 294h83zM328 124q22 11 45 35v233q-19 22 -44 33.5t-53 11.5q-98 0 -98 -160q0 -164 102 -164
q26 0 48 11z" />
    <glyph glyph-name="uni01F3" unicode="&#x1f3;" horiz-adv-x="1053" 
d="M509 770v-737v-33h-123v78q-51 -91 -150 -91q-94 0 -145.5 74.5t-51.5 210.5q0 137 52 212t146 75q42 0 77 -15t59 -43v269h136zM328 124q22 11 45 35v233q-19 22 -44 33.5t-53 11.5q-98 0 -98 -160q0 -164 102 -164q26 0 48 11zM1023 115v-115h-414v115l256 316h-246
v115h398v-115l-256 -316h262z" />
    <glyph glyph-name="uni02A3" unicode="&#x2a3;" horiz-adv-x="952" 
d="M922 115v-115h-414h-122v78q-51 -91 -150 -91q-94 0 -145.5 74.5t-51.5 210.5q0 137 52 212t146 75q42 0 77 -15t59 -43v269h136v-224h43h364v-115l-256 -316h262zM328 124q22 11 45 35v233q-19 22 -44 33.5t-53 11.5q-98 0 -98 -160q0 -164 102 -164q26 0 48 11z
M509 116l255 315h-255v-315z" />
    <glyph glyph-name="uni01C6" unicode="&#x1c6;" horiz-adv-x="1053" 
d="M509 770v-737v-33h-123v78q-51 -91 -150 -91q-94 0 -145.5 74.5t-51.5 210.5q0 137 52 212t146 75q42 0 77 -15t59 -43v269h136zM328 124q22 11 45 35v233q-19 22 -44 33.5t-53 11.5q-98 0 -98 -160q0 -164 102 -164q26 0 48 11zM1023 115v-115h-414v115l256 316h-246
v115h398v-115l-256 -316h262zM978 784v-10l-102 -159h-124l-102 159v10h95l70 -88l71 88h92z" />
    <glyph glyph-name="uni02A5" unicode="&#x2a5;" horiz-adv-x="1051" 
d="M1022 259.5q33 -33.5 33 -94.5q0 -79 -54 -122t-152 -43h-74l-63 -113l-82 43l39 70h-161h-122v78q-51 -91 -150 -91q-94 0 -145.5 74.5t-51.5 210.5q0 137 52 212t146 75q42 0 77 -15t59 -43v269h136v-224h43h364v-115l-257 -318h72l32 57q36 65 75.5 94t91.5 29
q59 0 92 -33.5zM328 124q22 11 45 35v233q-19 22 -44 33.5t-53 11.5q-98 0 -98 -160q0 -164 102 -164q26 0 48 11zM509 116l255 315h-255v-315zM940 161q0 28 -28 28q-18 0 -33 -14t-34 -48l-8 -14h23q80 0 80 48z" />
    <glyph glyph-name="e" unicode="e" horiz-adv-x="546" 
d="M507 230h-332q17 -120 136 -120q66 0 132 32l48 -101q-40 -25 -91 -39t-104 -14q-124 0 -191.5 74.5t-67.5 210.5q0 137 63.5 211.5t178.5 74.5q112 0 173 -69t61 -194q0 -37 -6 -66zM174 321h204q-2 57 -28.5 88t-73.5 31q-89 0 -102 -119z" />
    <glyph glyph-name="e.ss07" horiz-adv-x="546" 
d="M507 230h-332q17 -120 136 -120q66 0 132 32l48 -101q-40 -25 -91 -39t-104 -14q-124 0 -191.5 74.5t-67.5 210.5q0 137 63.5 211.5t178.5 74.5q112 0 173 -69t61 -194q0 -37 -6 -66zM174 321h204q-2 57 -28.5 88t-73.5 31q-89 0 -102 -119z" />
    <glyph glyph-name="uni1D08" unicode="&#x1d08;" horiz-adv-x="489" 
d="M414 209q21 -29 21 -67q0 -78 -61 -116.5t-150 -38.5q-99 0 -182 39l37 103q64 -31 126 -31q91 0 91 64q0 30 -21.5 44t-66.5 14h-90v96h96q54 0 79 12t25 46q0 70 -108 70q-39 0 -77.5 -9t-69.5 -24l-47 105q35 21 93.5 31.5t112.5 10.5q112 0 173.5 -45.5t61.5 -130.5
q0 -50 -28.5 -81.5t-73.5 -45.5q38 -17 59 -46z" />
    <glyph glyph-name="eacute" unicode="&#xe9;" horiz-adv-x="546" 
d="M507 230h-332q17 -120 136 -120q66 0 132 32l48 -101q-40 -25 -91 -39t-104 -14q-124 0 -191.5 74.5t-67.5 210.5q0 137 63.5 211.5t178.5 74.5q112 0 173 -69t61 -194q0 -37 -6 -66zM174 321h204q-2 57 -28.5 88t-73.5 31q-89 0 -102 -119zM204 625l95 159h141v-10
l-132 -159h-104v10z" />
    <glyph glyph-name="ebreve" unicode="&#x115;" horiz-adv-x="546" 
d="M507 230h-332q17 -120 136 -120q66 0 132 32l48 -101q-40 -25 -91 -39t-104 -14q-124 0 -191.5 74.5t-67.5 210.5q0 137 63.5 211.5t178.5 74.5q112 0 173 -69t61 -194q0 -37 -6 -66zM174 321h204q-2 57 -28.5 88t-73.5 31q-89 0 -102 -119zM161 653.5
q-42 43.5 -45 126.5h78q10 -73 85 -73q76 0 86 73h75q-3 -83 -45 -126.5t-117 -43.5t-117 43.5z" />
    </font>
</defs>
</svg>
